//Event file generated from Sappy .s format.
	#include "MPlayDef.event"

	#define	DragonBattle_grp  voicegroup000
	#define	DragonBattle_pri  0
	#define	DragonBattle_rev  0
	#define	DragonBattle_mvl  85
	#define	DragonBattle_key  0
	#define	DragonBattle_tbs  1
	#define	DragonBattle_exg  0
	#define	DragonBattle_cmp  1

	// .rodata
	//	DragonBattle
	ALIGN 4

//**************** Track 1 (Midi-Chn.1) ****************//

DragonBattle_1:
	BYTE	KEYSH   DragonBattle_key+0
DragonBattle_1_B1:
// 000   ----------------------------------------
	BYTE	TEMPO   159*DragonBattle_tbs/2
	BYTE		VOICE   73
	BYTE	W12
	BYTE		VOL     36*DragonBattle_mvl/mxv
	BYTE		PAN     c_v-48
	BYTE	W12
	BYTE		N11     Cn5   v116
	BYTE	W12
	BYTE		        Dn5 
	BYTE	W12
	BYTE		        Cn5 
	BYTE	W12
	BYTE		        Gn5 
	BYTE	W12
	BYTE		        Cn5 
	BYTE	W12
	BYTE		        Dn5 
	BYTE	W12
// 001   ----------------------------------------
DragonBattle_1_001:
	BYTE		N11     Cn5   v116
	BYTE	W12
	BYTE		        Gn5 
	BYTE	W12
	BYTE		        Cn5 
	BYTE	W12
	BYTE		        Dn5 
	BYTE	W12
	BYTE		        Cn5 
	BYTE	W12
	BYTE		        Gn5 
	BYTE	W12
	BYTE		        Cn5 
	BYTE	W12
	BYTE		        Dn5 
	BYTE	W12
	BYTE	PEND
// 002   ----------------------------------------
DragonBattle_1_002:
	BYTE		N11     Cn5   v116
	BYTE	W24
	BYTE		N11   
	BYTE	W12
	BYTE		        Dn5 
	BYTE	W12
	BYTE		        Cn5 
	BYTE	W12
	BYTE		        An5 
	BYTE	W12
	BYTE		        Cn5 
	BYTE	W12
	BYTE		        Dn5 
	BYTE	W12
	BYTE	PEND
// 003   ----------------------------------------
DragonBattle_1_003:
	BYTE		N11     Cn5   v116
	BYTE	W12
	BYTE		        An5 
	BYTE	W12
	BYTE		        Cn5 
	BYTE	W12
	BYTE		        Dn5 
	BYTE	W12
	BYTE		        Cn5 
	BYTE	W12
	BYTE		        An5 
	BYTE	W12
	BYTE		        Cn5 
	BYTE	W12
	BYTE		        Dn5 
	BYTE	W12
	BYTE	PEND
// 004   ----------------------------------------
DragonBattle_1_004:
	BYTE		N11     Cn5   v116
	BYTE	W24
	BYTE		        Cs5 
	BYTE	W12
	BYTE		        Ds5 
	BYTE	W12
	BYTE		        Cs5 
	BYTE	W12
	BYTE		        Gs5 
	BYTE	W12
	BYTE		        Cs5 
	BYTE	W12
	BYTE		        Ds5 
	BYTE	W12
	BYTE	PEND
// 005   ----------------------------------------
DragonBattle_1_005:
	BYTE		N11     Cs5   v116
	BYTE	W12
	BYTE		        Gs5 
	BYTE	W12
	BYTE		        Cs5 
	BYTE	W12
	BYTE		        Ds5 
	BYTE	W12
	BYTE		        Cs5 
	BYTE	W12
	BYTE		        Gs5 
	BYTE	W12
	BYTE		        Cs5 
	BYTE	W12
	BYTE		        Ds5 
	BYTE	W12
	BYTE	PEND
// 006   ----------------------------------------
DragonBattle_1_006:
	BYTE		N11     Cs5   v116
	BYTE	W24
	BYTE		        Cn5 
	BYTE	W12
	BYTE		        Dn5 
	BYTE	W12
	BYTE		        Cn5 
	BYTE	W12
	BYTE		        Gn5 
	BYTE	W12
	BYTE		        Cn5 
	BYTE	W12
	BYTE		        Dn5 
	BYTE	W12
	BYTE	PEND
// 007   ----------------------------------------
	BYTE	PATT
	 POIN2	DragonBattle_1_001
// 008   ----------------------------------------
	BYTE		N11     Cn5   v116
	BYTE	W24
	BYTE		N11   
	BYTE	W12
	BYTE		        Dn5 
	BYTE	W12
	BYTE		        Cn5 
	BYTE	W12
	BYTE		        Gn5 
	BYTE	W12
	BYTE		        Cn5 
	BYTE	W12
	BYTE		        Dn5 
	BYTE	W12
// 009   ----------------------------------------
	BYTE	PATT
	 POIN2	DragonBattle_1_001
// 010   ----------------------------------------
	BYTE	PATT
	 POIN2	DragonBattle_1_002
// 011   ----------------------------------------
	BYTE	PATT
	 POIN2	DragonBattle_1_003
// 012   ----------------------------------------
	BYTE	PATT
	 POIN2	DragonBattle_1_004
// 013   ----------------------------------------
	BYTE	PATT
	 POIN2	DragonBattle_1_005
// 014   ----------------------------------------
	BYTE	PATT
	 POIN2	DragonBattle_1_006
// 015   ----------------------------------------
	BYTE	PATT
	 POIN2	DragonBattle_1_001
// 016   ----------------------------------------
	BYTE		N11     Cn5   v116
	BYTE	W12
	BYTE		VOICE   34
	BYTE		VOL     76*DragonBattle_mvl/mxv
	BYTE		PAN     c_v+0
	BYTE	W24
	BYTE	W03
	BYTE		VOICE   19
	BYTE	W21
	BYTE		N44     Gn4 
	BYTE	W36
// 017   ----------------------------------------
	BYTE	W12
	BYTE		N92     Fs4 
	BYTE	W84
// 018   ----------------------------------------
	BYTE	W60
	BYTE		N44     Fn4 
	BYTE	W36
// 019   ----------------------------------------
	BYTE	W12
	BYTE		N92     En4 
	BYTE	W84
// 020   ----------------------------------------
	BYTE	W60
	BYTE		N44     Gn4 
	BYTE	W36
// 021   ----------------------------------------
	BYTE	W12
	BYTE		N92     Fs4 
	BYTE	W84
// 022   ----------------------------------------
	BYTE	W60
	BYTE		N44     Fn4 
	BYTE	W36
// 023   ----------------------------------------
	BYTE	W12
	BYTE		N92     En4 
	BYTE	W84
// 024   ----------------------------------------
DragonBattle_1_024:
	BYTE	W12
	BYTE		VOICE   33
	BYTE		VOL     71*DragonBattle_mvl/mxv
	BYTE		N05     En3   v116
	BYTE	W12
	BYTE		VOL     56*DragonBattle_mvl/mxv
	BYTE		N05   
	BYTE	W12
	BYTE		N05   
	BYTE	W12
	BYTE		VOL     71*DragonBattle_mvl/mxv
	BYTE		N05   
	BYTE	W12
	BYTE		VOL     56*DragonBattle_mvl/mxv
	BYTE		N05   
	BYTE	W12
	BYTE		N05   
	BYTE	W12
	BYTE		N05   
	BYTE	W12
	BYTE	PEND
// 025   ----------------------------------------
DragonBattle_1_025:
	BYTE		N05     En3   v116
	BYTE	W12
	BYTE		N05   
	BYTE	W12
	BYTE		VOL     71*DragonBattle_mvl/mxv
	BYTE		N05     Dn3 
	BYTE	W12
	BYTE		VOL     56*DragonBattle_mvl/mxv
	BYTE		N05   
	BYTE	W12
	BYTE		N05   
	BYTE	W12
	BYTE		VOL     71*DragonBattle_mvl/mxv
	BYTE		N05   
	BYTE	W12
	BYTE		VOL     56*DragonBattle_mvl/mxv
	BYTE		N05   
	BYTE	W12
	BYTE		VOL     71*DragonBattle_mvl/mxv
	BYTE		N05   
	BYTE	W12
	BYTE	PEND
// 026   ----------------------------------------
DragonBattle_1_026:
	BYTE		VOL     56*DragonBattle_mvl/mxv
	BYTE		N05     Dn3   v116
	BYTE	W12
	BYTE		VOL     71*DragonBattle_mvl/mxv
	BYTE		N05     En3 
	BYTE	W12
	BYTE		VOL     56*DragonBattle_mvl/mxv
	BYTE		N05   
	BYTE	W12
	BYTE		N05   
	BYTE	W12
	BYTE		VOL     71*DragonBattle_mvl/mxv
	BYTE		N05   
	BYTE	W12
	BYTE		VOL     56*DragonBattle_mvl/mxv
	BYTE		N05   
	BYTE	W12
	BYTE		N05   
	BYTE	W12
	BYTE		VOL     71*DragonBattle_mvl/mxv
	BYTE		N05   
	BYTE	W12
	BYTE	PEND
// 027   ----------------------------------------
DragonBattle_1_027:
	BYTE		VOL     56*DragonBattle_mvl/mxv
	BYTE		N05     En3   v116
	BYTE	W12
	BYTE		N05   
	BYTE	W12
	BYTE		VOL     71*DragonBattle_mvl/mxv
	BYTE		N05     Gn3 
	BYTE	W12
	BYTE		VOL     56*DragonBattle_mvl/mxv
	BYTE		N05   
	BYTE	W06
	BYTE		N05   
	BYTE	W18
	BYTE		VOL     71*DragonBattle_mvl/mxv
	BYTE		N05   
	BYTE	W12
	BYTE		VOL     56*DragonBattle_mvl/mxv
	BYTE		N05   
	BYTE	W12
	BYTE		VOL     71*DragonBattle_mvl/mxv
	BYTE		N05   
	BYTE	W12
	BYTE	PEND
// 028   ----------------------------------------
DragonBattle_1_028:
	BYTE		VOL     56*DragonBattle_mvl/mxv
	BYTE		N05     Gn3   v116
	BYTE	W12
	BYTE		VOL     71*DragonBattle_mvl/mxv
	BYTE		N05     En3 
	BYTE	W12
	BYTE		VOL     56*DragonBattle_mvl/mxv
	BYTE		N05   
	BYTE	W12
	BYTE		N05   
	BYTE	W12
	BYTE		VOL     71*DragonBattle_mvl/mxv
	BYTE		N05   
	BYTE	W12
	BYTE		VOL     56*DragonBattle_mvl/mxv
	BYTE		N05   
	BYTE	W12
	BYTE		N05   
	BYTE	W12
	BYTE		N05   
	BYTE	W12
	BYTE	PEND
// 029   ----------------------------------------
DragonBattle_1_029:
	BYTE		VOL     71*DragonBattle_mvl/mxv
	BYTE		N05     En3   v116
	BYTE	W12
	BYTE		VOL     56*DragonBattle_mvl/mxv
	BYTE		N05   
	BYTE	W12
	BYTE		VOL     71*DragonBattle_mvl/mxv
	BYTE		N05     Dn3 
	BYTE	W12
	BYTE		VOL     56*DragonBattle_mvl/mxv
	BYTE		N05   
	BYTE	W12
	BYTE		N05   
	BYTE	W12
	BYTE		VOL     71*DragonBattle_mvl/mxv
	BYTE		N05   
	BYTE	W12
	BYTE		VOL     56*DragonBattle_mvl/mxv
	BYTE		N05   
	BYTE	W12
	BYTE		VOL     71*DragonBattle_mvl/mxv
	BYTE		N05   
	BYTE	W12
	BYTE	PEND
// 030   ----------------------------------------
	BYTE		VOL     56*DragonBattle_mvl/mxv
	BYTE		N05   
	BYTE	W12
	BYTE		VOICE   35
	BYTE		VOL     87*DragonBattle_mvl/mxv
	BYTE		N05     An3 
	BYTE	W12
	BYTE		N05   
	BYTE	W36
	BYTE		VOICE   34
	BYTE		VOL     76*DragonBattle_mvl/mxv
	BYTE		N44     Gn4 
	BYTE	W36
// 031   ----------------------------------------
	BYTE	W12
	BYTE		N92     Fs4 
	BYTE	W84
// 032   ----------------------------------------
DragonBattle_1_032:
	BYTE	W12
	BYTE		VOICE   35
	BYTE		VOL     87*DragonBattle_mvl/mxv
	BYTE		N05     An3   v116
	BYTE	W12
	BYTE		N05   
	BYTE	W36
	BYTE		VOICE   34
	BYTE		VOL     76*DragonBattle_mvl/mxv
	BYTE		N44     Fn4 
	BYTE	W36
	BYTE	PEND
// 033   ----------------------------------------
	BYTE	W12
	BYTE		N92     En4 
	BYTE	W84
// 034   ----------------------------------------
	BYTE	W12
	BYTE		VOICE   35
	BYTE		VOL     87*DragonBattle_mvl/mxv
	BYTE		N05     An3 
	BYTE	W12
	BYTE		N05   
	BYTE	W36
	BYTE		VOICE   34
	BYTE		VOL     76*DragonBattle_mvl/mxv
	BYTE		N44     Gn4 
	BYTE	W36
// 035   ----------------------------------------
	BYTE	W12
	BYTE		N92     Fs4 
	BYTE	W84
// 036   ----------------------------------------
	BYTE	PATT
	 POIN2	DragonBattle_1_032
// 037   ----------------------------------------
	BYTE	W12
	BYTE		N92     En4   v116
	BYTE	W84
// 038   ----------------------------------------
	BYTE	PATT
	 POIN2	DragonBattle_1_024
// 039   ----------------------------------------
	BYTE	PATT
	 POIN2	DragonBattle_1_025
// 040   ----------------------------------------
	BYTE	PATT
	 POIN2	DragonBattle_1_026
// 041   ----------------------------------------
	BYTE	PATT
	 POIN2	DragonBattle_1_027
// 042   ----------------------------------------
	BYTE	PATT
	 POIN2	DragonBattle_1_028
// 043   ----------------------------------------
	BYTE	PATT
	 POIN2	DragonBattle_1_029
// 044   ----------------------------------------
	BYTE		VOL     56*DragonBattle_mvl/mxv
	BYTE		N05     Dn3   v116
	BYTE	W12
	BYTE		VOICE   35
	BYTE		VOL     67*DragonBattle_mvl/mxv
	BYTE		N05     An3 
	BYTE	W12
	BYTE		VOL     80*DragonBattle_mvl/mxv
	BYTE		N05   
	BYTE	W36
	BYTE		VOL     67*DragonBattle_mvl/mxv
	BYTE		N05     As3 
	BYTE	W12
	BYTE		VOL     80*DragonBattle_mvl/mxv
	BYTE		N05   
	BYTE	W24
// 045   ----------------------------------------
DragonBattle_1_045:
	BYTE	W12
	BYTE		VOL     67*DragonBattle_mvl/mxv
	BYTE		N05     An3   v116
	BYTE	W12
	BYTE		VOL     80*DragonBattle_mvl/mxv
	BYTE		N05   
	BYTE	W12
	BYTE		VOL     67*DragonBattle_mvl/mxv
	BYTE		N05     Cn4 
	BYTE	W12
	BYTE		VOL     80*DragonBattle_mvl/mxv
	BYTE		N05   
	BYTE	W48
	BYTE	PEND
// 046   ----------------------------------------
DragonBattle_1_046:
	BYTE	W12
	BYTE		VOL     67*DragonBattle_mvl/mxv
	BYTE		N05     An3   v116
	BYTE	W12
	BYTE		VOL     80*DragonBattle_mvl/mxv
	BYTE		N05   
	BYTE	W36
	BYTE		VOL     67*DragonBattle_mvl/mxv
	BYTE		N05     As3 
	BYTE	W12
	BYTE		VOL     80*DragonBattle_mvl/mxv
	BYTE		N05   
	BYTE	W24
	BYTE	PEND
// 047   ----------------------------------------
	BYTE	PATT
	 POIN2	DragonBattle_1_045
// 048   ----------------------------------------
	BYTE	PATT
	 POIN2	DragonBattle_1_046
// 049   ----------------------------------------
	BYTE	PATT
	 POIN2	DragonBattle_1_045
// 050   ----------------------------------------
	BYTE	W12
	BYTE		VOL     67*DragonBattle_mvl/mxv
	BYTE		N05     An2   v116
	BYTE	W12
	BYTE		VOL     80*DragonBattle_mvl/mxv
	BYTE		N05   
	BYTE	W36
	BYTE		VOL     67*DragonBattle_mvl/mxv
	BYTE		N05     As2 
	BYTE	W12
	BYTE		VOL     80*DragonBattle_mvl/mxv
	BYTE		N05   
	BYTE	W24
// 051   ----------------------------------------
	BYTE	W12
	BYTE		VOL     67*DragonBattle_mvl/mxv
	BYTE		N05     An2 
	BYTE	W12
	BYTE		VOL     80*DragonBattle_mvl/mxv
	BYTE		N05   
	BYTE	W12
	BYTE		VOL     67*DragonBattle_mvl/mxv
	BYTE		N05     Cn3 
	BYTE	W12
	BYTE		VOL     80*DragonBattle_mvl/mxv
	BYTE		N05   
	BYTE	W48
// 052   ----------------------------------------
	BYTE		N05   
	BYTE	W12
	BYTE		VOL     87*DragonBattle_mvl/mxv
	BYTE		N07     Dn3 
	BYTE	W72
	BYTE		        Cs3 
	BYTE	W12
// 053   ----------------------------------------
	BYTE	W84
	BYTE		VOICE   32
	BYTE		VOL     62*DragonBattle_mvl/mxv
	BYTE		N23     As3 
	BYTE	W12
// 054   ----------------------------------------
DragonBattle_1_054:
	BYTE	W12
	BYTE		N32     Ds4   v116
	BYTE	W36
	BYTE		        Fn4 
	BYTE	W36
	BYTE		N44     Fs4 
	BYTE	W12
	BYTE	PEND
// 055   ----------------------------------------
DragonBattle_1_055:
	BYTE	W36
	BYTE		N23     As3   v116
	BYTE	W24
	BYTE		        Fn4 
	BYTE	W24
	BYTE		TIE     Cs4 
	BYTE	W12
	BYTE	PEND
// 056   ----------------------------------------
	BYTE	W96
// 057   ----------------------------------------
	BYTE	W11
	BYTE		EOT   
	BYTE	W01
	BYTE		VOICE   35
	BYTE		VOL     87*DragonBattle_mvl/mxv
	BYTE	W24
	BYTE		N05   
	BYTE	W24
	BYTE		        Cn4 
	BYTE	W24
	BYTE		        Bn3 
	BYTE	W12
// 058   ----------------------------------------
DragonBattle_1_058:
	BYTE	W12
	BYTE		N05     As3   v116
	BYTE	W48
	BYTE		        Fn4 
	BYTE	W12
	BYTE		        Fs4 
	BYTE	W24
	BYTE	PEND
// 059   ----------------------------------------
DragonBattle_1_059:
	BYTE	W36
	BYTE		N05     Fn4   v116
	BYTE	W12
	BYTE		        Gs4 
	BYTE	W48
	BYTE	PEND
// 060   ----------------------------------------
DragonBattle_1_060:
	BYTE	W60
	BYTE		N05     Fn4   v116
	BYTE	W12
	BYTE		        Fs4 
	BYTE	W24
	BYTE	PEND
// 061   ----------------------------------------
	BYTE	W36
	BYTE		        Fn4 
	BYTE	W12
	BYTE		        Gs4 
	BYTE	W36
	BYTE		VOICE   32
	BYTE		VOL     62*DragonBattle_mvl/mxv
	BYTE		N23     As3 
	BYTE	W12
// 062   ----------------------------------------
	BYTE	PATT
	 POIN2	DragonBattle_1_054
// 063   ----------------------------------------
	BYTE	PATT
	 POIN2	DragonBattle_1_055
// 064   ----------------------------------------
	BYTE	W96
// 065   ----------------------------------------
	BYTE	W11
	BYTE		EOT     Cs4 
	BYTE	W01
	BYTE		VOICE   35
	BYTE		VOL     87*DragonBattle_mvl/mxv
	BYTE	W24
	BYTE		N05     Cs4   v116
	BYTE	W24
	BYTE		        Cn4 
	BYTE	W24
	BYTE		        Bn3 
	BYTE	W12
// 066   ----------------------------------------
	BYTE	PATT
	 POIN2	DragonBattle_1_058
// 067   ----------------------------------------
	BYTE	PATT
	 POIN2	DragonBattle_1_059
// 068   ----------------------------------------
	BYTE	PATT
	 POIN2	DragonBattle_1_060
// 069   ----------------------------------------
	BYTE	PATT
	 POIN2	DragonBattle_1_059
// 070   ----------------------------------------
	BYTE	W12
	BYTE		VOICE   33
	BYTE		VOL     67*DragonBattle_mvl/mxv
	BYTE		N92     Ds4   v116
	BYTE	W84
// 071   ----------------------------------------
	BYTE	W12
	BYTE		N44     Dn4 
	BYTE	W48
	BYTE		        Fs4 
	BYTE	W36
// 072   ----------------------------------------
	BYTE	W12
	BYTE		        Fn4 
	BYTE	W48
	BYTE		        As3 
	BYTE	W36
// 073   ----------------------------------------
	BYTE	W12
	BYTE		        Cs4 
	BYTE	W48
	BYTE		        Ds4 
	BYTE	W36
// 074   ----------------------------------------
	BYTE	W12
	BYTE		TIE     Cn4 
	BYTE	W84
// 075   ----------------------------------------
	BYTE	W96
// 076   ----------------------------------------
	BYTE	W96
// 077   ----------------------------------------
	BYTE	W96
// 078   ----------------------------------------
	BYTE	W11
	BYTE		EOT   
	BYTE	W01
	BYTE	GoTo
	 POIN2	DragonBattle_1_B1
DragonBattle_1_B2:
	BYTE	FINE

//**************** Track 2 (Midi-Chn.2) ****************//

DragonBattle_2:
	BYTE	KEYSH   DragonBattle_key+0
DragonBattle_2_B1:
// 000   ----------------------------------------
	BYTE		VOICE   42
	BYTE	W12
	BYTE		VOL     44*DragonBattle_mvl/mxv
	BYTE		PAN     c_v+0
	BYTE		TIE     As3   v116
	BYTE	W84
// 001   ----------------------------------------
	BYTE	W96
// 002   ----------------------------------------
	BYTE	W11
	BYTE		EOT   
	BYTE	W01
	BYTE		TIE     An3 
	BYTE	W84
// 003   ----------------------------------------
	BYTE	W96
// 004   ----------------------------------------
	BYTE	W11
	BYTE		EOT   
	BYTE	W01
	BYTE		TIE     Gs3 
	BYTE	W84
// 005   ----------------------------------------
	BYTE	W96
// 006   ----------------------------------------
	BYTE	W11
	BYTE		EOT   
	BYTE	W01
	BYTE		TIE     Gn3 
	BYTE	W84
// 007   ----------------------------------------
	BYTE	W96
// 008   ----------------------------------------
	BYTE	W11
	BYTE		EOT   
	BYTE	W01
	BYTE		TIE     As3 
	BYTE	W84
// 009   ----------------------------------------
	BYTE	W96
// 010   ----------------------------------------
	BYTE	W11
	BYTE		EOT   
	BYTE	W01
	BYTE		TIE     An3 
	BYTE	W84
// 011   ----------------------------------------
	BYTE	W96
// 012   ----------------------------------------
	BYTE	W11
	BYTE		EOT   
	BYTE	W01
	BYTE		TIE     Gs3 
	BYTE	W84
// 013   ----------------------------------------
	BYTE	W96
// 014   ----------------------------------------
	BYTE	W11
	BYTE		EOT   
	BYTE	W01
	BYTE		TIE     Gn3 
	BYTE	W84
// 015   ----------------------------------------
	BYTE	W96
// 016   ----------------------------------------
	BYTE	W11
	BYTE		EOT   
	BYTE	W01
	BYTE		VOL     62*DragonBattle_mvl/mxv
	BYTE	W24
	BYTE	W03
	BYTE		VOICE   19
	BYTE	W21
	BYTE		N44     Dn4 
	BYTE	W36
// 017   ----------------------------------------
	BYTE	W12
	BYTE		N92     Cs4 
	BYTE	W84
// 018   ----------------------------------------
	BYTE	W60
	BYTE		N44     Cn4 
	BYTE	W36
// 019   ----------------------------------------
	BYTE	W12
	BYTE		N92     Bn3 
	BYTE	W84
// 020   ----------------------------------------
	BYTE	W60
	BYTE		N44     Dn4 
	BYTE	W36
// 021   ----------------------------------------
	BYTE	W12
	BYTE		N92     Cs4 
	BYTE	W84
// 022   ----------------------------------------
	BYTE	W60
	BYTE		N44     Cn4 
	BYTE	W36
// 023   ----------------------------------------
	BYTE	W12
	BYTE		N92     Bn3 
	BYTE	W84
// 024   ----------------------------------------
DragonBattle_2_024:
	BYTE	W12
	BYTE		VOL     71*DragonBattle_mvl/mxv
	BYTE		N05     An2   v116
	BYTE	W12
	BYTE		VOL     56*DragonBattle_mvl/mxv
	BYTE		N05   
	BYTE	W12
	BYTE		N05   
	BYTE	W12
	BYTE		VOL     71*DragonBattle_mvl/mxv
	BYTE		N05   
	BYTE	W12
	BYTE		VOL     56*DragonBattle_mvl/mxv
	BYTE		N05   
	BYTE	W12
	BYTE		N05   
	BYTE	W12
	BYTE		N05   
	BYTE	W12
	BYTE	PEND
// 025   ----------------------------------------
DragonBattle_2_025:
	BYTE		N05     An2   v116
	BYTE	W12
	BYTE		N05   
	BYTE	W12
	BYTE		VOL     71*DragonBattle_mvl/mxv
	BYTE		N05     Gn2 
	BYTE	W12
	BYTE		VOL     56*DragonBattle_mvl/mxv
	BYTE		N05   
	BYTE	W12
	BYTE		N05   
	BYTE	W12
	BYTE		VOL     71*DragonBattle_mvl/mxv
	BYTE		N05   
	BYTE	W12
	BYTE		VOL     56*DragonBattle_mvl/mxv
	BYTE		N05   
	BYTE	W12
	BYTE		VOL     71*DragonBattle_mvl/mxv
	BYTE		N05   
	BYTE	W12
	BYTE	PEND
// 026   ----------------------------------------
DragonBattle_2_026:
	BYTE		VOL     56*DragonBattle_mvl/mxv
	BYTE		N05     Gn2   v116
	BYTE	W12
	BYTE		VOL     71*DragonBattle_mvl/mxv
	BYTE		N05     An2 
	BYTE	W12
	BYTE		VOL     56*DragonBattle_mvl/mxv
	BYTE		N05   
	BYTE	W12
	BYTE		N05   
	BYTE	W12
	BYTE		VOL     71*DragonBattle_mvl/mxv
	BYTE		N05   
	BYTE	W12
	BYTE		VOL     56*DragonBattle_mvl/mxv
	BYTE		N05   
	BYTE	W12
	BYTE		N05   
	BYTE	W12
	BYTE		VOL     71*DragonBattle_mvl/mxv
	BYTE		N05   
	BYTE	W12
	BYTE	PEND
// 027   ----------------------------------------
DragonBattle_2_027:
	BYTE		VOL     56*DragonBattle_mvl/mxv
	BYTE		N05     An2   v116
	BYTE	W12
	BYTE		N05   
	BYTE	W12
	BYTE		VOL     71*DragonBattle_mvl/mxv
	BYTE		N05     Dn3 
	BYTE	W12
	BYTE		VOL     56*DragonBattle_mvl/mxv
	BYTE		N05   
	BYTE	W06
	BYTE		N05   
	BYTE	W18
	BYTE		VOL     71*DragonBattle_mvl/mxv
	BYTE		N05   
	BYTE	W12
	BYTE		VOL     56*DragonBattle_mvl/mxv
	BYTE		N05   
	BYTE	W12
	BYTE		VOL     71*DragonBattle_mvl/mxv
	BYTE		N05   
	BYTE	W12
	BYTE	PEND
// 028   ----------------------------------------
DragonBattle_2_028:
	BYTE		VOL     56*DragonBattle_mvl/mxv
	BYTE		N05     Dn3   v116
	BYTE	W12
	BYTE		VOL     71*DragonBattle_mvl/mxv
	BYTE		N05     An2 
	BYTE	W12
	BYTE		VOL     56*DragonBattle_mvl/mxv
	BYTE		N05   
	BYTE	W12
	BYTE		N05   
	BYTE	W12
	BYTE		VOL     71*DragonBattle_mvl/mxv
	BYTE		N05   
	BYTE	W12
	BYTE		VOL     56*DragonBattle_mvl/mxv
	BYTE		N05   
	BYTE	W12
	BYTE		N05   
	BYTE	W12
	BYTE		N05   
	BYTE	W12
	BYTE	PEND
// 029   ----------------------------------------
DragonBattle_2_029:
	BYTE		VOL     71*DragonBattle_mvl/mxv
	BYTE		N05     An2   v116
	BYTE	W12
	BYTE		VOL     56*DragonBattle_mvl/mxv
	BYTE		N05   
	BYTE	W12
	BYTE		VOL     71*DragonBattle_mvl/mxv
	BYTE		N05     Gn2 
	BYTE	W12
	BYTE		VOL     56*DragonBattle_mvl/mxv
	BYTE		N05   
	BYTE	W12
	BYTE		N05   
	BYTE	W12
	BYTE		VOL     71*DragonBattle_mvl/mxv
	BYTE		N05   
	BYTE	W12
	BYTE		VOL     56*DragonBattle_mvl/mxv
	BYTE		N05   
	BYTE	W12
	BYTE		VOL     71*DragonBattle_mvl/mxv
	BYTE		N05   
	BYTE	W12
	BYTE	PEND
// 030   ----------------------------------------
	BYTE		VOL     56*DragonBattle_mvl/mxv
	BYTE		N05   
	BYTE	W12
	BYTE		VOL     71*DragonBattle_mvl/mxv
	BYTE		N05     En3 
	BYTE	W12
	BYTE		N05   
	BYTE	W36
	BYTE		VOL     67*DragonBattle_mvl/mxv
	BYTE		N44     Dn4 
	BYTE	W36
// 031   ----------------------------------------
	BYTE	W12
	BYTE		N92     Cs4 
	BYTE	W84
// 032   ----------------------------------------
DragonBattle_2_032:
	BYTE	W12
	BYTE		VOL     71*DragonBattle_mvl/mxv
	BYTE		N05     En3   v116
	BYTE	W12
	BYTE		N05   
	BYTE	W36
	BYTE		VOL     76*DragonBattle_mvl/mxv
	BYTE		N44     Cn4 
	BYTE	W36
	BYTE	PEND
// 033   ----------------------------------------
	BYTE	W12
	BYTE		N92     Bn3 
	BYTE	W84
// 034   ----------------------------------------
	BYTE	W12
	BYTE		VOL     71*DragonBattle_mvl/mxv
	BYTE		N05     En3 
	BYTE	W12
	BYTE		N05   
	BYTE	W36
	BYTE		VOL     67*DragonBattle_mvl/mxv
	BYTE		N44     Dn4 
	BYTE	W36
// 035   ----------------------------------------
	BYTE	W12
	BYTE		N92     Cs4 
	BYTE	W84
// 036   ----------------------------------------
	BYTE	PATT
	 POIN2	DragonBattle_2_032
// 037   ----------------------------------------
	BYTE	W12
	BYTE		N92     Bn3   v116
	BYTE	W84
// 038   ----------------------------------------
	BYTE	PATT
	 POIN2	DragonBattle_2_024
// 039   ----------------------------------------
	BYTE	PATT
	 POIN2	DragonBattle_2_025
// 040   ----------------------------------------
	BYTE	PATT
	 POIN2	DragonBattle_2_026
// 041   ----------------------------------------
	BYTE	PATT
	 POIN2	DragonBattle_2_027
// 042   ----------------------------------------
	BYTE	PATT
	 POIN2	DragonBattle_2_028
// 043   ----------------------------------------
	BYTE	PATT
	 POIN2	DragonBattle_2_029
// 044   ----------------------------------------
	BYTE		VOL     56*DragonBattle_mvl/mxv
	BYTE		N05     Gn2   v116
	BYTE	W12
	BYTE		VOL     67*DragonBattle_mvl/mxv
	BYTE		N05     En3 
	BYTE	W12
	BYTE		VOL     80*DragonBattle_mvl/mxv
	BYTE		N05   
	BYTE	W36
	BYTE		VOL     67*DragonBattle_mvl/mxv
	BYTE		N05     Fn3 
	BYTE	W12
	BYTE		VOL     80*DragonBattle_mvl/mxv
	BYTE		N05   
	BYTE	W24
// 045   ----------------------------------------
DragonBattle_2_045:
	BYTE	W12
	BYTE		VOL     67*DragonBattle_mvl/mxv
	BYTE		N05     En3   v116
	BYTE	W12
	BYTE		VOL     80*DragonBattle_mvl/mxv
	BYTE		N05   
	BYTE	W12
	BYTE		VOL     67*DragonBattle_mvl/mxv
	BYTE		N05     Gn3 
	BYTE	W12
	BYTE		VOL     80*DragonBattle_mvl/mxv
	BYTE		N05   
	BYTE	W48
	BYTE	PEND
// 046   ----------------------------------------
DragonBattle_2_046:
	BYTE	W12
	BYTE		VOL     67*DragonBattle_mvl/mxv
	BYTE		N05     En3   v116
	BYTE	W12
	BYTE		VOL     80*DragonBattle_mvl/mxv
	BYTE		N05   
	BYTE	W36
	BYTE		VOL     67*DragonBattle_mvl/mxv
	BYTE		N05     Fn3 
	BYTE	W12
	BYTE		VOL     80*DragonBattle_mvl/mxv
	BYTE		N05   
	BYTE	W24
	BYTE	PEND
// 047   ----------------------------------------
	BYTE	PATT
	 POIN2	DragonBattle_2_045
// 048   ----------------------------------------
	BYTE	PATT
	 POIN2	DragonBattle_2_046
// 049   ----------------------------------------
	BYTE	PATT
	 POIN2	DragonBattle_2_045
// 050   ----------------------------------------
	BYTE	PATT
	 POIN2	DragonBattle_2_046
// 051   ----------------------------------------
	BYTE	PATT
	 POIN2	DragonBattle_2_045
// 052   ----------------------------------------
	BYTE		N05     Gn3   v116
	BYTE	W12
	BYTE		VOL     84*DragonBattle_mvl/mxv
	BYTE		N07     An3 
	BYTE	W72
	BYTE		        Gs3 
	BYTE	W12
// 053   ----------------------------------------
	BYTE	W96
// 054   ----------------------------------------
	BYTE	W12
	BYTE		VOL     80*DragonBattle_mvl/mxv
	BYTE		N07     Fs3 
	BYTE	W36
	BYTE		N07   
	BYTE	W48
// 055   ----------------------------------------
DragonBattle_2_055:
	BYTE		N07     Fn3   v116
	BYTE	W12
	BYTE		        Fs3 
	BYTE	W36
	BYTE		N07   
	BYTE	W48
	BYTE	PEND
// 056   ----------------------------------------
DragonBattle_2_056:
	BYTE	W12
	BYTE		N07     Fs3   v116
	BYTE	W36
	BYTE		N07   
	BYTE	W48
	BYTE	PEND
// 057   ----------------------------------------
DragonBattle_2_057:
	BYTE		N07     Fn3   v116
	BYTE	W12
	BYTE		        Fs3 
	BYTE	W24
	BYTE		N05     Gs3 
	BYTE	W24
	BYTE		        Gn3 
	BYTE	W24
	BYTE		        Fs3 
	BYTE	W12
	BYTE	PEND
// 058   ----------------------------------------
DragonBattle_2_058:
	BYTE	W12
	BYTE		N05     Fn3   v116
	BYTE	W48
	BYTE		        Cn4 
	BYTE	W12
	BYTE		        Cs4 
	BYTE	W24
	BYTE	PEND
// 059   ----------------------------------------
DragonBattle_2_059:
	BYTE	W36
	BYTE		N05     Cn4   v116
	BYTE	W12
	BYTE		        Ds4 
	BYTE	W48
	BYTE	PEND
// 060   ----------------------------------------
DragonBattle_2_060:
	BYTE	W60
	BYTE		N05     Cn4   v116
	BYTE	W12
	BYTE		        Cs4 
	BYTE	W24
	BYTE	PEND
// 061   ----------------------------------------
	BYTE	PATT
	 POIN2	DragonBattle_2_059
// 062   ----------------------------------------
	BYTE	PATT
	 POIN2	DragonBattle_2_056
// 063   ----------------------------------------
	BYTE	PATT
	 POIN2	DragonBattle_2_055
// 064   ----------------------------------------
	BYTE	PATT
	 POIN2	DragonBattle_2_056
// 065   ----------------------------------------
	BYTE	PATT
	 POIN2	DragonBattle_2_057
// 066   ----------------------------------------
	BYTE	PATT
	 POIN2	DragonBattle_2_058
// 067   ----------------------------------------
	BYTE	PATT
	 POIN2	DragonBattle_2_059
// 068   ----------------------------------------
	BYTE	PATT
	 POIN2	DragonBattle_2_060
// 069   ----------------------------------------
	BYTE	PATT
	 POIN2	DragonBattle_2_059
// 070   ----------------------------------------
	BYTE	W12
	BYTE		VOL     62*DragonBattle_mvl/mxv
	BYTE		N92     As3   v116
	BYTE	W84
// 071   ----------------------------------------
	BYTE	W12
	BYTE		N44     An3 
	BYTE	W48
	BYTE		        Cs4 
	BYTE	W36
// 072   ----------------------------------------
	BYTE	W12
	BYTE		        Cn4 
	BYTE	W48
	BYTE		        Fn3 
	BYTE	W36
// 073   ----------------------------------------
	BYTE	W12
	BYTE		        Gs3 
	BYTE	W48
	BYTE		        As3 
	BYTE	W36
// 074   ----------------------------------------
	BYTE	W12
	BYTE		TIE     Fn3 
	BYTE	W84
// 075   ----------------------------------------
	BYTE	W96
// 076   ----------------------------------------
	BYTE	W96
// 077   ----------------------------------------
	BYTE	W96
// 078   ----------------------------------------
	BYTE	W11
	BYTE		EOT   
	BYTE	W01
	BYTE	GoTo
	 POIN2	DragonBattle_2_B1
DragonBattle_2_B2:
	BYTE	FINE

//**************** Track 3 (Midi-Chn.3) ****************//

DragonBattle_3:
	BYTE	KEYSH   DragonBattle_key+0
DragonBattle_3_B1:
// 000   ----------------------------------------
	BYTE		VOICE   60
	BYTE	W12
	BYTE		VOL     71*DragonBattle_mvl/mxv
	BYTE		PAN     c_v+0
	BYTE		N92     Cn3   v116
	BYTE	W84
// 001   ----------------------------------------
DragonBattle_3_001:
	BYTE	W12
	BYTE		N44     Ds3   v116
	BYTE	W48
	BYTE		N32     As3 
	BYTE	W36
	BYTE	PEND
// 002   ----------------------------------------
DragonBattle_3_002:
	BYTE		N05     An3   v116
	BYTE	W06
	BYTE		        As3 
	BYTE	W06
	BYTE		N92     An3 
	BYTE	W84
	BYTE	PEND
// 003   ----------------------------------------
DragonBattle_3_003:
	BYTE	W12
	BYTE		N44     Gn3   v116
	BYTE	W48
	BYTE		        Fn3 
	BYTE	W36
	BYTE	PEND
// 004   ----------------------------------------
DragonBattle_3_004:
	BYTE	W12
	BYTE		TIE     Gs3   v116
	BYTE	W84
	BYTE	PEND
// 005   ----------------------------------------
	BYTE	W56
	BYTE	W03
	BYTE		EOT   
	BYTE	W01
	BYTE		N32     As3 
	BYTE	W36
// 006   ----------------------------------------
DragonBattle_3_006:
	BYTE		N05     An3   v116
	BYTE	W06
	BYTE		        Gs3 
	BYTE	W06
	BYTE		TIE     Gn3 
	BYTE	W84
	BYTE	PEND
// 007   ----------------------------------------
	BYTE	W96
// 008   ----------------------------------------
	BYTE	W11
	BYTE		EOT   
	BYTE	W01
	BYTE		N92     Cn3 
	BYTE	W84
// 009   ----------------------------------------
	BYTE	PATT
	 POIN2	DragonBattle_3_001
// 010   ----------------------------------------
	BYTE	PATT
	 POIN2	DragonBattle_3_002
// 011   ----------------------------------------
	BYTE	PATT
	 POIN2	DragonBattle_3_003
// 012   ----------------------------------------
	BYTE	PATT
	 POIN2	DragonBattle_3_004
// 013   ----------------------------------------
	BYTE	W56
	BYTE	W03
	BYTE		EOT     Gs3 
	BYTE	W01
	BYTE		N32     As3   v116
	BYTE	W36
// 014   ----------------------------------------
	BYTE	PATT
	 POIN2	DragonBattle_3_006
// 015   ----------------------------------------
	BYTE	W96
// 016   ----------------------------------------
	BYTE	W11
	BYTE		EOT     Gn3 
	BYTE	W01
	BYTE		VOL     56*DragonBattle_mvl/mxv
	BYTE	W24
	BYTE	W03
	BYTE		VOICE   19
	BYTE	W21
	BYTE		N44     Cn4   v116
	BYTE	W36
// 017   ----------------------------------------
	BYTE	W12
	BYTE		N92     Bn3 
	BYTE	W84
// 018   ----------------------------------------
	BYTE	W60
	BYTE		N44     As3 
	BYTE	W36
// 019   ----------------------------------------
	BYTE	W12
	BYTE		N92     An3 
	BYTE	W84
// 020   ----------------------------------------
	BYTE	W60
	BYTE		N44     Cn4 
	BYTE	W36
// 021   ----------------------------------------
	BYTE	W12
	BYTE		N92     Bn3 
	BYTE	W84
// 022   ----------------------------------------
	BYTE	W60
	BYTE		N44     As3 
	BYTE	W36
// 023   ----------------------------------------
	BYTE	W12
	BYTE		N92     An3 
	BYTE	W84
// 024   ----------------------------------------
DragonBattle_3_024:
	BYTE	W12
	BYTE		VOL     50*DragonBattle_mvl/mxv
	BYTE		N80     An3   v116
	BYTE	W84
	BYTE	PEND
// 025   ----------------------------------------
DragonBattle_3_025:
	BYTE		N05     Gn3   v116
	BYTE	W06
	BYTE		        An3 
	BYTE	W06
	BYTE		N44     Gn3 
	BYTE	W48
	BYTE		        En3 
	BYTE	W36
	BYTE	PEND
// 026   ----------------------------------------
	BYTE	W12
	BYTE		N80     An3 
	BYTE	W84
// 027   ----------------------------------------
DragonBattle_3_027:
	BYTE		N05     Gn3   v116
	BYTE	W06
	BYTE		        An3 
	BYTE	W06
	BYTE		N44     Cn4 
	BYTE	W48
	BYTE		        Bn3 
	BYTE	W36
	BYTE	PEND
// 028   ----------------------------------------
	BYTE	W12
	BYTE		N80     An3 
	BYTE	W84
// 029   ----------------------------------------
	BYTE	PATT
	 POIN2	DragonBattle_3_025
// 030   ----------------------------------------
DragonBattle_3_030:
	BYTE	W12
	BYTE		VOL     71*DragonBattle_mvl/mxv
	BYTE		N05     Dn3   v116
	BYTE	W12
	BYTE		N05   
	BYTE	W36
	BYTE		VOL     56*DragonBattle_mvl/mxv
	BYTE		N44     Cn4 
	BYTE	W36
	BYTE	PEND
// 031   ----------------------------------------
	BYTE	W12
	BYTE		N92     Bn3 
	BYTE	W84
// 032   ----------------------------------------
DragonBattle_3_032:
	BYTE	W12
	BYTE		VOL     71*DragonBattle_mvl/mxv
	BYTE		N05     Dn3   v116
	BYTE	W12
	BYTE		N05   
	BYTE	W36
	BYTE		VOL     56*DragonBattle_mvl/mxv
	BYTE		N44     As3 
	BYTE	W36
	BYTE	PEND
// 033   ----------------------------------------
	BYTE	W12
	BYTE		N92     An3 
	BYTE	W84
// 034   ----------------------------------------
	BYTE	PATT
	 POIN2	DragonBattle_3_030
// 035   ----------------------------------------
	BYTE	W12
	BYTE		N92     Bn3   v116
	BYTE	W84
// 036   ----------------------------------------
	BYTE	PATT
	 POIN2	DragonBattle_3_032
// 037   ----------------------------------------
	BYTE	W12
	BYTE		N92     An3   v116
	BYTE	W84
// 038   ----------------------------------------
	BYTE	PATT
	 POIN2	DragonBattle_3_024
// 039   ----------------------------------------
	BYTE	PATT
	 POIN2	DragonBattle_3_025
// 040   ----------------------------------------
	BYTE	W12
	BYTE		N80     An3   v116
	BYTE	W84
// 041   ----------------------------------------
	BYTE	PATT
	 POIN2	DragonBattle_3_027
// 042   ----------------------------------------
	BYTE	W12
	BYTE		N80     An3   v116
	BYTE	W84
// 043   ----------------------------------------
	BYTE	PATT
	 POIN2	DragonBattle_3_025
// 044   ----------------------------------------
DragonBattle_3_044:
	BYTE	W12
	BYTE		VOL     67*DragonBattle_mvl/mxv
	BYTE		N05     Dn3   v116
	BYTE	W12
	BYTE		VOL     80*DragonBattle_mvl/mxv
	BYTE		N05   
	BYTE	W36
	BYTE		VOL     67*DragonBattle_mvl/mxv
	BYTE		N05     Ds3 
	BYTE	W12
	BYTE		VOL     80*DragonBattle_mvl/mxv
	BYTE		N05   
	BYTE	W24
	BYTE	PEND
// 045   ----------------------------------------
DragonBattle_3_045:
	BYTE	W12
	BYTE		VOL     67*DragonBattle_mvl/mxv
	BYTE		N05     Dn3   v116
	BYTE	W12
	BYTE		VOL     80*DragonBattle_mvl/mxv
	BYTE		N05   
	BYTE	W12
	BYTE		VOL     67*DragonBattle_mvl/mxv
	BYTE		N05     Fn3 
	BYTE	W12
	BYTE		VOL     80*DragonBattle_mvl/mxv
	BYTE		N05   
	BYTE	W48
	BYTE	PEND
// 046   ----------------------------------------
	BYTE	PATT
	 POIN2	DragonBattle_3_044
// 047   ----------------------------------------
	BYTE	PATT
	 POIN2	DragonBattle_3_045
// 048   ----------------------------------------
	BYTE	PATT
	 POIN2	DragonBattle_3_044
// 049   ----------------------------------------
	BYTE	PATT
	 POIN2	DragonBattle_3_045
// 050   ----------------------------------------
	BYTE	PATT
	 POIN2	DragonBattle_3_044
// 051   ----------------------------------------
	BYTE	PATT
	 POIN2	DragonBattle_3_045
// 052   ----------------------------------------
	BYTE		N05     Fn3   v116
	BYTE	W12
	BYTE		VOL     84*DragonBattle_mvl/mxv
	BYTE		N07     Gn3 
	BYTE	W72
	BYTE		        Fs3 
	BYTE	W12
// 053   ----------------------------------------
DragonBattle_3_053:
	BYTE	W72
	BYTE		VOL     73*DragonBattle_mvl/mxv
	BYTE	W12
	BYTE		N23     As3   v116
	BYTE	W12
	BYTE	PEND
// 054   ----------------------------------------
DragonBattle_3_054:
	BYTE	W12
	BYTE		N32     Ds4   v116
	BYTE	W36
	BYTE		        Fn4 
	BYTE	W36
	BYTE		N44     Fs4 
	BYTE	W12
	BYTE	PEND
// 055   ----------------------------------------
DragonBattle_3_055:
	BYTE	W36
	BYTE		N23     As3   v116
	BYTE	W24
	BYTE		        Fn4 
	BYTE	W24
	BYTE		TIE     Cs4 
	BYTE	W12
	BYTE	PEND
// 056   ----------------------------------------
	BYTE	W96
// 057   ----------------------------------------
	BYTE	W11
	BYTE		EOT   
	BYTE	W01
	BYTE		VOL     84*DragonBattle_mvl/mxv
	BYTE	W24
	BYTE		N11   
	BYTE	W24
	BYTE		        Cn4 
	BYTE	W24
	BYTE		        Bn3 
	BYTE	W12
// 058   ----------------------------------------
DragonBattle_3_058:
	BYTE	W12
	BYTE		N11     As3   v116
	BYTE	W48
	BYTE		N32     Cn4 
	BYTE	W36
	BYTE	PEND
// 059   ----------------------------------------
DragonBattle_3_059:
	BYTE		N11     As3   v116
	BYTE	W12
	BYTE		        Cn4 
	BYTE	W12
	BYTE		N68     Cs4 
	BYTE	W72
	BYTE	PEND
// 060   ----------------------------------------
	BYTE		N11     Ds4 
	BYTE	W12
	BYTE		N32     Cn4 
	BYTE	W36
	BYTE		N11     As3 
	BYTE	W12
	BYTE		        Cn4 
	BYTE	W12
	BYTE		N92     Cs4 
	BYTE	W24
// 061   ----------------------------------------
	BYTE	PATT
	 POIN2	DragonBattle_3_053
// 062   ----------------------------------------
	BYTE	PATT
	 POIN2	DragonBattle_3_054
// 063   ----------------------------------------
	BYTE	PATT
	 POIN2	DragonBattle_3_055
// 064   ----------------------------------------
	BYTE	W96
// 065   ----------------------------------------
	BYTE	W11
	BYTE		EOT     Cs4 
	BYTE	W01
	BYTE		VOL     84*DragonBattle_mvl/mxv
	BYTE	W24
	BYTE		N11     Cs4   v116
	BYTE	W24
	BYTE		        Cn4 
	BYTE	W24
	BYTE		        Bn3 
	BYTE	W12
// 066   ----------------------------------------
	BYTE	PATT
	 POIN2	DragonBattle_3_058
// 067   ----------------------------------------
	BYTE	PATT
	 POIN2	DragonBattle_3_059
// 068   ----------------------------------------
	BYTE		N11     Ds4   v116
	BYTE	W12
	BYTE		N32     Cn4 
	BYTE	W36
	BYTE		N11     As3 
	BYTE	W12
	BYTE		        Cn4 
	BYTE	W12
	BYTE		TIE     Cs4 
	BYTE	W24
// 069   ----------------------------------------
	BYTE	W92
	BYTE	W03
	BYTE		EOT   
	BYTE	W01
// 070   ----------------------------------------
	BYTE	W12
	BYTE		VOL     56*DragonBattle_mvl/mxv
	BYTE		N92     Gs3 
	BYTE	W84
// 071   ----------------------------------------
	BYTE	W12
	BYTE		N44     Gn3 
	BYTE	W48
	BYTE		        Bn3 
	BYTE	W36
// 072   ----------------------------------------
	BYTE	W12
	BYTE		        As3 
	BYTE	W48
	BYTE		        Ds3 
	BYTE	W36
// 073   ----------------------------------------
	BYTE	W12
	BYTE		        Fs3 
	BYTE	W48
	BYTE		        Gs3 
	BYTE	W36
// 074   ----------------------------------------
	BYTE	W12
	BYTE		TIE     Ds3 
	BYTE	W84
// 075   ----------------------------------------
	BYTE	W96
// 076   ----------------------------------------
	BYTE	W96
// 077   ----------------------------------------
	BYTE	W96
// 078   ----------------------------------------
	BYTE	W11
	BYTE		EOT   
	BYTE	W01
	BYTE	GoTo
	 POIN2	DragonBattle_3_B1
DragonBattle_3_B2:
	BYTE	FINE

//**************** Track 4 (Midi-Chn.4) ****************//

DragonBattle_4:
	BYTE	KEYSH   DragonBattle_key+0
DragonBattle_4_B1:
// 000   ----------------------------------------
	BYTE		VOICE   57
	BYTE	W96
// 001   ----------------------------------------
	BYTE	W96
// 002   ----------------------------------------
	BYTE	W96
// 003   ----------------------------------------
	BYTE	W96
// 004   ----------------------------------------
	BYTE	W96
// 005   ----------------------------------------
	BYTE	W96
// 006   ----------------------------------------
	BYTE	W96
// 007   ----------------------------------------
	BYTE	W12
	BYTE		VOL     67*DragonBattle_mvl/mxv
	BYTE		PAN     c_v+0
	BYTE		N44     Cn3   v116
	BYTE	W48
	BYTE		        Dn3 
	BYTE	W36
// 008   ----------------------------------------
	BYTE	W12
	BYTE		TIE     Ds3 
	BYTE	W84
// 009   ----------------------------------------
	BYTE	W56
	BYTE	W03
	BYTE		EOT   
	BYTE	W01
	BYTE		N32     As3 
	BYTE	W36
// 010   ----------------------------------------
	BYTE		N05     An3 
	BYTE	W06
	BYTE		        As3 
	BYTE	W06
	BYTE		N92     An3 
	BYTE	W84
// 011   ----------------------------------------
	BYTE	W12
	BYTE		N44     Gn3 
	BYTE	W48
	BYTE		        Fn3 
	BYTE	W36
// 012   ----------------------------------------
	BYTE	W12
	BYTE		TIE     Gs3 
	BYTE	W84
// 013   ----------------------------------------
	BYTE	W80
	BYTE	W03
	BYTE		EOT   
	BYTE	W01
	BYTE		N23     As3 
	BYTE	W12
// 014   ----------------------------------------
	BYTE	W12
	BYTE		TIE     Cn4 
	BYTE	W84
// 015   ----------------------------------------
	BYTE	W96
// 016   ----------------------------------------
	BYTE	W10
	BYTE		VOICE   33
	BYTE	W01
	BYTE		EOT   
	BYTE	W01
	BYTE		VOL     89*DragonBattle_mvl/mxv
	BYTE		N11     Dn3 
	BYTE	W12
	BYTE		N23     En3 
	BYTE	W24
	BYTE		        Dn3 
	BYTE	W24
	BYTE		N32     En3 
	BYTE	W24
// 017   ----------------------------------------
DragonBattle_4_017:
	BYTE	W12
	BYTE		N11     Dn3   v116
	BYTE	W12
	BYTE		N23     En3 
	BYTE	W24
	BYTE		        Dn3 
	BYTE	W24
	BYTE		N11     En3 
	BYTE	W12
	BYTE		N23   
	BYTE	W12
	BYTE	PEND
// 018   ----------------------------------------
DragonBattle_4_018:
	BYTE	W12
	BYTE		N11     Dn3   v116
	BYTE	W12
	BYTE		N23     En3 
	BYTE	W24
	BYTE		        Dn3 
	BYTE	W24
	BYTE		N32     En3 
	BYTE	W24
	BYTE	PEND
// 019   ----------------------------------------
	BYTE	PATT
	 POIN2	DragonBattle_4_017
// 020   ----------------------------------------
	BYTE	PATT
	 POIN2	DragonBattle_4_018
// 021   ----------------------------------------
	BYTE	PATT
	 POIN2	DragonBattle_4_017
// 022   ----------------------------------------
	BYTE	PATT
	 POIN2	DragonBattle_4_018
// 023   ----------------------------------------
	BYTE	W12
	BYTE		VOL     87*DragonBattle_mvl/mxv
	BYTE	W60
	BYTE	W03
	BYTE		VOICE   57
	BYTE	W09
	BYTE		N11     An3   v116
	BYTE	W12
// 024   ----------------------------------------
DragonBattle_4_024:
	BYTE		N11     Bn3   v116
	BYTE	W12
	BYTE		        Cn4 
	BYTE	W12
	BYTE		N05     Bn3 
	BYTE	W06
	BYTE		N02     Cn4 
	BYTE	W03
	BYTE		        Bn3 
	BYTE	W03
	BYTE		N11     An3 
	BYTE	W12
	BYTE		        Gn3 
	BYTE	W12
	BYTE		        An3 
	BYTE	W12
	BYTE		        Dn3 
	BYTE	W12
	BYTE		        En3 
	BYTE	W12
	BYTE	PEND
// 025   ----------------------------------------
DragonBattle_4_025:
	BYTE		N11     Gn3   v116
	BYTE	W12
	BYTE		N44     An3 
	BYTE	W48
	BYTE		N23     Gn3 
	BYTE	W24
	BYTE		N11     An3 
	BYTE	W12
	BYTE	PEND
// 026   ----------------------------------------
DragonBattle_4_026:
	BYTE		N11     Bn3   v116
	BYTE	W12
	BYTE		        Cn4 
	BYTE	W12
	BYTE		N05     Bn3 
	BYTE	W06
	BYTE		N02     Cn4 
	BYTE	W03
	BYTE		        Bn3 
	BYTE	W03
	BYTE		N11     An3 
	BYTE	W12
	BYTE		        Gn3 
	BYTE	W12
	BYTE		        An3 
	BYTE	W12
	BYTE		        Bn3 
	BYTE	W12
	BYTE		        Cn4 
	BYTE	W12
	BYTE	PEND
// 027   ----------------------------------------
DragonBattle_4_027:
	BYTE		N11     Dn4   v116
	BYTE	W12
	BYTE		N44     En4 
	BYTE	W48
	BYTE		N23     Dn4 
	BYTE	W24
	BYTE		N11     An3 
	BYTE	W12
	BYTE	PEND
// 028   ----------------------------------------
	BYTE	PATT
	 POIN2	DragonBattle_4_024
// 029   ----------------------------------------
DragonBattle_4_029:
	BYTE		N11     Gn3   v116
	BYTE	W12
	BYTE		N23     An3 
	BYTE	W24
	BYTE		        Bn3 
	BYTE	W24
	BYTE		        Cn4 
	BYTE	W24
	BYTE		        Dn4 
	BYTE	W12
	BYTE	PEND
// 030   ----------------------------------------
	BYTE	W10
	BYTE		VOICE   34
	BYTE	W84
	BYTE	W02
// 031   ----------------------------------------
	BYTE	W96
// 032   ----------------------------------------
	BYTE	W96
// 033   ----------------------------------------
	BYTE	W96
// 034   ----------------------------------------
	BYTE	W96
// 035   ----------------------------------------
	BYTE	W96
// 036   ----------------------------------------
	BYTE	W96
// 037   ----------------------------------------
	BYTE	W30
	BYTE		VOL     87*DragonBattle_mvl/mxv
	BYTE	W44
	BYTE	W01
	BYTE		VOICE   61
	BYTE	W09
	BYTE		N11     An3 
	BYTE	W12
// 038   ----------------------------------------
	BYTE	PATT
	 POIN2	DragonBattle_4_024
// 039   ----------------------------------------
	BYTE	PATT
	 POIN2	DragonBattle_4_025
// 040   ----------------------------------------
	BYTE	PATT
	 POIN2	DragonBattle_4_026
// 041   ----------------------------------------
	BYTE	PATT
	 POIN2	DragonBattle_4_027
// 042   ----------------------------------------
	BYTE	PATT
	 POIN2	DragonBattle_4_024
// 043   ----------------------------------------
	BYTE	PATT
	 POIN2	DragonBattle_4_029
// 044   ----------------------------------------
	BYTE	W96
// 045   ----------------------------------------
	BYTE	W96
// 046   ----------------------------------------
	BYTE	W96
// 047   ----------------------------------------
	BYTE	W96
// 048   ----------------------------------------
	BYTE	W96
// 049   ----------------------------------------
	BYTE	W96
// 050   ----------------------------------------
	BYTE	W96
// 051   ----------------------------------------
	BYTE	W96
// 052   ----------------------------------------
	BYTE	W96
// 053   ----------------------------------------
	BYTE	W12
	BYTE		VOICE   50
	BYTE		VOL     89*DragonBattle_mvl/mxv
	BYTE	W84
// 054   ----------------------------------------
	BYTE	W12
	BYTE		        76*DragonBattle_mvl/mxv
	BYTE		N07     Ds3   v116
	BYTE	W36
	BYTE		N07   
	BYTE	W48
// 055   ----------------------------------------
DragonBattle_4_055:
	BYTE		N07     Cs3   v116
	BYTE	W12
	BYTE		        Ds3 
	BYTE	W36
	BYTE		N07   
	BYTE	W48
	BYTE	PEND
// 056   ----------------------------------------
DragonBattle_4_056:
	BYTE	W12
	BYTE		N07     Ds3   v116
	BYTE	W36
	BYTE		N07   
	BYTE	W48
	BYTE	PEND
// 057   ----------------------------------------
DragonBattle_4_057:
	BYTE		N07     Cs3   v116
	BYTE	W12
	BYTE		        Ds3 
	BYTE	W84
	BYTE	PEND
// 058   ----------------------------------------
	BYTE	W96
// 059   ----------------------------------------
	BYTE	W96
// 060   ----------------------------------------
	BYTE	W96
// 061   ----------------------------------------
	BYTE	W96
// 062   ----------------------------------------
	BYTE	W18
	BYTE		VOL     76*DragonBattle_mvl/mxv
	BYTE	W30
	BYTE		N07   
	BYTE	W48
// 063   ----------------------------------------
	BYTE	PATT
	 POIN2	DragonBattle_4_055
// 064   ----------------------------------------
	BYTE	PATT
	 POIN2	DragonBattle_4_056
// 065   ----------------------------------------
	BYTE	PATT
	 POIN2	DragonBattle_4_057
// 066   ----------------------------------------
	BYTE	W96
// 067   ----------------------------------------
	BYTE	W96
// 068   ----------------------------------------
	BYTE	W96
// 069   ----------------------------------------
	BYTE	W96
// 070   ----------------------------------------
	BYTE	W96
// 071   ----------------------------------------
	BYTE	W96
// 072   ----------------------------------------
	BYTE	W96
// 073   ----------------------------------------
	BYTE	W96
// 074   ----------------------------------------
	BYTE	W96
// 075   ----------------------------------------
	BYTE	W96
// 076   ----------------------------------------
	BYTE	W96
// 077   ----------------------------------------
	BYTE	W96
// 078   ----------------------------------------
	BYTE	W12
	BYTE	GoTo
	 POIN2	DragonBattle_4_B1
DragonBattle_4_B2:
	BYTE		VOL     89*DragonBattle_mvl/mxv
	BYTE	FINE

//**************** Track 5 (Midi-Chn.5) ****************//

DragonBattle_5:
	BYTE	KEYSH   DragonBattle_key+0
DragonBattle_5_B1:
// 000   ----------------------------------------
	BYTE		VOICE   33
	BYTE	W12
	BYTE		VOL     62*DragonBattle_mvl/mxv
	BYTE		PAN     c_v+0
	BYTE		TIE     Cn0   v116
	BYTE	W84
// 001   ----------------------------------------
	BYTE	W96
// 002   ----------------------------------------
	BYTE	W96
// 003   ----------------------------------------
	BYTE	W96
// 004   ----------------------------------------
	BYTE	W96
// 005   ----------------------------------------
	BYTE	W96
// 006   ----------------------------------------
	BYTE	W96
// 007   ----------------------------------------
	BYTE	W96
// 008   ----------------------------------------
	BYTE	W96
// 009   ----------------------------------------
	BYTE	W96
// 010   ----------------------------------------
	BYTE	W96
// 011   ----------------------------------------
	BYTE	W96
// 012   ----------------------------------------
	BYTE	W96
// 013   ----------------------------------------
	BYTE	W96
// 014   ----------------------------------------
	BYTE	W96
// 015   ----------------------------------------
	BYTE	W96
// 016   ----------------------------------------
	BYTE	W11
	BYTE		EOT   
	BYTE	W01
	BYTE		VOL     76*DragonBattle_mvl/mxv
	BYTE		N05     An1 
	BYTE	W06
	BYTE		        Dn2 
	BYTE	W06
	BYTE		        En2 
	BYTE	W06
	BYTE		        An2 
	BYTE	W06
	BYTE		        An1 
	BYTE	W06
	BYTE		        Dn2 
	BYTE	W06
	BYTE		        En2 
	BYTE	W06
	BYTE		        Gn2 
	BYTE	W06
	BYTE		        An1 
	BYTE	W06
	BYTE		        Dn2 
	BYTE	W06
	BYTE		        En2 
	BYTE	W06
	BYTE		        An2 
	BYTE	W06
	BYTE		        An1 
	BYTE	W06
	BYTE		        Dn2 
	BYTE	W06
// 017   ----------------------------------------
DragonBattle_5_017:
	BYTE		N05     En2   v116
	BYTE	W06
	BYTE		        Gn2 
	BYTE	W06
	BYTE		        An1 
	BYTE	W06
	BYTE		        Dn2 
	BYTE	W06
	BYTE		        En2 
	BYTE	W06
	BYTE		        An2 
	BYTE	W06
	BYTE		        An1 
	BYTE	W06
	BYTE		        Dn2 
	BYTE	W06
	BYTE		        En2 
	BYTE	W06
	BYTE		        Gn2 
	BYTE	W06
	BYTE		        An1 
	BYTE	W06
	BYTE		        Dn2 
	BYTE	W06
	BYTE		        En2 
	BYTE	W06
	BYTE		        An2 
	BYTE	W06
	BYTE		        An1 
	BYTE	W06
	BYTE		        Dn2 
	BYTE	W06
	BYTE	PEND
// 018   ----------------------------------------
	BYTE	PATT
	 POIN2	DragonBattle_5_017
// 019   ----------------------------------------
	BYTE	PATT
	 POIN2	DragonBattle_5_017
// 020   ----------------------------------------
	BYTE	PATT
	 POIN2	DragonBattle_5_017
// 021   ----------------------------------------
	BYTE	PATT
	 POIN2	DragonBattle_5_017
// 022   ----------------------------------------
	BYTE	PATT
	 POIN2	DragonBattle_5_017
// 023   ----------------------------------------
	BYTE	PATT
	 POIN2	DragonBattle_5_017
// 024   ----------------------------------------
DragonBattle_5_024:
	BYTE		N05     En2   v116
	BYTE	W06
	BYTE		        Gn2 
	BYTE	W06
	BYTE		        Fn1 
	BYTE	W06
	BYTE		        Cn2 
	BYTE	W06
	BYTE		        Fn2 
	BYTE	W06
	BYTE		        Cn2 
	BYTE	W06
	BYTE		        Fn1 
	BYTE	W06
	BYTE		        Cn2 
	BYTE	W06
	BYTE		        Fn2 
	BYTE	W06
	BYTE		        Cn2 
	BYTE	W06
	BYTE		        Fn1 
	BYTE	W06
	BYTE		        Cn2 
	BYTE	W06
	BYTE		        Fn2 
	BYTE	W06
	BYTE		        Cn2 
	BYTE	W06
	BYTE		        Fn1 
	BYTE	W06
	BYTE		        Cn2 
	BYTE	W06
	BYTE	PEND
// 025   ----------------------------------------
DragonBattle_5_025:
	BYTE		N05     Fn2   v116
	BYTE	W06
	BYTE		        Cn2 
	BYTE	W06
	BYTE		        Gn1 
	BYTE	W06
	BYTE		        Dn2 
	BYTE	W06
	BYTE		        Gn2 
	BYTE	W06
	BYTE		        Dn2 
	BYTE	W06
	BYTE		        Gn1 
	BYTE	W06
	BYTE		        Dn2 
	BYTE	W06
	BYTE		        Gn2 
	BYTE	W06
	BYTE		        Dn2 
	BYTE	W06
	BYTE		        Gn1 
	BYTE	W06
	BYTE		        Dn2 
	BYTE	W06
	BYTE		        Gn2 
	BYTE	W06
	BYTE		        Dn2 
	BYTE	W06
	BYTE		        Gn1 
	BYTE	W06
	BYTE		        Dn2 
	BYTE	W06
	BYTE	PEND
// 026   ----------------------------------------
DragonBattle_5_026:
	BYTE		N05     Gn2   v116
	BYTE	W06
	BYTE		        Dn2 
	BYTE	W06
	BYTE		        Fn1 
	BYTE	W06
	BYTE		        Cn2 
	BYTE	W06
	BYTE		        Fn2 
	BYTE	W06
	BYTE		        Cn2 
	BYTE	W06
	BYTE		        Fn1 
	BYTE	W06
	BYTE		        Cn2 
	BYTE	W06
	BYTE		        Fn2 
	BYTE	W06
	BYTE		        Cn2 
	BYTE	W06
	BYTE		        Fn1 
	BYTE	W06
	BYTE		        Cn2 
	BYTE	W06
	BYTE		        Fn2 
	BYTE	W06
	BYTE		        Cn2 
	BYTE	W06
	BYTE		        Fn1 
	BYTE	W06
	BYTE		        Cn2 
	BYTE	W06
	BYTE	PEND
// 027   ----------------------------------------
	BYTE	PATT
	 POIN2	DragonBattle_5_025
// 028   ----------------------------------------
	BYTE	PATT
	 POIN2	DragonBattle_5_026
// 029   ----------------------------------------
	BYTE	PATT
	 POIN2	DragonBattle_5_025
// 030   ----------------------------------------
	BYTE		N05     Gn2   v116
	BYTE	W06
	BYTE		        Dn2 
	BYTE	W06
	BYTE		        An1 
	BYTE	W06
	BYTE		        Dn2 
	BYTE	W06
	BYTE		        En2 
	BYTE	W06
	BYTE		        An2 
	BYTE	W06
	BYTE		        An1 
	BYTE	W06
	BYTE		        Dn2 
	BYTE	W06
	BYTE		        En2 
	BYTE	W06
	BYTE		        Gn2 
	BYTE	W06
	BYTE		        An1 
	BYTE	W06
	BYTE		        Dn2 
	BYTE	W06
	BYTE		        En2 
	BYTE	W06
	BYTE		        An2 
	BYTE	W06
	BYTE		        An1 
	BYTE	W06
	BYTE		        Dn2 
	BYTE	W06
// 031   ----------------------------------------
	BYTE	PATT
	 POIN2	DragonBattle_5_017
// 032   ----------------------------------------
	BYTE	PATT
	 POIN2	DragonBattle_5_017
// 033   ----------------------------------------
	BYTE	PATT
	 POIN2	DragonBattle_5_017
// 034   ----------------------------------------
	BYTE	PATT
	 POIN2	DragonBattle_5_017
// 035   ----------------------------------------
	BYTE	PATT
	 POIN2	DragonBattle_5_017
// 036   ----------------------------------------
	BYTE	PATT
	 POIN2	DragonBattle_5_017
// 037   ----------------------------------------
	BYTE	PATT
	 POIN2	DragonBattle_5_017
// 038   ----------------------------------------
	BYTE	PATT
	 POIN2	DragonBattle_5_024
// 039   ----------------------------------------
	BYTE	PATT
	 POIN2	DragonBattle_5_025
// 040   ----------------------------------------
	BYTE	PATT
	 POIN2	DragonBattle_5_026
// 041   ----------------------------------------
	BYTE	PATT
	 POIN2	DragonBattle_5_025
// 042   ----------------------------------------
	BYTE	PATT
	 POIN2	DragonBattle_5_026
// 043   ----------------------------------------
	BYTE	PATT
	 POIN2	DragonBattle_5_025
// 044   ----------------------------------------
	BYTE		N05     Gn2   v116
	BYTE	W06
	BYTE		        Dn2 
	BYTE	W06
	BYTE		PAN     c_v-64
	BYTE		N05     An1 
	BYTE	W06
	BYTE		        En2 
	BYTE	W06
	BYTE		        An1 
	BYTE	W36
	BYTE		PAN     c_v+63
	BYTE		N05     As1 
	BYTE	W06
	BYTE		        Fn2 
	BYTE	W06
	BYTE		        As1 
	BYTE	W24
// 045   ----------------------------------------
DragonBattle_5_045:
	BYTE	W12
	BYTE		PAN     c_v-64
	BYTE		N05     An1   v116
	BYTE	W06
	BYTE		        En2 
	BYTE	W06
	BYTE		        An1 
	BYTE	W06
	BYTE		PAN     c_v+63
	BYTE		N05     En2 
	BYTE	W06
	BYTE		        Cn2 
	BYTE	W06
	BYTE		        Gn2 
	BYTE	W06
	BYTE		        Cn2 
	BYTE	W06
	BYTE		        Gn2 
	BYTE	W42
	BYTE	PEND
// 046   ----------------------------------------
DragonBattle_5_046:
	BYTE	W12
	BYTE		PAN     c_v-64
	BYTE		N05     An1   v116
	BYTE	W06
	BYTE		        En2 
	BYTE	W06
	BYTE		        An1 
	BYTE	W36
	BYTE		PAN     c_v+63
	BYTE		N05     As1 
	BYTE	W06
	BYTE		        Fn2 
	BYTE	W06
	BYTE		        As1 
	BYTE	W24
	BYTE	PEND
// 047   ----------------------------------------
	BYTE	PATT
	 POIN2	DragonBattle_5_045
// 048   ----------------------------------------
	BYTE	PATT
	 POIN2	DragonBattle_5_046
// 049   ----------------------------------------
	BYTE	PATT
	 POIN2	DragonBattle_5_045
// 050   ----------------------------------------
	BYTE	PATT
	 POIN2	DragonBattle_5_046
// 051   ----------------------------------------
	BYTE	PATT
	 POIN2	DragonBattle_5_045
// 052   ----------------------------------------
	BYTE	W12
	BYTE		PAN     c_v+0
	BYTE		N05     An1   v116
	BYTE	W06
	BYTE		        Dn2 
	BYTE	W06
	BYTE		        En2 
	BYTE	W06
	BYTE		        An2 
	BYTE	W06
	BYTE		        An1 
	BYTE	W06
	BYTE		        Dn2 
	BYTE	W06
	BYTE		        En2 
	BYTE	W06
	BYTE		        Gn2 
	BYTE	W06
	BYTE		        An1 
	BYTE	W06
	BYTE		        Dn2 
	BYTE	W06
	BYTE		        En2 
	BYTE	W06
	BYTE		        An2 
	BYTE	W06
	BYTE		        Gs1 
	BYTE	W06
	BYTE		        Cs2 
	BYTE	W06
// 053   ----------------------------------------
	BYTE		        Ds2 
	BYTE	W06
	BYTE		        Gs2 
	BYTE	W06
	BYTE		        Gs1 
	BYTE	W06
	BYTE		        Ds2 
	BYTE	W06
	BYTE		        Gs2 
	BYTE	W06
	BYTE		        Ds2 
	BYTE	W06
	BYTE		        Gs1 
	BYTE	W06
	BYTE		        Ds2 
	BYTE	W06
	BYTE		        Gs2 
	BYTE	W06
	BYTE		        Ds2 
	BYTE	W06
	BYTE		        Gs1 
	BYTE	W06
	BYTE		        Ds2 
	BYTE	W06
	BYTE		        Gs2 
	BYTE	W06
	BYTE		        Ds2 
	BYTE	W06
	BYTE		        Gs1 
	BYTE	W06
	BYTE		        Ds2 
	BYTE	W06
// 054   ----------------------------------------
DragonBattle_5_054:
	BYTE		N05     Gs2   v116
	BYTE	W06
	BYTE		        Ds2 
	BYTE	W06
	BYTE		        Gs1 
	BYTE	W06
	BYTE		        Ds2 
	BYTE	W06
	BYTE		        Gs2 
	BYTE	W06
	BYTE		        Ds2 
	BYTE	W06
	BYTE		        Gs1 
	BYTE	W06
	BYTE		        Ds2 
	BYTE	W06
	BYTE		        Gs2 
	BYTE	W06
	BYTE		        Ds2 
	BYTE	W06
	BYTE		        Gs1 
	BYTE	W06
	BYTE		        Ds2 
	BYTE	W06
	BYTE		        Gs2 
	BYTE	W06
	BYTE		        Ds2 
	BYTE	W06
	BYTE		        Gs1 
	BYTE	W06
	BYTE		        Ds2 
	BYTE	W06
	BYTE	PEND
// 055   ----------------------------------------
	BYTE	PATT
	 POIN2	DragonBattle_5_054
// 056   ----------------------------------------
	BYTE	PATT
	 POIN2	DragonBattle_5_054
// 057   ----------------------------------------
DragonBattle_5_057:
	BYTE		N05     Gs2   v116
	BYTE	W06
	BYTE		        Ds2 
	BYTE	W06
	BYTE		        Gs1 
	BYTE	W06
	BYTE		        Ds2 
	BYTE	W06
	BYTE		        Gs1 
	BYTE	W06
	BYTE		        Ds2 
	BYTE	W06
	BYTE		        Gs1 
	BYTE	W06
	BYTE		        Ds2 
	BYTE	W06
	BYTE		        Gs1 
	BYTE	W06
	BYTE		        Ds2 
	BYTE	W06
	BYTE		        Gn1 
	BYTE	W06
	BYTE		        Dn2 
	BYTE	W06
	BYTE		        Gn1 
	BYTE	W06
	BYTE		        Dn2 
	BYTE	W06
	BYTE		        Fs1 
	BYTE	W06
	BYTE		        Cs2 
	BYTE	W06
	BYTE	PEND
// 058   ----------------------------------------
DragonBattle_5_058:
	BYTE		N05     Fs1   v116
	BYTE	W06
	BYTE		        Cs2 
	BYTE	W06
	BYTE		        Fn1 
	BYTE	W06
	BYTE		        Cn2 
	BYTE	W06
	BYTE		        Fn1 
	BYTE	W06
	BYTE		        Cn2 
	BYTE	W06
	BYTE		        Fn1 
	BYTE	W06
	BYTE		        Cn2 
	BYTE	W06
	BYTE		        Fn1 
	BYTE	W06
	BYTE		        Cn2 
	BYTE	W06
	BYTE		        Fs1 
	BYTE	W06
	BYTE		        Cs2 
	BYTE	W06
	BYTE		        Fs1 
	BYTE	W06
	BYTE		        Cs2 
	BYTE	W06
	BYTE		        Fs1 
	BYTE	W06
	BYTE		        Cs2 
	BYTE	W06
	BYTE	PEND
// 059   ----------------------------------------
	BYTE	PATT
	 POIN2	DragonBattle_5_058
// 060   ----------------------------------------
	BYTE	PATT
	 POIN2	DragonBattle_5_058
// 061   ----------------------------------------
	BYTE	PATT
	 POIN2	DragonBattle_5_058
// 062   ----------------------------------------
	BYTE		N05     Fs1   v116
	BYTE	W06
	BYTE		        Cs2 
	BYTE	W06
	BYTE		        Gs1 
	BYTE	W06
	BYTE		        Ds2 
	BYTE	W06
	BYTE		        Gs2 
	BYTE	W06
	BYTE		        Ds2 
	BYTE	W06
	BYTE		        Gs1 
	BYTE	W06
	BYTE		        Ds2 
	BYTE	W06
	BYTE		        Gs2 
	BYTE	W06
	BYTE		        Ds2 
	BYTE	W06
	BYTE		        Gs1 
	BYTE	W06
	BYTE		        Ds2 
	BYTE	W06
	BYTE		        Gs2 
	BYTE	W06
	BYTE		        Ds2 
	BYTE	W06
	BYTE		        Gs1 
	BYTE	W06
	BYTE		        Ds2 
	BYTE	W06
// 063   ----------------------------------------
	BYTE	PATT
	 POIN2	DragonBattle_5_054
// 064   ----------------------------------------
	BYTE	PATT
	 POIN2	DragonBattle_5_054
// 065   ----------------------------------------
	BYTE	PATT
	 POIN2	DragonBattle_5_057
// 066   ----------------------------------------
	BYTE	PATT
	 POIN2	DragonBattle_5_058
// 067   ----------------------------------------
	BYTE	PATT
	 POIN2	DragonBattle_5_058
// 068   ----------------------------------------
	BYTE	PATT
	 POIN2	DragonBattle_5_058
// 069   ----------------------------------------
	BYTE	PATT
	 POIN2	DragonBattle_5_058
// 070   ----------------------------------------
	BYTE		N05     Fs1   v116
	BYTE	W06
	BYTE		        Cs2 
	BYTE	W06
	BYTE		        Fn1 
	BYTE	W06
	BYTE		        Fn2 
	BYTE	W06
	BYTE		        Fn1 
	BYTE	W06
	BYTE		        Fn2 
	BYTE	W06
	BYTE		        Fn1 
	BYTE	W06
	BYTE		        Fn2 
	BYTE	W06
	BYTE		        Fn1 
	BYTE	W06
	BYTE		        Fn2 
	BYTE	W06
	BYTE		        Gs1 
	BYTE	W06
	BYTE		        Gs2 
	BYTE	W06
	BYTE		        Gs1 
	BYTE	W06
	BYTE		        Gs2 
	BYTE	W06
	BYTE		        Gs1 
	BYTE	W06
	BYTE		        Gs2 
	BYTE	W06
// 071   ----------------------------------------
	BYTE		        Gs1 
	BYTE	W06
	BYTE		        Gs2 
	BYTE	W06
	BYTE		        An1 
	BYTE	W06
	BYTE		        An2 
	BYTE	W06
	BYTE		        An1 
	BYTE	W06
	BYTE		        An2 
	BYTE	W06
	BYTE		        An1 
	BYTE	W06
	BYTE		        An2 
	BYTE	W06
	BYTE		        An1 
	BYTE	W06
	BYTE		        An2 
	BYTE	W06
	BYTE		        Cs2 
	BYTE	W06
	BYTE		        Cs3 
	BYTE	W06
	BYTE		        Cs2 
	BYTE	W06
	BYTE		        Cs3 
	BYTE	W06
	BYTE		        Cs2 
	BYTE	W06
	BYTE		        Cs3 
	BYTE	W06
// 072   ----------------------------------------
	BYTE		        Cs2 
	BYTE	W06
	BYTE		        Cs3 
	BYTE	W06
	BYTE		        Dn2 
	BYTE	W06
	BYTE		        Dn3 
	BYTE	W06
	BYTE		        Dn2 
	BYTE	W06
	BYTE		        Dn3 
	BYTE	W06
	BYTE		        Dn2 
	BYTE	W06
	BYTE		        Dn3 
	BYTE	W06
	BYTE		        Dn2 
	BYTE	W06
	BYTE		        Dn3 
	BYTE	W06
	BYTE		        Cs2 
	BYTE	W06
	BYTE		        Cs3 
	BYTE	W06
	BYTE		        Cs2 
	BYTE	W06
	BYTE		        Cs3 
	BYTE	W06
	BYTE		        Cs2 
	BYTE	W06
	BYTE		        Cs3 
	BYTE	W06
// 073   ----------------------------------------
	BYTE		        Cs2 
	BYTE	W06
	BYTE		        Cs3 
	BYTE	W06
	BYTE		        Bn1 
	BYTE	W06
	BYTE		        Bn2 
	BYTE	W06
	BYTE		        Bn1 
	BYTE	W06
	BYTE		        Bn2 
	BYTE	W06
	BYTE		        Bn1 
	BYTE	W06
	BYTE		        Bn2 
	BYTE	W06
	BYTE		        Bn1 
	BYTE	W06
	BYTE		        Bn2 
	BYTE	W06
	BYTE		        Bn1 
	BYTE	W06
	BYTE		        Bn2 
	BYTE	W06
	BYTE		        Bn1 
	BYTE	W06
	BYTE		        Bn2 
	BYTE	W06
	BYTE		        Bn1 
	BYTE	W06
	BYTE		        Bn2 
	BYTE	W06
// 074   ----------------------------------------
	BYTE		        Bn1 
	BYTE	W06
	BYTE		        Bn2 
	BYTE	W06
	BYTE		        As1 
	BYTE	W06
	BYTE		        As2 
	BYTE	W06
	BYTE		        As1 
	BYTE	W06
	BYTE		        As2 
	BYTE	W06
	BYTE		        As1 
	BYTE	W06
	BYTE		        As2 
	BYTE	W06
	BYTE		        As1 
	BYTE	W06
	BYTE		        As2 
	BYTE	W06
	BYTE		        As1 
	BYTE	W06
	BYTE		        As2 
	BYTE	W06
	BYTE		        As1 
	BYTE	W06
	BYTE		        As2 
	BYTE	W06
	BYTE		        As1 
	BYTE	W06
	BYTE		        As2 
	BYTE	W06
// 075   ----------------------------------------
DragonBattle_5_075:
	BYTE		N05     As1   v116
	BYTE	W06
	BYTE		        As2 
	BYTE	W06
	BYTE		        As1 
	BYTE	W06
	BYTE		        As2 
	BYTE	W06
	BYTE		        As1 
	BYTE	W06
	BYTE		        As2 
	BYTE	W06
	BYTE		        As1 
	BYTE	W06
	BYTE		        As2 
	BYTE	W06
	BYTE		        As1 
	BYTE	W06
	BYTE		        As2 
	BYTE	W06
	BYTE		        As1 
	BYTE	W06
	BYTE		        As2 
	BYTE	W06
	BYTE		        As1 
	BYTE	W06
	BYTE		        As2 
	BYTE	W06
	BYTE		        As1 
	BYTE	W06
	BYTE		        As2 
	BYTE	W06
	BYTE	PEND
// 076   ----------------------------------------
	BYTE	PATT
	 POIN2	DragonBattle_5_075
// 077   ----------------------------------------
	BYTE	PATT
	 POIN2	DragonBattle_5_075
// 078   ----------------------------------------
	BYTE		N05     As1   v116
	BYTE	W06
	BYTE		        As2 
	BYTE	W06
	BYTE	GoTo
	 POIN2	DragonBattle_5_B1
DragonBattle_5_B2:
	BYTE	FINE

//**************** Track 6 (Midi-Chn.6) ****************//

DragonBattle_6:
	BYTE	KEYSH   DragonBattle_key+0
DragonBattle_6_B1:
// 000   ----------------------------------------
	BYTE		VOICE   116
	BYTE		PAN     c_v+0
	BYTE		VOL     80*DragonBattle_mvl/mxv
	BYTE		N05     Cn2   v116
	BYTE	W06
	BYTE		VOL     89*DragonBattle_mvl/mxv
	BYTE		N05   
	BYTE	W06
	BYTE		TIE   
	BYTE	W84
// 001   ----------------------------------------
	BYTE	W92
	BYTE	W03
	BYTE		EOT   
	BYTE	W01
// 002   ----------------------------------------
DragonBattle_6_002:
	BYTE		VOL     76*DragonBattle_mvl/mxv
	BYTE		N05     Cn2   v116
	BYTE	W06
	BYTE		VOL     82*DragonBattle_mvl/mxv
	BYTE		N05   
	BYTE	W06
	BYTE		VOL     89*DragonBattle_mvl/mxv
	BYTE		TIE   
	BYTE	W84
	BYTE	PEND
// 003   ----------------------------------------
	BYTE	W68
	BYTE	W03
	BYTE		EOT   
	BYTE	W01
	BYTE		N32     Ds2 
	BYTE	W24
// 004   ----------------------------------------
DragonBattle_6_004:
	BYTE	W12
	BYTE		TIE     Cn2   v116
	BYTE	W84
	BYTE	PEND
// 005   ----------------------------------------
	BYTE	W92
	BYTE	W03
	BYTE		EOT   
	BYTE	W01
// 006   ----------------------------------------
	BYTE	PATT
	 POIN2	DragonBattle_6_002
// 007   ----------------------------------------
	BYTE	W68
	BYTE	W03
	BYTE		EOT     Cn2 
	BYTE	W01
	BYTE		N32     Ds2   v116
	BYTE	W24
// 008   ----------------------------------------
	BYTE	PATT
	 POIN2	DragonBattle_6_004
// 009   ----------------------------------------
	BYTE	W92
	BYTE	W03
	BYTE		EOT     Cn2 
	BYTE	W01
// 010   ----------------------------------------
	BYTE	PATT
	 POIN2	DragonBattle_6_002
// 011   ----------------------------------------
	BYTE	W68
	BYTE	W03
	BYTE		EOT     Cn2 
	BYTE	W01
	BYTE		N32     Ds2   v116
	BYTE	W24
// 012   ----------------------------------------
	BYTE	PATT
	 POIN2	DragonBattle_6_004
// 013   ----------------------------------------
	BYTE	W92
	BYTE	W03
	BYTE		EOT     Cn2 
	BYTE	W01
// 014   ----------------------------------------
	BYTE	PATT
	 POIN2	DragonBattle_6_002
// 015   ----------------------------------------
	BYTE	W68
	BYTE	W03
	BYTE		EOT     Cn2 
	BYTE	W01
	BYTE		N32     Ds2   v116
	BYTE	W24
// 016   ----------------------------------------
	BYTE	W12
	BYTE		N11     An1 
	BYTE	W12
	BYTE		VOL     67*DragonBattle_mvl/mxv
	BYTE		N23   
	BYTE	W24
	BYTE		VOL     80*DragonBattle_mvl/mxv
	BYTE		N11   
	BYTE	W12
	BYTE		VOL     89*DragonBattle_mvl/mxv
	BYTE		N23   
	BYTE	W24
	BYTE		VOL     67*DragonBattle_mvl/mxv
	BYTE		N11   
	BYTE	W12
// 017   ----------------------------------------
DragonBattle_6_017:
	BYTE		VOL     80*DragonBattle_mvl/mxv
	BYTE		N23     An1   v116
	BYTE	W24
	BYTE		VOL     89*DragonBattle_mvl/mxv
	BYTE		N23   
	BYTE	W24
	BYTE		VOL     80*DragonBattle_mvl/mxv
	BYTE		N11   
	BYTE	W12
	BYTE		VOL     89*DragonBattle_mvl/mxv
	BYTE		N32   
	BYTE	W36
	BYTE	PEND
// 018   ----------------------------------------
DragonBattle_6_018:
	BYTE		VOL     67*DragonBattle_mvl/mxv
	BYTE		N11     An1   v116
	BYTE	W12
	BYTE		VOL     89*DragonBattle_mvl/mxv
	BYTE		N11   
	BYTE	W12
	BYTE		VOL     67*DragonBattle_mvl/mxv
	BYTE		N23   
	BYTE	W24
	BYTE		VOL     80*DragonBattle_mvl/mxv
	BYTE		N11   
	BYTE	W12
	BYTE		VOL     89*DragonBattle_mvl/mxv
	BYTE		N23   
	BYTE	W24
	BYTE		VOL     67*DragonBattle_mvl/mxv
	BYTE		N11   
	BYTE	W12
	BYTE	PEND
// 019   ----------------------------------------
	BYTE	PATT
	 POIN2	DragonBattle_6_017
// 020   ----------------------------------------
	BYTE	PATT
	 POIN2	DragonBattle_6_018
// 021   ----------------------------------------
	BYTE	PATT
	 POIN2	DragonBattle_6_017
// 022   ----------------------------------------
	BYTE	PATT
	 POIN2	DragonBattle_6_018
// 023   ----------------------------------------
	BYTE	PATT
	 POIN2	DragonBattle_6_017
// 024   ----------------------------------------
DragonBattle_6_024:
	BYTE		VOL     67*DragonBattle_mvl/mxv
	BYTE		N11     An1   v116
	BYTE	W12
	BYTE		VOL     89*DragonBattle_mvl/mxv
	BYTE		N11     Fn1 
	BYTE	W12
	BYTE		VOL     67*DragonBattle_mvl/mxv
	BYTE		N23   
	BYTE	W24
	BYTE		VOL     80*DragonBattle_mvl/mxv
	BYTE		N11   
	BYTE	W12
	BYTE		VOL     89*DragonBattle_mvl/mxv
	BYTE		N23   
	BYTE	W24
	BYTE		VOL     67*DragonBattle_mvl/mxv
	BYTE		N11   
	BYTE	W12
	BYTE	PEND
// 025   ----------------------------------------
DragonBattle_6_025:
	BYTE		VOL     80*DragonBattle_mvl/mxv
	BYTE		N23     Fn1   v116
	BYTE	W24
	BYTE		VOL     89*DragonBattle_mvl/mxv
	BYTE		N23     Gn1 
	BYTE	W24
	BYTE		VOL     67*DragonBattle_mvl/mxv
	BYTE		N11   
	BYTE	W12
	BYTE		VOL     89*DragonBattle_mvl/mxv
	BYTE		N32   
	BYTE	W36
	BYTE	PEND
// 026   ----------------------------------------
DragonBattle_6_026:
	BYTE		VOL     67*DragonBattle_mvl/mxv
	BYTE		N11     Gn1   v116
	BYTE	W12
	BYTE		VOL     89*DragonBattle_mvl/mxv
	BYTE		N11     Fn1 
	BYTE	W12
	BYTE		VOL     67*DragonBattle_mvl/mxv
	BYTE		N23   
	BYTE	W24
	BYTE		VOL     80*DragonBattle_mvl/mxv
	BYTE		N11   
	BYTE	W12
	BYTE		VOL     89*DragonBattle_mvl/mxv
	BYTE		N23   
	BYTE	W24
	BYTE		VOL     67*DragonBattle_mvl/mxv
	BYTE		N11   
	BYTE	W12
	BYTE	PEND
// 027   ----------------------------------------
	BYTE	PATT
	 POIN2	DragonBattle_6_025
// 028   ----------------------------------------
	BYTE	PATT
	 POIN2	DragonBattle_6_026
// 029   ----------------------------------------
	BYTE	PATT
	 POIN2	DragonBattle_6_025
// 030   ----------------------------------------
	BYTE		VOL     67*DragonBattle_mvl/mxv
	BYTE		N11     Gn1   v116
	BYTE	W12
	BYTE		VOL     89*DragonBattle_mvl/mxv
	BYTE		N11     An1 
	BYTE	W12
	BYTE		VOL     67*DragonBattle_mvl/mxv
	BYTE		N23   
	BYTE	W24
	BYTE		VOL     80*DragonBattle_mvl/mxv
	BYTE		N11   
	BYTE	W12
	BYTE		VOL     89*DragonBattle_mvl/mxv
	BYTE		N23   
	BYTE	W24
	BYTE		VOL     67*DragonBattle_mvl/mxv
	BYTE		N11   
	BYTE	W12
// 031   ----------------------------------------
	BYTE	PATT
	 POIN2	DragonBattle_6_017
// 032   ----------------------------------------
	BYTE	PATT
	 POIN2	DragonBattle_6_018
// 033   ----------------------------------------
	BYTE	PATT
	 POIN2	DragonBattle_6_017
// 034   ----------------------------------------
	BYTE	PATT
	 POIN2	DragonBattle_6_018
// 035   ----------------------------------------
	BYTE	PATT
	 POIN2	DragonBattle_6_017
// 036   ----------------------------------------
	BYTE	PATT
	 POIN2	DragonBattle_6_018
// 037   ----------------------------------------
	BYTE	PATT
	 POIN2	DragonBattle_6_017
// 038   ----------------------------------------
	BYTE	PATT
	 POIN2	DragonBattle_6_024
// 039   ----------------------------------------
	BYTE	PATT
	 POIN2	DragonBattle_6_025
// 040   ----------------------------------------
	BYTE	PATT
	 POIN2	DragonBattle_6_026
// 041   ----------------------------------------
	BYTE	PATT
	 POIN2	DragonBattle_6_025
// 042   ----------------------------------------
	BYTE	PATT
	 POIN2	DragonBattle_6_026
// 043   ----------------------------------------
	BYTE	PATT
	 POIN2	DragonBattle_6_025
// 044   ----------------------------------------
	BYTE		VOL     67*DragonBattle_mvl/mxv
	BYTE		N11     Gn1   v116
	BYTE	W12
	BYTE		VOL     89*DragonBattle_mvl/mxv
	BYTE		N11     An1 
	BYTE	W12
	BYTE		VOL     80*DragonBattle_mvl/mxv
	BYTE		N32   
	BYTE	W36
	BYTE		VOL     89*DragonBattle_mvl/mxv
	BYTE		N11     As1 
	BYTE	W12
	BYTE		VOL     80*DragonBattle_mvl/mxv
	BYTE		N32   
	BYTE	W24
// 045   ----------------------------------------
DragonBattle_6_045:
	BYTE	W12
	BYTE		VOL     89*DragonBattle_mvl/mxv
	BYTE		N11     An1   v116
	BYTE	W12
	BYTE		N11   
	BYTE	W12
	BYTE		        Cn2 
	BYTE	W12
	BYTE		N44   
	BYTE	W48
	BYTE	PEND
// 046   ----------------------------------------
DragonBattle_6_046:
	BYTE		N11     Cn2   v116
	BYTE	W12
	BYTE		        An1 
	BYTE	W12
	BYTE		VOL     80*DragonBattle_mvl/mxv
	BYTE		N32   
	BYTE	W36
	BYTE		VOL     89*DragonBattle_mvl/mxv
	BYTE		N11     As1 
	BYTE	W12
	BYTE		VOL     80*DragonBattle_mvl/mxv
	BYTE		N32   
	BYTE	W24
	BYTE	PEND
// 047   ----------------------------------------
	BYTE	PATT
	 POIN2	DragonBattle_6_045
// 048   ----------------------------------------
	BYTE	PATT
	 POIN2	DragonBattle_6_046
// 049   ----------------------------------------
	BYTE	PATT
	 POIN2	DragonBattle_6_045
// 050   ----------------------------------------
	BYTE	PATT
	 POIN2	DragonBattle_6_046
// 051   ----------------------------------------
	BYTE	PATT
	 POIN2	DragonBattle_6_045
// 052   ----------------------------------------
	BYTE		N11     Cn2   v116
	BYTE	W12
	BYTE		N68     An1 
	BYTE	W72
	BYTE		N56     Gs1 
	BYTE	W12
// 053   ----------------------------------------
	BYTE	W48
	BYTE		VOL     80*DragonBattle_mvl/mxv
	BYTE		N11   
	BYTE	W12
	BYTE		VOL     89*DragonBattle_mvl/mxv
	BYTE		N32   
	BYTE	W36
// 054   ----------------------------------------
	BYTE		VOL     80*DragonBattle_mvl/mxv
	BYTE		N11   
	BYTE	W12
	BYTE		VOL     89*DragonBattle_mvl/mxv
	BYTE		N32   
	BYTE	W36
	BYTE		N68   
	BYTE	W48
// 055   ----------------------------------------
DragonBattle_6_055:
	BYTE	W24
	BYTE		N23     Gs1   v116
	BYTE	W24
	BYTE		VOL     80*DragonBattle_mvl/mxv
	BYTE		N11   
	BYTE	W12
	BYTE		VOL     89*DragonBattle_mvl/mxv
	BYTE		N44   
	BYTE	W36
	BYTE	PEND
// 056   ----------------------------------------
DragonBattle_6_056:
	BYTE	W12
	BYTE		N32     Gs1   v116
	BYTE	W36
	BYTE		N32   
	BYTE	W36
	BYTE		N44   
	BYTE	W12
	BYTE	PEND
// 057   ----------------------------------------
DragonBattle_6_057:
	BYTE	W36
	BYTE		N23     Gs1   v116
	BYTE	W24
	BYTE		        Gn1 
	BYTE	W24
	BYTE		        Fs1 
	BYTE	W12
	BYTE	PEND
// 058   ----------------------------------------
DragonBattle_6_058:
	BYTE	W12
	BYTE		N11     Fn1   v116
	BYTE	W12
	BYTE		VOL     67*DragonBattle_mvl/mxv
	BYTE		N23   
	BYTE	W24
	BYTE		VOL     80*DragonBattle_mvl/mxv
	BYTE		N11   
	BYTE	W12
	BYTE		VOL     89*DragonBattle_mvl/mxv
	BYTE		N23     Fs1 
	BYTE	W24
	BYTE		VOL     67*DragonBattle_mvl/mxv
	BYTE		N11   
	BYTE	W12
	BYTE	PEND
// 059   ----------------------------------------
DragonBattle_6_059:
	BYTE		VOL     80*DragonBattle_mvl/mxv
	BYTE		N23     Fs1   v116
	BYTE	W24
	BYTE		VOL     89*DragonBattle_mvl/mxv
	BYTE		N23     Fn1 
	BYTE	W24
	BYTE		VOL     80*DragonBattle_mvl/mxv
	BYTE		N11   
	BYTE	W12
	BYTE		VOL     89*DragonBattle_mvl/mxv
	BYTE		N32     Fs1 
	BYTE	W36
	BYTE	PEND
// 060   ----------------------------------------
DragonBattle_6_060:
	BYTE		VOL     67*DragonBattle_mvl/mxv
	BYTE		N11     Fs1   v116
	BYTE	W12
	BYTE		VOL     89*DragonBattle_mvl/mxv
	BYTE		N11     Fn1 
	BYTE	W12
	BYTE		VOL     67*DragonBattle_mvl/mxv
	BYTE		N23   
	BYTE	W24
	BYTE		VOL     80*DragonBattle_mvl/mxv
	BYTE		N11   
	BYTE	W12
	BYTE		VOL     89*DragonBattle_mvl/mxv
	BYTE		N23     Fs1 
	BYTE	W24
	BYTE		VOL     67*DragonBattle_mvl/mxv
	BYTE		N11   
	BYTE	W12
	BYTE	PEND
// 061   ----------------------------------------
	BYTE	PATT
	 POIN2	DragonBattle_6_059
// 062   ----------------------------------------
	BYTE		VOL     67*DragonBattle_mvl/mxv
	BYTE		N11     Fs1   v116
	BYTE	W12
	BYTE		VOL     89*DragonBattle_mvl/mxv
	BYTE		N32     Gs1 
	BYTE	W36
	BYTE		N68   
	BYTE	W48
// 063   ----------------------------------------
	BYTE	PATT
	 POIN2	DragonBattle_6_055
// 064   ----------------------------------------
	BYTE	PATT
	 POIN2	DragonBattle_6_056
// 065   ----------------------------------------
	BYTE	PATT
	 POIN2	DragonBattle_6_057
// 066   ----------------------------------------
	BYTE	PATT
	 POIN2	DragonBattle_6_058
// 067   ----------------------------------------
	BYTE	PATT
	 POIN2	DragonBattle_6_059
// 068   ----------------------------------------
	BYTE	PATT
	 POIN2	DragonBattle_6_060
// 069   ----------------------------------------
	BYTE	PATT
	 POIN2	DragonBattle_6_059
// 070   ----------------------------------------
	BYTE		VOL     67*DragonBattle_mvl/mxv
	BYTE		N11     Fs1   v116
	BYTE	W12
	BYTE		VOL     89*DragonBattle_mvl/mxv
	BYTE		N11     Fn1 
	BYTE	W12
	BYTE		VOL     67*DragonBattle_mvl/mxv
	BYTE		N23   
	BYTE	W24
	BYTE		VOL     80*DragonBattle_mvl/mxv
	BYTE		N11   
	BYTE	W12
	BYTE		VOL     89*DragonBattle_mvl/mxv
	BYTE		N23     Gs1 
	BYTE	W24
	BYTE		VOL     67*DragonBattle_mvl/mxv
	BYTE		N11   
	BYTE	W12
// 071   ----------------------------------------
	BYTE		VOL     80*DragonBattle_mvl/mxv
	BYTE		N23   
	BYTE	W24
	BYTE		VOL     89*DragonBattle_mvl/mxv
	BYTE		N23     An1 
	BYTE	W24
	BYTE		VOL     80*DragonBattle_mvl/mxv
	BYTE		N11   
	BYTE	W12
	BYTE		VOL     89*DragonBattle_mvl/mxv
	BYTE		N32     Cs2 
	BYTE	W36
// 072   ----------------------------------------
	BYTE		VOL     67*DragonBattle_mvl/mxv
	BYTE		N11   
	BYTE	W12
	BYTE		VOL     89*DragonBattle_mvl/mxv
	BYTE		N11     Dn2 
	BYTE	W12
	BYTE		VOL     67*DragonBattle_mvl/mxv
	BYTE		N23   
	BYTE	W24
	BYTE		VOL     80*DragonBattle_mvl/mxv
	BYTE		N11   
	BYTE	W12
	BYTE		VOL     89*DragonBattle_mvl/mxv
	BYTE		N23     Cs2 
	BYTE	W24
	BYTE		VOL     67*DragonBattle_mvl/mxv
	BYTE		N11   
	BYTE	W12
// 073   ----------------------------------------
	BYTE		VOL     80*DragonBattle_mvl/mxv
	BYTE		N23   
	BYTE	W24
	BYTE		VOL     89*DragonBattle_mvl/mxv
	BYTE		N23     Bn1 
	BYTE	W24
	BYTE		VOL     80*DragonBattle_mvl/mxv
	BYTE		N11   
	BYTE	W12
	BYTE		VOL     89*DragonBattle_mvl/mxv
	BYTE		N32   
	BYTE	W36
// 074   ----------------------------------------
	BYTE		VOL     67*DragonBattle_mvl/mxv
	BYTE		N11   
	BYTE	W12
	BYTE		VOL     89*DragonBattle_mvl/mxv
	BYTE		N11     As1 
	BYTE	W12
	BYTE		VOL     67*DragonBattle_mvl/mxv
	BYTE		N23   
	BYTE	W24
	BYTE		VOL     80*DragonBattle_mvl/mxv
	BYTE		N11   
	BYTE	W12
	BYTE		VOL     89*DragonBattle_mvl/mxv
	BYTE		N23   
	BYTE	W24
	BYTE		VOL     67*DragonBattle_mvl/mxv
	BYTE		N11     Bn1 
	BYTE	W12
// 075   ----------------------------------------
DragonBattle_6_075:
	BYTE		VOL     80*DragonBattle_mvl/mxv
	BYTE		N23     As1   v116
	BYTE	W24
	BYTE		VOL     89*DragonBattle_mvl/mxv
	BYTE		N23   
	BYTE	W24
	BYTE		VOL     80*DragonBattle_mvl/mxv
	BYTE		N11   
	BYTE	W12
	BYTE		VOL     89*DragonBattle_mvl/mxv
	BYTE		N32   
	BYTE	W36
	BYTE	PEND
// 076   ----------------------------------------
	BYTE		VOL     67*DragonBattle_mvl/mxv
	BYTE		N11   
	BYTE	W12
	BYTE		VOL     89*DragonBattle_mvl/mxv
	BYTE		N11   
	BYTE	W12
	BYTE		VOL     67*DragonBattle_mvl/mxv
	BYTE		N23   
	BYTE	W24
	BYTE		VOL     80*DragonBattle_mvl/mxv
	BYTE		N11   
	BYTE	W12
	BYTE		VOL     89*DragonBattle_mvl/mxv
	BYTE		N23   
	BYTE	W24
	BYTE		VOL     67*DragonBattle_mvl/mxv
	BYTE		N11     Bn1 
	BYTE	W12
// 077   ----------------------------------------
	BYTE	PATT
	 POIN2	DragonBattle_6_075
// 078   ----------------------------------------
	BYTE		VOL     67*DragonBattle_mvl/mxv
	BYTE		N11     As1   v116
	BYTE	W12
	BYTE	GoTo
	 POIN2	DragonBattle_6_B1
DragonBattle_6_B2:
	BYTE	FINE

//**************** Track 7 (Midi-Chn.7) ****************//

DragonBattle_7:
	BYTE	KEYSH   DragonBattle_key+0
DragonBattle_7_B1:
// 000   ----------------------------------------
	BYTE		VOICE   127
	BYTE		VOL     71*DragonBattle_mvl/mxv
	BYTE		N05     An3   v116
	BYTE	W06
	BYTE		VOL     80*DragonBattle_mvl/mxv
	BYTE		N05   
	BYTE	W06
	BYTE		VOL     87*DragonBattle_mvl/mxv
	BYTE		N11   
	BYTE	W12
	BYTE		N23   
	BYTE	W24
	BYTE		VOL     62*DragonBattle_mvl/mxv
	BYTE		N05   
	BYTE	W06
	BYTE		VOL     71*DragonBattle_mvl/mxv
	BYTE		N05   
	BYTE	W06
	BYTE		VOL     87*DragonBattle_mvl/mxv
	BYTE		N05   
	BYTE	W06
	BYTE		VOL     62*DragonBattle_mvl/mxv
	BYTE		N05   
	BYTE	W06
	BYTE		VOL     87*DragonBattle_mvl/mxv
	BYTE		N23   
	BYTE	W24
// 001   ----------------------------------------
DragonBattle_7_001:
	BYTE		VOL     62*DragonBattle_mvl/mxv
	BYTE		N23     An3   v116
	BYTE	W24
	BYTE		VOL     87*DragonBattle_mvl/mxv
	BYTE		N23   
	BYTE	W24
	BYTE		N11   
	BYTE	W12
	BYTE		VOL     80*DragonBattle_mvl/mxv
	BYTE		N11   
	BYTE	W12
	BYTE		VOL     62*DragonBattle_mvl/mxv
	BYTE		N05   
	BYTE	W06
	BYTE		VOL     67*DragonBattle_mvl/mxv
	BYTE		N05   
	BYTE	W06
	BYTE		VOL     71*DragonBattle_mvl/mxv
	BYTE		N05   
	BYTE	W06
	BYTE		VOL     76*DragonBattle_mvl/mxv
	BYTE		N05   
	BYTE	W06
	BYTE	PEND
// 002   ----------------------------------------
DragonBattle_7_002:
	BYTE		VOL     82*DragonBattle_mvl/mxv
	BYTE		N05     An3   v116
	BYTE	W06
	BYTE		VOL     84*DragonBattle_mvl/mxv
	BYTE		N05   
	BYTE	W06
	BYTE		VOL     87*DragonBattle_mvl/mxv
	BYTE		N11   
	BYTE	W12
	BYTE		N23   
	BYTE	W24
	BYTE		VOL     71*DragonBattle_mvl/mxv
	BYTE		N11   
	BYTE	W12
	BYTE		VOL     87*DragonBattle_mvl/mxv
	BYTE		N23   
	BYTE	W24
	BYTE		VOL     62*DragonBattle_mvl/mxv
	BYTE		N11   
	BYTE	W12
	BYTE	PEND
// 003   ----------------------------------------
DragonBattle_7_003:
	BYTE		VOL     87*DragonBattle_mvl/mxv
	BYTE		N23     An3   v116
	BYTE	W24
	BYTE		VOL     62*DragonBattle_mvl/mxv
	BYTE		N11   
	BYTE	W12
	BYTE		VOL     82*DragonBattle_mvl/mxv
	BYTE		N11   
	BYTE	W12
	BYTE		VOL     62*DragonBattle_mvl/mxv
	BYTE		N05   
	BYTE	W06
	BYTE		VOL     67*DragonBattle_mvl/mxv
	BYTE		N05   
	BYTE	W06
	BYTE		VOL     71*DragonBattle_mvl/mxv
	BYTE		N05   
	BYTE	W06
	BYTE		VOL     76*DragonBattle_mvl/mxv
	BYTE		N05   
	BYTE	W06
	BYTE		VOL     80*DragonBattle_mvl/mxv
	BYTE		N05   
	BYTE	W06
	BYTE		VOL     84*DragonBattle_mvl/mxv
	BYTE		N05   
	BYTE	W06
	BYTE		VOL     87*DragonBattle_mvl/mxv
	BYTE		N11   
	BYTE	W12
	BYTE	PEND
// 004   ----------------------------------------
DragonBattle_7_004:
	BYTE		VOL     71*DragonBattle_mvl/mxv
	BYTE		N05     An3   v116
	BYTE	W06
	BYTE		N05   
	BYTE	W06
	BYTE		VOL     87*DragonBattle_mvl/mxv
	BYTE		N11   
	BYTE	W12
	BYTE		N23   
	BYTE	W24
	BYTE		VOL     62*DragonBattle_mvl/mxv
	BYTE		N05   
	BYTE	W06
	BYTE		VOL     71*DragonBattle_mvl/mxv
	BYTE		N05   
	BYTE	W06
	BYTE		VOL     87*DragonBattle_mvl/mxv
	BYTE		N05   
	BYTE	W06
	BYTE		VOL     62*DragonBattle_mvl/mxv
	BYTE		N05   
	BYTE	W06
	BYTE		VOL     87*DragonBattle_mvl/mxv
	BYTE		N23   
	BYTE	W24
	BYTE	PEND
// 005   ----------------------------------------
	BYTE	PATT
	 POIN2	DragonBattle_7_001
// 006   ----------------------------------------
	BYTE	PATT
	 POIN2	DragonBattle_7_002
// 007   ----------------------------------------
	BYTE	PATT
	 POIN2	DragonBattle_7_003
// 008   ----------------------------------------
	BYTE	PATT
	 POIN2	DragonBattle_7_004
// 009   ----------------------------------------
	BYTE	PATT
	 POIN2	DragonBattle_7_001
// 010   ----------------------------------------
	BYTE	PATT
	 POIN2	DragonBattle_7_002
// 011   ----------------------------------------
	BYTE	PATT
	 POIN2	DragonBattle_7_003
// 012   ----------------------------------------
	BYTE	PATT
	 POIN2	DragonBattle_7_004
// 013   ----------------------------------------
	BYTE	PATT
	 POIN2	DragonBattle_7_001
// 014   ----------------------------------------
	BYTE	PATT
	 POIN2	DragonBattle_7_002
// 015   ----------------------------------------
	BYTE		VOL     87*DragonBattle_mvl/mxv
	BYTE		N23     An3   v116
	BYTE	W24
	BYTE		VOL     62*DragonBattle_mvl/mxv
	BYTE		N11   
	BYTE	W12
	BYTE		VOL     80*DragonBattle_mvl/mxv
	BYTE		N11   
	BYTE	W12
	BYTE		VOL     62*DragonBattle_mvl/mxv
	BYTE		N05   
	BYTE	W06
	BYTE		N05   
	BYTE	W06
	BYTE		VOL     67*DragonBattle_mvl/mxv
	BYTE		N05   
	BYTE	W06
	BYTE		N05   
	BYTE	W06
	BYTE		VOL     71*DragonBattle_mvl/mxv
	BYTE		N05   
	BYTE	W06
	BYTE		N05   
	BYTE	W06
	BYTE		VOL     76*DragonBattle_mvl/mxv
	BYTE		N05   
	BYTE	W06
	BYTE		VOL     80*DragonBattle_mvl/mxv
	BYTE		N05   
	BYTE	W06
// 016   ----------------------------------------
	BYTE		VOL     84*DragonBattle_mvl/mxv
	BYTE		N05   
	BYTE	W06
	BYTE		VOL     87*DragonBattle_mvl/mxv
	BYTE		N05   
	BYTE	W06
	BYTE		N11   
	BYTE	W12
	BYTE		VOL     62*DragonBattle_mvl/mxv
	BYTE		N05   
	BYTE	W06
	BYTE		VOL     71*DragonBattle_mvl/mxv
	BYTE		N05   
	BYTE	W06
	BYTE		VOL     80*DragonBattle_mvl/mxv
	BYTE		N11   
	BYTE	W12
	BYTE		VOL     87*DragonBattle_mvl/mxv
	BYTE		N11   
	BYTE	W12
	BYTE		VOL     62*DragonBattle_mvl/mxv
	BYTE		N11   
	BYTE	W12
	BYTE		VOL     71*DragonBattle_mvl/mxv
	BYTE		N05   
	BYTE	W06
	BYTE		VOL     62*DragonBattle_mvl/mxv
	BYTE		N05   
	BYTE	W06
	BYTE		VOL     87*DragonBattle_mvl/mxv
	BYTE		N11   
	BYTE	W12
// 017   ----------------------------------------
DragonBattle_7_017:
	BYTE		VOL     80*DragonBattle_mvl/mxv
	BYTE		N11     An3   v116
	BYTE	W12
	BYTE		VOL     62*DragonBattle_mvl/mxv
	BYTE		N11   
	BYTE	W12
	BYTE		VOL     71*DragonBattle_mvl/mxv
	BYTE		N11   
	BYTE	W12
	BYTE		VOL     87*DragonBattle_mvl/mxv
	BYTE		N11   
	BYTE	W12
	BYTE		VOL     62*DragonBattle_mvl/mxv
	BYTE		N05   
	BYTE	W06
	BYTE		VOL     80*DragonBattle_mvl/mxv
	BYTE		N05   
	BYTE	W06
	BYTE		VOL     71*DragonBattle_mvl/mxv
	BYTE		N05   
	BYTE	W06
	BYTE		VOL     62*DragonBattle_mvl/mxv
	BYTE		N05   
	BYTE	W06
	BYTE		VOL     71*DragonBattle_mvl/mxv
	BYTE		N05   
	BYTE	W06
	BYTE		VOL     62*DragonBattle_mvl/mxv
	BYTE		N05   
	BYTE	W06
	BYTE		VOL     87*DragonBattle_mvl/mxv
	BYTE		N11   
	BYTE	W12
	BYTE	PEND
// 018   ----------------------------------------
DragonBattle_7_018:
	BYTE		N05     An3   v116
	BYTE	W06
	BYTE		VOL     71*DragonBattle_mvl/mxv
	BYTE		N05   
	BYTE	W06
	BYTE		VOL     62*DragonBattle_mvl/mxv
	BYTE		N11   
	BYTE	W12
	BYTE		VOL     80*DragonBattle_mvl/mxv
	BYTE		N05   
	BYTE	W06
	BYTE		VOL     71*DragonBattle_mvl/mxv
	BYTE		N05   
	BYTE	W06
	BYTE		VOL     87*DragonBattle_mvl/mxv
	BYTE		N11   
	BYTE	W12
	BYTE		VOL     80*DragonBattle_mvl/mxv
	BYTE		N11   
	BYTE	W12
	BYTE		VOL     62*DragonBattle_mvl/mxv
	BYTE		N05   
	BYTE	W06
	BYTE		VOL     71*DragonBattle_mvl/mxv
	BYTE		N05   
	BYTE	W06
	BYTE		VOL     62*DragonBattle_mvl/mxv
	BYTE		N11   
	BYTE	W12
	BYTE		VOL     87*DragonBattle_mvl/mxv
	BYTE		N11   
	BYTE	W12
	BYTE	PEND
// 019   ----------------------------------------
DragonBattle_7_019:
	BYTE		VOL     71*DragonBattle_mvl/mxv
	BYTE		N05     An3   v116
	BYTE	W06
	BYTE		VOL     62*DragonBattle_mvl/mxv
	BYTE		N05   
	BYTE	W06
	BYTE		VOL     80*DragonBattle_mvl/mxv
	BYTE		N05   
	BYTE	W06
	BYTE		VOL     62*DragonBattle_mvl/mxv
	BYTE		N05   
	BYTE	W06
	BYTE		VOL     71*DragonBattle_mvl/mxv
	BYTE		N11   
	BYTE	W12
	BYTE		VOL     87*DragonBattle_mvl/mxv
	BYTE		N11   
	BYTE	W12
	BYTE		VOL     71*DragonBattle_mvl/mxv
	BYTE		N05   
	BYTE	W06
	BYTE		VOL     80*DragonBattle_mvl/mxv
	BYTE		N05   
	BYTE	W06
	BYTE		VOL     62*DragonBattle_mvl/mxv
	BYTE		N05   
	BYTE	W06
	BYTE		VOL     67*DragonBattle_mvl/mxv
	BYTE		N05   
	BYTE	W06
	BYTE		VOL     71*DragonBattle_mvl/mxv
	BYTE		N05   
	BYTE	W06
	BYTE		VOL     76*DragonBattle_mvl/mxv
	BYTE		N05   
	BYTE	W06
	BYTE		VOL     80*DragonBattle_mvl/mxv
	BYTE		N05   
	BYTE	W06
	BYTE		VOL     84*DragonBattle_mvl/mxv
	BYTE		N05   
	BYTE	W06
	BYTE	PEND
// 020   ----------------------------------------
DragonBattle_7_020:
	BYTE		VOL     87*DragonBattle_mvl/mxv
	BYTE		N05     An3   v116
	BYTE	W06
	BYTE		N05   
	BYTE	W06
	BYTE		N11   
	BYTE	W12
	BYTE		VOL     62*DragonBattle_mvl/mxv
	BYTE		N05   
	BYTE	W06
	BYTE		VOL     71*DragonBattle_mvl/mxv
	BYTE		N05   
	BYTE	W06
	BYTE		VOL     80*DragonBattle_mvl/mxv
	BYTE		N11   
	BYTE	W12
	BYTE		VOL     87*DragonBattle_mvl/mxv
	BYTE		N11   
	BYTE	W12
	BYTE		VOL     62*DragonBattle_mvl/mxv
	BYTE		N11   
	BYTE	W12
	BYTE		VOL     71*DragonBattle_mvl/mxv
	BYTE		N05   
	BYTE	W06
	BYTE		VOL     62*DragonBattle_mvl/mxv
	BYTE		N05   
	BYTE	W06
	BYTE		VOL     87*DragonBattle_mvl/mxv
	BYTE		N11   
	BYTE	W12
	BYTE	PEND
// 021   ----------------------------------------
	BYTE	PATT
	 POIN2	DragonBattle_7_017
// 022   ----------------------------------------
	BYTE	PATT
	 POIN2	DragonBattle_7_018
// 023   ----------------------------------------
	BYTE	PATT
	 POIN2	DragonBattle_7_019
// 024   ----------------------------------------
DragonBattle_7_024:
	BYTE		VOL     87*DragonBattle_mvl/mxv
	BYTE		N05     An3   v116
	BYTE	W06
	BYTE		N05   
	BYTE	W06
	BYTE		N11   
	BYTE	W12
	BYTE		VOL     62*DragonBattle_mvl/mxv
	BYTE		N05   
	BYTE	W06
	BYTE		VOL     71*DragonBattle_mvl/mxv
	BYTE		N05   
	BYTE	W06
	BYTE		VOL     80*DragonBattle_mvl/mxv
	BYTE		N11   
	BYTE	W12
	BYTE		VOL     87*DragonBattle_mvl/mxv
	BYTE		N11   
	BYTE	W12
	BYTE		VOL     62*DragonBattle_mvl/mxv
	BYTE		N05   
	BYTE	W06
	BYTE		VOL     71*DragonBattle_mvl/mxv
	BYTE		N05   
	BYTE	W06
	BYTE		VOL     80*DragonBattle_mvl/mxv
	BYTE		N11   
	BYTE	W12
	BYTE		VOL     87*DragonBattle_mvl/mxv
	BYTE		N11   
	BYTE	W12
	BYTE	PEND
// 025   ----------------------------------------
DragonBattle_7_025:
	BYTE		VOL     62*DragonBattle_mvl/mxv
	BYTE		N05     An3   v116
	BYTE	W06
	BYTE		VOL     71*DragonBattle_mvl/mxv
	BYTE		N05   
	BYTE	W06
	BYTE		VOL     80*DragonBattle_mvl/mxv
	BYTE		N11   
	BYTE	W12
	BYTE		VOL     87*DragonBattle_mvl/mxv
	BYTE		N11   
	BYTE	W12
	BYTE		VOL     62*DragonBattle_mvl/mxv
	BYTE		N11   
	BYTE	W12
	BYTE		N05   
	BYTE	W06
	BYTE		VOL     71*DragonBattle_mvl/mxv
	BYTE		N05   
	BYTE	W06
	BYTE		N11   
	BYTE	W12
	BYTE		VOL     80*DragonBattle_mvl/mxv
	BYTE		N11   
	BYTE	W12
	BYTE		VOL     87*DragonBattle_mvl/mxv
	BYTE		N05   
	BYTE	W06
	BYTE		VOL     62*DragonBattle_mvl/mxv
	BYTE		N05   
	BYTE	W06
	BYTE	PEND
// 026   ----------------------------------------
DragonBattle_7_026:
	BYTE		VOL     71*DragonBattle_mvl/mxv
	BYTE		N05     An3   v116
	BYTE	W06
	BYTE		VOL     80*DragonBattle_mvl/mxv
	BYTE		N05   
	BYTE	W06
	BYTE		VOL     87*DragonBattle_mvl/mxv
	BYTE		N11   
	BYTE	W12
	BYTE		VOL     62*DragonBattle_mvl/mxv
	BYTE		N05   
	BYTE	W06
	BYTE		VOL     71*DragonBattle_mvl/mxv
	BYTE		N05   
	BYTE	W06
	BYTE		VOL     80*DragonBattle_mvl/mxv
	BYTE		N11   
	BYTE	W12
	BYTE		VOL     87*DragonBattle_mvl/mxv
	BYTE		N11   
	BYTE	W12
	BYTE		VOL     62*DragonBattle_mvl/mxv
	BYTE		N05   
	BYTE	W06
	BYTE		VOL     71*DragonBattle_mvl/mxv
	BYTE		N05   
	BYTE	W06
	BYTE		VOL     80*DragonBattle_mvl/mxv
	BYTE		N11   
	BYTE	W12
	BYTE		VOL     87*DragonBattle_mvl/mxv
	BYTE		N11   
	BYTE	W12
	BYTE	PEND
// 027   ----------------------------------------
DragonBattle_7_027:
	BYTE		VOL     62*DragonBattle_mvl/mxv
	BYTE		N05     An3   v116
	BYTE	W06
	BYTE		VOL     71*DragonBattle_mvl/mxv
	BYTE		N05   
	BYTE	W06
	BYTE		VOL     80*DragonBattle_mvl/mxv
	BYTE		N11   
	BYTE	W12
	BYTE		VOL     87*DragonBattle_mvl/mxv
	BYTE		N05   
	BYTE	W06
	BYTE		VOL     62*DragonBattle_mvl/mxv
	BYTE		N05   
	BYTE	W06
	BYTE		VOL     71*DragonBattle_mvl/mxv
	BYTE		N11   
	BYTE	W12
	BYTE		VOL     87*DragonBattle_mvl/mxv
	BYTE		N05   
	BYTE	W06
	BYTE		VOL     71*DragonBattle_mvl/mxv
	BYTE		N05   
	BYTE	W06
	BYTE		VOL     87*DragonBattle_mvl/mxv
	BYTE		N11   
	BYTE	W12
	BYTE		VOL     62*DragonBattle_mvl/mxv
	BYTE		N05   
	BYTE	W06
	BYTE		VOL     67*DragonBattle_mvl/mxv
	BYTE		N05   
	BYTE	W06
	BYTE		VOL     71*DragonBattle_mvl/mxv
	BYTE		N05   
	BYTE	W06
	BYTE		VOL     76*DragonBattle_mvl/mxv
	BYTE		N05   
	BYTE	W06
	BYTE	PEND
// 028   ----------------------------------------
DragonBattle_7_028:
	BYTE		VOL     80*DragonBattle_mvl/mxv
	BYTE		N05     An3   v116
	BYTE	W06
	BYTE		VOL     84*DragonBattle_mvl/mxv
	BYTE		N05   
	BYTE	W06
	BYTE		VOL     87*DragonBattle_mvl/mxv
	BYTE		N11   
	BYTE	W12
	BYTE		VOL     62*DragonBattle_mvl/mxv
	BYTE		N05   
	BYTE	W06
	BYTE		VOL     71*DragonBattle_mvl/mxv
	BYTE		N05   
	BYTE	W06
	BYTE		VOL     80*DragonBattle_mvl/mxv
	BYTE		N11   
	BYTE	W12
	BYTE		VOL     87*DragonBattle_mvl/mxv
	BYTE		N11   
	BYTE	W12
	BYTE		VOL     62*DragonBattle_mvl/mxv
	BYTE		N11   
	BYTE	W12
	BYTE		VOL     71*DragonBattle_mvl/mxv
	BYTE		N05   
	BYTE	W06
	BYTE		VOL     80*DragonBattle_mvl/mxv
	BYTE		N05   
	BYTE	W06
	BYTE		VOL     87*DragonBattle_mvl/mxv
	BYTE		N17   
	BYTE	W12
	BYTE	PEND
// 029   ----------------------------------------
DragonBattle_7_029:
	BYTE	W06
	BYTE		VOL     62*DragonBattle_mvl/mxv
	BYTE		N05     An3   v116
	BYTE	W06
	BYTE		N05   
	BYTE	W06
	BYTE		VOL     71*DragonBattle_mvl/mxv
	BYTE		N05   
	BYTE	W06
	BYTE		VOL     87*DragonBattle_mvl/mxv
	BYTE		N11   
	BYTE	W12
	BYTE		VOL     62*DragonBattle_mvl/mxv
	BYTE		N11   
	BYTE	W12
	BYTE		VOL     71*DragonBattle_mvl/mxv
	BYTE		N05   
	BYTE	W06
	BYTE		VOL     87*DragonBattle_mvl/mxv
	BYTE		N05   
	BYTE	W06
	BYTE		VOL     62*DragonBattle_mvl/mxv
	BYTE		N11   
	BYTE	W12
	BYTE		VOL     71*DragonBattle_mvl/mxv
	BYTE		N05   
	BYTE	W06
	BYTE		VOL     87*DragonBattle_mvl/mxv
	BYTE		N05   
	BYTE	W06
	BYTE		VOL     62*DragonBattle_mvl/mxv
	BYTE		N05   
	BYTE	W06
	BYTE		VOL     71*DragonBattle_mvl/mxv
	BYTE		N05   
	BYTE	W06
	BYTE	PEND
// 030   ----------------------------------------
DragonBattle_7_030:
	BYTE		VOL     80*DragonBattle_mvl/mxv
	BYTE		N05     An3   v116
	BYTE	W06
	BYTE		VOL     87*DragonBattle_mvl/mxv
	BYTE		N05   
	BYTE	W06
	BYTE		N11   
	BYTE	W12
	BYTE		VOL     62*DragonBattle_mvl/mxv
	BYTE		N05   
	BYTE	W06
	BYTE		VOL     71*DragonBattle_mvl/mxv
	BYTE		N05   
	BYTE	W06
	BYTE		VOL     80*DragonBattle_mvl/mxv
	BYTE		N11   
	BYTE	W12
	BYTE		VOL     87*DragonBattle_mvl/mxv
	BYTE		N11   
	BYTE	W12
	BYTE		VOL     62*DragonBattle_mvl/mxv
	BYTE		N11   
	BYTE	W12
	BYTE		VOL     71*DragonBattle_mvl/mxv
	BYTE		N05   
	BYTE	W06
	BYTE		VOL     62*DragonBattle_mvl/mxv
	BYTE		N05   
	BYTE	W06
	BYTE		VOL     87*DragonBattle_mvl/mxv
	BYTE		N11   
	BYTE	W12
	BYTE	PEND
// 031   ----------------------------------------
	BYTE	PATT
	 POIN2	DragonBattle_7_017
// 032   ----------------------------------------
	BYTE	PATT
	 POIN2	DragonBattle_7_018
// 033   ----------------------------------------
	BYTE	PATT
	 POIN2	DragonBattle_7_019
// 034   ----------------------------------------
	BYTE	PATT
	 POIN2	DragonBattle_7_020
// 035   ----------------------------------------
	BYTE	PATT
	 POIN2	DragonBattle_7_017
// 036   ----------------------------------------
	BYTE	PATT
	 POIN2	DragonBattle_7_018
// 037   ----------------------------------------
	BYTE	PATT
	 POIN2	DragonBattle_7_019
// 038   ----------------------------------------
	BYTE	PATT
	 POIN2	DragonBattle_7_024
// 039   ----------------------------------------
	BYTE	PATT
	 POIN2	DragonBattle_7_025
// 040   ----------------------------------------
	BYTE	PATT
	 POIN2	DragonBattle_7_026
// 041   ----------------------------------------
	BYTE	PATT
	 POIN2	DragonBattle_7_027
// 042   ----------------------------------------
	BYTE	PATT
	 POIN2	DragonBattle_7_028
// 043   ----------------------------------------
	BYTE	PATT
	 POIN2	DragonBattle_7_029
// 044   ----------------------------------------
	BYTE		VOL     80*DragonBattle_mvl/mxv
	BYTE		N05     An3   v116
	BYTE	W06
	BYTE		VOL     87*DragonBattle_mvl/mxv
	BYTE		N05   
	BYTE	W06
	BYTE		N11   
	BYTE	W12
	BYTE		VOL     62*DragonBattle_mvl/mxv
	BYTE		N11   
	BYTE	W12
	BYTE		VOL     80*DragonBattle_mvl/mxv
	BYTE		N11   
	BYTE	W12
	BYTE		VOL     71*DragonBattle_mvl/mxv
	BYTE		N05   
	BYTE	W06
	BYTE		N05   
	BYTE	W06
	BYTE		VOL     87*DragonBattle_mvl/mxv
	BYTE		N11   
	BYTE	W12
	BYTE		VOL     76*DragonBattle_mvl/mxv
	BYTE		N11   
	BYTE	W12
	BYTE		VOL     80*DragonBattle_mvl/mxv
	BYTE		N11   
	BYTE	W12
// 045   ----------------------------------------
DragonBattle_7_045:
	BYTE		VOL     71*DragonBattle_mvl/mxv
	BYTE		N05     An3   v116
	BYTE	W06
	BYTE		N05   
	BYTE	W06
	BYTE		VOL     87*DragonBattle_mvl/mxv
	BYTE		N11   
	BYTE	W12
	BYTE		VOL     71*DragonBattle_mvl/mxv
	BYTE		N11   
	BYTE	W12
	BYTE		VOL     80*DragonBattle_mvl/mxv
	BYTE		N11   
	BYTE	W12
	BYTE		VOL     62*DragonBattle_mvl/mxv
	BYTE		N05   
	BYTE	W06
	BYTE		N05   
	BYTE	W06
	BYTE		VOL     67*DragonBattle_mvl/mxv
	BYTE		N05   
	BYTE	W06
	BYTE		N05   
	BYTE	W06
	BYTE		VOL     71*DragonBattle_mvl/mxv
	BYTE		N05   
	BYTE	W06
	BYTE		N05   
	BYTE	W06
	BYTE		VOL     76*DragonBattle_mvl/mxv
	BYTE		N05   
	BYTE	W06
	BYTE		VOL     80*DragonBattle_mvl/mxv
	BYTE		N05   
	BYTE	W06
	BYTE	PEND
// 046   ----------------------------------------
DragonBattle_7_046:
	BYTE		VOL     84*DragonBattle_mvl/mxv
	BYTE		N05     An3   v116
	BYTE	W06
	BYTE		VOL     87*DragonBattle_mvl/mxv
	BYTE		N05   
	BYTE	W06
	BYTE		N11   
	BYTE	W12
	BYTE		VOL     62*DragonBattle_mvl/mxv
	BYTE		N11   
	BYTE	W12
	BYTE		VOL     80*DragonBattle_mvl/mxv
	BYTE		N11   
	BYTE	W12
	BYTE		VOL     71*DragonBattle_mvl/mxv
	BYTE		N05   
	BYTE	W06
	BYTE		N05   
	BYTE	W06
	BYTE		VOL     87*DragonBattle_mvl/mxv
	BYTE		N11   
	BYTE	W12
	BYTE		VOL     76*DragonBattle_mvl/mxv
	BYTE		N11   
	BYTE	W12
	BYTE		VOL     80*DragonBattle_mvl/mxv
	BYTE		N11   
	BYTE	W12
	BYTE	PEND
// 047   ----------------------------------------
	BYTE	PATT
	 POIN2	DragonBattle_7_045
// 048   ----------------------------------------
	BYTE	PATT
	 POIN2	DragonBattle_7_046
// 049   ----------------------------------------
	BYTE	PATT
	 POIN2	DragonBattle_7_045
// 050   ----------------------------------------
	BYTE	PATT
	 POIN2	DragonBattle_7_046
// 051   ----------------------------------------
	BYTE	PATT
	 POIN2	DragonBattle_7_045
// 052   ----------------------------------------
	BYTE		VOL     84*DragonBattle_mvl/mxv
	BYTE		N05     An3   v116
	BYTE	W06
	BYTE		VOL     87*DragonBattle_mvl/mxv
	BYTE		N05   
	BYTE	W06
	BYTE		N17   
	BYTE	W18
	BYTE		VOL     71*DragonBattle_mvl/mxv
	BYTE		N05   
	BYTE	W06
	BYTE		N11   
	BYTE	W12
	BYTE		VOL     87*DragonBattle_mvl/mxv
	BYTE		N23   
	BYTE	W24
	BYTE		VOL     71*DragonBattle_mvl/mxv
	BYTE		N11   
	BYTE	W12
	BYTE		VOL     87*DragonBattle_mvl/mxv
	BYTE		N11   
	BYTE	W12
// 053   ----------------------------------------
	BYTE		VOL     71*DragonBattle_mvl/mxv
	BYTE		N11   
	BYTE	W12
	BYTE		VOL     80*DragonBattle_mvl/mxv
	BYTE		N11   
	BYTE	W12
	BYTE		VOL     87*DragonBattle_mvl/mxv
	BYTE		N11   
	BYTE	W12
	BYTE		VOL     71*DragonBattle_mvl/mxv
	BYTE		N11   
	BYTE	W12
	BYTE		VOL     80*DragonBattle_mvl/mxv
	BYTE		N05   
	BYTE	W06
	BYTE		VOL     71*DragonBattle_mvl/mxv
	BYTE		N05   
	BYTE	W06
	BYTE		N11   
	BYTE	W12
	BYTE		VOL     87*DragonBattle_mvl/mxv
	BYTE		N11   
	BYTE	W12
	BYTE		VOL     71*DragonBattle_mvl/mxv
	BYTE		N05   
	BYTE	W06
	BYTE		VOL     76*DragonBattle_mvl/mxv
	BYTE		N05   
	BYTE	W06
// 054   ----------------------------------------
	BYTE	PATT
	 POIN2	DragonBattle_7_030
// 055   ----------------------------------------
DragonBattle_7_055:
	BYTE		VOL     80*DragonBattle_mvl/mxv
	BYTE		N11     An3   v116
	BYTE	W12
	BYTE		VOL     62*DragonBattle_mvl/mxv
	BYTE		N05   
	BYTE	W06
	BYTE		VOL     71*DragonBattle_mvl/mxv
	BYTE		N05   
	BYTE	W06
	BYTE		VOL     87*DragonBattle_mvl/mxv
	BYTE		N11   
	BYTE	W12
	BYTE		VOL     62*DragonBattle_mvl/mxv
	BYTE		N11   
	BYTE	W12
	BYTE		VOL     67*DragonBattle_mvl/mxv
	BYTE		N05   
	BYTE	W06
	BYTE		VOL     71*DragonBattle_mvl/mxv
	BYTE		N05   
	BYTE	W06
	BYTE		VOL     87*DragonBattle_mvl/mxv
	BYTE		N11   
	BYTE	W12
	BYTE		VOL     71*DragonBattle_mvl/mxv
	BYTE		N11   
	BYTE	W12
	BYTE		VOL     62*DragonBattle_mvl/mxv
	BYTE		N05   
	BYTE	W06
	BYTE		VOL     71*DragonBattle_mvl/mxv
	BYTE		N05   
	BYTE	W06
	BYTE	PEND
// 056   ----------------------------------------
	BYTE	PATT
	 POIN2	DragonBattle_7_030
// 057   ----------------------------------------
DragonBattle_7_057:
	BYTE		VOL     80*DragonBattle_mvl/mxv
	BYTE		N11     An3   v116
	BYTE	W12
	BYTE		VOL     62*DragonBattle_mvl/mxv
	BYTE		N11   
	BYTE	W12
	BYTE		VOL     71*DragonBattle_mvl/mxv
	BYTE		N11   
	BYTE	W12
	BYTE		VOL     87*DragonBattle_mvl/mxv
	BYTE		N11   
	BYTE	W12
	BYTE		VOL     62*DragonBattle_mvl/mxv
	BYTE		N05   
	BYTE	W06
	BYTE		VOL     67*DragonBattle_mvl/mxv
	BYTE		N05   
	BYTE	W06
	BYTE		VOL     71*DragonBattle_mvl/mxv
	BYTE		N05   
	BYTE	W06
	BYTE		VOL     62*DragonBattle_mvl/mxv
	BYTE		N05   
	BYTE	W06
	BYTE		VOL     71*DragonBattle_mvl/mxv
	BYTE		N05   
	BYTE	W06
	BYTE		VOL     62*DragonBattle_mvl/mxv
	BYTE		N05   
	BYTE	W06
	BYTE		VOL     80*DragonBattle_mvl/mxv
	BYTE		N11   
	BYTE	W12
	BYTE	PEND
// 058   ----------------------------------------
DragonBattle_7_058:
	BYTE		VOL     87*DragonBattle_mvl/mxv
	BYTE		N05     An3   v116
	BYTE	W06
	BYTE		VOL     62*DragonBattle_mvl/mxv
	BYTE		N05   
	BYTE	W06
	BYTE		VOL     87*DragonBattle_mvl/mxv
	BYTE		N11   
	BYTE	W12
	BYTE		VOL     62*DragonBattle_mvl/mxv
	BYTE		N05   
	BYTE	W06
	BYTE		VOL     71*DragonBattle_mvl/mxv
	BYTE		N05   
	BYTE	W06
	BYTE		VOL     80*DragonBattle_mvl/mxv
	BYTE		N11   
	BYTE	W12
	BYTE		VOL     87*DragonBattle_mvl/mxv
	BYTE		N11   
	BYTE	W12
	BYTE		VOL     62*DragonBattle_mvl/mxv
	BYTE		N11   
	BYTE	W12
	BYTE		VOL     71*DragonBattle_mvl/mxv
	BYTE		N05   
	BYTE	W06
	BYTE		VOL     62*DragonBattle_mvl/mxv
	BYTE		N05   
	BYTE	W06
	BYTE		VOL     87*DragonBattle_mvl/mxv
	BYTE		N11   
	BYTE	W12
	BYTE	PEND
// 059   ----------------------------------------
	BYTE	PATT
	 POIN2	DragonBattle_7_055
// 060   ----------------------------------------
	BYTE	PATT
	 POIN2	DragonBattle_7_030
// 061   ----------------------------------------
	BYTE	PATT
	 POIN2	DragonBattle_7_057
// 062   ----------------------------------------
	BYTE	PATT
	 POIN2	DragonBattle_7_058
// 063   ----------------------------------------
	BYTE	PATT
	 POIN2	DragonBattle_7_055
// 064   ----------------------------------------
	BYTE	PATT
	 POIN2	DragonBattle_7_030
// 065   ----------------------------------------
	BYTE	PATT
	 POIN2	DragonBattle_7_057
// 066   ----------------------------------------
	BYTE	PATT
	 POIN2	DragonBattle_7_058
// 067   ----------------------------------------
	BYTE	PATT
	 POIN2	DragonBattle_7_055
// 068   ----------------------------------------
	BYTE	PATT
	 POIN2	DragonBattle_7_030
// 069   ----------------------------------------
	BYTE	PATT
	 POIN2	DragonBattle_7_057
// 070   ----------------------------------------
	BYTE	PATT
	 POIN2	DragonBattle_7_058
// 071   ----------------------------------------
	BYTE	PATT
	 POIN2	DragonBattle_7_017
// 072   ----------------------------------------
DragonBattle_7_072:
	BYTE		N05     An3   v116
	BYTE	W06
	BYTE		VOL     71*DragonBattle_mvl/mxv
	BYTE		N05   
	BYTE	W06
	BYTE		VOL     87*DragonBattle_mvl/mxv
	BYTE		N11   
	BYTE	W12
	BYTE		VOL     62*DragonBattle_mvl/mxv
	BYTE		N05   
	BYTE	W06
	BYTE		VOL     71*DragonBattle_mvl/mxv
	BYTE		N05   
	BYTE	W06
	BYTE		VOL     80*DragonBattle_mvl/mxv
	BYTE		N11   
	BYTE	W12
	BYTE		VOL     87*DragonBattle_mvl/mxv
	BYTE		N11   
	BYTE	W12
	BYTE		VOL     62*DragonBattle_mvl/mxv
	BYTE		N11   
	BYTE	W12
	BYTE		VOL     71*DragonBattle_mvl/mxv
	BYTE		N05   
	BYTE	W06
	BYTE		VOL     62*DragonBattle_mvl/mxv
	BYTE		N05   
	BYTE	W06
	BYTE		VOL     87*DragonBattle_mvl/mxv
	BYTE		N11   
	BYTE	W12
	BYTE	PEND
// 073   ----------------------------------------
	BYTE	PATT
	 POIN2	DragonBattle_7_017
// 074   ----------------------------------------
	BYTE	PATT
	 POIN2	DragonBattle_7_072
// 075   ----------------------------------------
	BYTE	PATT
	 POIN2	DragonBattle_7_017
// 076   ----------------------------------------
	BYTE	PATT
	 POIN2	DragonBattle_7_018
// 077   ----------------------------------------
	BYTE	PATT
	 POIN2	DragonBattle_7_019
// 078   ----------------------------------------
	BYTE		VOL     87*DragonBattle_mvl/mxv
	BYTE		N05     An3   v116
	BYTE	W06
	BYTE		N05   
	BYTE	W06
	BYTE	GoTo
	 POIN2	DragonBattle_7_B1
DragonBattle_7_B2:
	BYTE	FINE

//**************** Track 8 (Midi-Chn.8) ****************//

DragonBattle_8:
	BYTE	KEYSH   DragonBattle_key+0
DragonBattle_8_B1:
// 000   ----------------------------------------
	BYTE		VOICE   127
	BYTE	W12
	BYTE		VOL     89*DragonBattle_mvl/mxv
	BYTE		N80     Gn3   v116
	BYTE	W84
// 001   ----------------------------------------
	BYTE		VOL     80*DragonBattle_mvl/mxv
	BYTE		N02     Dn3 
	BYTE	W03
	BYTE		N02   
	BYTE	W03
	BYTE		N05   
	BYTE	W06
	BYTE		N11   
	BYTE	W12
	BYTE		N23   
	BYTE	W24
	BYTE		N02   
	BYTE	W03
	BYTE		N02   
	BYTE	W03
	BYTE		N02   
	BYTE	W06
	BYTE		N11   
	BYTE	W12
	BYTE		N32   
	BYTE	W24
// 002   ----------------------------------------
	BYTE	W12
	BYTE		N80     Gn3 
	BYTE	W84
// 003   ----------------------------------------
DragonBattle_8_003:
	BYTE		N02     Dn3   v116
	BYTE	W03
	BYTE		N02   
	BYTE	W03
	BYTE		N05   
	BYTE	W06
	BYTE		N11   
	BYTE	W12
	BYTE		N23   
	BYTE	W24
	BYTE		N02   
	BYTE	W03
	BYTE		N02   
	BYTE	W03
	BYTE		N02   
	BYTE	W06
	BYTE		N11   
	BYTE	W12
	BYTE		N32   
	BYTE	W24
	BYTE	PEND
// 004   ----------------------------------------
	BYTE	W12
	BYTE		N80     Gn3 
	BYTE	W84
// 005   ----------------------------------------
	BYTE	PATT
	 POIN2	DragonBattle_8_003
// 006   ----------------------------------------
	BYTE	W12
	BYTE		N80     Gn3   v116
	BYTE	W84
// 007   ----------------------------------------
	BYTE	PATT
	 POIN2	DragonBattle_8_003
// 008   ----------------------------------------
	BYTE	W12
	BYTE		N80     Gn3   v116
	BYTE	W84
// 009   ----------------------------------------
	BYTE	PATT
	 POIN2	DragonBattle_8_003
// 010   ----------------------------------------
	BYTE	W12
	BYTE		N80     Gn3   v116
	BYTE	W84
// 011   ----------------------------------------
	BYTE	PATT
	 POIN2	DragonBattle_8_003
// 012   ----------------------------------------
	BYTE	W12
	BYTE		N80     Gn3   v116
	BYTE	W84
// 013   ----------------------------------------
	BYTE	PATT
	 POIN2	DragonBattle_8_003
// 014   ----------------------------------------
	BYTE	W12
	BYTE		N80     Gn3   v116
	BYTE	W84
// 015   ----------------------------------------
	BYTE	PATT
	 POIN2	DragonBattle_8_003
// 016   ----------------------------------------
DragonBattle_8_016:
	BYTE	W12
	BYTE		TIE     Gn3   v116
	BYTE	W84
	BYTE	PEND
// 017   ----------------------------------------
	BYTE	W96
// 018   ----------------------------------------
	BYTE	W11
	BYTE		EOT   
	BYTE	W01
	BYTE		TIE   
	BYTE	W84
// 019   ----------------------------------------
	BYTE	W96
// 020   ----------------------------------------
	BYTE	W11
	BYTE		EOT   
	BYTE	W01
	BYTE		TIE   
	BYTE	W84
// 021   ----------------------------------------
	BYTE	W96
// 022   ----------------------------------------
	BYTE	W11
	BYTE		EOT   
	BYTE	W01
	BYTE		N92   
	BYTE	W84
// 023   ----------------------------------------
DragonBattle_8_023:
	BYTE	W12
	BYTE		N11     Dn3   v116
	BYTE	W12
	BYTE		N23     En3 
	BYTE	W24
	BYTE		        Dn3 
	BYTE	W24
	BYTE		N11     En3 
	BYTE	W12
	BYTE		N23   
	BYTE	W12
	BYTE	PEND
// 024   ----------------------------------------
DragonBattle_8_024:
	BYTE	W12
	BYTE		N11     Dn3   v116
	BYTE	W12
	BYTE		N23     En3 
	BYTE	W24
	BYTE		        Dn3 
	BYTE	W24
	BYTE		N32     En3 
	BYTE	W24
	BYTE	PEND
// 025   ----------------------------------------
	BYTE	PATT
	 POIN2	DragonBattle_8_023
// 026   ----------------------------------------
	BYTE	PATT
	 POIN2	DragonBattle_8_024
// 027   ----------------------------------------
	BYTE	PATT
	 POIN2	DragonBattle_8_023
// 028   ----------------------------------------
	BYTE	PATT
	 POIN2	DragonBattle_8_024
// 029   ----------------------------------------
	BYTE	PATT
	 POIN2	DragonBattle_8_023
// 030   ----------------------------------------
	BYTE	PATT
	 POIN2	DragonBattle_8_016
// 031   ----------------------------------------
	BYTE	W96
// 032   ----------------------------------------
	BYTE	W11
	BYTE		EOT     Gn3 
	BYTE	W01
	BYTE		TIE     Gn3   v116
	BYTE	W84
// 033   ----------------------------------------
	BYTE	W96
// 034   ----------------------------------------
	BYTE	W11
	BYTE		EOT   
	BYTE	W01
	BYTE		TIE   
	BYTE	W84
// 035   ----------------------------------------
	BYTE	W96
// 036   ----------------------------------------
	BYTE	W11
	BYTE		EOT   
	BYTE	W01
	BYTE		N92   
	BYTE	W84
// 037   ----------------------------------------
	BYTE	PATT
	 POIN2	DragonBattle_8_023
// 038   ----------------------------------------
	BYTE	PATT
	 POIN2	DragonBattle_8_024
// 039   ----------------------------------------
	BYTE	PATT
	 POIN2	DragonBattle_8_023
// 040   ----------------------------------------
	BYTE	PATT
	 POIN2	DragonBattle_8_024
// 041   ----------------------------------------
	BYTE	PATT
	 POIN2	DragonBattle_8_023
// 042   ----------------------------------------
	BYTE	PATT
	 POIN2	DragonBattle_8_024
// 043   ----------------------------------------
	BYTE	PATT
	 POIN2	DragonBattle_8_023
// 044   ----------------------------------------
DragonBattle_8_044:
	BYTE	W12
	BYTE		N44     Gn3   v116
	BYTE	W48
	BYTE		N44   
	BYTE	W36
	BYTE	PEND
// 045   ----------------------------------------
DragonBattle_8_045:
	BYTE	W12
	BYTE		N23     Gn3   v116
	BYTE	W24
	BYTE		N68   
	BYTE	W60
	BYTE	PEND
// 046   ----------------------------------------
	BYTE	PATT
	 POIN2	DragonBattle_8_044
// 047   ----------------------------------------
	BYTE	PATT
	 POIN2	DragonBattle_8_045
// 048   ----------------------------------------
	BYTE	PATT
	 POIN2	DragonBattle_8_044
// 049   ----------------------------------------
	BYTE	PATT
	 POIN2	DragonBattle_8_045
// 050   ----------------------------------------
	BYTE	PATT
	 POIN2	DragonBattle_8_044
// 051   ----------------------------------------
	BYTE	PATT
	 POIN2	DragonBattle_8_045
// 052   ----------------------------------------
	BYTE	W12
	BYTE		N68     Gn3   v116
	BYTE	W72
	BYTE		N23   
	BYTE	W12
// 053   ----------------------------------------
	BYTE	PATT
	 POIN2	DragonBattle_8_023
// 054   ----------------------------------------
	BYTE	PATT
	 POIN2	DragonBattle_8_024
// 055   ----------------------------------------
	BYTE	PATT
	 POIN2	DragonBattle_8_023
// 056   ----------------------------------------
	BYTE	PATT
	 POIN2	DragonBattle_8_024
// 057   ----------------------------------------
	BYTE	PATT
	 POIN2	DragonBattle_8_023
// 058   ----------------------------------------
	BYTE	PATT
	 POIN2	DragonBattle_8_016
// 059   ----------------------------------------
	BYTE	W96
// 060   ----------------------------------------
	BYTE	W11
	BYTE		EOT     Gn3 
	BYTE	W01
	BYTE		TIE     Gn3   v116
	BYTE	W84
// 061   ----------------------------------------
	BYTE	W96
// 062   ----------------------------------------
	BYTE	W11
	BYTE		EOT   
	BYTE	W01
	BYTE		N11     Dn3 
	BYTE	W12
	BYTE		N23     En3 
	BYTE	W24
	BYTE		        Dn3 
	BYTE	W24
	BYTE		N32     En3 
	BYTE	W24
// 063   ----------------------------------------
	BYTE	PATT
	 POIN2	DragonBattle_8_023
// 064   ----------------------------------------
	BYTE	PATT
	 POIN2	DragonBattle_8_024
// 065   ----------------------------------------
	BYTE	PATT
	 POIN2	DragonBattle_8_023
// 066   ----------------------------------------
	BYTE	PATT
	 POIN2	DragonBattle_8_016
// 067   ----------------------------------------
	BYTE	W96
// 068   ----------------------------------------
	BYTE	W11
	BYTE		EOT     Gn3 
	BYTE	W01
	BYTE		TIE     Gn3   v116
	BYTE	W84
// 069   ----------------------------------------
	BYTE	W96
// 070   ----------------------------------------
	BYTE	W11
	BYTE		EOT   
	BYTE	W01
	BYTE		TIE   
	BYTE	W84
// 071   ----------------------------------------
	BYTE	W96
// 072   ----------------------------------------
	BYTE	W96
// 073   ----------------------------------------
	BYTE	W96
// 074   ----------------------------------------
	BYTE	W96
// 075   ----------------------------------------
	BYTE	W96
// 076   ----------------------------------------
	BYTE	W96
// 077   ----------------------------------------
	BYTE	W96
// 078   ----------------------------------------
	BYTE	W11
	BYTE		EOT   
	BYTE	W01
	BYTE	GoTo
	 POIN2	DragonBattle_8_B1
DragonBattle_8_B2:
	BYTE	FINE

//******************************************************//
	ALIGN 4

DragonBattle:
	BYTE	8	// NumTrks
	BYTE	0	// NumBlks
	BYTE	DragonBattle_pri	// Priority
	BYTE	DragonBattle_rev	// Reverb.

	POIN2	DragonBattle_grp

	POIN2	DragonBattle_1
	POIN2	DragonBattle_2
	POIN2	DragonBattle_3
	POIN2	DragonBattle_4
	POIN2	DragonBattle_5
	POIN2	DragonBattle_6
	POIN2	DragonBattle_7
	POIN2	DragonBattle_8

	
