	.include "MPlayDef.s"

	.equ	Pelleas_grp, voicegroup000
	.equ	Pelleas_pri, 0
	.equ	Pelleas_rev, 0
	.equ	Pelleas_mvl, 85
	.equ	Pelleas_key, 0
	.equ	Pelleas_tbs, 1
	.equ	Pelleas_exg, 0
	.equ	Pelleas_cmp, 1

	.section .rodata
	.global	Pelleas
	.align	2

@**************** Track 1 (Midi-Chn.1) ****************@

Pelleas_1:
	.byte		VOL   , 127*Pelleas_mvl/mxv
	.byte	KEYSH , Pelleas_key+0
@ 000   ----------------------------------------
	.byte	TEMPO , 132*Pelleas_tbs/2
	.byte		VOICE , 6
	.byte		N24   , Fn3 , v064
	.byte	W24
	.byte		        As2 
	.byte	W24
	.byte		N48   , En3 
	.byte	W48
@ 001   ----------------------------------------
	.byte	W96
@ 002   ----------------------------------------
Pelleas_1_002:
	.byte		N24   , Fn3 , v064
	.byte	W24
	.byte		        As2 
	.byte	W24
	.byte		N48   , En3 
	.byte	W48
	.byte	PEND
@ 003   ----------------------------------------
	.byte	W96
@ 004   ----------------------------------------
Pelleas_1_004:
	.byte		N24   , Fn3 , v064
	.byte	W24
	.byte		        An2 
	.byte	W24
	.byte		N48   , En3 
	.byte	W48
	.byte	PEND
@ 005   ----------------------------------------
	.byte	W96
@ 006   ----------------------------------------
	.byte	PATT
	 .word	Pelleas_1_004
@ 007   ----------------------------------------
	.byte	W96
@ 008   ----------------------------------------
	.byte	PATT
	 .word	Pelleas_1_002
@ 009   ----------------------------------------
	.byte	W96
@ 010   ----------------------------------------
	.byte	PATT
	 .word	Pelleas_1_002
@ 011   ----------------------------------------
	.byte	W96
@ 012   ----------------------------------------
	.byte		N24   , En3 , v064
	.byte	W24
	.byte		        An2 
	.byte	W24
	.byte		N48   , Dn3 
	.byte	W48
@ 013   ----------------------------------------
	.byte	W96
@ 014   ----------------------------------------
	.byte		N48   
	.byte	W48
	.byte		        An2 
	.byte	W48
@ 015   ----------------------------------------
	.byte		        Gn2 
	.byte	W48
	.byte		        Dn2 
	.byte	W48
@ 016   ----------------------------------------
Pelleas_1_016:
	.byte		N24   , Dn2 , v064
	.byte	W24
	.byte		        An2 
	.byte	W24
	.byte		N48   , En3 
	.byte	W48
	.byte	PEND
@ 017   ----------------------------------------
Pelleas_1_017:
	.byte		N24   , An2 , v064
	.byte	W24
	.byte		        Cn3 
	.byte	W24
	.byte		        As2 
	.byte	W24
	.byte		        An2 
	.byte	W24
	.byte	PEND
@ 018   ----------------------------------------
Pelleas_1_018:
	.byte		N24   , Gn2 , v064
	.byte	W24
	.byte		        An2 
	.byte	W24
	.byte		N48   , Fn2 
	.byte	W48
	.byte	PEND
@ 019   ----------------------------------------
Pelleas_1_019:
	.byte		N24   , Gn2 , v064
	.byte	W24
	.byte		        Fn2 
	.byte	W24
	.byte		        En2 
	.byte	W24
	.byte		        An2 
	.byte	W24
	.byte	PEND
@ 020   ----------------------------------------
Pelleas_1_020:
	.byte		N24   , Cn3 , v064
	.byte	W24
	.byte		        Dn3 
	.byte	W24
	.byte		N48   , An3 
	.byte	W48
	.byte	PEND
@ 021   ----------------------------------------
	.byte		N24   , Gn3 
	.byte	W24
	.byte		        Fn3 
	.byte	W24
	.byte		        An2 
	.byte	W24
	.byte		        En3 
	.byte	W24
@ 022   ----------------------------------------
	.byte		        Cn3 
	.byte	W24
	.byte		N48   , Dn3 
	.byte	W48
	.byte		N24   , An2 
	.byte	W24
@ 023   ----------------------------------------
	.byte		        Gn2 
	.byte	W24
	.byte		        Fn2 
	.byte	W24
	.byte		N24   
	.byte	W24
	.byte		        En2 
	.byte	W24
@ 024   ----------------------------------------
	.byte	PATT
	 .word	Pelleas_1_016
@ 025   ----------------------------------------
	.byte	PATT
	 .word	Pelleas_1_017
@ 026   ----------------------------------------
	.byte	PATT
	 .word	Pelleas_1_018
@ 027   ----------------------------------------
	.byte	PATT
	 .word	Pelleas_1_019
@ 028   ----------------------------------------
	.byte	PATT
	 .word	Pelleas_1_020
@ 029   ----------------------------------------
	.byte		N24   , As3 , v064
	.byte	W24
	.byte		        An3 
	.byte	W24
	.byte		        Fn3 
	.byte	W24
	.byte		        En3 
	.byte	W24
@ 030   ----------------------------------------
	.byte	W48
	.byte		N48   , Dn3 
	.byte	W48
@ 031   ----------------------------------------
	.byte	FINE

@**************** Track 2 (Midi-Chn.2) ****************@

Pelleas_2:
	.byte		VOL   , 127*Pelleas_mvl/mxv
	.byte	KEYSH , Pelleas_key+0
@ 000   ----------------------------------------
	.byte		VOICE , 6
	.byte		N96   , Gn1 , v064
	.byte	W96
@ 001   ----------------------------------------
	.byte		N96   
	.byte	W96
@ 002   ----------------------------------------
	.byte		        Dn1 
	.byte	W96
@ 003   ----------------------------------------
	.byte		N96   
	.byte	W96
@ 004   ----------------------------------------
	.byte		        Cn1 
	.byte	W96
@ 005   ----------------------------------------
	.byte		N96   
	.byte	W96
@ 006   ----------------------------------------
	.byte		        Dn1 
	.byte	W96
@ 007   ----------------------------------------
	.byte		N96   
	.byte	W96
@ 008   ----------------------------------------
	.byte		        Gn1 
	.byte	W96
@ 009   ----------------------------------------
	.byte		N96   
	.byte	W96
@ 010   ----------------------------------------
	.byte		        Dn1 
	.byte	W96
@ 011   ----------------------------------------
	.byte		N96   
	.byte	W96
@ 012   ----------------------------------------
	.byte		        Cn1 
	.byte	W96
@ 013   ----------------------------------------
	.byte		N96   
	.byte	W96
@ 014   ----------------------------------------
	.byte		        Dn1 
	.byte	W96
@ 015   ----------------------------------------
	.byte		N96   
	.byte	W96
@ 016   ----------------------------------------
	.byte		N96   
	.byte	W96
@ 017   ----------------------------------------
	.byte		N96   
	.byte	W96
@ 018   ----------------------------------------
	.byte		        Cn1 
	.byte	W96
@ 019   ----------------------------------------
	.byte		        Dn1 
	.byte	W96
@ 020   ----------------------------------------
	.byte		        En1 
	.byte	W96
@ 021   ----------------------------------------
	.byte		        Fn1 
	.byte	W96
@ 022   ----------------------------------------
	.byte		        Dn1 
	.byte	W96
@ 023   ----------------------------------------
	.byte		N96   
	.byte	W96
@ 024   ----------------------------------------
	.byte		N96   
	.byte	W96
@ 025   ----------------------------------------
	.byte		N96   
	.byte	W96
@ 026   ----------------------------------------
	.byte		        Cn1 
	.byte	W96
@ 027   ----------------------------------------
	.byte		        Dn1 
	.byte	W96
@ 028   ----------------------------------------
	.byte		        En1 
	.byte	W96
@ 029   ----------------------------------------
	.byte		        Fn1 
	.byte	W96
@ 030   ----------------------------------------
	.byte		        Dn1 
	.byte	W96
@ 031   ----------------------------------------
	.byte	W96
@ 032   ----------------------------------------
	.byte		N96   
	.byte	W96
@ 033   ----------------------------------------
	.byte		N96   
	.byte	W96
@ 034   ----------------------------------------
	.byte		        En1 
	.byte	W96
@ 035   ----------------------------------------
	.byte		N96   
	.byte	W96
@ 036   ----------------------------------------
	.byte		N96   
	.byte	W96
@ 037   ----------------------------------------
	.byte		        Fn1 
	.byte	W96
@ 038   ----------------------------------------
	.byte		N96   
	.byte	W96
@ 039   ----------------------------------------
	.byte		N96   
	.byte	W96
@ 040   ----------------------------------------
	.byte		        Dn1 
	.byte	W96
@ 041   ----------------------------------------
	.byte		N96   
	.byte	W96
@ 042   ----------------------------------------
	.byte		        En1 
	.byte	W96
@ 043   ----------------------------------------
	.byte		N96   
	.byte	W96
@ 044   ----------------------------------------
	.byte		        Dn1 
	.byte	W96
@ 045   ----------------------------------------
	.byte		N96   
	.byte	W96
@ 046   ----------------------------------------
	.byte		N96   
	.byte	W96
@ 047   ----------------------------------------
	.byte		N96   
	.byte	W96
@ 048   ----------------------------------------
	.byte	FINE

@**************** Track 3 (Midi-Chn.3) ****************@

Pelleas_3:
	.byte		VOL   , 127*Pelleas_mvl/mxv
	.byte	KEYSH , Pelleas_key+0
@ 000   ----------------------------------------
	.byte		VOICE , 46
	.byte		PAN   , c_v+36
	.byte	W96
@ 001   ----------------------------------------
	.byte	W96
@ 002   ----------------------------------------
	.byte	W96
@ 003   ----------------------------------------
	.byte	W96
@ 004   ----------------------------------------
Pelleas_3_004:
	.byte		N12   , An4 , v064
	.byte	W12
	.byte		        Gn4 
	.byte	W12
	.byte		        Dn4 
	.byte	W12
	.byte		        An4 
	.byte	W12
	.byte		        Gn4 
	.byte	W12
	.byte		        Fn4 
	.byte	W12
	.byte		N24   , Dn4 
	.byte	W24
	.byte	PEND
@ 005   ----------------------------------------
Pelleas_3_005:
	.byte		N12   , An4 , v064
	.byte	W12
	.byte		        An3 
	.byte	W12
	.byte		        Dn4 
	.byte	W12
	.byte		        An4 
	.byte	W12
	.byte		        As4 
	.byte	W12
	.byte		        An4 
	.byte	W12
	.byte		        Fn4 
	.byte	W12
	.byte		        An3 
	.byte	W12
	.byte	PEND
@ 006   ----------------------------------------
	.byte	PATT
	 .word	Pelleas_3_004
@ 007   ----------------------------------------
	.byte	PATT
	 .word	Pelleas_3_005
@ 008   ----------------------------------------
	.byte	PATT
	 .word	Pelleas_3_004
@ 009   ----------------------------------------
	.byte	PATT
	 .word	Pelleas_3_005
@ 010   ----------------------------------------
	.byte	PATT
	 .word	Pelleas_3_004
@ 011   ----------------------------------------
	.byte	PATT
	 .word	Pelleas_3_005
@ 012   ----------------------------------------
	.byte	PATT
	 .word	Pelleas_3_004
@ 013   ----------------------------------------
	.byte	PATT
	 .word	Pelleas_3_005
@ 014   ----------------------------------------
	.byte	PATT
	 .word	Pelleas_3_004
@ 015   ----------------------------------------
	.byte	PATT
	 .word	Pelleas_3_005
@ 016   ----------------------------------------
	.byte	W96
@ 017   ----------------------------------------
	.byte	W96
@ 018   ----------------------------------------
	.byte	W96
@ 019   ----------------------------------------
	.byte	W96
@ 020   ----------------------------------------
	.byte	W96
@ 021   ----------------------------------------
	.byte	W96
@ 022   ----------------------------------------
	.byte	W96
@ 023   ----------------------------------------
	.byte	W96
@ 024   ----------------------------------------
	.byte	W96
@ 025   ----------------------------------------
	.byte	W96
@ 026   ----------------------------------------
	.byte	W96
@ 027   ----------------------------------------
	.byte	W96
@ 028   ----------------------------------------
	.byte	W96
@ 029   ----------------------------------------
	.byte	W96
@ 030   ----------------------------------------
	.byte	W96
@ 031   ----------------------------------------
	.byte	W96
@ 032   ----------------------------------------
	.byte	W96
@ 033   ----------------------------------------
	.byte	W96
@ 034   ----------------------------------------
	.byte	W96
@ 035   ----------------------------------------
	.byte	W96
@ 036   ----------------------------------------
	.byte	W96
@ 037   ----------------------------------------
	.byte	W96
@ 038   ----------------------------------------
	.byte	W96
@ 039   ----------------------------------------
	.byte	W96
@ 040   ----------------------------------------
Pelleas_3_040:
	.byte		N24   , Gn4 , v064
	.byte	W24
	.byte		        An4 
	.byte	W24
	.byte		        Cn5 
	.byte	W24
	.byte		        Gn4 
	.byte	W24
	.byte	PEND
@ 041   ----------------------------------------
Pelleas_3_041:
	.byte		N24   , An4 , v064
	.byte	W24
	.byte		        Cn5 
	.byte	W24
	.byte		        Gn4 
	.byte	W24
	.byte		        An4 
	.byte	W24
	.byte	PEND
@ 042   ----------------------------------------
	.byte	PATT
	 .word	Pelleas_3_040
@ 043   ----------------------------------------
	.byte	PATT
	 .word	Pelleas_3_041
@ 044   ----------------------------------------
	.byte	PATT
	 .word	Pelleas_3_040
@ 045   ----------------------------------------
	.byte	PATT
	 .word	Pelleas_3_041
@ 046   ----------------------------------------
	.byte		N24   , Dn5 , v064
	.byte	W24
	.byte		        Cn5 
	.byte	W24
	.byte		        Dn5 
	.byte	W24
	.byte		        An4 
	.byte	W24
@ 047   ----------------------------------------
	.byte		        Gn4 
	.byte	W24
	.byte		        Fn4 
	.byte	W24
	.byte		        En4 
	.byte	W24
	.byte		        Dn4 
	.byte	W24
@ 048   ----------------------------------------
	.byte	FINE

@**************** Track 4 (Midi-Chn.4) ****************@

Pelleas_4:
	.byte	KEYSH , Pelleas_key+0
@ 000   ----------------------------------------
	.byte		VOICE , 49
	.byte		VOL   , 64*Pelleas_mvl/mxv
	.byte		PAN   , c_v-13
	.byte	W96
@ 001   ----------------------------------------
	.byte	W96
@ 002   ----------------------------------------
	.byte	W96
@ 003   ----------------------------------------
	.byte	W96
@ 004   ----------------------------------------
	.byte	W96
@ 005   ----------------------------------------
	.byte	W96
@ 006   ----------------------------------------
	.byte	W96
@ 007   ----------------------------------------
	.byte	W96
@ 008   ----------------------------------------
Pelleas_4_008:
	.byte		TIE   , Dn2 , v064
	.byte		TIE   , Dn3 
	.byte		TIE   , En3 
	.byte	W96
	.byte	PEND
@ 009   ----------------------------------------
	.byte	W96
	.byte		EOT   , Dn2 
	.byte		        Dn3 
	.byte		        En3 
@ 010   ----------------------------------------
	.byte	PATT
	 .word	Pelleas_4_008
@ 011   ----------------------------------------
	.byte	W96
	.byte		EOT   , Dn2 
	.byte		        Dn3 
	.byte		        En3 
@ 012   ----------------------------------------
	.byte		TIE   , Dn2 , v064
	.byte		TIE   , En3 
	.byte		TIE   , An3 
	.byte		TIE   , Cn4 
	.byte	W96
@ 013   ----------------------------------------
	.byte	W96
	.byte		EOT   , Dn2 
	.byte		        En3 
	.byte		        An3 
	.byte		        Cn4 
@ 014   ----------------------------------------
	.byte		TIE   , Dn2 
	.byte		TIE   , Dn3 
	.byte		TIE   , An3 
	.byte		TIE   , Dn4 
	.byte	W96
@ 015   ----------------------------------------
	.byte	W96
	.byte		EOT   , Dn2 
	.byte		        Dn3 
	.byte		        An3 
	.byte		        Dn4 
@ 016   ----------------------------------------
	.byte	W96
@ 017   ----------------------------------------
	.byte	W96
@ 018   ----------------------------------------
	.byte	W96
@ 019   ----------------------------------------
	.byte	W96
@ 020   ----------------------------------------
	.byte	W96
@ 021   ----------------------------------------
	.byte	W96
@ 022   ----------------------------------------
	.byte	W96
@ 023   ----------------------------------------
	.byte	W96
@ 024   ----------------------------------------
	.byte	W96
@ 025   ----------------------------------------
	.byte	W96
@ 026   ----------------------------------------
	.byte	W96
@ 027   ----------------------------------------
	.byte	W96
@ 028   ----------------------------------------
	.byte	W96
@ 029   ----------------------------------------
	.byte	W96
@ 030   ----------------------------------------
	.byte	W96
@ 031   ----------------------------------------
	.byte	W96
@ 032   ----------------------------------------
	.byte		TIE   , As3 
	.byte	W96
@ 033   ----------------------------------------
	.byte	W96
	.byte		EOT   
@ 034   ----------------------------------------
	.byte		TIE   , Cn4 
	.byte	W96
@ 035   ----------------------------------------
	.byte	W96
	.byte		EOT   
@ 036   ----------------------------------------
	.byte		TIE   , As3 
	.byte	W96
@ 037   ----------------------------------------
	.byte	W96
	.byte		EOT   
@ 038   ----------------------------------------
	.byte		TIE   , An3 
	.byte	W96
@ 039   ----------------------------------------
	.byte	W96
	.byte		EOT   
@ 040   ----------------------------------------
	.byte		TIE   , As3 
	.byte	W96
@ 041   ----------------------------------------
	.byte	W96
	.byte		EOT   
@ 042   ----------------------------------------
	.byte		TIE   , Cn4 
	.byte	W96
@ 043   ----------------------------------------
	.byte	W96
	.byte		EOT   
@ 044   ----------------------------------------
	.byte		TIE   , As3 
	.byte	W96
@ 045   ----------------------------------------
	.byte	W96
	.byte		EOT   
@ 046   ----------------------------------------
	.byte		TIE   , An3 
	.byte	W96
@ 047   ----------------------------------------
	.byte	W96
	.byte		EOT   
@ 048   ----------------------------------------
	.byte	FINE

@**************** Track 5 (Midi-Chn.5) ****************@

Pelleas_5:
	.byte		VOL   , 127*Pelleas_mvl/mxv
	.byte	KEYSH , Pelleas_key+0
@ 000   ----------------------------------------
	.byte		VOICE , 68
	.byte	W96
@ 001   ----------------------------------------
	.byte	W96
@ 002   ----------------------------------------
	.byte	W96
@ 003   ----------------------------------------
	.byte	W96
@ 004   ----------------------------------------
	.byte	W96
@ 005   ----------------------------------------
	.byte	W96
@ 006   ----------------------------------------
	.byte	W96
@ 007   ----------------------------------------
	.byte	W96
@ 008   ----------------------------------------
	.byte	W96
@ 009   ----------------------------------------
	.byte	W96
@ 010   ----------------------------------------
	.byte	W96
@ 011   ----------------------------------------
	.byte	W96
@ 012   ----------------------------------------
	.byte	W96
@ 013   ----------------------------------------
	.byte	W96
@ 014   ----------------------------------------
	.byte	W96
@ 015   ----------------------------------------
	.byte	W96
@ 016   ----------------------------------------
	.byte	W96
@ 017   ----------------------------------------
	.byte	W96
@ 018   ----------------------------------------
	.byte	W96
@ 019   ----------------------------------------
	.byte	W96
@ 020   ----------------------------------------
	.byte	W96
@ 021   ----------------------------------------
	.byte	W96
@ 022   ----------------------------------------
	.byte	W96
@ 023   ----------------------------------------
	.byte	W96
@ 024   ----------------------------------------
	.byte	W96
@ 025   ----------------------------------------
	.byte	W96
@ 026   ----------------------------------------
	.byte	W96
@ 027   ----------------------------------------
	.byte	W96
@ 028   ----------------------------------------
	.byte	W96
@ 029   ----------------------------------------
	.byte	W96
@ 030   ----------------------------------------
	.byte	W96
@ 031   ----------------------------------------
	.byte	W96
@ 032   ----------------------------------------
	.byte		N48   , Fn2 , v064
	.byte	W48
	.byte		N96   , An2 
	.byte	W48
@ 033   ----------------------------------------
	.byte	W48
	.byte		N48   , Gn2 
	.byte	W48
@ 034   ----------------------------------------
Pelleas_5_034:
	.byte		N72   , Cn3 , v064
	.byte	W72
	.byte		N12   , As2 
	.byte	W12
	.byte		        An2 
	.byte	W12
	.byte	PEND
@ 035   ----------------------------------------
Pelleas_5_035:
	.byte		N48   , Gn2 , v064
	.byte	W48
	.byte		        Fn2 
	.byte	W48
	.byte	PEND
@ 036   ----------------------------------------
	.byte		N96   , Gn2 
	.byte	W96
@ 037   ----------------------------------------
	.byte		        En3 
	.byte	W96
@ 038   ----------------------------------------
	.byte		TIE   , Fn3 
	.byte	W96
@ 039   ----------------------------------------
	.byte	W96
	.byte		EOT   
@ 040   ----------------------------------------
	.byte		N48   , Gn2 
	.byte	W48
	.byte		        An2 
	.byte	W48
@ 041   ----------------------------------------
	.byte		N72   
	.byte	W72
	.byte		N24   , Fn2 
	.byte	W24
@ 042   ----------------------------------------
	.byte	PATT
	 .word	Pelleas_5_034
@ 043   ----------------------------------------
	.byte	PATT
	 .word	Pelleas_5_035
@ 044   ----------------------------------------
	.byte		TIE   , Gn2 , v064
	.byte	W96
@ 045   ----------------------------------------
	.byte	W72
	.byte		EOT   
	.byte		N24   , Fn2 
	.byte	W24
@ 046   ----------------------------------------
	.byte		TIE   , An2 
	.byte	W96
@ 047   ----------------------------------------
	.byte	W96
	.byte		EOT   
@ 048   ----------------------------------------
	.byte	FINE

@******************************************************@
	.align	2

Pelleas:
	.byte	5	@ NumTrks
	.byte	0	@ NumBlks
	.byte	Pelleas_pri	@ Priority
	.byte	Pelleas_rev	@ Reverb.

	.word	Pelleas_grp

	.word	Pelleas_1
	.word	Pelleas_2
	.word	Pelleas_3
	.word	Pelleas_4
	.word	Pelleas_5

	.end
