//Event file generated from Sappy .s format.
	#include "MPlayDef.event"

	#define	Pelleas_grp  voicegroup000
	#define	Pelleas_pri  0
	#define	Pelleas_rev  0
	#define	Pelleas_mvl  85
	#define	Pelleas_key  0
	#define	Pelleas_tbs  1
	#define	Pelleas_exg  0
	#define	Pelleas_cmp  1

	// .rodata
	//	Pelleas
	ALIGN 4

//**************** Track 1 (Midi-Chn.1) ****************//

Pelleas_1:
	BYTE		VOL     127*Pelleas_mvl/mxv
	BYTE	KEYSH   Pelleas_key+0
// 000   ----------------------------------------
	BYTE	TEMPO   132*Pelleas_tbs/2
	BYTE		VOICE   6
	BYTE		N24     Fn3   v064
	BYTE	W24
	BYTE		        As2 
	BYTE	W24
	BYTE		N48     En3 
	BYTE	W48
// 001   ----------------------------------------
	BYTE	W96
// 002   ----------------------------------------
Pelleas_1_002:
	BYTE		N24     Fn3   v064
	BYTE	W24
	BYTE		        As2 
	BYTE	W24
	BYTE		N48     En3 
	BYTE	W48
	BYTE	PEND
// 003   ----------------------------------------
	BYTE	W96
// 004   ----------------------------------------
Pelleas_1_004:
	BYTE		N24     Fn3   v064
	BYTE	W24
	BYTE		        An2 
	BYTE	W24
	BYTE		N48     En3 
	BYTE	W48
	BYTE	PEND
// 005   ----------------------------------------
	BYTE	W96
// 006   ----------------------------------------
	BYTE	PATT
	 POIN2	Pelleas_1_004
// 007   ----------------------------------------
	BYTE	W96
// 008   ----------------------------------------
	BYTE	PATT
	 POIN2	Pelleas_1_002
// 009   ----------------------------------------
	BYTE	W96
// 010   ----------------------------------------
	BYTE	PATT
	 POIN2	Pelleas_1_002
// 011   ----------------------------------------
	BYTE	W96
// 012   ----------------------------------------
	BYTE		N24     En3   v064
	BYTE	W24
	BYTE		        An2 
	BYTE	W24
	BYTE		N48     Dn3 
	BYTE	W48
// 013   ----------------------------------------
	BYTE	W96
// 014   ----------------------------------------
	BYTE		N48   
	BYTE	W48
	BYTE		        An2 
	BYTE	W48
// 015   ----------------------------------------
	BYTE		        Gn2 
	BYTE	W48
	BYTE		        Dn2 
	BYTE	W48
// 016   ----------------------------------------
Pelleas_1_016:
	BYTE		N24     Dn2   v064
	BYTE	W24
	BYTE		        An2 
	BYTE	W24
	BYTE		N48     En3 
	BYTE	W48
	BYTE	PEND
// 017   ----------------------------------------
Pelleas_1_017:
	BYTE		N24     An2   v064
	BYTE	W24
	BYTE		        Cn3 
	BYTE	W24
	BYTE		        As2 
	BYTE	W24
	BYTE		        An2 
	BYTE	W24
	BYTE	PEND
// 018   ----------------------------------------
Pelleas_1_018:
	BYTE		N24     Gn2   v064
	BYTE	W24
	BYTE		        An2 
	BYTE	W24
	BYTE		N48     Fn2 
	BYTE	W48
	BYTE	PEND
// 019   ----------------------------------------
Pelleas_1_019:
	BYTE		N24     Gn2   v064
	BYTE	W24
	BYTE		        Fn2 
	BYTE	W24
	BYTE		        En2 
	BYTE	W24
	BYTE		        An2 
	BYTE	W24
	BYTE	PEND
// 020   ----------------------------------------
Pelleas_1_020:
	BYTE		N24     Cn3   v064
	BYTE	W24
	BYTE		        Dn3 
	BYTE	W24
	BYTE		N48     An3 
	BYTE	W48
	BYTE	PEND
// 021   ----------------------------------------
	BYTE		N24     Gn3 
	BYTE	W24
	BYTE		        Fn3 
	BYTE	W24
	BYTE		        An2 
	BYTE	W24
	BYTE		        En3 
	BYTE	W24
// 022   ----------------------------------------
	BYTE		        Cn3 
	BYTE	W24
	BYTE		N48     Dn3 
	BYTE	W48
	BYTE		N24     An2 
	BYTE	W24
// 023   ----------------------------------------
	BYTE		        Gn2 
	BYTE	W24
	BYTE		        Fn2 
	BYTE	W24
	BYTE		N24   
	BYTE	W24
	BYTE		        En2 
	BYTE	W24
// 024   ----------------------------------------
	BYTE	PATT
	 POIN2	Pelleas_1_016
// 025   ----------------------------------------
	BYTE	PATT
	 POIN2	Pelleas_1_017
// 026   ----------------------------------------
	BYTE	PATT
	 POIN2	Pelleas_1_018
// 027   ----------------------------------------
	BYTE	PATT
	 POIN2	Pelleas_1_019
// 028   ----------------------------------------
	BYTE	PATT
	 POIN2	Pelleas_1_020
// 029   ----------------------------------------
	BYTE		N24     As3   v064
	BYTE	W24
	BYTE		        An3 
	BYTE	W24
	BYTE		        Fn3 
	BYTE	W24
	BYTE		        En3 
	BYTE	W24
// 030   ----------------------------------------
	BYTE	W48
	BYTE		N48     Dn3 
	BYTE	W48
// 031   ----------------------------------------
	BYTE	FINE

//**************** Track 2 (Midi-Chn.2) ****************//

Pelleas_2:
	BYTE		VOL     127*Pelleas_mvl/mxv
	BYTE	KEYSH   Pelleas_key+0
// 000   ----------------------------------------
	BYTE		VOICE   6
	BYTE		N96     Gn1   v064
	BYTE	W96
// 001   ----------------------------------------
	BYTE		N96   
	BYTE	W96
// 002   ----------------------------------------
	BYTE		        Dn1 
	BYTE	W96
// 003   ----------------------------------------
	BYTE		N96   
	BYTE	W96
// 004   ----------------------------------------
	BYTE		        Cn1 
	BYTE	W96
// 005   ----------------------------------------
	BYTE		N96   
	BYTE	W96
// 006   ----------------------------------------
	BYTE		        Dn1 
	BYTE	W96
// 007   ----------------------------------------
	BYTE		N96   
	BYTE	W96
// 008   ----------------------------------------
	BYTE		        Gn1 
	BYTE	W96
// 009   ----------------------------------------
	BYTE		N96   
	BYTE	W96
// 010   ----------------------------------------
	BYTE		        Dn1 
	BYTE	W96
// 011   ----------------------------------------
	BYTE		N96   
	BYTE	W96
// 012   ----------------------------------------
	BYTE		        Cn1 
	BYTE	W96
// 013   ----------------------------------------
	BYTE		N96   
	BYTE	W96
// 014   ----------------------------------------
	BYTE		        Dn1 
	BYTE	W96
// 015   ----------------------------------------
	BYTE		N96   
	BYTE	W96
// 016   ----------------------------------------
	BYTE		N96   
	BYTE	W96
// 017   ----------------------------------------
	BYTE		N96   
	BYTE	W96
// 018   ----------------------------------------
	BYTE		        Cn1 
	BYTE	W96
// 019   ----------------------------------------
	BYTE		        Dn1 
	BYTE	W96
// 020   ----------------------------------------
	BYTE		        En1 
	BYTE	W96
// 021   ----------------------------------------
	BYTE		        Fn1 
	BYTE	W96
// 022   ----------------------------------------
	BYTE		        Dn1 
	BYTE	W96
// 023   ----------------------------------------
	BYTE		N96   
	BYTE	W96
// 024   ----------------------------------------
	BYTE		N96   
	BYTE	W96
// 025   ----------------------------------------
	BYTE		N96   
	BYTE	W96
// 026   ----------------------------------------
	BYTE		        Cn1 
	BYTE	W96
// 027   ----------------------------------------
	BYTE		        Dn1 
	BYTE	W96
// 028   ----------------------------------------
	BYTE		        En1 
	BYTE	W96
// 029   ----------------------------------------
	BYTE		        Fn1 
	BYTE	W96
// 030   ----------------------------------------
	BYTE		        Dn1 
	BYTE	W96
// 031   ----------------------------------------
	BYTE	W96
// 032   ----------------------------------------
	BYTE		N96   
	BYTE	W96
// 033   ----------------------------------------
	BYTE		N96   
	BYTE	W96
// 034   ----------------------------------------
	BYTE		        En1 
	BYTE	W96
// 035   ----------------------------------------
	BYTE		N96   
	BYTE	W96
// 036   ----------------------------------------
	BYTE		N96   
	BYTE	W96
// 037   ----------------------------------------
	BYTE		        Fn1 
	BYTE	W96
// 038   ----------------------------------------
	BYTE		N96   
	BYTE	W96
// 039   ----------------------------------------
	BYTE		N96   
	BYTE	W96
// 040   ----------------------------------------
	BYTE		        Dn1 
	BYTE	W96
// 041   ----------------------------------------
	BYTE		N96   
	BYTE	W96
// 042   ----------------------------------------
	BYTE		        En1 
	BYTE	W96
// 043   ----------------------------------------
	BYTE		N96   
	BYTE	W96
// 044   ----------------------------------------
	BYTE		        Dn1 
	BYTE	W96
// 045   ----------------------------------------
	BYTE		N96   
	BYTE	W96
// 046   ----------------------------------------
	BYTE		N96   
	BYTE	W96
// 047   ----------------------------------------
	BYTE		N96   
	BYTE	W96
// 048   ----------------------------------------
	BYTE	FINE

//**************** Track 3 (Midi-Chn.3) ****************//

Pelleas_3:
	BYTE		VOL     127*Pelleas_mvl/mxv
	BYTE	KEYSH   Pelleas_key+0
// 000   ----------------------------------------
	BYTE		VOICE   46
	BYTE		PAN     c_v+36
	BYTE	W96
// 001   ----------------------------------------
	BYTE	W96
// 002   ----------------------------------------
	BYTE	W96
// 003   ----------------------------------------
	BYTE	W96
// 004   ----------------------------------------
Pelleas_3_004:
	BYTE		N12     An4   v064
	BYTE	W12
	BYTE		        Gn4 
	BYTE	W12
	BYTE		        Dn4 
	BYTE	W12
	BYTE		        An4 
	BYTE	W12
	BYTE		        Gn4 
	BYTE	W12
	BYTE		        Fn4 
	BYTE	W12
	BYTE		N24     Dn4 
	BYTE	W24
	BYTE	PEND
// 005   ----------------------------------------
Pelleas_3_005:
	BYTE		N12     An4   v064
	BYTE	W12
	BYTE		        An3 
	BYTE	W12
	BYTE		        Dn4 
	BYTE	W12
	BYTE		        An4 
	BYTE	W12
	BYTE		        As4 
	BYTE	W12
	BYTE		        An4 
	BYTE	W12
	BYTE		        Fn4 
	BYTE	W12
	BYTE		        An3 
	BYTE	W12
	BYTE	PEND
// 006   ----------------------------------------
	BYTE	PATT
	 POIN2	Pelleas_3_004
// 007   ----------------------------------------
	BYTE	PATT
	 POIN2	Pelleas_3_005
// 008   ----------------------------------------
	BYTE	PATT
	 POIN2	Pelleas_3_004
// 009   ----------------------------------------
	BYTE	PATT
	 POIN2	Pelleas_3_005
// 010   ----------------------------------------
	BYTE	PATT
	 POIN2	Pelleas_3_004
// 011   ----------------------------------------
	BYTE	PATT
	 POIN2	Pelleas_3_005
// 012   ----------------------------------------
	BYTE	PATT
	 POIN2	Pelleas_3_004
// 013   ----------------------------------------
	BYTE	PATT
	 POIN2	Pelleas_3_005
// 014   ----------------------------------------
	BYTE	PATT
	 POIN2	Pelleas_3_004
// 015   ----------------------------------------
	BYTE	PATT
	 POIN2	Pelleas_3_005
// 016   ----------------------------------------
	BYTE	W96
// 017   ----------------------------------------
	BYTE	W96
// 018   ----------------------------------------
	BYTE	W96
// 019   ----------------------------------------
	BYTE	W96
// 020   ----------------------------------------
	BYTE	W96
// 021   ----------------------------------------
	BYTE	W96
// 022   ----------------------------------------
	BYTE	W96
// 023   ----------------------------------------
	BYTE	W96
// 024   ----------------------------------------
	BYTE	W96
// 025   ----------------------------------------
	BYTE	W96
// 026   ----------------------------------------
	BYTE	W96
// 027   ----------------------------------------
	BYTE	W96
// 028   ----------------------------------------
	BYTE	W96
// 029   ----------------------------------------
	BYTE	W96
// 030   ----------------------------------------
	BYTE	W96
// 031   ----------------------------------------
	BYTE	W96
// 032   ----------------------------------------
	BYTE	W96
// 033   ----------------------------------------
	BYTE	W96
// 034   ----------------------------------------
	BYTE	W96
// 035   ----------------------------------------
	BYTE	W96
// 036   ----------------------------------------
	BYTE	W96
// 037   ----------------------------------------
	BYTE	W96
// 038   ----------------------------------------
	BYTE	W96
// 039   ----------------------------------------
	BYTE	W96
// 040   ----------------------------------------
Pelleas_3_040:
	BYTE		N24     Gn4   v064
	BYTE	W24
	BYTE		        An4 
	BYTE	W24
	BYTE		        Cn5 
	BYTE	W24
	BYTE		        Gn4 
	BYTE	W24
	BYTE	PEND
// 041   ----------------------------------------
Pelleas_3_041:
	BYTE		N24     An4   v064
	BYTE	W24
	BYTE		        Cn5 
	BYTE	W24
	BYTE		        Gn4 
	BYTE	W24
	BYTE		        An4 
	BYTE	W24
	BYTE	PEND
// 042   ----------------------------------------
	BYTE	PATT
	 POIN2	Pelleas_3_040
// 043   ----------------------------------------
	BYTE	PATT
	 POIN2	Pelleas_3_041
// 044   ----------------------------------------
	BYTE	PATT
	 POIN2	Pelleas_3_040
// 045   ----------------------------------------
	BYTE	PATT
	 POIN2	Pelleas_3_041
// 046   ----------------------------------------
	BYTE		N24     Dn5   v064
	BYTE	W24
	BYTE		        Cn5 
	BYTE	W24
	BYTE		        Dn5 
	BYTE	W24
	BYTE		        An4 
	BYTE	W24
// 047   ----------------------------------------
	BYTE		        Gn4 
	BYTE	W24
	BYTE		        Fn4 
	BYTE	W24
	BYTE		        En4 
	BYTE	W24
	BYTE		        Dn4 
	BYTE	W24
// 048   ----------------------------------------
	BYTE	FINE

//**************** Track 4 (Midi-Chn.4) ****************//

Pelleas_4:
	BYTE	KEYSH   Pelleas_key+0
// 000   ----------------------------------------
	BYTE		VOICE   49
	BYTE		VOL     64*Pelleas_mvl/mxv
	BYTE		PAN     c_v-13
	BYTE	W96
// 001   ----------------------------------------
	BYTE	W96
// 002   ----------------------------------------
	BYTE	W96
// 003   ----------------------------------------
	BYTE	W96
// 004   ----------------------------------------
	BYTE	W96
// 005   ----------------------------------------
	BYTE	W96
// 006   ----------------------------------------
	BYTE	W96
// 007   ----------------------------------------
	BYTE	W96
// 008   ----------------------------------------
Pelleas_4_008:
	BYTE		TIE     Dn2   v064
	BYTE		TIE     Dn3 
	BYTE		TIE     En3 
	BYTE	W96
	BYTE	PEND
// 009   ----------------------------------------
	BYTE	W96
	BYTE		EOT     Dn2 
	BYTE		        Dn3 
	BYTE		        En3 
// 010   ----------------------------------------
	BYTE	PATT
	 POIN2	Pelleas_4_008
// 011   ----------------------------------------
	BYTE	W96
	BYTE		EOT     Dn2 
	BYTE		        Dn3 
	BYTE		        En3 
// 012   ----------------------------------------
	BYTE		TIE     Dn2   v064
	BYTE		TIE     En3 
	BYTE		TIE     An3 
	BYTE		TIE     Cn4 
	BYTE	W96
// 013   ----------------------------------------
	BYTE	W96
	BYTE		EOT     Dn2 
	BYTE		        En3 
	BYTE		        An3 
	BYTE		        Cn4 
// 014   ----------------------------------------
	BYTE		TIE     Dn2 
	BYTE		TIE     Dn3 
	BYTE		TIE     An3 
	BYTE		TIE     Dn4 
	BYTE	W96
// 015   ----------------------------------------
	BYTE	W96
	BYTE		EOT     Dn2 
	BYTE		        Dn3 
	BYTE		        An3 
	BYTE		        Dn4 
// 016   ----------------------------------------
	BYTE	W96
// 017   ----------------------------------------
	BYTE	W96
// 018   ----------------------------------------
	BYTE	W96
// 019   ----------------------------------------
	BYTE	W96
// 020   ----------------------------------------
	BYTE	W96
// 021   ----------------------------------------
	BYTE	W96
// 022   ----------------------------------------
	BYTE	W96
// 023   ----------------------------------------
	BYTE	W96
// 024   ----------------------------------------
	BYTE	W96
// 025   ----------------------------------------
	BYTE	W96
// 026   ----------------------------------------
	BYTE	W96
// 027   ----------------------------------------
	BYTE	W96
// 028   ----------------------------------------
	BYTE	W96
// 029   ----------------------------------------
	BYTE	W96
// 030   ----------------------------------------
	BYTE	W96
// 031   ----------------------------------------
	BYTE	W96
// 032   ----------------------------------------
	BYTE		TIE     As3 
	BYTE	W96
// 033   ----------------------------------------
	BYTE	W96
	BYTE		EOT   
// 034   ----------------------------------------
	BYTE		TIE     Cn4 
	BYTE	W96
// 035   ----------------------------------------
	BYTE	W96
	BYTE		EOT   
// 036   ----------------------------------------
	BYTE		TIE     As3 
	BYTE	W96
// 037   ----------------------------------------
	BYTE	W96
	BYTE		EOT   
// 038   ----------------------------------------
	BYTE		TIE     An3 
	BYTE	W96
// 039   ----------------------------------------
	BYTE	W96
	BYTE		EOT   
// 040   ----------------------------------------
	BYTE		TIE     As3 
	BYTE	W96
// 041   ----------------------------------------
	BYTE	W96
	BYTE		EOT   
// 042   ----------------------------------------
	BYTE		TIE     Cn4 
	BYTE	W96
// 043   ----------------------------------------
	BYTE	W96
	BYTE		EOT   
// 044   ----------------------------------------
	BYTE		TIE     As3 
	BYTE	W96
// 045   ----------------------------------------
	BYTE	W96
	BYTE		EOT   
// 046   ----------------------------------------
	BYTE		TIE     An3 
	BYTE	W96
// 047   ----------------------------------------
	BYTE	W96
	BYTE		EOT   
// 048   ----------------------------------------
	BYTE	FINE

//**************** Track 5 (Midi-Chn.5) ****************//

Pelleas_5:
	BYTE		VOL     127*Pelleas_mvl/mxv
	BYTE	KEYSH   Pelleas_key+0
// 000   ----------------------------------------
	BYTE		VOICE   68
	BYTE	W96
// 001   ----------------------------------------
	BYTE	W96
// 002   ----------------------------------------
	BYTE	W96
// 003   ----------------------------------------
	BYTE	W96
// 004   ----------------------------------------
	BYTE	W96
// 005   ----------------------------------------
	BYTE	W96
// 006   ----------------------------------------
	BYTE	W96
// 007   ----------------------------------------
	BYTE	W96
// 008   ----------------------------------------
	BYTE	W96
// 009   ----------------------------------------
	BYTE	W96
// 010   ----------------------------------------
	BYTE	W96
// 011   ----------------------------------------
	BYTE	W96
// 012   ----------------------------------------
	BYTE	W96
// 013   ----------------------------------------
	BYTE	W96
// 014   ----------------------------------------
	BYTE	W96
// 015   ----------------------------------------
	BYTE	W96
// 016   ----------------------------------------
	BYTE	W96
// 017   ----------------------------------------
	BYTE	W96
// 018   ----------------------------------------
	BYTE	W96
// 019   ----------------------------------------
	BYTE	W96
// 020   ----------------------------------------
	BYTE	W96
// 021   ----------------------------------------
	BYTE	W96
// 022   ----------------------------------------
	BYTE	W96
// 023   ----------------------------------------
	BYTE	W96
// 024   ----------------------------------------
	BYTE	W96
// 025   ----------------------------------------
	BYTE	W96
// 026   ----------------------------------------
	BYTE	W96
// 027   ----------------------------------------
	BYTE	W96
// 028   ----------------------------------------
	BYTE	W96
// 029   ----------------------------------------
	BYTE	W96
// 030   ----------------------------------------
	BYTE	W96
// 031   ----------------------------------------
	BYTE	W96
// 032   ----------------------------------------
	BYTE		N48     Fn2   v064
	BYTE	W48
	BYTE		N96     An2 
	BYTE	W48
// 033   ----------------------------------------
	BYTE	W48
	BYTE		N48     Gn2 
	BYTE	W48
// 034   ----------------------------------------
Pelleas_5_034:
	BYTE		N72     Cn3   v064
	BYTE	W72
	BYTE		N12     As2 
	BYTE	W12
	BYTE		        An2 
	BYTE	W12
	BYTE	PEND
// 035   ----------------------------------------
Pelleas_5_035:
	BYTE		N48     Gn2   v064
	BYTE	W48
	BYTE		        Fn2 
	BYTE	W48
	BYTE	PEND
// 036   ----------------------------------------
	BYTE		N96     Gn2 
	BYTE	W96
// 037   ----------------------------------------
	BYTE		        En3 
	BYTE	W96
// 038   ----------------------------------------
	BYTE		TIE     Fn3 
	BYTE	W96
// 039   ----------------------------------------
	BYTE	W96
	BYTE		EOT   
// 040   ----------------------------------------
	BYTE		N48     Gn2 
	BYTE	W48
	BYTE		        An2 
	BYTE	W48
// 041   ----------------------------------------
	BYTE		N72   
	BYTE	W72
	BYTE		N24     Fn2 
	BYTE	W24
// 042   ----------------------------------------
	BYTE	PATT
	 POIN2	Pelleas_5_034
// 043   ----------------------------------------
	BYTE	PATT
	 POIN2	Pelleas_5_035
// 044   ----------------------------------------
	BYTE		TIE     Gn2   v064
	BYTE	W96
// 045   ----------------------------------------
	BYTE	W72
	BYTE		EOT   
	BYTE		N24     Fn2 
	BYTE	W24
// 046   ----------------------------------------
	BYTE		TIE     An2 
	BYTE	W96
// 047   ----------------------------------------
	BYTE	W96
	BYTE		EOT   
// 048   ----------------------------------------
	BYTE	FINE

//******************************************************//
	ALIGN 4

Pelleas:
	BYTE	5	// NumTrks
	BYTE	0	// NumBlks
	BYTE	Pelleas_pri	// Priority
	BYTE	Pelleas_rev	// Reverb.

	POIN2	Pelleas_grp

	POIN2	Pelleas_1
	POIN2	Pelleas_2
	POIN2	Pelleas_3
	POIN2	Pelleas_4
	POIN2	Pelleas_5

	
