//Event file generated from Sappy .s format.
	#include "MPlayDef.event"

	#define	riversinthedesert_grp  voicegroup000
	#define	riversinthedesert_pri  0
	#define	riversinthedesert_rev  0
	#define	riversinthedesert_mvl  85
	#define	riversinthedesert_key  0
	#define	riversinthedesert_tbs  1
	#define	riversinthedesert_exg  0
	#define	riversinthedesert_cmp  1

	// .rodata
	//	riversinthedesert
	ALIGN 4

//**************** Track 1 (Midi-Chn.1) ****************//

riversinthedesert_1:
	BYTE	KEYSH   riversinthedesert_key+0
// 000   ----------------------------------------
	BYTE	TEMPO   135*riversinthedesert_tbs/2
	BYTE		VOICE   67
	BYTE		VOL     100*riversinthedesert_mvl/mxv
	BYTE		PAN     c_v+0
	BYTE		VOL     100*riversinthedesert_mvl/mxv
	BYTE		PAN     c_v+0
	BYTE		N32     Gn1   v096
	BYTE	W36
	BYTE		N07   
	BYTE	W48
	BYTE		N05     Gn1   v080
	BYTE	W12
// 001   ----------------------------------------
riversinthedesert_1_001:
	BYTE		N32     Gn1   v096
	BYTE	W36
	BYTE		N07   
	BYTE	W24
	BYTE		N23     As1 
	BYTE	W24
	BYTE		N05     Gn1   v080
	BYTE	W12
	BYTE	PEND
// 002   ----------------------------------------
riversinthedesert_1_002:
	BYTE		N32     Gn1   v096
	BYTE	W36
	BYTE		N07   
	BYTE	W48
	BYTE		N05     Gn1   v080
	BYTE	W12
	BYTE	PEND
// 003   ----------------------------------------
	BYTE	PATT
	 POIN2	riversinthedesert_1_001
// 004   ----------------------------------------
	BYTE	PATT
	 POIN2	riversinthedesert_1_002
// 005   ----------------------------------------
	BYTE	PATT
	 POIN2	riversinthedesert_1_001
// 006   ----------------------------------------
	BYTE	PATT
	 POIN2	riversinthedesert_1_002
// 007   ----------------------------------------
	BYTE	PATT
	 POIN2	riversinthedesert_1_001
// 008   ----------------------------------------
	BYTE	PATT
	 POIN2	riversinthedesert_1_002
// 009   ----------------------------------------
	BYTE	PATT
	 POIN2	riversinthedesert_1_001
// 010   ----------------------------------------
	BYTE	PATT
	 POIN2	riversinthedesert_1_002
// 011   ----------------------------------------
	BYTE	PATT
	 POIN2	riversinthedesert_1_001
// 012   ----------------------------------------
	BYTE	PATT
	 POIN2	riversinthedesert_1_002
// 013   ----------------------------------------
	BYTE	PATT
	 POIN2	riversinthedesert_1_001
// 014   ----------------------------------------
	BYTE	PATT
	 POIN2	riversinthedesert_1_002
// 015   ----------------------------------------
	BYTE	PATT
	 POIN2	riversinthedesert_1_001
riversinthedesert_1_B1:
// 016   ----------------------------------------
riversinthedesert_1_016:
	BYTE		N32     Gn1   v060
	BYTE	W36
	BYTE		N07   
	BYTE	W48
	BYTE		N05     Gn1   v052
	BYTE	W12
	BYTE	PEND
// 017   ----------------------------------------
riversinthedesert_1_017:
	BYTE		N32     Gn1   v060
	BYTE	W36
	BYTE		N07   
	BYTE	W24
	BYTE		N23     As1 
	BYTE	W24
	BYTE		N05     Gn1   v052
	BYTE	W12
	BYTE	PEND
// 018   ----------------------------------------
	BYTE	PATT
	 POIN2	riversinthedesert_1_016
// 019   ----------------------------------------
	BYTE	PATT
	 POIN2	riversinthedesert_1_017
// 020   ----------------------------------------
	BYTE	PATT
	 POIN2	riversinthedesert_1_016
// 021   ----------------------------------------
	BYTE	PATT
	 POIN2	riversinthedesert_1_017
// 022   ----------------------------------------
	BYTE	PATT
	 POIN2	riversinthedesert_1_016
// 023   ----------------------------------------
	BYTE	PATT
	 POIN2	riversinthedesert_1_017
// 024   ----------------------------------------
	BYTE		N23     Gn1   v052
	BYTE		N11     Gn5   v080
	BYTE	W24
	BYTE		        Gn1   v052
	BYTE	W12
	BYTE		N11   
	BYTE	W12
	BYTE		N11   
	BYTE	W12
	BYTE		N11   
	BYTE		N11     Gn5   v080
	BYTE	W12
	BYTE		        Gn1   v052
	BYTE	W12
	BYTE		N32     Fn1 
	BYTE		N11     Fn5   v080
	BYTE	W12
// 025   ----------------------------------------
riversinthedesert_1_025:
	BYTE	W24
	BYTE		N11     Fn1   v052
	BYTE	W12
	BYTE		N11   
	BYTE	W12
	BYTE		N11   
	BYTE	W12
	BYTE		N11   
	BYTE		N11     Fn5   v080
	BYTE	W12
	BYTE		        Fn1   v052
	BYTE	W12
	BYTE		N32     En1 
	BYTE		N11     En5   v080
	BYTE	W12
	BYTE	PEND
// 026   ----------------------------------------
riversinthedesert_1_026:
	BYTE	W24
	BYTE		N11     En1   v052
	BYTE	W12
	BYTE		N11   
	BYTE	W12
	BYTE		N11   
	BYTE	W12
	BYTE		N11   
	BYTE		N11     En5   v080
	BYTE	W12
	BYTE		        En1   v052
	BYTE	W12
	BYTE		N32     Fn1 
	BYTE		N11     Fn5   v080
	BYTE	W12
	BYTE	PEND
// 027   ----------------------------------------
riversinthedesert_1_027:
	BYTE	W24
	BYTE		N11     Fn1   v052
	BYTE	W12
	BYTE		N11   
	BYTE	W12
	BYTE		N11   
	BYTE	W12
	BYTE		N11   
	BYTE		N11     Fn5   v080
	BYTE	W12
	BYTE		        Fn1   v052
	BYTE	W12
	BYTE		N32     Gn1 
	BYTE		N11     Gn5   v080
	BYTE	W12
	BYTE	PEND
// 028   ----------------------------------------
riversinthedesert_1_028:
	BYTE	W24
	BYTE		N11     Gn1   v052
	BYTE	W12
	BYTE		N11   
	BYTE	W12
	BYTE		N11   
	BYTE	W12
	BYTE		N11   
	BYTE		N11     Dn6   v080
	BYTE	W12
	BYTE		        Gn1   v052
	BYTE	W12
	BYTE		N32     Fn1 
	BYTE		N11     Cn6   v080
	BYTE	W12
	BYTE	PEND
// 029   ----------------------------------------
riversinthedesert_1_029:
	BYTE	W24
	BYTE		N11     Fn1   v052
	BYTE	W12
	BYTE		N11   
	BYTE	W12
	BYTE		N11   
	BYTE	W12
	BYTE		N11   
	BYTE		N11     Fn5   v080
	BYTE	W12
	BYTE		        Fn1   v052
	BYTE	W12
	BYTE		N32     En1 
	BYTE		N11     Gn5   v080
	BYTE	W12
	BYTE	PEND
// 030   ----------------------------------------
riversinthedesert_1_030:
	BYTE	W24
	BYTE		N11     En1   v052
	BYTE	W12
	BYTE		N11   
	BYTE	W12
	BYTE		N11   
	BYTE	W12
	BYTE		N11   
	BYTE		N11     Gn5   v080
	BYTE	W12
	BYTE		        En1   v052
	BYTE	W12
	BYTE		N32     Fn1 
	BYTE		N11     An5   v080
	BYTE	W12
	BYTE	PEND
// 031   ----------------------------------------
	BYTE	W24
	BYTE		        Fn1   v052
	BYTE	W12
	BYTE		N11   
	BYTE	W24
	BYTE		N32   
	BYTE		N32     An5   v080
	BYTE	W36
// 032   ----------------------------------------
	BYTE	PATT
	 POIN2	riversinthedesert_1_016
// 033   ----------------------------------------
	BYTE	PATT
	 POIN2	riversinthedesert_1_017
// 034   ----------------------------------------
	BYTE	PATT
	 POIN2	riversinthedesert_1_016
// 035   ----------------------------------------
	BYTE	PATT
	 POIN2	riversinthedesert_1_017
// 036   ----------------------------------------
	BYTE	PATT
	 POIN2	riversinthedesert_1_016
// 037   ----------------------------------------
	BYTE	PATT
	 POIN2	riversinthedesert_1_017
// 038   ----------------------------------------
	BYTE	PATT
	 POIN2	riversinthedesert_1_016
// 039   ----------------------------------------
	BYTE		N32     Gn1   v060
	BYTE		N44     Gn5   v052
	BYTE	W36
	BYTE		N07     Gn1   v060
	BYTE	W24
	BYTE		N23   
	BYTE		N32     Fn5   v052
	BYTE	W24
	BYTE		N05     Fn1 
	BYTE	W12
// 040   ----------------------------------------
	BYTE		N32     Ds1   v060
	BYTE		TIE     Ds6   v052
	BYTE	W36
	BYTE		N07     Ds1   v060
	BYTE	W24
	BYTE		N23   
	BYTE	W24
	BYTE		N05     Ds1   v052
	BYTE	W12
// 041   ----------------------------------------
	BYTE		N32     Ds1   v060
	BYTE	W36
	BYTE		N07   
	BYTE	W24
	BYTE		N23   
	BYTE	W24
	BYTE		N05     Ds1   v052
	BYTE	W12
// 042   ----------------------------------------
	BYTE		N32     Cn2   v060
	BYTE	W36
	BYTE		N07   
	BYTE	W24
	BYTE		N23   
	BYTE	W24
	BYTE		N05     Cn2   v052
	BYTE	W12
// 043   ----------------------------------------
	BYTE		N32     Cn2   v060
	BYTE	W36
	BYTE		N07   
	BYTE	W24
	BYTE		N23   
	BYTE	W24
	BYTE		N05     Cn2   v052
	BYTE	W11
	BYTE		EOT     Ds6 
	BYTE	W01
// 044   ----------------------------------------
riversinthedesert_1_044:
	BYTE		N32     Gn1   v060
	BYTE		N56     Gn5   v052
	BYTE	W36
	BYTE		N07     Gn1   v060
	BYTE	W24
	BYTE		N16   
	BYTE		N11     Gn5   v052
	BYTE	W24
	BYTE		N44     Fn1   v060
	BYTE		TIE     Fn5   v052
	BYTE	W12
	BYTE	PEND
// 045   ----------------------------------------
	BYTE	W36
	BYTE		N11     Fn1 
	BYTE	W24
	BYTE		N32     Fn1   v060
	BYTE	W32
	BYTE	W03
	BYTE		EOT     Fn5 
	BYTE	W01
// 046   ----------------------------------------
	BYTE	PATT
	 POIN2	riversinthedesert_1_044
// 047   ----------------------------------------
	BYTE	W92
	BYTE	W03
	BYTE		EOT     Fn5 
	BYTE	W01
// 048   ----------------------------------------
riversinthedesert_1_048:
	BYTE		N23     Gn1   v052
	BYTE	W24
	BYTE		N11   
	BYTE		N11     Gn5   v080
	BYTE	W12
	BYTE		        Gn1   v052
	BYTE		N11     Fn5   v080
	BYTE	W12
	BYTE		        Gn1   v052
	BYTE		N11     Gn5   v080
	BYTE	W12
	BYTE		        Gn1   v052
	BYTE		N11     Fn5   v080
	BYTE	W12
	BYTE		        Gn1   v052
	BYTE		N11     Gn5   v080
	BYTE	W12
	BYTE		N32     Fn1   v052
	BYTE	W12
	BYTE	PEND
// 049   ----------------------------------------
riversinthedesert_1_049:
	BYTE	W24
	BYTE		N11     Fn1   v052
	BYTE		N11     Gn5   v080
	BYTE	W12
	BYTE		        Fn1   v052
	BYTE		N11     Fn5   v080
	BYTE	W12
	BYTE		        Fn1   v052
	BYTE		N11     Gn5   v080
	BYTE	W12
	BYTE		        Fn1   v052
	BYTE		N11     Fn5   v080
	BYTE	W12
	BYTE		        Fn1   v052
	BYTE		N11     Gn5   v080
	BYTE	W12
	BYTE		N32     En1   v052
	BYTE	W12
	BYTE	PEND
// 050   ----------------------------------------
riversinthedesert_1_050:
	BYTE	W24
	BYTE		N11     En1   v052
	BYTE		N11     Gn5   v080
	BYTE	W12
	BYTE		        En1   v052
	BYTE		N11     Fn5   v080
	BYTE	W12
	BYTE		        En1   v052
	BYTE		N11     Gn5   v080
	BYTE	W12
	BYTE		        En1   v052
	BYTE		N11     Fn5   v080
	BYTE	W12
	BYTE		        En1   v052
	BYTE		N11     Gn5   v080
	BYTE	W12
	BYTE		N32     Fn1   v052
	BYTE	W12
	BYTE	PEND
// 051   ----------------------------------------
riversinthedesert_1_051:
	BYTE	W24
	BYTE		N11     Fn1   v052
	BYTE		N11     Gn5   v080
	BYTE	W12
	BYTE		        Fn1   v052
	BYTE		N11     Fn5   v080
	BYTE	W12
	BYTE		        Fn1   v052
	BYTE		N11     Gn5   v080
	BYTE	W12
	BYTE		        Fn1   v052
	BYTE		N11     Fn5   v080
	BYTE	W12
	BYTE		        Fn1   v052
	BYTE		N11     Gn5   v080
	BYTE	W12
	BYTE		N32     Cn1   v052
	BYTE	W12
	BYTE	PEND
// 052   ----------------------------------------
riversinthedesert_1_052:
	BYTE	W24
	BYTE		N11     Cn1   v052
	BYTE		N11     Gn5   v080
	BYTE	W12
	BYTE		        Cn1   v052
	BYTE		N11     Fn5   v080
	BYTE	W12
	BYTE		        Cn1   v052
	BYTE		N11     Gn5   v080
	BYTE	W12
	BYTE		        Cn1   v052
	BYTE		N11     An5   v080
	BYTE	W12
	BYTE		        Cn1   v052
	BYTE		N11     As5   v080
	BYTE	W12
	BYTE		N32     Dn1   v052
	BYTE		N56     An5   v080
	BYTE	W12
	BYTE	PEND
// 053   ----------------------------------------
riversinthedesert_1_053:
	BYTE	W24
	BYTE		N11     Dn1   v052
	BYTE	W12
	BYTE		N11   
	BYTE	W12
	BYTE		N11   
	BYTE		N11     An5   v080
	BYTE	W12
	BYTE		        Dn1   v052
	BYTE		N11     As5   v080
	BYTE	W12
	BYTE		        Dn1   v052
	BYTE		N11     Cn6   v080
	BYTE	W12
	BYTE		N32     En1   v052
	BYTE		N56     As5   v080
	BYTE	W12
	BYTE	PEND
// 054   ----------------------------------------
riversinthedesert_1_054:
	BYTE	W24
	BYTE		N11     En1   v052
	BYTE	W12
	BYTE		N11   
	BYTE	W12
	BYTE		N11   
	BYTE	W12
	BYTE		N11   
	BYTE		N11     As5   v080
	BYTE	W12
	BYTE		        En1   v052
	BYTE		N11     Cn6   v080
	BYTE	W12
	BYTE		N32     Fn1   v052
	BYTE		N11     Dn6   v080
	BYTE	W12
	BYTE	PEND
// 055   ----------------------------------------
	BYTE	W12
	BYTE		        An5 
	BYTE	W12
	BYTE		        Fn1   v052
	BYTE	W12
	BYTE		N11   
	BYTE		N11     Cn6   v080
	BYTE	W24
	BYTE		N32     Fn1   v052
	BYTE		N32     As5   v080
	BYTE	W36
// 056   ----------------------------------------
	BYTE	PATT
	 POIN2	riversinthedesert_1_048
// 057   ----------------------------------------
	BYTE	PATT
	 POIN2	riversinthedesert_1_049
// 058   ----------------------------------------
	BYTE	PATT
	 POIN2	riversinthedesert_1_050
// 059   ----------------------------------------
	BYTE	PATT
	 POIN2	riversinthedesert_1_051
// 060   ----------------------------------------
	BYTE	PATT
	 POIN2	riversinthedesert_1_052
// 061   ----------------------------------------
	BYTE	PATT
	 POIN2	riversinthedesert_1_053
// 062   ----------------------------------------
	BYTE	PATT
	 POIN2	riversinthedesert_1_054
// 063   ----------------------------------------
	BYTE		N11     Cs6   v080
	BYTE	W12
	BYTE		        Cn6 
	BYTE	W12
	BYTE		        Fn1   v052
	BYTE	W12
	BYTE		N11   
	BYTE		N11     As5   v080
	BYTE	W24
	BYTE		N32     Fn1   v052
	BYTE		N32     Gn5   v080
	BYTE	W36
// 064   ----------------------------------------
	BYTE		N23     Gn1   v052
	BYTE		N32     As5   v080
	BYTE	W24
	BYTE		N11     Gn1   v052
	BYTE	W12
	BYTE		N11   
	BYTE		N56     Gn6   v080
	BYTE	W12
	BYTE		N11     Gn1   v052
	BYTE	W12
	BYTE		N11   
	BYTE	W12
	BYTE		N11   
	BYTE	W12
	BYTE		N32     Fn1 
	BYTE	W12
// 065   ----------------------------------------
	BYTE		N07     An6   v080
	BYTE	W08
	BYTE		        Fn6 
	BYTE	W08
	BYTE		        Cs6 
	BYTE	W08
	BYTE		N11     Fn1   v052
	BYTE		N07     Dn6   v080
	BYTE	W08
	BYTE		        As5 
	BYTE	W04
	BYTE		N11     Fn1   v052
	BYTE	W04
	BYTE		N07     Gn5   v080
	BYTE	W08
	BYTE		N11     Fn1   v052
	BYTE		N07     Gs5   v080
	BYTE	W08
	BYTE		        Fn5 
	BYTE	W04
	BYTE		N11     Fn1   v052
	BYTE	W04
	BYTE		N07     Cn5   v080
	BYTE	W08
	BYTE		N11     Fn1   v052
	BYTE		N11     Cs5   v080
	BYTE	W12
	BYTE		N32     En1   v052
	BYTE		N44     Dn5   v080
	BYTE	W12
// 066   ----------------------------------------
	BYTE	W24
	BYTE		N11     En1   v052
	BYTE	W12
	BYTE		N11   
	BYTE		N44     Gn5   v080
	BYTE	W12
	BYTE		N11     En1   v052
	BYTE	W12
	BYTE		N11   
	BYTE	W12
	BYTE		N11   
	BYTE	W12
	BYTE		N32     Fn1 
	BYTE		N44     Fn5   v080
	BYTE	W12
// 067   ----------------------------------------
	BYTE	W24
	BYTE		N11     Fn1   v052
	BYTE	W12
	BYTE		N11   
	BYTE		N32     As5   v080
	BYTE	W12
	BYTE		N11     Fn1   v052
	BYTE	W12
	BYTE		N11   
	BYTE	W12
	BYTE		N11   
	BYTE		N23     Dn6   v080
	BYTE	W12
	BYTE		N32     Gn1   v052
	BYTE	W12
// 068   ----------------------------------------
	BYTE		N11     Gn6   v080
	BYTE	W24
	BYTE		        Gn1   v052
	BYTE	W12
	BYTE		N11   
	BYTE		N56     Gn6   v080
	BYTE	W12
	BYTE		N11     Gn1   v052
	BYTE	W12
	BYTE		N11   
	BYTE	W12
	BYTE		N11   
	BYTE	W12
	BYTE		N32     Fn1 
	BYTE	W12
// 069   ----------------------------------------
	BYTE		N07     An6   v080
	BYTE	W08
	BYTE		        Fn6 
	BYTE	W08
	BYTE		        Cs6 
	BYTE	W08
	BYTE		N11     Fn1   v052
	BYTE		N07     Dn6   v080
	BYTE	W08
	BYTE		        Gn5 
	BYTE	W04
	BYTE		N11     Fn1   v052
	BYTE	W04
	BYTE		N07     As5   v080
	BYTE	W08
	BYTE		N11     Fn1   v052
	BYTE		N11     Dn6   v080
	BYTE	W12
	BYTE		        Fn1   v052
	BYTE	W06
	BYTE		        Fn6   v080
	BYTE	W06
	BYTE		        Fn1   v052
	BYTE	W12
	BYTE		N32     En1 
	BYTE		N56     En6   v080
	BYTE	W12
// 070   ----------------------------------------
	BYTE	W24
	BYTE		N11     En1   v052
	BYTE	W12
	BYTE		N11   
	BYTE	W12
	BYTE		N11   
	BYTE	W12
	BYTE		N11   
	BYTE		N11     En6   v080
	BYTE	W12
	BYTE		        En1   v052
	BYTE	W12
	BYTE		N32     Fn1 
	BYTE		N32     Fn6   v080
	BYTE	W12
// 071   ----------------------------------------
	BYTE	W24
	BYTE		N11     Fn1   v052
	BYTE	W12
	BYTE		N11   
	BYTE	W12
	BYTE		N16     Fn6   v096
	BYTE	W12
	BYTE		N32     Fn1   v052
	BYTE	W12
	BYTE		N16     Fn6   v096
	BYTE	W24
// 072   ----------------------------------------
	BYTE		N23     Gn1   v052
	BYTE		N11     Gn6   v080
	BYTE	W24
	BYTE		        Gn1   v052
	BYTE	W12
	BYTE		N11   
	BYTE	W12
	BYTE		N11   
	BYTE	W12
	BYTE		N11   
	BYTE		N11     Gn5   v080
	BYTE	W12
	BYTE		        Gn1   v052
	BYTE	W12
	BYTE		N32     Fn1 
	BYTE		N11     Fn5   v080
	BYTE	W12
// 073   ----------------------------------------
	BYTE	PATT
	 POIN2	riversinthedesert_1_025
// 074   ----------------------------------------
	BYTE	PATT
	 POIN2	riversinthedesert_1_026
// 075   ----------------------------------------
	BYTE	PATT
	 POIN2	riversinthedesert_1_027
// 076   ----------------------------------------
	BYTE	PATT
	 POIN2	riversinthedesert_1_028
// 077   ----------------------------------------
	BYTE	PATT
	 POIN2	riversinthedesert_1_029
// 078   ----------------------------------------
	BYTE	PATT
	 POIN2	riversinthedesert_1_030
// 079   ----------------------------------------
	BYTE	W24
	BYTE		N11     Fn1   v052
	BYTE	W12
	BYTE		N11   
	BYTE	W24
	BYTE		N32   
	BYTE		N32     An5   v080
	BYTE	W32
	BYTE	W03
	BYTE	TEMPO   135*riversinthedesert_tbs/2
	BYTE	W01
	BYTE	GoTo
	 POIN2	riversinthedesert_1_B1
riversinthedesert_1_B2:
// 080   ----------------------------------------
	BYTE	FINE

//**************** Track 2 (Midi-Chn.2) ****************//

riversinthedesert_2:
	BYTE	KEYSH   riversinthedesert_key+0
// 000   ----------------------------------------
	BYTE		VOICE   73
	BYTE		VOL     100*riversinthedesert_mvl/mxv
	BYTE		PAN     c_v+0
	BYTE	W96
// 001   ----------------------------------------
	BYTE	W96
// 002   ----------------------------------------
	BYTE	W96
// 003   ----------------------------------------
	BYTE	W96
// 004   ----------------------------------------
	BYTE	W96
// 005   ----------------------------------------
	BYTE	W96
// 006   ----------------------------------------
	BYTE	W96
// 007   ----------------------------------------
	BYTE	W96
// 008   ----------------------------------------
	BYTE	W96
// 009   ----------------------------------------
	BYTE	W96
// 010   ----------------------------------------
	BYTE	W96
// 011   ----------------------------------------
	BYTE	W96
// 012   ----------------------------------------
	BYTE	W96
// 013   ----------------------------------------
	BYTE	W96
// 014   ----------------------------------------
	BYTE	W96
// 015   ----------------------------------------
	BYTE	W96
riversinthedesert_2_B1:
// 016   ----------------------------------------
	BYTE	W96
// 017   ----------------------------------------
	BYTE	W96
// 018   ----------------------------------------
	BYTE	W96
// 019   ----------------------------------------
	BYTE	W96
// 020   ----------------------------------------
	BYTE	W96
// 021   ----------------------------------------
	BYTE	W96
// 022   ----------------------------------------
	BYTE	W96
// 023   ----------------------------------------
	BYTE	W96
// 024   ----------------------------------------
	BYTE		N11     Gn4   v080
	BYTE	W60
	BYTE		N11   
	BYTE	W24
	BYTE		        Fn4 
	BYTE	W12
// 025   ----------------------------------------
riversinthedesert_2_025:
	BYTE	W60
	BYTE		N11     Fn4   v080
	BYTE	W24
	BYTE		        En4 
	BYTE	W12
	BYTE	PEND
// 026   ----------------------------------------
riversinthedesert_2_026:
	BYTE	W60
	BYTE		N11     En4   v080
	BYTE	W24
	BYTE		        Fn4 
	BYTE	W12
	BYTE	PEND
// 027   ----------------------------------------
riversinthedesert_2_027:
	BYTE	W60
	BYTE		N11     Fn4   v080
	BYTE	W24
	BYTE		        Gn4 
	BYTE	W12
	BYTE	PEND
// 028   ----------------------------------------
riversinthedesert_2_028:
	BYTE	W60
	BYTE		N11     Dn5   v080
	BYTE	W24
	BYTE		        Cn5 
	BYTE	W12
	BYTE	PEND
// 029   ----------------------------------------
	BYTE	PATT
	 POIN2	riversinthedesert_2_027
// 030   ----------------------------------------
riversinthedesert_2_030:
	BYTE	W60
	BYTE		N11     Gn4   v080
	BYTE	W24
	BYTE		        An4 
	BYTE	W12
	BYTE	PEND
// 031   ----------------------------------------
	BYTE	W60
	BYTE		N32   
	BYTE	W36
// 032   ----------------------------------------
	BYTE	W96
// 033   ----------------------------------------
	BYTE	W96
// 034   ----------------------------------------
	BYTE	W96
// 035   ----------------------------------------
	BYTE	W96
// 036   ----------------------------------------
	BYTE	W96
// 037   ----------------------------------------
	BYTE	W96
// 038   ----------------------------------------
	BYTE	W96
// 039   ----------------------------------------
	BYTE		N44     Gn4   v052
	BYTE	W60
	BYTE		N32     Fn4 
	BYTE	W36
// 040   ----------------------------------------
	BYTE		TIE     Ds5 
	BYTE	W96
// 041   ----------------------------------------
	BYTE	W96
// 042   ----------------------------------------
	BYTE	W96
// 043   ----------------------------------------
	BYTE	W76
	BYTE		EOT   
	BYTE	W20
// 044   ----------------------------------------
riversinthedesert_2_044:
	BYTE		N56     Gn4   v052
	BYTE	W60
	BYTE		N11   
	BYTE	W24
	BYTE		TIE     Fn4 
	BYTE	W12
	BYTE	PEND
// 045   ----------------------------------------
	BYTE	W90
	BYTE		EOT   
	BYTE	W06
// 046   ----------------------------------------
	BYTE	PATT
	 POIN2	riversinthedesert_2_044
// 047   ----------------------------------------
	BYTE	W90
	BYTE		EOT     Fn4 
	BYTE	W06
// 048   ----------------------------------------
riversinthedesert_2_048:
	BYTE	W24
	BYTE		N11     Gn4   v080
	BYTE	W12
	BYTE		        Fn4 
	BYTE	W12
	BYTE		        Gn4 
	BYTE	W12
	BYTE		        Fn4 
	BYTE	W12
	BYTE		        Gn4 
	BYTE	W24
	BYTE	PEND
// 049   ----------------------------------------
	BYTE	PATT
	 POIN2	riversinthedesert_2_048
// 050   ----------------------------------------
	BYTE	PATT
	 POIN2	riversinthedesert_2_048
// 051   ----------------------------------------
	BYTE	PATT
	 POIN2	riversinthedesert_2_048
// 052   ----------------------------------------
riversinthedesert_2_052:
	BYTE	W24
	BYTE		N11     Gn4   v080
	BYTE	W12
	BYTE		        Fn4 
	BYTE	W12
	BYTE		        Gn4 
	BYTE	W12
	BYTE		        An4 
	BYTE	W12
	BYTE		        As4 
	BYTE	W12
	BYTE		N56     An4 
	BYTE	W12
	BYTE	PEND
// 053   ----------------------------------------
riversinthedesert_2_053:
	BYTE	W48
	BYTE		N11     An4   v080
	BYTE	W12
	BYTE		        As4 
	BYTE	W12
	BYTE		        Cn5 
	BYTE	W12
	BYTE		N56     As4 
	BYTE	W12
	BYTE	PEND
// 054   ----------------------------------------
riversinthedesert_2_054:
	BYTE	W60
	BYTE		N11     As4   v080
	BYTE	W12
	BYTE		        Cn5 
	BYTE	W12
	BYTE		        Dn5 
	BYTE	W12
	BYTE	PEND
// 055   ----------------------------------------
	BYTE	W12
	BYTE		        An4 
	BYTE	W24
	BYTE		        Cn5 
	BYTE	W24
	BYTE		N32     As4 
	BYTE	W36
// 056   ----------------------------------------
	BYTE	PATT
	 POIN2	riversinthedesert_2_048
// 057   ----------------------------------------
	BYTE	PATT
	 POIN2	riversinthedesert_2_048
// 058   ----------------------------------------
	BYTE	PATT
	 POIN2	riversinthedesert_2_048
// 059   ----------------------------------------
	BYTE	PATT
	 POIN2	riversinthedesert_2_048
// 060   ----------------------------------------
	BYTE	PATT
	 POIN2	riversinthedesert_2_052
// 061   ----------------------------------------
	BYTE	PATT
	 POIN2	riversinthedesert_2_053
// 062   ----------------------------------------
	BYTE	PATT
	 POIN2	riversinthedesert_2_054
// 063   ----------------------------------------
	BYTE		N11     Cs5   v080
	BYTE	W12
	BYTE		        Cn5 
	BYTE	W24
	BYTE		        As4 
	BYTE	W24
	BYTE		N32     Gn4 
	BYTE	W36
// 064   ----------------------------------------
	BYTE		        As3 
	BYTE	W36
	BYTE		N56     Gn4 
	BYTE	W60
// 065   ----------------------------------------
	BYTE		N07     An4 
	BYTE	W08
	BYTE		        Fn4 
	BYTE	W08
	BYTE		        Cs4 
	BYTE	W08
	BYTE		        Dn4 
	BYTE	W08
	BYTE		        As3 
	BYTE	W08
	BYTE		        Gn3 
	BYTE	W08
	BYTE		        Gs3 
	BYTE	W08
	BYTE		        Fn3 
	BYTE	W08
	BYTE		        Cn3 
	BYTE	W08
	BYTE		N11     Cs3 
	BYTE	W12
	BYTE		N44     Dn3 
	BYTE	W12
// 066   ----------------------------------------
	BYTE	W36
	BYTE		        Gn3 
	BYTE	W48
	BYTE		        Fn3 
	BYTE	W12
// 067   ----------------------------------------
	BYTE	W36
	BYTE		N32     As3 
	BYTE	W36
	BYTE		N22     Dn4 
	BYTE	W24
// 068   ----------------------------------------
	BYTE		N11     Gn4 
	BYTE	W36
	BYTE		N56   
	BYTE	W60
// 069   ----------------------------------------
	BYTE		N07     An4 
	BYTE	W08
	BYTE		        Fn4 
	BYTE	W08
	BYTE		        Cs4 
	BYTE	W08
	BYTE		        Dn4 
	BYTE	W08
	BYTE		        Gn3 
	BYTE	W08
	BYTE		        As3 
	BYTE	W08
	BYTE		N11     Dn5 
	BYTE	W18
	BYTE		        Fn5 
	BYTE	W18
	BYTE		N56     En5 
	BYTE	W12
// 070   ----------------------------------------
	BYTE	W60
	BYTE		N11   
	BYTE	W24
	BYTE		N32     Fn5 
	BYTE	W12
// 071   ----------------------------------------
	BYTE	W48
	BYTE		N16     Fn5   v096
	BYTE	W24
	BYTE		N16   
	BYTE	W24
// 072   ----------------------------------------
	BYTE		N11     Gn5   v080
	BYTE	W60
	BYTE		        Gn4 
	BYTE	W24
	BYTE		        Fn4 
	BYTE	W12
// 073   ----------------------------------------
	BYTE	PATT
	 POIN2	riversinthedesert_2_025
// 074   ----------------------------------------
	BYTE	PATT
	 POIN2	riversinthedesert_2_026
// 075   ----------------------------------------
	BYTE	PATT
	 POIN2	riversinthedesert_2_027
// 076   ----------------------------------------
	BYTE	PATT
	 POIN2	riversinthedesert_2_028
// 077   ----------------------------------------
	BYTE	PATT
	 POIN2	riversinthedesert_2_027
// 078   ----------------------------------------
	BYTE	PATT
	 POIN2	riversinthedesert_2_030
// 079   ----------------------------------------
	BYTE	W60
	BYTE		N32     An4   v080
	BYTE	W36
	BYTE	GoTo
	 POIN2	riversinthedesert_2_B1
riversinthedesert_2_B2:
// 080   ----------------------------------------
	BYTE	FINE

//**************** Track 3 (Midi-Chn.3) ****************//

riversinthedesert_3:
	BYTE	KEYSH   riversinthedesert_key+0
// 000   ----------------------------------------
	BYTE		VOICE   65
	BYTE		VOL     100*riversinthedesert_mvl/mxv
	BYTE		PAN     c_v+0
	BYTE	W96
// 001   ----------------------------------------
	BYTE	W96
// 002   ----------------------------------------
	BYTE	W96
// 003   ----------------------------------------
	BYTE	W96
// 004   ----------------------------------------
	BYTE	W96
// 005   ----------------------------------------
	BYTE	W96
// 006   ----------------------------------------
	BYTE	W96
// 007   ----------------------------------------
	BYTE	W96
// 008   ----------------------------------------
	BYTE	W96
// 009   ----------------------------------------
	BYTE	W96
// 010   ----------------------------------------
	BYTE	W96
// 011   ----------------------------------------
	BYTE	W96
// 012   ----------------------------------------
	BYTE	W96
// 013   ----------------------------------------
	BYTE	W96
// 014   ----------------------------------------
	BYTE	W96
// 015   ----------------------------------------
	BYTE	W96
riversinthedesert_3_B1:
// 016   ----------------------------------------
riversinthedesert_3_016:
	BYTE	W12
	BYTE		N11     Dn3   v064
	BYTE		N11     Gn3 
	BYTE	W12
	BYTE		        Dn3 
	BYTE		N11     Gn3 
	BYTE	W12
	BYTE		N05     Dn3 
	BYTE		N05     Gn3 
	BYTE	W06
	BYTE		        Dn3 
	BYTE		N05     Gn3 
	BYTE	W06
	BYTE		N11     Dn3 
	BYTE		N11     Gn3 
	BYTE	W12
	BYTE		        Dn3 
	BYTE		N11     Gn3 
	BYTE	W24
	BYTE		N05     Dn3 
	BYTE		N05     Gn3 
	BYTE	W06
	BYTE		        Dn3 
	BYTE		N05     Gn3 
	BYTE	W06
	BYTE	PEND
// 017   ----------------------------------------
riversinthedesert_3_017:
	BYTE		N11     Dn3   v064
	BYTE		N11     Gn3 
	BYTE	W12
	BYTE		        Dn3 
	BYTE		N11     Gn3 
	BYTE	W24
	BYTE		        Dn3 
	BYTE		N11     Gn3 
	BYTE	W12
	BYTE		N11   
	BYTE		N11     Dn4 
	BYTE	W12
	BYTE		        Fn3 
	BYTE		N11     As3 
	BYTE	W12
	BYTE		        Gn3 
	BYTE		N11     Cn4 
	BYTE	W12
	BYTE		        Dn3 
	BYTE		N11     Gn3 
	BYTE	W12
	BYTE	PEND
// 018   ----------------------------------------
riversinthedesert_3_018:
	BYTE	W12
	BYTE		N11     Dn3   v064
	BYTE		N11     Gn3 
	BYTE	W12
	BYTE		        Dn3 
	BYTE		N11     Gn3 
	BYTE	W12
	BYTE		N05     Dn3 
	BYTE		N05     Gn3 
	BYTE	W06
	BYTE		        Dn3 
	BYTE		N05     Gn3 
	BYTE	W06
	BYTE		N11     Dn3 
	BYTE		N11     Gn3 
	BYTE	W12
	BYTE		        Dn3 
	BYTE		N11     Gn3 
	BYTE	W24
	BYTE		N11   
	BYTE		N11     Dn4 
	BYTE	W12
	BYTE	PEND
// 019   ----------------------------------------
riversinthedesert_3_019:
	BYTE	W12
	BYTE		N80     Cn4   v064
	BYTE		N80     Fn4 
	BYTE	W84
	BYTE	PEND
// 020   ----------------------------------------
	BYTE	PATT
	 POIN2	riversinthedesert_3_016
// 021   ----------------------------------------
riversinthedesert_3_021:
	BYTE		N11     Gn3   v064
	BYTE		N11     Dn4 
	BYTE	W12
	BYTE		        Fn3 
	BYTE		N11     As3 
	BYTE	W12
	BYTE		        Gn3 
	BYTE		N11     Cn4 
	BYTE	W12
	BYTE		N23     Dn3 
	BYTE		N23     Gn3 
	BYTE	W24
	BYTE		        Fn3 
	BYTE		N23     As3 
	BYTE	W24
	BYTE		N44     Dn3 
	BYTE		N44     Gn3 
	BYTE	W12
	BYTE	PEND
// 022   ----------------------------------------
riversinthedesert_3_022:
	BYTE	W36
	BYTE		N56     Gn3   v064
	BYTE		N56     As3 
	BYTE	W60
	BYTE	PEND
// 023   ----------------------------------------
riversinthedesert_3_023:
	BYTE	W36
	BYTE		N11     Gn3   v080
	BYTE	W12
	BYTE		N17     Cn4 
	BYTE	W18
	BYTE		        As3 
	BYTE	W18
	BYTE		N05     An3 
	BYTE	W06
	BYTE		        Gs3 
	BYTE	W06
	BYTE	PEND
// 024   ----------------------------------------
riversinthedesert_3_024:
	BYTE		N32     Dn3   v080
	BYTE		N32     Gn3 
	BYTE	W36
	BYTE		N32   
	BYTE		N32     As3 
	BYTE	W60
	BYTE	PEND
// 025   ----------------------------------------
	BYTE	PATT
	 POIN2	riversinthedesert_3_023
// 026   ----------------------------------------
riversinthedesert_3_026:
	BYTE		N32     Cn3   v080
	BYTE		N32     Gn3 
	BYTE	W36
	BYTE		N32   
	BYTE		N32     As3 
	BYTE	W60
	BYTE	PEND
// 027   ----------------------------------------
	BYTE	PATT
	 POIN2	riversinthedesert_3_023
// 028   ----------------------------------------
	BYTE	PATT
	 POIN2	riversinthedesert_3_024
// 029   ----------------------------------------
	BYTE	PATT
	 POIN2	riversinthedesert_3_023
// 030   ----------------------------------------
	BYTE	PATT
	 POIN2	riversinthedesert_3_026
// 031   ----------------------------------------
	BYTE	W96
// 032   ----------------------------------------
	BYTE	PATT
	 POIN2	riversinthedesert_3_016
// 033   ----------------------------------------
	BYTE	PATT
	 POIN2	riversinthedesert_3_017
// 034   ----------------------------------------
	BYTE	PATT
	 POIN2	riversinthedesert_3_018
// 035   ----------------------------------------
	BYTE	PATT
	 POIN2	riversinthedesert_3_019
// 036   ----------------------------------------
	BYTE	PATT
	 POIN2	riversinthedesert_3_016
// 037   ----------------------------------------
	BYTE	PATT
	 POIN2	riversinthedesert_3_021
// 038   ----------------------------------------
	BYTE	PATT
	 POIN2	riversinthedesert_3_022
// 039   ----------------------------------------
	BYTE	W96
// 040   ----------------------------------------
	BYTE	W12
	BYTE		N11     Dn3   v080
	BYTE		N11     Gn3 
	BYTE	W12
	BYTE		        Dn3 
	BYTE		N11     Gn3 
	BYTE	W12
	BYTE		N05     Dn3 
	BYTE		N05     Gn3 
	BYTE	W06
	BYTE		        Dn3 
	BYTE		N05     Gn3 
	BYTE	W06
	BYTE		N11     Dn3 
	BYTE		N11     Gn3 
	BYTE	W12
	BYTE		        Dn3 
	BYTE		N11     Gn3 
	BYTE	W24
	BYTE		N05     Dn3 
	BYTE		N05     Gn3 
	BYTE	W06
	BYTE		        Dn3 
	BYTE		N05     Gn3 
	BYTE	W06
// 041   ----------------------------------------
	BYTE		N11     Dn3 
	BYTE		N11     Gn3 
	BYTE	W12
	BYTE		        Dn3 
	BYTE		N11     Gn3 
	BYTE	W24
	BYTE		        Dn3 
	BYTE		N11     Gn3 
	BYTE	W12
	BYTE		N11   
	BYTE		N11     Dn4 
	BYTE	W12
	BYTE		        Fn3 
	BYTE		N11     As3 
	BYTE	W12
	BYTE		        Gn3 
	BYTE		N11     Cn4 
	BYTE	W12
	BYTE		        Dn3 
	BYTE		N11     Gn3 
	BYTE	W12
// 042   ----------------------------------------
	BYTE	W12
	BYTE		        Dn3 
	BYTE		N11     Gn3 
	BYTE	W12
	BYTE		        Dn3 
	BYTE		N11     Gn3 
	BYTE	W12
	BYTE		N05     Dn3 
	BYTE		N05     Gn3 
	BYTE	W06
	BYTE		        Dn3 
	BYTE		N05     Gn3 
	BYTE	W06
	BYTE		N11     Dn3 
	BYTE		N11     Gn3 
	BYTE	W12
	BYTE		        Dn3 
	BYTE		N11     Gn3 
	BYTE	W24
	BYTE		        Dn3 
	BYTE		N11     Gn3 
	BYTE	W12
// 043   ----------------------------------------
	BYTE		N11   
	BYTE		N11     Dn4 
	BYTE	W12
	BYTE		        Fn3 
	BYTE		N11     As3 
	BYTE	W12
	BYTE		        Gn3 
	BYTE		N11     Cn4 
	BYTE	W12
	BYTE		N23     Dn3 
	BYTE		N23     Gn3 
	BYTE	W24
	BYTE		        Fn3 
	BYTE		N23     As3 
	BYTE	W24
	BYTE		N44     Dn3 
	BYTE		N44     Gn3 
	BYTE	W12
// 044   ----------------------------------------
	BYTE	W36
	BYTE		N56     Fn3 
	BYTE		N56     As3 
	BYTE	W60
// 045   ----------------------------------------
	BYTE	W96
// 046   ----------------------------------------
	BYTE	W96
// 047   ----------------------------------------
	BYTE	PATT
	 POIN2	riversinthedesert_3_023
// 048   ----------------------------------------
	BYTE	PATT
	 POIN2	riversinthedesert_3_024
// 049   ----------------------------------------
	BYTE	PATT
	 POIN2	riversinthedesert_3_023
// 050   ----------------------------------------
	BYTE	PATT
	 POIN2	riversinthedesert_3_026
// 051   ----------------------------------------
riversinthedesert_3_051:
	BYTE	W60
	BYTE		N11     Gn3   v080
	BYTE	W12
	BYTE		        An3 
	BYTE	W12
	BYTE		        As3 
	BYTE	W12
	BYTE	PEND
// 052   ----------------------------------------
riversinthedesert_3_052:
	BYTE	W12
	BYTE		N11     As3   v080
	BYTE	W24
	BYTE		N11   
	BYTE	W24
	BYTE		N11   
	BYTE	W24
	BYTE		N23     Cn4 
	BYTE	W12
	BYTE	PEND
// 053   ----------------------------------------
riversinthedesert_3_053:
	BYTE	W12
	BYTE		N23     Fn3   v080
	BYTE	W24
	BYTE		N23   
	BYTE	W24
	BYTE		N23   
	BYTE	W24
	BYTE		N68     Gn3 
	BYTE	W12
	BYTE	PEND
// 054   ----------------------------------------
	BYTE	W60
	BYTE		N11   
	BYTE	W12
	BYTE		        An3 
	BYTE	W12
	BYTE		N32     As3 
	BYTE	W12
// 055   ----------------------------------------
	BYTE	PATT
	 POIN2	riversinthedesert_3_023
// 056   ----------------------------------------
	BYTE	PATT
	 POIN2	riversinthedesert_3_024
// 057   ----------------------------------------
	BYTE	PATT
	 POIN2	riversinthedesert_3_023
// 058   ----------------------------------------
	BYTE	PATT
	 POIN2	riversinthedesert_3_026
// 059   ----------------------------------------
	BYTE	PATT
	 POIN2	riversinthedesert_3_051
// 060   ----------------------------------------
	BYTE	PATT
	 POIN2	riversinthedesert_3_052
// 061   ----------------------------------------
	BYTE	PATT
	 POIN2	riversinthedesert_3_053
// 062   ----------------------------------------
	BYTE	PATT
	 POIN2	riversinthedesert_3_051
// 063   ----------------------------------------
	BYTE		N11     Cs4   v080
	BYTE	W12
	BYTE		        Cn4 
	BYTE	W24
	BYTE		N11   
	BYTE	W24
	BYTE		N23     Gn3 
	BYTE		N23     As3 
	BYTE	W24
	BYTE		N32     Cn4 
	BYTE	W12
// 064   ----------------------------------------
	BYTE	W24
	BYTE		N44   
	BYTE	W44
	BYTE	W03
	BYTE		BEND    c_v+0
	BYTE	W24
	BYTE	W01
// 065   ----------------------------------------
	BYTE	W96
// 066   ----------------------------------------
	BYTE	W96
// 067   ----------------------------------------
	BYTE	W96
// 068   ----------------------------------------
	BYTE	W96
// 069   ----------------------------------------
	BYTE	W96
// 070   ----------------------------------------
	BYTE	W96
// 071   ----------------------------------------
	BYTE	W96
// 072   ----------------------------------------
	BYTE	W96
// 073   ----------------------------------------
	BYTE	W96
// 074   ----------------------------------------
	BYTE	W96
// 075   ----------------------------------------
	BYTE	W96
// 076   ----------------------------------------
	BYTE	W96
// 077   ----------------------------------------
	BYTE	W96
// 078   ----------------------------------------
	BYTE	W96
// 079   ----------------------------------------
	BYTE	W96
	BYTE	GoTo
	 POIN2	riversinthedesert_3_B1
riversinthedesert_3_B2:
// 080   ----------------------------------------
	BYTE	FINE

//**************** Track 4 (Midi-Chn.4) ****************//

riversinthedesert_4:
	BYTE	KEYSH   riversinthedesert_key+0
// 000   ----------------------------------------
	BYTE		VOICE   68
	BYTE		VOL     100*riversinthedesert_mvl/mxv
	BYTE		PAN     c_v+0
	BYTE	W96
// 001   ----------------------------------------
	BYTE	W96
// 002   ----------------------------------------
	BYTE	W96
// 003   ----------------------------------------
	BYTE	W96
// 004   ----------------------------------------
	BYTE	W96
// 005   ----------------------------------------
	BYTE	W96
// 006   ----------------------------------------
	BYTE	W96
// 007   ----------------------------------------
	BYTE	W96
// 008   ----------------------------------------
	BYTE	W96
// 009   ----------------------------------------
	BYTE	W96
// 010   ----------------------------------------
	BYTE	W96
// 011   ----------------------------------------
	BYTE	W96
// 012   ----------------------------------------
	BYTE	W96
// 013   ----------------------------------------
	BYTE	W96
// 014   ----------------------------------------
	BYTE	W96
// 015   ----------------------------------------
	BYTE	W96
riversinthedesert_4_B1:
// 016   ----------------------------------------
	BYTE	W96
// 017   ----------------------------------------
	BYTE	W96
// 018   ----------------------------------------
	BYTE	W96
// 019   ----------------------------------------
	BYTE	W96
// 020   ----------------------------------------
	BYTE	W96
// 021   ----------------------------------------
	BYTE	W96
// 022   ----------------------------------------
	BYTE	W96
// 023   ----------------------------------------
	BYTE	W96
// 024   ----------------------------------------
riversinthedesert_4_024:
	BYTE		N11     Dn4   v080
	BYTE	W60
	BYTE		N11   
	BYTE	W24
	BYTE		        Cn4 
	BYTE	W12
	BYTE	PEND
// 025   ----------------------------------------
riversinthedesert_4_025:
	BYTE	W60
	BYTE		N11     Cn4   v080
	BYTE	W24
	BYTE		        Bn3 
	BYTE	W12
	BYTE	PEND
// 026   ----------------------------------------
riversinthedesert_4_026:
	BYTE	W60
	BYTE		N11     Bn3   v080
	BYTE	W24
	BYTE		        Cn4 
	BYTE	W12
	BYTE	PEND
// 027   ----------------------------------------
riversinthedesert_4_027:
	BYTE	W60
	BYTE		N11     Cn4   v080
	BYTE	W24
	BYTE		        Dn4 
	BYTE	W12
	BYTE	PEND
// 028   ----------------------------------------
riversinthedesert_4_028:
	BYTE	W60
	BYTE		N11     As4   v080
	BYTE	W24
	BYTE		        An4 
	BYTE	W12
	BYTE	PEND
// 029   ----------------------------------------
	BYTE	PATT
	 POIN2	riversinthedesert_4_027
// 030   ----------------------------------------
riversinthedesert_4_030:
	BYTE	W60
	BYTE		N11     Dn4   v080
	BYTE	W24
	BYTE		        Fn4 
	BYTE	W12
	BYTE	PEND
// 031   ----------------------------------------
	BYTE	W60
	BYTE		N32   
	BYTE	W36
// 032   ----------------------------------------
	BYTE	W96
// 033   ----------------------------------------
	BYTE	W96
// 034   ----------------------------------------
	BYTE	W96
// 035   ----------------------------------------
	BYTE	W96
// 036   ----------------------------------------
	BYTE	W96
// 037   ----------------------------------------
	BYTE	W96
// 038   ----------------------------------------
	BYTE	W96
// 039   ----------------------------------------
	BYTE		N44     Gn4   v052
	BYTE	W60
	BYTE		N32     Fn4 
	BYTE	W36
// 040   ----------------------------------------
	BYTE		TIE     Ds4 
	BYTE	W96
// 041   ----------------------------------------
	BYTE	W96
// 042   ----------------------------------------
	BYTE	W96
// 043   ----------------------------------------
	BYTE	W92
	BYTE	W03
	BYTE		EOT   
	BYTE	W01
// 044   ----------------------------------------
riversinthedesert_4_044:
	BYTE		N56     Dn4   v052
	BYTE	W60
	BYTE		N11   
	BYTE	W24
	BYTE		TIE     Cn4 
	BYTE	W12
	BYTE	PEND
// 045   ----------------------------------------
	BYTE	W92
	BYTE	W03
	BYTE		EOT   
	BYTE	W01
// 046   ----------------------------------------
	BYTE	PATT
	 POIN2	riversinthedesert_4_044
// 047   ----------------------------------------
	BYTE	W92
	BYTE	W03
	BYTE		EOT     Cn4 
	BYTE	W01
// 048   ----------------------------------------
riversinthedesert_4_048:
	BYTE	W24
	BYTE		N11     Dn4   v080
	BYTE	W12
	BYTE		        Cn4 
	BYTE	W12
	BYTE		        Dn4 
	BYTE	W12
	BYTE		        Cn4 
	BYTE	W12
	BYTE		        Dn4 
	BYTE	W24
	BYTE	PEND
// 049   ----------------------------------------
	BYTE	PATT
	 POIN2	riversinthedesert_4_048
// 050   ----------------------------------------
	BYTE	PATT
	 POIN2	riversinthedesert_4_048
// 051   ----------------------------------------
	BYTE	PATT
	 POIN2	riversinthedesert_4_048
// 052   ----------------------------------------
riversinthedesert_4_052:
	BYTE	W24
	BYTE		N11     Dn4   v080
	BYTE	W12
	BYTE		        Cn4 
	BYTE	W12
	BYTE		        Dn4 
	BYTE	W12
	BYTE		        Fn4 
	BYTE	W12
	BYTE		        Gn4 
	BYTE	W12
	BYTE		N56     Fn4 
	BYTE	W12
	BYTE	PEND
// 053   ----------------------------------------
riversinthedesert_4_053:
	BYTE	W48
	BYTE		N11     Fn4   v080
	BYTE	W12
	BYTE		        Gn4 
	BYTE	W12
	BYTE		        An4 
	BYTE	W12
	BYTE		N56     Gn4 
	BYTE	W12
	BYTE	PEND
// 054   ----------------------------------------
riversinthedesert_4_054:
	BYTE	W60
	BYTE		N11     Fn4   v080
	BYTE	W12
	BYTE		        Gn4 
	BYTE	W12
	BYTE		        An4 
	BYTE	W12
	BYTE	PEND
// 055   ----------------------------------------
	BYTE	W12
	BYTE		        Fn4 
	BYTE	W24
	BYTE		        Gn4 
	BYTE	W24
	BYTE		N32   
	BYTE	W36
// 056   ----------------------------------------
	BYTE	PATT
	 POIN2	riversinthedesert_4_048
// 057   ----------------------------------------
	BYTE	PATT
	 POIN2	riversinthedesert_4_048
// 058   ----------------------------------------
	BYTE	PATT
	 POIN2	riversinthedesert_4_048
// 059   ----------------------------------------
	BYTE	PATT
	 POIN2	riversinthedesert_4_048
// 060   ----------------------------------------
	BYTE	PATT
	 POIN2	riversinthedesert_4_052
// 061   ----------------------------------------
	BYTE	PATT
	 POIN2	riversinthedesert_4_053
// 062   ----------------------------------------
	BYTE	PATT
	 POIN2	riversinthedesert_4_054
// 063   ----------------------------------------
	BYTE		N11     As4   v080
	BYTE	W12
	BYTE		        An4 
	BYTE	W24
	BYTE		        Gn4 
	BYTE	W24
	BYTE		N32   
	BYTE	W36
// 064   ----------------------------------------
	BYTE		        As3 
	BYTE	W36
	BYTE		N56     Gn4 
	BYTE	W60
// 065   ----------------------------------------
	BYTE		N07     An4 
	BYTE	W08
	BYTE		        Fn4 
	BYTE	W08
	BYTE		        Cs4 
	BYTE	W08
	BYTE		        Dn4 
	BYTE	W08
	BYTE		        As3 
	BYTE	W08
	BYTE		        Gn3 
	BYTE	W08
	BYTE		        Gs3 
	BYTE	W08
	BYTE		        Fn3 
	BYTE	W08
	BYTE		        Cn3 
	BYTE	W08
	BYTE		N11     Cs3 
	BYTE	W12
	BYTE		N44     Dn3 
	BYTE	W12
// 066   ----------------------------------------
	BYTE	W36
	BYTE		        Gn3 
	BYTE	W48
	BYTE		        Fn3 
	BYTE	W12
// 067   ----------------------------------------
	BYTE	W36
	BYTE		N32     As3 
	BYTE	W36
	BYTE		N23     Dn4 
	BYTE	W24
// 068   ----------------------------------------
	BYTE		N11     Gn4 
	BYTE	W36
	BYTE		N56   
	BYTE	W60
// 069   ----------------------------------------
	BYTE		N07     An4 
	BYTE	W08
	BYTE		        Fn4 
	BYTE	W08
	BYTE		        Cs4 
	BYTE	W08
	BYTE		        Dn4 
	BYTE	W08
	BYTE		        Gn3 
	BYTE	W08
	BYTE		        As3 
	BYTE	W08
	BYTE		N11     Dn4 
	BYTE	W18
	BYTE		        Fn4 
	BYTE	W18
	BYTE		N56     En4 
	BYTE	W12
// 070   ----------------------------------------
	BYTE	W60
	BYTE		N11   
	BYTE	W24
	BYTE		N32     Fn4 
	BYTE	W12
// 071   ----------------------------------------
	BYTE	W48
	BYTE		N16     Fn4   v096
	BYTE	W24
	BYTE		N16   
	BYTE	W24
// 072   ----------------------------------------
	BYTE	PATT
	 POIN2	riversinthedesert_4_024
// 073   ----------------------------------------
	BYTE	PATT
	 POIN2	riversinthedesert_4_025
// 074   ----------------------------------------
	BYTE	PATT
	 POIN2	riversinthedesert_4_026
// 075   ----------------------------------------
	BYTE	PATT
	 POIN2	riversinthedesert_4_027
// 076   ----------------------------------------
	BYTE	PATT
	 POIN2	riversinthedesert_4_028
// 077   ----------------------------------------
	BYTE	PATT
	 POIN2	riversinthedesert_4_027
// 078   ----------------------------------------
	BYTE	PATT
	 POIN2	riversinthedesert_4_030
// 079   ----------------------------------------
	BYTE	W60
	BYTE		N32     Fn4   v080
	BYTE	W36
	BYTE	GoTo
	 POIN2	riversinthedesert_4_B1
riversinthedesert_4_B2:
// 080   ----------------------------------------
	BYTE	FINE

//**************** Track 5 (Midi-Chn.5) ****************//

riversinthedesert_5:
	BYTE	KEYSH   riversinthedesert_key+0
// 000   ----------------------------------------
	BYTE		VOICE   56
	BYTE		VOL     100*riversinthedesert_mvl/mxv
	BYTE		PAN     c_v+0
	BYTE	W96
// 001   ----------------------------------------
	BYTE	W96
// 002   ----------------------------------------
	BYTE	W96
// 003   ----------------------------------------
	BYTE	W96
// 004   ----------------------------------------
	BYTE	W96
// 005   ----------------------------------------
	BYTE	W96
// 006   ----------------------------------------
	BYTE	W96
// 007   ----------------------------------------
	BYTE	W96
// 008   ----------------------------------------
	BYTE	W96
// 009   ----------------------------------------
	BYTE	W96
// 010   ----------------------------------------
	BYTE	W96
// 011   ----------------------------------------
	BYTE	W96
// 012   ----------------------------------------
	BYTE	W96
// 013   ----------------------------------------
	BYTE	W96
// 014   ----------------------------------------
	BYTE	W96
// 015   ----------------------------------------
	BYTE	W96
riversinthedesert_5_B1:
// 016   ----------------------------------------
	BYTE	W96
// 017   ----------------------------------------
	BYTE	W96
// 018   ----------------------------------------
	BYTE	W96
// 019   ----------------------------------------
	BYTE	W96
// 020   ----------------------------------------
	BYTE	W96
// 021   ----------------------------------------
	BYTE	W96
// 022   ----------------------------------------
	BYTE	W96
// 023   ----------------------------------------
riversinthedesert_5_023:
	BYTE	W36
	BYTE		N11     Gn3   v080
	BYTE	W12
	BYTE		N17     Cn4 
	BYTE	W18
	BYTE		        As3 
	BYTE	W18
	BYTE		N05     An3 
	BYTE	W06
	BYTE		        Gs3 
	BYTE	W06
	BYTE	PEND
// 024   ----------------------------------------
riversinthedesert_5_024:
	BYTE		N32     Gn3   v080
	BYTE	W36
	BYTE		        As3 
	BYTE	W60
	BYTE	PEND
// 025   ----------------------------------------
	BYTE	PATT
	 POIN2	riversinthedesert_5_023
// 026   ----------------------------------------
	BYTE	PATT
	 POIN2	riversinthedesert_5_024
// 027   ----------------------------------------
	BYTE	PATT
	 POIN2	riversinthedesert_5_023
// 028   ----------------------------------------
	BYTE	PATT
	 POIN2	riversinthedesert_5_024
// 029   ----------------------------------------
	BYTE	PATT
	 POIN2	riversinthedesert_5_023
// 030   ----------------------------------------
	BYTE	PATT
	 POIN2	riversinthedesert_5_024
// 031   ----------------------------------------
	BYTE	W96
// 032   ----------------------------------------
	BYTE	W96
// 033   ----------------------------------------
	BYTE	W96
// 034   ----------------------------------------
	BYTE	W96
// 035   ----------------------------------------
	BYTE	W96
// 036   ----------------------------------------
	BYTE	W96
// 037   ----------------------------------------
	BYTE	W96
// 038   ----------------------------------------
	BYTE	W96
// 039   ----------------------------------------
	BYTE	W96
// 040   ----------------------------------------
	BYTE	W96
// 041   ----------------------------------------
	BYTE	W96
// 042   ----------------------------------------
	BYTE	W96
// 043   ----------------------------------------
	BYTE	W96
// 044   ----------------------------------------
	BYTE	W96
// 045   ----------------------------------------
	BYTE	W96
// 046   ----------------------------------------
	BYTE	W96
// 047   ----------------------------------------
	BYTE	PATT
	 POIN2	riversinthedesert_5_023
// 048   ----------------------------------------
	BYTE	PATT
	 POIN2	riversinthedesert_5_024
// 049   ----------------------------------------
	BYTE	PATT
	 POIN2	riversinthedesert_5_023
// 050   ----------------------------------------
	BYTE	PATT
	 POIN2	riversinthedesert_5_024
// 051   ----------------------------------------
riversinthedesert_5_051:
	BYTE	W60
	BYTE		N11     Gn3   v080
	BYTE	W12
	BYTE		        An3 
	BYTE	W12
	BYTE		        As3 
	BYTE	W12
	BYTE	PEND
// 052   ----------------------------------------
riversinthedesert_5_052:
	BYTE	W12
	BYTE		N11     As3   v080
	BYTE	W24
	BYTE		N11   
	BYTE	W24
	BYTE		N11   
	BYTE	W24
	BYTE		N23     Cn4 
	BYTE	W12
	BYTE	PEND
// 053   ----------------------------------------
riversinthedesert_5_053:
	BYTE	W12
	BYTE		N23     Fn3   v080
	BYTE	W24
	BYTE		N23   
	BYTE	W24
	BYTE		N23   
	BYTE	W24
	BYTE		N68     Gn3 
	BYTE	W12
	BYTE	PEND
// 054   ----------------------------------------
	BYTE	W60
	BYTE		N11   
	BYTE	W12
	BYTE		        An3 
	BYTE	W12
	BYTE		N32     As3 
	BYTE	W12
// 055   ----------------------------------------
	BYTE	PATT
	 POIN2	riversinthedesert_5_023
// 056   ----------------------------------------
	BYTE	PATT
	 POIN2	riversinthedesert_5_024
// 057   ----------------------------------------
	BYTE	PATT
	 POIN2	riversinthedesert_5_023
// 058   ----------------------------------------
	BYTE	PATT
	 POIN2	riversinthedesert_5_024
// 059   ----------------------------------------
	BYTE	PATT
	 POIN2	riversinthedesert_5_051
// 060   ----------------------------------------
	BYTE	PATT
	 POIN2	riversinthedesert_5_052
// 061   ----------------------------------------
	BYTE	PATT
	 POIN2	riversinthedesert_5_053
// 062   ----------------------------------------
	BYTE	PATT
	 POIN2	riversinthedesert_5_051
// 063   ----------------------------------------
	BYTE		N11     Cs4   v080
	BYTE	W12
	BYTE		        Cn4 
	BYTE	W24
	BYTE		        As3 
	BYTE	W24
	BYTE		N23     Gn3 
	BYTE	W24
	BYTE		N32     Cn4 
	BYTE	W12
// 064   ----------------------------------------
	BYTE	W24
	BYTE		N44   
	BYTE	W72
// 065   ----------------------------------------
	BYTE	W96
// 066   ----------------------------------------
	BYTE	W96
// 067   ----------------------------------------
	BYTE	W96
// 068   ----------------------------------------
	BYTE	W96
// 069   ----------------------------------------
	BYTE	W96
// 070   ----------------------------------------
	BYTE	W96
// 071   ----------------------------------------
	BYTE	W96
// 072   ----------------------------------------
	BYTE	W96
// 073   ----------------------------------------
	BYTE	W96
// 074   ----------------------------------------
	BYTE	W96
// 075   ----------------------------------------
	BYTE	W96
// 076   ----------------------------------------
	BYTE	W96
// 077   ----------------------------------------
	BYTE	W96
// 078   ----------------------------------------
	BYTE	W96
// 079   ----------------------------------------
	BYTE	W96
	BYTE	GoTo
	 POIN2	riversinthedesert_5_B1
riversinthedesert_5_B2:
// 080   ----------------------------------------
	BYTE	FINE

//**************** Track 6 (Midi-Chn.6) ****************//

riversinthedesert_6:
	BYTE	KEYSH   riversinthedesert_key+0
// 000   ----------------------------------------
	BYTE		VOICE   70
	BYTE		VOL     100*riversinthedesert_mvl/mxv
	BYTE		PAN     c_v+0
	BYTE	W96
// 001   ----------------------------------------
	BYTE	W96
// 002   ----------------------------------------
	BYTE	W96
// 003   ----------------------------------------
	BYTE	W96
// 004   ----------------------------------------
	BYTE	W96
// 005   ----------------------------------------
	BYTE	W96
// 006   ----------------------------------------
	BYTE	W96
// 007   ----------------------------------------
	BYTE	W96
// 008   ----------------------------------------
	BYTE	W96
// 009   ----------------------------------------
	BYTE	W96
// 010   ----------------------------------------
	BYTE	W96
// 011   ----------------------------------------
	BYTE	W96
// 012   ----------------------------------------
	BYTE	W96
// 013   ----------------------------------------
	BYTE	W96
// 014   ----------------------------------------
	BYTE	W96
// 015   ----------------------------------------
	BYTE	W96
riversinthedesert_6_B1:
// 016   ----------------------------------------
riversinthedesert_6_016:
	BYTE		N32     Gn2   v036
	BYTE	W36
	BYTE		        Gn3 
	BYTE	W36
	BYTE		N23     Dn2 
	BYTE	W24
	BYTE	PEND
// 017   ----------------------------------------
	BYTE	PATT
	 POIN2	riversinthedesert_6_016
// 018   ----------------------------------------
	BYTE	PATT
	 POIN2	riversinthedesert_6_016
// 019   ----------------------------------------
	BYTE	PATT
	 POIN2	riversinthedesert_6_016
// 020   ----------------------------------------
	BYTE	PATT
	 POIN2	riversinthedesert_6_016
// 021   ----------------------------------------
	BYTE	PATT
	 POIN2	riversinthedesert_6_016
// 022   ----------------------------------------
	BYTE	PATT
	 POIN2	riversinthedesert_6_016
// 023   ----------------------------------------
	BYTE		N32     Gn2   v036
	BYTE	W36
	BYTE		        Gn3 
	BYTE	W60
// 024   ----------------------------------------
	BYTE		N11     Gn1   v080
	BYTE	W60
	BYTE		N11   
	BYTE	W24
	BYTE		        Fn1 
	BYTE	W12
// 025   ----------------------------------------
riversinthedesert_6_025:
	BYTE	W60
	BYTE		N11     Fn1   v080
	BYTE	W24
	BYTE		        En1 
	BYTE	W12
	BYTE	PEND
// 026   ----------------------------------------
riversinthedesert_6_026:
	BYTE	W60
	BYTE		N11     En1   v080
	BYTE	W24
	BYTE		        Fn1 
	BYTE	W12
	BYTE	PEND
// 027   ----------------------------------------
riversinthedesert_6_027:
	BYTE	W60
	BYTE		N11     Fn1   v080
	BYTE	W24
	BYTE		        Gn1 
	BYTE	W12
	BYTE	PEND
// 028   ----------------------------------------
riversinthedesert_6_028:
	BYTE	W60
	BYTE		N11     Gn1   v080
	BYTE	W24
	BYTE		        Fn1 
	BYTE	W12
	BYTE	PEND
// 029   ----------------------------------------
	BYTE	PATT
	 POIN2	riversinthedesert_6_025
// 030   ----------------------------------------
	BYTE	PATT
	 POIN2	riversinthedesert_6_026
// 031   ----------------------------------------
	BYTE	W60
	BYTE		N32     Fn1   v080
	BYTE	W36
// 032   ----------------------------------------
	BYTE	PATT
	 POIN2	riversinthedesert_6_016
// 033   ----------------------------------------
	BYTE	PATT
	 POIN2	riversinthedesert_6_016
// 034   ----------------------------------------
	BYTE	PATT
	 POIN2	riversinthedesert_6_016
// 035   ----------------------------------------
	BYTE	PATT
	 POIN2	riversinthedesert_6_016
// 036   ----------------------------------------
	BYTE	PATT
	 POIN2	riversinthedesert_6_016
// 037   ----------------------------------------
	BYTE	PATT
	 POIN2	riversinthedesert_6_016
// 038   ----------------------------------------
	BYTE	PATT
	 POIN2	riversinthedesert_6_016
// 039   ----------------------------------------
	BYTE	PATT
	 POIN2	riversinthedesert_6_016
// 040   ----------------------------------------
	BYTE	PATT
	 POIN2	riversinthedesert_6_016
// 041   ----------------------------------------
	BYTE	PATT
	 POIN2	riversinthedesert_6_016
// 042   ----------------------------------------
	BYTE	PATT
	 POIN2	riversinthedesert_6_016
// 043   ----------------------------------------
	BYTE	PATT
	 POIN2	riversinthedesert_6_016
// 044   ----------------------------------------
riversinthedesert_6_044:
	BYTE		N56     Gn1   v036
	BYTE	W60
	BYTE		N11   
	BYTE	W24
	BYTE		TIE     Fn1 
	BYTE	W12
	BYTE	PEND
// 045   ----------------------------------------
	BYTE	W92
	BYTE	W03
	BYTE		EOT   
	BYTE	W01
// 046   ----------------------------------------
	BYTE	PATT
	 POIN2	riversinthedesert_6_044
// 047   ----------------------------------------
	BYTE	W92
	BYTE	W03
	BYTE		EOT     Fn1 
	BYTE	W01
// 048   ----------------------------------------
riversinthedesert_6_048:
	BYTE	W24
	BYTE		N11     Dn2   v080
	BYTE	W12
	BYTE		        Cn2 
	BYTE	W12
	BYTE		        Dn2 
	BYTE	W12
	BYTE		        Cn2 
	BYTE	W12
	BYTE		        Dn2 
	BYTE	W24
	BYTE	PEND
// 049   ----------------------------------------
	BYTE	PATT
	 POIN2	riversinthedesert_6_048
// 050   ----------------------------------------
	BYTE	PATT
	 POIN2	riversinthedesert_6_048
// 051   ----------------------------------------
	BYTE	PATT
	 POIN2	riversinthedesert_6_048
// 052   ----------------------------------------
riversinthedesert_6_052:
	BYTE	W24
	BYTE		N11     Dn2   v080
	BYTE	W12
	BYTE		        Cn2 
	BYTE	W12
	BYTE		        Dn2 
	BYTE	W12
	BYTE		        Fn2 
	BYTE	W12
	BYTE		        Gn2 
	BYTE	W12
	BYTE		N56     Fn2 
	BYTE	W12
	BYTE	PEND
// 053   ----------------------------------------
riversinthedesert_6_053:
	BYTE	W48
	BYTE		N11     Fn2   v080
	BYTE	W12
	BYTE		        Gn2 
	BYTE	W12
	BYTE		        An2 
	BYTE	W12
	BYTE		N56     Gn2 
	BYTE	W12
	BYTE	PEND
// 054   ----------------------------------------
riversinthedesert_6_054:
	BYTE	W60
	BYTE		N11     Fn2   v080
	BYTE	W12
	BYTE		        Gn2 
	BYTE	W12
	BYTE		        An2 
	BYTE	W12
	BYTE	PEND
// 055   ----------------------------------------
	BYTE	W12
	BYTE		        Fn2 
	BYTE	W24
	BYTE		        Gn2 
	BYTE	W24
	BYTE		N32   
	BYTE	W36
// 056   ----------------------------------------
	BYTE	PATT
	 POIN2	riversinthedesert_6_048
// 057   ----------------------------------------
	BYTE	PATT
	 POIN2	riversinthedesert_6_048
// 058   ----------------------------------------
	BYTE	PATT
	 POIN2	riversinthedesert_6_048
// 059   ----------------------------------------
	BYTE	PATT
	 POIN2	riversinthedesert_6_048
// 060   ----------------------------------------
	BYTE	PATT
	 POIN2	riversinthedesert_6_052
// 061   ----------------------------------------
	BYTE	PATT
	 POIN2	riversinthedesert_6_053
// 062   ----------------------------------------
	BYTE	PATT
	 POIN2	riversinthedesert_6_054
// 063   ----------------------------------------
	BYTE		N11     As2   v080
	BYTE	W12
	BYTE		        An2 
	BYTE	W24
	BYTE		        Gn2 
	BYTE	W24
	BYTE		N32   
	BYTE	W36
// 064   ----------------------------------------
	BYTE		        As1 
	BYTE	W36
	BYTE		N56     Gn2 
	BYTE	W60
// 065   ----------------------------------------
	BYTE		N07     An2 
	BYTE	W08
	BYTE		        Fn2 
	BYTE	W08
	BYTE		        Cs2 
	BYTE	W08
	BYTE		        Dn2 
	BYTE	W08
	BYTE		        As1 
	BYTE	W08
	BYTE		        Gn1 
	BYTE	W08
	BYTE		        Gs1 
	BYTE	W08
	BYTE		        Fn1 
	BYTE	W08
	BYTE		        Cn1 
	BYTE	W08
	BYTE		N11     Cs1 
	BYTE	W12
	BYTE		N44     Dn1 
	BYTE	W12
// 066   ----------------------------------------
	BYTE	W36
	BYTE		        Gn1 
	BYTE	W48
	BYTE		        Fn1 
	BYTE	W12
// 067   ----------------------------------------
	BYTE	W36
	BYTE		N32     As1 
	BYTE	W36
	BYTE		N23     Dn2 
	BYTE	W24
// 068   ----------------------------------------
	BYTE		N11     Gn2 
	BYTE	W36
	BYTE		N56   
	BYTE	W60
// 069   ----------------------------------------
	BYTE		N07     An2 
	BYTE	W08
	BYTE		        Fn2 
	BYTE	W08
	BYTE		        Cs2 
	BYTE	W08
	BYTE		        Dn2 
	BYTE	W08
	BYTE		        Gn1 
	BYTE	W08
	BYTE		        As1 
	BYTE	W08
	BYTE		N11     Dn2 
	BYTE	W18
	BYTE		        Fn2 
	BYTE	W18
	BYTE		N56     En2 
	BYTE	W12
// 070   ----------------------------------------
	BYTE	W60
	BYTE		N11   
	BYTE	W24
	BYTE		N32     Fn2 
	BYTE	W12
// 071   ----------------------------------------
	BYTE	W48
	BYTE		N16     Fn2   v096
	BYTE	W24
	BYTE		N16   
	BYTE	W24
// 072   ----------------------------------------
	BYTE		N11     Gn2   v080
	BYTE	W60
	BYTE		        Gn1 
	BYTE	W24
	BYTE		        Fn1 
	BYTE	W12
// 073   ----------------------------------------
	BYTE	PATT
	 POIN2	riversinthedesert_6_025
// 074   ----------------------------------------
	BYTE	PATT
	 POIN2	riversinthedesert_6_026
// 075   ----------------------------------------
	BYTE	PATT
	 POIN2	riversinthedesert_6_027
// 076   ----------------------------------------
	BYTE	PATT
	 POIN2	riversinthedesert_6_028
// 077   ----------------------------------------
	BYTE	PATT
	 POIN2	riversinthedesert_6_025
// 078   ----------------------------------------
	BYTE	PATT
	 POIN2	riversinthedesert_6_026
// 079   ----------------------------------------
	BYTE	W60
	BYTE		N32     Fn1   v080
	BYTE	W36
	BYTE	GoTo
	 POIN2	riversinthedesert_6_B1
riversinthedesert_6_B2:
// 080   ----------------------------------------
	BYTE	FINE

//**************** Track 7 (Midi-Chn.7) ****************//

riversinthedesert_7:
	BYTE	KEYSH   riversinthedesert_key+0
// 000   ----------------------------------------
	BYTE		VOICE   127
	BYTE		VOL     100*riversinthedesert_mvl/mxv
	BYTE		PAN     c_v+0
	BYTE		VOL     100*riversinthedesert_mvl/mxv
	BYTE		PAN     c_v+0
	BYTE		N92     Bn0   v127
	BYTE	W96
// 001   ----------------------------------------
	BYTE	W96
// 002   ----------------------------------------
	BYTE		N92   
	BYTE	W96
// 003   ----------------------------------------
	BYTE	W96
// 004   ----------------------------------------
	BYTE		N92   
	BYTE	W96
// 005   ----------------------------------------
	BYTE	W96
// 006   ----------------------------------------
	BYTE		N92   
	BYTE	W96
// 007   ----------------------------------------
	BYTE	W96
// 008   ----------------------------------------
	BYTE		N92   
	BYTE	W96
// 009   ----------------------------------------
	BYTE	W96
// 010   ----------------------------------------
	BYTE		N92   
	BYTE	W96
// 011   ----------------------------------------
	BYTE	W96
// 012   ----------------------------------------
riversinthedesert_7_012:
	BYTE		N48     Bn0   v127
	BYTE		N05     Fs1   v080
	BYTE	W06
	BYTE		N05   
	BYTE	W06
	BYTE		N05   
	BYTE	W06
	BYTE		N05   
	BYTE	W06
	BYTE		        Dn1 
	BYTE		N05     Fs1 
	BYTE	W06
	BYTE		N05   
	BYTE	W06
	BYTE		N05   
	BYTE	W06
	BYTE		N05   
	BYTE	W06
	BYTE		N44     Bn0 
	BYTE		N05     Fs1 
	BYTE	W06
	BYTE		N05   
	BYTE	W06
	BYTE		N05   
	BYTE	W06
	BYTE		N05   
	BYTE	W06
	BYTE		        Dn1 
	BYTE		N05     Fs1 
	BYTE	W06
	BYTE		N05   
	BYTE	W06
	BYTE		N05   
	BYTE	W06
	BYTE		N05   
	BYTE	W06
	BYTE	PEND
// 013   ----------------------------------------
riversinthedesert_7_013:
	BYTE		N23     Bn0   v080
	BYTE		N05     Fs1 
	BYTE	W06
	BYTE		N05   
	BYTE	W06
	BYTE		N05   
	BYTE	W06
	BYTE		N05   
	BYTE	W06
	BYTE		        Dn1 
	BYTE		N05     Fs1 
	BYTE	W06
	BYTE		N05   
	BYTE	W06
	BYTE		N05   
	BYTE	W06
	BYTE		N05   
	BYTE	W06
	BYTE		N23     Bn0 
	BYTE		N05     Fs1 
	BYTE	W06
	BYTE		N05   
	BYTE	W06
	BYTE		N05   
	BYTE	W06
	BYTE		N05   
	BYTE	W06
	BYTE		        Dn1 
	BYTE		N05     Fs1 
	BYTE	W06
	BYTE		N05   
	BYTE	W06
	BYTE		N05   
	BYTE	W06
	BYTE		N05   
	BYTE	W06
	BYTE	PEND
// 014   ----------------------------------------
	BYTE	PATT
	 POIN2	riversinthedesert_7_012
// 015   ----------------------------------------
	BYTE	PATT
	 POIN2	riversinthedesert_7_013
riversinthedesert_7_B1:
// 016   ----------------------------------------
riversinthedesert_7_016:
	BYTE		N24     Bn0   v127
	BYTE	W24
	BYTE		        Bn0   v064
	BYTE		N23     Dn1 
	BYTE	W24
	BYTE		N24     Bn0 
	BYTE	W24
	BYTE		N23   
	BYTE		N23     Dn1 
	BYTE	W24
	BYTE	PEND
// 017   ----------------------------------------
riversinthedesert_7_017:
	BYTE		N23     Bn0   v064
	BYTE	W24
	BYTE		N23   
	BYTE		N23     Dn1 
	BYTE	W24
	BYTE		        Bn0 
	BYTE	W24
	BYTE		N23   
	BYTE		N23     Dn1 
	BYTE	W24
	BYTE	PEND
// 018   ----------------------------------------
	BYTE	PATT
	 POIN2	riversinthedesert_7_016
// 019   ----------------------------------------
	BYTE	PATT
	 POIN2	riversinthedesert_7_017
// 020   ----------------------------------------
	BYTE	PATT
	 POIN2	riversinthedesert_7_016
// 021   ----------------------------------------
	BYTE	PATT
	 POIN2	riversinthedesert_7_017
// 022   ----------------------------------------
	BYTE	PATT
	 POIN2	riversinthedesert_7_016
// 023   ----------------------------------------
riversinthedesert_7_023:
	BYTE		N23     Bn0   v064
	BYTE	W24
	BYTE		N23   
	BYTE		N23     Dn1 
	BYTE	W24
	BYTE		        Bn0 
	BYTE	W24
	BYTE		N23   
	BYTE		N05     Dn1 
	BYTE	W06
	BYTE		N05   
	BYTE	W06
	BYTE		N05   
	BYTE	W06
	BYTE		N05   
	BYTE	W06
	BYTE	PEND
// 024   ----------------------------------------
riversinthedesert_7_024:
	BYTE		N24     Bn0   v127
	BYTE	W12
	BYTE		N11     Fs1   v080
	BYTE	W12
	BYTE		N24     Bn0 
	BYTE		N11     Dn1 
	BYTE	W12
	BYTE		        Fs1 
	BYTE	W12
	BYTE		N24     Bn0 
	BYTE	W12
	BYTE		N11     Fs1 
	BYTE	W12
	BYTE		N23     Bn0 
	BYTE		N11     Dn1 
	BYTE	W12
	BYTE		        Fs1 
	BYTE	W12
	BYTE	PEND
// 025   ----------------------------------------
riversinthedesert_7_025:
	BYTE		N23     Bn0   v080
	BYTE	W12
	BYTE		N11     Fs1 
	BYTE	W12
	BYTE		N23     Bn0 
	BYTE		N11     Dn1 
	BYTE	W12
	BYTE		        Fs1 
	BYTE	W12
	BYTE		N23     Bn0 
	BYTE	W12
	BYTE		N11     Fs1 
	BYTE	W12
	BYTE		N23     Bn0 
	BYTE		N11     Dn1 
	BYTE	W12
	BYTE		        Fs1 
	BYTE	W12
	BYTE	PEND
// 026   ----------------------------------------
	BYTE	PATT
	 POIN2	riversinthedesert_7_024
// 027   ----------------------------------------
	BYTE	PATT
	 POIN2	riversinthedesert_7_025
// 028   ----------------------------------------
	BYTE	PATT
	 POIN2	riversinthedesert_7_024
// 029   ----------------------------------------
	BYTE	PATT
	 POIN2	riversinthedesert_7_025
// 030   ----------------------------------------
	BYTE	PATT
	 POIN2	riversinthedesert_7_024
// 031   ----------------------------------------
	BYTE	PATT
	 POIN2	riversinthedesert_7_025
// 032   ----------------------------------------
	BYTE	PATT
	 POIN2	riversinthedesert_7_016
// 033   ----------------------------------------
	BYTE	PATT
	 POIN2	riversinthedesert_7_017
// 034   ----------------------------------------
	BYTE	PATT
	 POIN2	riversinthedesert_7_016
// 035   ----------------------------------------
	BYTE	PATT
	 POIN2	riversinthedesert_7_017
// 036   ----------------------------------------
	BYTE	PATT
	 POIN2	riversinthedesert_7_016
// 037   ----------------------------------------
	BYTE	PATT
	 POIN2	riversinthedesert_7_017
// 038   ----------------------------------------
	BYTE	PATT
	 POIN2	riversinthedesert_7_016
// 039   ----------------------------------------
	BYTE	PATT
	 POIN2	riversinthedesert_7_017
// 040   ----------------------------------------
	BYTE	PATT
	 POIN2	riversinthedesert_7_016
// 041   ----------------------------------------
	BYTE	PATT
	 POIN2	riversinthedesert_7_017
// 042   ----------------------------------------
	BYTE	PATT
	 POIN2	riversinthedesert_7_016
// 043   ----------------------------------------
	BYTE	PATT
	 POIN2	riversinthedesert_7_017
// 044   ----------------------------------------
	BYTE	PATT
	 POIN2	riversinthedesert_7_016
// 045   ----------------------------------------
	BYTE	PATT
	 POIN2	riversinthedesert_7_017
// 046   ----------------------------------------
	BYTE	PATT
	 POIN2	riversinthedesert_7_016
// 047   ----------------------------------------
	BYTE	PATT
	 POIN2	riversinthedesert_7_023
// 048   ----------------------------------------
	BYTE	PATT
	 POIN2	riversinthedesert_7_024
// 049   ----------------------------------------
	BYTE	PATT
	 POIN2	riversinthedesert_7_025
// 050   ----------------------------------------
	BYTE	PATT
	 POIN2	riversinthedesert_7_024
// 051   ----------------------------------------
	BYTE	PATT
	 POIN2	riversinthedesert_7_025
// 052   ----------------------------------------
	BYTE	PATT
	 POIN2	riversinthedesert_7_024
// 053   ----------------------------------------
	BYTE	PATT
	 POIN2	riversinthedesert_7_025
// 054   ----------------------------------------
	BYTE	PATT
	 POIN2	riversinthedesert_7_024
// 055   ----------------------------------------
	BYTE	PATT
	 POIN2	riversinthedesert_7_025
// 056   ----------------------------------------
	BYTE	PATT
	 POIN2	riversinthedesert_7_024
// 057   ----------------------------------------
	BYTE	PATT
	 POIN2	riversinthedesert_7_025
// 058   ----------------------------------------
	BYTE	PATT
	 POIN2	riversinthedesert_7_024
// 059   ----------------------------------------
	BYTE	PATT
	 POIN2	riversinthedesert_7_025
// 060   ----------------------------------------
	BYTE	PATT
	 POIN2	riversinthedesert_7_024
// 061   ----------------------------------------
	BYTE	PATT
	 POIN2	riversinthedesert_7_025
// 062   ----------------------------------------
	BYTE	PATT
	 POIN2	riversinthedesert_7_024
// 063   ----------------------------------------
	BYTE	PATT
	 POIN2	riversinthedesert_7_025
// 064   ----------------------------------------
	BYTE	PATT
	 POIN2	riversinthedesert_7_024
// 065   ----------------------------------------
	BYTE	PATT
	 POIN2	riversinthedesert_7_025
// 066   ----------------------------------------
	BYTE	PATT
	 POIN2	riversinthedesert_7_024
// 067   ----------------------------------------
	BYTE	PATT
	 POIN2	riversinthedesert_7_025
// 068   ----------------------------------------
	BYTE	PATT
	 POIN2	riversinthedesert_7_024
// 069   ----------------------------------------
	BYTE	PATT
	 POIN2	riversinthedesert_7_025
// 070   ----------------------------------------
	BYTE	PATT
	 POIN2	riversinthedesert_7_024
// 071   ----------------------------------------
	BYTE	PATT
	 POIN2	riversinthedesert_7_025
// 072   ----------------------------------------
	BYTE	PATT
	 POIN2	riversinthedesert_7_024
// 073   ----------------------------------------
	BYTE	PATT
	 POIN2	riversinthedesert_7_025
// 074   ----------------------------------------
	BYTE	PATT
	 POIN2	riversinthedesert_7_024
// 075   ----------------------------------------
	BYTE	PATT
	 POIN2	riversinthedesert_7_025
// 076   ----------------------------------------
	BYTE	PATT
	 POIN2	riversinthedesert_7_024
// 077   ----------------------------------------
	BYTE	PATT
	 POIN2	riversinthedesert_7_025
// 078   ----------------------------------------
	BYTE	PATT
	 POIN2	riversinthedesert_7_024
// 079   ----------------------------------------
	BYTE	PATT
	 POIN2	riversinthedesert_7_025
	BYTE	GoTo
	 POIN2	riversinthedesert_7_B1
riversinthedesert_7_B2:
// 080   ----------------------------------------
	BYTE	FINE

//**************** Track 8 (Midi-Chn.8) ****************//

riversinthedesert_8:
	BYTE	KEYSH   riversinthedesert_key+0
// 000   ----------------------------------------
	BYTE		VOICE   60
	BYTE		VOL     100*riversinthedesert_mvl/mxv
	BYTE		PAN     c_v+0
	BYTE	W96
// 001   ----------------------------------------
	BYTE	W96
// 002   ----------------------------------------
	BYTE	W96
// 003   ----------------------------------------
	BYTE	W96
// 004   ----------------------------------------
	BYTE	W96
// 005   ----------------------------------------
	BYTE	W96
// 006   ----------------------------------------
	BYTE	W96
// 007   ----------------------------------------
	BYTE	W96
// 008   ----------------------------------------
riversinthedesert_8_008:
	BYTE		N32     Gn2   v096
	BYTE	W36
	BYTE		N07   
	BYTE	W48
	BYTE		N05     Gn2   v080
	BYTE	W12
	BYTE	PEND
// 009   ----------------------------------------
riversinthedesert_8_009:
	BYTE		N32     Gn2   v096
	BYTE	W36
	BYTE		N07   
	BYTE	W24
	BYTE		N23     As2 
	BYTE	W24
	BYTE		N05     Gn2   v080
	BYTE	W12
	BYTE	PEND
// 010   ----------------------------------------
	BYTE	PATT
	 POIN2	riversinthedesert_8_008
// 011   ----------------------------------------
	BYTE	PATT
	 POIN2	riversinthedesert_8_009
// 012   ----------------------------------------
	BYTE	PATT
	 POIN2	riversinthedesert_8_008
// 013   ----------------------------------------
	BYTE	PATT
	 POIN2	riversinthedesert_8_009
// 014   ----------------------------------------
	BYTE	PATT
	 POIN2	riversinthedesert_8_008
// 015   ----------------------------------------
	BYTE	PATT
	 POIN2	riversinthedesert_8_009
riversinthedesert_8_B1:
// 016   ----------------------------------------
	BYTE	W96
// 017   ----------------------------------------
	BYTE	W96
// 018   ----------------------------------------
	BYTE	W96
// 019   ----------------------------------------
	BYTE	W96
// 020   ----------------------------------------
	BYTE	W96
// 021   ----------------------------------------
	BYTE	W96
// 022   ----------------------------------------
	BYTE	W96
// 023   ----------------------------------------
	BYTE	W96
// 024   ----------------------------------------
riversinthedesert_8_024:
	BYTE	W24
	BYTE		N11     Gn2   v080
	BYTE	W12
	BYTE		        Fn2 
	BYTE	W12
	BYTE		        Gn2 
	BYTE	W12
	BYTE		        Fn2 
	BYTE	W12
	BYTE		        Gn2 
	BYTE	W24
	BYTE	PEND
// 025   ----------------------------------------
	BYTE	PATT
	 POIN2	riversinthedesert_8_024
// 026   ----------------------------------------
	BYTE	PATT
	 POIN2	riversinthedesert_8_024
// 027   ----------------------------------------
	BYTE	PATT
	 POIN2	riversinthedesert_8_024
// 028   ----------------------------------------
	BYTE	PATT
	 POIN2	riversinthedesert_8_024
// 029   ----------------------------------------
	BYTE	PATT
	 POIN2	riversinthedesert_8_024
// 030   ----------------------------------------
	BYTE	PATT
	 POIN2	riversinthedesert_8_024
// 031   ----------------------------------------
riversinthedesert_8_031:
	BYTE	W24
	BYTE		N11     Gn2   v080
	BYTE	W12
	BYTE		        Fn2 
	BYTE	W24
	BYTE		N32   
	BYTE	W36
	BYTE	PEND
// 032   ----------------------------------------
	BYTE	W96
// 033   ----------------------------------------
	BYTE	W96
// 034   ----------------------------------------
	BYTE	W96
// 035   ----------------------------------------
	BYTE	W96
// 036   ----------------------------------------
	BYTE	W96
// 037   ----------------------------------------
	BYTE	W96
// 038   ----------------------------------------
	BYTE	W96
// 039   ----------------------------------------
	BYTE	W96
// 040   ----------------------------------------
	BYTE	W96
// 041   ----------------------------------------
	BYTE	W96
// 042   ----------------------------------------
	BYTE	W96
// 043   ----------------------------------------
	BYTE	W96
// 044   ----------------------------------------
	BYTE	W96
// 045   ----------------------------------------
	BYTE	W96
// 046   ----------------------------------------
	BYTE	W96
// 047   ----------------------------------------
	BYTE	W96
// 048   ----------------------------------------
	BYTE		N07     Gn2   v096
	BYTE	W60
	BYTE		N11     Gn2   v080
	BYTE	W24
	BYTE		N07     Fn2   v096
	BYTE	W12
// 049   ----------------------------------------
	BYTE	W60
	BYTE		N11     Fn2   v080
	BYTE	W24
	BYTE		N07     En2   v096
	BYTE	W12
// 050   ----------------------------------------
	BYTE	W60
	BYTE		N11     En2   v080
	BYTE	W24
	BYTE		N07     Fn2   v096
	BYTE	W12
// 051   ----------------------------------------
riversinthedesert_8_051:
	BYTE	W60
	BYTE		N11     Fn2   v080
	BYTE	W24
	BYTE		N07     Gn2   v096
	BYTE	W12
	BYTE	PEND
// 052   ----------------------------------------
	BYTE	W60
	BYTE		N11     Dn3   v080
	BYTE	W24
	BYTE		N07     Cn3   v096
	BYTE	W12
// 053   ----------------------------------------
	BYTE	PATT
	 POIN2	riversinthedesert_8_051
// 054   ----------------------------------------
	BYTE	W60
	BYTE		N11     Gn2   v080
	BYTE	W24
	BYTE		N07     An2   v096
	BYTE	W12
// 055   ----------------------------------------
	BYTE	W60
	BYTE		N32   
	BYTE	W36
// 056   ----------------------------------------
	BYTE		N11     Gn2   v080
	BYTE	W60
	BYTE		N11   
	BYTE	W24
	BYTE		        Fn2 
	BYTE	W12
// 057   ----------------------------------------
	BYTE	W60
	BYTE		N11   
	BYTE	W24
	BYTE		        En2 
	BYTE	W12
// 058   ----------------------------------------
	BYTE	W60
	BYTE		N11   
	BYTE	W24
	BYTE		        Fn2 
	BYTE	W12
// 059   ----------------------------------------
riversinthedesert_8_059:
	BYTE	W60
	BYTE		N11     Fn2   v080
	BYTE	W24
	BYTE		        Gn2 
	BYTE	W12
	BYTE	PEND
// 060   ----------------------------------------
	BYTE	W60
	BYTE		        Dn3 
	BYTE	W24
	BYTE		        Cn3 
	BYTE	W12
// 061   ----------------------------------------
	BYTE	PATT
	 POIN2	riversinthedesert_8_059
// 062   ----------------------------------------
	BYTE	W60
	BYTE		N11     Gn2   v080
	BYTE	W24
	BYTE		        An2 
	BYTE	W12
// 063   ----------------------------------------
	BYTE	W60
	BYTE		N32   
	BYTE	W36
// 064   ----------------------------------------
	BYTE	W96
// 065   ----------------------------------------
	BYTE	W96
// 066   ----------------------------------------
	BYTE	W96
// 067   ----------------------------------------
	BYTE	W96
// 068   ----------------------------------------
	BYTE	W96
// 069   ----------------------------------------
	BYTE	W96
// 070   ----------------------------------------
	BYTE	W96
// 071   ----------------------------------------
	BYTE	W96
// 072   ----------------------------------------
	BYTE	PATT
	 POIN2	riversinthedesert_8_024
// 073   ----------------------------------------
	BYTE	PATT
	 POIN2	riversinthedesert_8_024
// 074   ----------------------------------------
	BYTE	PATT
	 POIN2	riversinthedesert_8_024
// 075   ----------------------------------------
	BYTE	PATT
	 POIN2	riversinthedesert_8_024
// 076   ----------------------------------------
	BYTE	PATT
	 POIN2	riversinthedesert_8_024
// 077   ----------------------------------------
	BYTE	PATT
	 POIN2	riversinthedesert_8_024
// 078   ----------------------------------------
	BYTE	PATT
	 POIN2	riversinthedesert_8_024
// 079   ----------------------------------------
	BYTE	PATT
	 POIN2	riversinthedesert_8_031
	BYTE	GoTo
	 POIN2	riversinthedesert_8_B1
riversinthedesert_8_B2:
// 080   ----------------------------------------
	BYTE	FINE

//**************** Track 9 (Midi-Chn.9) ****************//

riversinthedesert_9:
	BYTE	KEYSH   riversinthedesert_key+0
// 000   ----------------------------------------
	BYTE		VOICE   60
	BYTE		VOL     100*riversinthedesert_mvl/mxv
	BYTE		PAN     c_v+0
	BYTE	W96
// 001   ----------------------------------------
	BYTE	W96
// 002   ----------------------------------------
	BYTE	W96
// 003   ----------------------------------------
	BYTE	W96
// 004   ----------------------------------------
	BYTE	W96
// 005   ----------------------------------------
	BYTE	W96
// 006   ----------------------------------------
	BYTE	W96
// 007   ----------------------------------------
	BYTE	W96
// 008   ----------------------------------------
riversinthedesert_9_008:
	BYTE		N32     Dn2   v096
	BYTE	W36
	BYTE		N07   
	BYTE	W48
	BYTE		N05     Dn2   v080
	BYTE	W12
	BYTE	PEND
// 009   ----------------------------------------
riversinthedesert_9_009:
	BYTE		N32     Dn2   v096
	BYTE	W36
	BYTE		N07   
	BYTE	W24
	BYTE		N23     Fn2 
	BYTE	W24
	BYTE		N05     Dn2   v080
	BYTE	W12
	BYTE	PEND
// 010   ----------------------------------------
	BYTE	PATT
	 POIN2	riversinthedesert_9_008
// 011   ----------------------------------------
	BYTE	PATT
	 POIN2	riversinthedesert_9_009
// 012   ----------------------------------------
	BYTE	PATT
	 POIN2	riversinthedesert_9_008
// 013   ----------------------------------------
	BYTE	PATT
	 POIN2	riversinthedesert_9_009
// 014   ----------------------------------------
	BYTE	PATT
	 POIN2	riversinthedesert_9_008
// 015   ----------------------------------------
	BYTE	PATT
	 POIN2	riversinthedesert_9_009
riversinthedesert_9_B1:
// 016   ----------------------------------------
	BYTE	W96
// 017   ----------------------------------------
	BYTE	W96
// 018   ----------------------------------------
	BYTE	W96
// 019   ----------------------------------------
	BYTE	W96
// 020   ----------------------------------------
	BYTE	W96
// 021   ----------------------------------------
	BYTE	W96
// 022   ----------------------------------------
	BYTE	W96
// 023   ----------------------------------------
	BYTE	W96
// 024   ----------------------------------------
riversinthedesert_9_024:
	BYTE	W24
	BYTE		N11     Dn2   v080
	BYTE	W12
	BYTE		        Cn2 
	BYTE	W12
	BYTE		        Dn2 
	BYTE	W12
	BYTE		        Cn2 
	BYTE	W12
	BYTE		        Dn2 
	BYTE	W24
	BYTE	PEND
// 025   ----------------------------------------
	BYTE	PATT
	 POIN2	riversinthedesert_9_024
// 026   ----------------------------------------
	BYTE	PATT
	 POIN2	riversinthedesert_9_024
// 027   ----------------------------------------
	BYTE	PATT
	 POIN2	riversinthedesert_9_024
// 028   ----------------------------------------
	BYTE	PATT
	 POIN2	riversinthedesert_9_024
// 029   ----------------------------------------
	BYTE	PATT
	 POIN2	riversinthedesert_9_024
// 030   ----------------------------------------
	BYTE	PATT
	 POIN2	riversinthedesert_9_024
// 031   ----------------------------------------
riversinthedesert_9_031:
	BYTE	W24
	BYTE		N11     Dn2   v080
	BYTE	W12
	BYTE		        Cn2 
	BYTE	W24
	BYTE		N32     Dn2 
	BYTE	W36
	BYTE	PEND
// 032   ----------------------------------------
	BYTE	W96
// 033   ----------------------------------------
	BYTE	W96
// 034   ----------------------------------------
	BYTE	W96
// 035   ----------------------------------------
	BYTE	W96
// 036   ----------------------------------------
	BYTE	W96
// 037   ----------------------------------------
	BYTE	W96
// 038   ----------------------------------------
	BYTE	W96
// 039   ----------------------------------------
	BYTE	W96
// 040   ----------------------------------------
	BYTE	W96
// 041   ----------------------------------------
	BYTE	W96
// 042   ----------------------------------------
	BYTE	W96
// 043   ----------------------------------------
	BYTE	W96
// 044   ----------------------------------------
	BYTE	W96
// 045   ----------------------------------------
	BYTE	W96
// 046   ----------------------------------------
	BYTE	W96
// 047   ----------------------------------------
	BYTE	W96
// 048   ----------------------------------------
	BYTE		N07     Dn2   v096
	BYTE	W60
	BYTE		N11     Dn2   v080
	BYTE	W24
	BYTE		N07     Cn2   v096
	BYTE	W12
// 049   ----------------------------------------
	BYTE	W60
	BYTE		N11     Cn2   v080
	BYTE	W24
	BYTE		N07     Bn1   v096
	BYTE	W12
// 050   ----------------------------------------
	BYTE	W60
	BYTE		N11     Bn1   v080
	BYTE	W24
	BYTE		N07     Cn2   v096
	BYTE	W12
// 051   ----------------------------------------
riversinthedesert_9_051:
	BYTE	W60
	BYTE		N11     Cn2   v080
	BYTE	W24
	BYTE		N07     Dn2   v096
	BYTE	W12
	BYTE	PEND
// 052   ----------------------------------------
	BYTE	W60
	BYTE		N11     As2   v080
	BYTE	W24
	BYTE		N07     An2   v096
	BYTE	W12
// 053   ----------------------------------------
	BYTE	PATT
	 POIN2	riversinthedesert_9_051
// 054   ----------------------------------------
	BYTE	W60
	BYTE		N11     Dn2   v080
	BYTE	W24
	BYTE		N07     Fn2   v096
	BYTE	W12
// 055   ----------------------------------------
	BYTE	W60
	BYTE		N32   
	BYTE	W36
// 056   ----------------------------------------
	BYTE		N11     Dn2   v080
	BYTE	W60
	BYTE		N11   
	BYTE	W24
	BYTE		        Cn2 
	BYTE	W12
// 057   ----------------------------------------
	BYTE	W60
	BYTE		N11   
	BYTE	W24
	BYTE		        Bn1 
	BYTE	W12
// 058   ----------------------------------------
	BYTE	W60
	BYTE		N11   
	BYTE	W24
	BYTE		        Cn2 
	BYTE	W12
// 059   ----------------------------------------
riversinthedesert_9_059:
	BYTE	W60
	BYTE		N11     Cn2   v080
	BYTE	W24
	BYTE		        Dn2 
	BYTE	W12
	BYTE	PEND
// 060   ----------------------------------------
	BYTE	W60
	BYTE		        As2 
	BYTE	W24
	BYTE		        An2 
	BYTE	W12
// 061   ----------------------------------------
	BYTE	PATT
	 POIN2	riversinthedesert_9_059
// 062   ----------------------------------------
	BYTE	W60
	BYTE		N11     Dn2   v080
	BYTE	W24
	BYTE		        Fn2 
	BYTE	W12
// 063   ----------------------------------------
	BYTE	W60
	BYTE		N32   
	BYTE	W36
// 064   ----------------------------------------
	BYTE	W96
// 065   ----------------------------------------
	BYTE	W96
// 066   ----------------------------------------
	BYTE	W96
// 067   ----------------------------------------
	BYTE	W96
// 068   ----------------------------------------
	BYTE	W96
// 069   ----------------------------------------
	BYTE	W96
// 070   ----------------------------------------
	BYTE	W96
// 071   ----------------------------------------
	BYTE	W96
// 072   ----------------------------------------
	BYTE	PATT
	 POIN2	riversinthedesert_9_024
// 073   ----------------------------------------
	BYTE	PATT
	 POIN2	riversinthedesert_9_024
// 074   ----------------------------------------
	BYTE	PATT
	 POIN2	riversinthedesert_9_024
// 075   ----------------------------------------
	BYTE	PATT
	 POIN2	riversinthedesert_9_024
// 076   ----------------------------------------
	BYTE	PATT
	 POIN2	riversinthedesert_9_024
// 077   ----------------------------------------
	BYTE	PATT
	 POIN2	riversinthedesert_9_024
// 078   ----------------------------------------
	BYTE	PATT
	 POIN2	riversinthedesert_9_024
// 079   ----------------------------------------
	BYTE	PATT
	 POIN2	riversinthedesert_9_031
	BYTE	GoTo
	 POIN2	riversinthedesert_9_B1
riversinthedesert_9_B2:
// 080   ----------------------------------------
	BYTE	FINE

//**************** Track 10 (Midi-Chn.11) ****************//

riversinthedesert_10:
	BYTE	KEYSH   riversinthedesert_key+0
// 000   ----------------------------------------
	BYTE		VOICE   57
	BYTE		VOL     100*riversinthedesert_mvl/mxv
	BYTE		PAN     c_v+0
	BYTE	W96
// 001   ----------------------------------------
	BYTE	W96
// 002   ----------------------------------------
	BYTE	W96
// 003   ----------------------------------------
	BYTE	W96
// 004   ----------------------------------------
riversinthedesert_10_004:
	BYTE		N32     Dn3   v096
	BYTE	W36
	BYTE		N07   
	BYTE	W48
	BYTE		N05     Dn3   v080
	BYTE	W12
	BYTE	PEND
// 005   ----------------------------------------
riversinthedesert_10_005:
	BYTE		N32     Dn3   v096
	BYTE	W36
	BYTE		N07   
	BYTE	W24
	BYTE		N23     Fn3 
	BYTE	W24
	BYTE		N05     Dn3   v080
	BYTE	W12
	BYTE	PEND
// 006   ----------------------------------------
	BYTE	PATT
	 POIN2	riversinthedesert_10_004
// 007   ----------------------------------------
	BYTE	PATT
	 POIN2	riversinthedesert_10_005
// 008   ----------------------------------------
	BYTE	PATT
	 POIN2	riversinthedesert_10_004
// 009   ----------------------------------------
	BYTE	PATT
	 POIN2	riversinthedesert_10_005
// 010   ----------------------------------------
	BYTE	PATT
	 POIN2	riversinthedesert_10_004
// 011   ----------------------------------------
	BYTE	PATT
	 POIN2	riversinthedesert_10_005
// 012   ----------------------------------------
	BYTE	PATT
	 POIN2	riversinthedesert_10_004
// 013   ----------------------------------------
	BYTE	PATT
	 POIN2	riversinthedesert_10_005
// 014   ----------------------------------------
	BYTE	PATT
	 POIN2	riversinthedesert_10_004
// 015   ----------------------------------------
	BYTE	PATT
	 POIN2	riversinthedesert_10_005
riversinthedesert_10_B1:
// 016   ----------------------------------------
	BYTE	W96
// 017   ----------------------------------------
	BYTE	W96
// 018   ----------------------------------------
	BYTE	W96
// 019   ----------------------------------------
	BYTE	W96
// 020   ----------------------------------------
	BYTE	W96
// 021   ----------------------------------------
	BYTE	W96
// 022   ----------------------------------------
	BYTE	W96
// 023   ----------------------------------------
	BYTE	W96
// 024   ----------------------------------------
riversinthedesert_10_024:
	BYTE		N11     Gn2   v080
	BYTE	W60
	BYTE		N11   
	BYTE	W24
	BYTE		        Fn2 
	BYTE	W12
	BYTE	PEND
// 025   ----------------------------------------
riversinthedesert_10_025:
	BYTE	W60
	BYTE		N11     Fn2   v080
	BYTE	W24
	BYTE		        En2 
	BYTE	W12
	BYTE	PEND
// 026   ----------------------------------------
riversinthedesert_10_026:
	BYTE	W60
	BYTE		N11     En2   v080
	BYTE	W24
	BYTE		        Fn2 
	BYTE	W12
	BYTE	PEND
// 027   ----------------------------------------
riversinthedesert_10_027:
	BYTE	W60
	BYTE		N11     Fn2   v080
	BYTE	W24
	BYTE		        Gn2 
	BYTE	W12
	BYTE	PEND
// 028   ----------------------------------------
riversinthedesert_10_028:
	BYTE	W60
	BYTE		N11     Dn3   v080
	BYTE	W24
	BYTE		        Cn3 
	BYTE	W12
	BYTE	PEND
// 029   ----------------------------------------
	BYTE	PATT
	 POIN2	riversinthedesert_10_027
// 030   ----------------------------------------
riversinthedesert_10_030:
	BYTE	W60
	BYTE		N11     Gn2   v080
	BYTE	W24
	BYTE		        An2 
	BYTE	W12
	BYTE	PEND
// 031   ----------------------------------------
	BYTE	W60
	BYTE		N32   
	BYTE	W36
// 032   ----------------------------------------
	BYTE	W96
// 033   ----------------------------------------
	BYTE	W96
// 034   ----------------------------------------
	BYTE	W96
// 035   ----------------------------------------
	BYTE	W96
// 036   ----------------------------------------
	BYTE	W96
// 037   ----------------------------------------
	BYTE	W96
// 038   ----------------------------------------
	BYTE	W96
// 039   ----------------------------------------
	BYTE	W96
// 040   ----------------------------------------
	BYTE		TIE     Ds3   v052
	BYTE	W96
// 041   ----------------------------------------
	BYTE	W92
	BYTE	W03
	BYTE		EOT   
	BYTE	W01
// 042   ----------------------------------------
	BYTE		TIE     Cn3 
	BYTE	W96
// 043   ----------------------------------------
	BYTE	W92
	BYTE	W03
	BYTE		EOT   
	BYTE	W01
// 044   ----------------------------------------
riversinthedesert_10_044:
	BYTE		N56     Dn3   v052
	BYTE	W60
	BYTE		N11   
	BYTE	W24
	BYTE		TIE     Cn3 
	BYTE	W12
	BYTE	PEND
// 045   ----------------------------------------
	BYTE	W92
	BYTE	W03
	BYTE		EOT   
	BYTE	W01
// 046   ----------------------------------------
	BYTE	PATT
	 POIN2	riversinthedesert_10_044
// 047   ----------------------------------------
	BYTE	W92
	BYTE	W03
	BYTE		EOT     Cn3 
	BYTE	W01
// 048   ----------------------------------------
riversinthedesert_10_048:
	BYTE	W24
	BYTE		N11     Gn2   v080
	BYTE	W12
	BYTE		        Fn2 
	BYTE	W12
	BYTE		        Gn2 
	BYTE	W12
	BYTE		        Fn2 
	BYTE	W12
	BYTE		        Gn2 
	BYTE	W24
	BYTE	PEND
// 049   ----------------------------------------
	BYTE	PATT
	 POIN2	riversinthedesert_10_048
// 050   ----------------------------------------
	BYTE	PATT
	 POIN2	riversinthedesert_10_048
// 051   ----------------------------------------
	BYTE	PATT
	 POIN2	riversinthedesert_10_048
// 052   ----------------------------------------
riversinthedesert_10_052:
	BYTE	W24
	BYTE		N11     Gn2   v080
	BYTE	W12
	BYTE		        Fn2 
	BYTE	W12
	BYTE		        Gn2 
	BYTE	W12
	BYTE		        An2 
	BYTE	W12
	BYTE		        As2 
	BYTE	W12
	BYTE		N56     An2 
	BYTE	W12
	BYTE	PEND
// 053   ----------------------------------------
riversinthedesert_10_053:
	BYTE	W48
	BYTE		N11     An2   v080
	BYTE	W12
	BYTE		        As2 
	BYTE	W12
	BYTE		        Cn3 
	BYTE	W12
	BYTE		N56     As2 
	BYTE	W12
	BYTE	PEND
// 054   ----------------------------------------
riversinthedesert_10_054:
	BYTE	W60
	BYTE		N11     As2   v080
	BYTE	W12
	BYTE		        Cn3 
	BYTE	W12
	BYTE		        Dn3 
	BYTE	W12
	BYTE	PEND
// 055   ----------------------------------------
	BYTE	W12
	BYTE		        An2 
	BYTE	W24
	BYTE		        Cn3 
	BYTE	W24
	BYTE		N32     As2 
	BYTE	W36
// 056   ----------------------------------------
	BYTE	PATT
	 POIN2	riversinthedesert_10_048
// 057   ----------------------------------------
	BYTE	PATT
	 POIN2	riversinthedesert_10_048
// 058   ----------------------------------------
	BYTE	PATT
	 POIN2	riversinthedesert_10_048
// 059   ----------------------------------------
	BYTE	PATT
	 POIN2	riversinthedesert_10_048
// 060   ----------------------------------------
	BYTE	PATT
	 POIN2	riversinthedesert_10_052
// 061   ----------------------------------------
	BYTE	PATT
	 POIN2	riversinthedesert_10_053
// 062   ----------------------------------------
	BYTE	PATT
	 POIN2	riversinthedesert_10_054
// 063   ----------------------------------------
	BYTE		N11     Cs3   v080
	BYTE	W12
	BYTE		        Cn3 
	BYTE	W24
	BYTE		        As2 
	BYTE	W24
	BYTE		N32     Gn2 
	BYTE	W36
// 064   ----------------------------------------
	BYTE	PATT
	 POIN2	riversinthedesert_10_024
// 065   ----------------------------------------
	BYTE	PATT
	 POIN2	riversinthedesert_10_025
// 066   ----------------------------------------
	BYTE	PATT
	 POIN2	riversinthedesert_10_026
// 067   ----------------------------------------
	BYTE	PATT
	 POIN2	riversinthedesert_10_027
// 068   ----------------------------------------
	BYTE	PATT
	 POIN2	riversinthedesert_10_028
// 069   ----------------------------------------
	BYTE	PATT
	 POIN2	riversinthedesert_10_027
// 070   ----------------------------------------
	BYTE	PATT
	 POIN2	riversinthedesert_10_030
// 071   ----------------------------------------
	BYTE	W60
	BYTE		N32     An2   v080
	BYTE	W36
// 072   ----------------------------------------
	BYTE	PATT
	 POIN2	riversinthedesert_10_024
// 073   ----------------------------------------
	BYTE	PATT
	 POIN2	riversinthedesert_10_025
// 074   ----------------------------------------
	BYTE	PATT
	 POIN2	riversinthedesert_10_026
// 075   ----------------------------------------
	BYTE	PATT
	 POIN2	riversinthedesert_10_027
// 076   ----------------------------------------
	BYTE	PATT
	 POIN2	riversinthedesert_10_028
// 077   ----------------------------------------
	BYTE	PATT
	 POIN2	riversinthedesert_10_027
// 078   ----------------------------------------
	BYTE	PATT
	 POIN2	riversinthedesert_10_030
// 079   ----------------------------------------
	BYTE	W60
	BYTE		N32     An2   v080
	BYTE	W36
	BYTE	GoTo
	 POIN2	riversinthedesert_10_B1
riversinthedesert_10_B2:
// 080   ----------------------------------------
	BYTE	FINE

//**************** Track 11 (Midi-Chn.12) ****************//

riversinthedesert_11:
	BYTE	KEYSH   riversinthedesert_key+0
// 000   ----------------------------------------
	BYTE		VOICE   57
	BYTE		VOL     100*riversinthedesert_mvl/mxv
	BYTE		PAN     c_v+0
	BYTE	W96
// 001   ----------------------------------------
	BYTE	W96
// 002   ----------------------------------------
	BYTE	W96
// 003   ----------------------------------------
	BYTE	W96
// 004   ----------------------------------------
riversinthedesert_11_004:
	BYTE		N32     Gn2   v096
	BYTE	W36
	BYTE		N07   
	BYTE	W48
	BYTE		N05     Gn2   v080
	BYTE	W12
	BYTE	PEND
// 005   ----------------------------------------
riversinthedesert_11_005:
	BYTE		N32     Gn2   v096
	BYTE	W36
	BYTE		N07   
	BYTE	W24
	BYTE		N23     As2 
	BYTE	W24
	BYTE		N05     Gn2   v080
	BYTE	W12
	BYTE	PEND
// 006   ----------------------------------------
	BYTE	PATT
	 POIN2	riversinthedesert_11_004
// 007   ----------------------------------------
	BYTE	PATT
	 POIN2	riversinthedesert_11_005
// 008   ----------------------------------------
	BYTE	PATT
	 POIN2	riversinthedesert_11_004
// 009   ----------------------------------------
	BYTE	PATT
	 POIN2	riversinthedesert_11_005
// 010   ----------------------------------------
	BYTE	PATT
	 POIN2	riversinthedesert_11_004
// 011   ----------------------------------------
	BYTE	PATT
	 POIN2	riversinthedesert_11_005
// 012   ----------------------------------------
	BYTE	PATT
	 POIN2	riversinthedesert_11_004
// 013   ----------------------------------------
	BYTE	PATT
	 POIN2	riversinthedesert_11_005
// 014   ----------------------------------------
	BYTE	PATT
	 POIN2	riversinthedesert_11_004
// 015   ----------------------------------------
	BYTE	PATT
	 POIN2	riversinthedesert_11_005
riversinthedesert_11_B1:
// 016   ----------------------------------------
	BYTE	W96
// 017   ----------------------------------------
	BYTE	W96
// 018   ----------------------------------------
	BYTE	W96
// 019   ----------------------------------------
	BYTE	W96
// 020   ----------------------------------------
	BYTE	W96
// 021   ----------------------------------------
	BYTE	W96
// 022   ----------------------------------------
	BYTE	W96
// 023   ----------------------------------------
	BYTE	W96
// 024   ----------------------------------------
riversinthedesert_11_024:
	BYTE		N11     Dn2   v080
	BYTE	W60
	BYTE		N11   
	BYTE	W24
	BYTE		        Cn2 
	BYTE	W12
	BYTE	PEND
// 025   ----------------------------------------
riversinthedesert_11_025:
	BYTE	W60
	BYTE		N11     Cn2   v080
	BYTE	W24
	BYTE		        Bn1 
	BYTE	W12
	BYTE	PEND
// 026   ----------------------------------------
riversinthedesert_11_026:
	BYTE	W60
	BYTE		N11     Bn1   v080
	BYTE	W24
	BYTE		        Cn2 
	BYTE	W12
	BYTE	PEND
// 027   ----------------------------------------
riversinthedesert_11_027:
	BYTE	W60
	BYTE		N11     Cn2   v080
	BYTE	W24
	BYTE		        Dn2 
	BYTE	W12
	BYTE	PEND
// 028   ----------------------------------------
riversinthedesert_11_028:
	BYTE	W60
	BYTE		N11     As2   v080
	BYTE	W24
	BYTE		        An2 
	BYTE	W12
	BYTE	PEND
// 029   ----------------------------------------
	BYTE	PATT
	 POIN2	riversinthedesert_11_027
// 030   ----------------------------------------
riversinthedesert_11_030:
	BYTE	W60
	BYTE		N11     Dn2   v080
	BYTE	W24
	BYTE		        Fn2 
	BYTE	W12
	BYTE	PEND
// 031   ----------------------------------------
	BYTE	W60
	BYTE		N32   
	BYTE	W36
// 032   ----------------------------------------
	BYTE	W96
// 033   ----------------------------------------
	BYTE	W96
// 034   ----------------------------------------
	BYTE	W96
// 035   ----------------------------------------
	BYTE	W96
// 036   ----------------------------------------
	BYTE	W96
// 037   ----------------------------------------
	BYTE	W96
// 038   ----------------------------------------
	BYTE	W96
// 039   ----------------------------------------
	BYTE	W96
// 040   ----------------------------------------
	BYTE		TIE     As2   v052
	BYTE	W96
// 041   ----------------------------------------
	BYTE	W92
	BYTE	W03
	BYTE		EOT   
	BYTE	W01
// 042   ----------------------------------------
	BYTE		TIE     Gn2 
	BYTE	W96
// 043   ----------------------------------------
	BYTE	W92
	BYTE	W03
	BYTE		EOT   
	BYTE	W01
// 044   ----------------------------------------
riversinthedesert_11_044:
	BYTE		N56     Gn2   v052
	BYTE	W60
	BYTE		N11   
	BYTE	W24
	BYTE		TIE     Fn2 
	BYTE	W12
	BYTE	PEND
// 045   ----------------------------------------
	BYTE	W92
	BYTE	W03
	BYTE		EOT   
	BYTE	W01
// 046   ----------------------------------------
	BYTE	PATT
	 POIN2	riversinthedesert_11_044
// 047   ----------------------------------------
	BYTE	W92
	BYTE	W03
	BYTE		EOT     Fn2 
	BYTE	W01
// 048   ----------------------------------------
riversinthedesert_11_048:
	BYTE	W24
	BYTE		N11     Dn2   v080
	BYTE	W12
	BYTE		        Cn2 
	BYTE	W12
	BYTE		        Dn2 
	BYTE	W12
	BYTE		        Cn2 
	BYTE	W12
	BYTE		        Dn2 
	BYTE	W24
	BYTE	PEND
// 049   ----------------------------------------
	BYTE	PATT
	 POIN2	riversinthedesert_11_048
// 050   ----------------------------------------
	BYTE	PATT
	 POIN2	riversinthedesert_11_048
// 051   ----------------------------------------
	BYTE	PATT
	 POIN2	riversinthedesert_11_048
// 052   ----------------------------------------
riversinthedesert_11_052:
	BYTE	W24
	BYTE		N11     Dn2   v080
	BYTE	W12
	BYTE		        Cn2 
	BYTE	W12
	BYTE		        Dn2 
	BYTE	W12
	BYTE		        Fn2 
	BYTE	W12
	BYTE		        Gn2 
	BYTE	W12
	BYTE		N56     Fn2 
	BYTE	W12
	BYTE	PEND
// 053   ----------------------------------------
riversinthedesert_11_053:
	BYTE	W48
	BYTE		N11     Fn2   v080
	BYTE	W12
	BYTE		        Gn2 
	BYTE	W12
	BYTE		        An2 
	BYTE	W12
	BYTE		N56     Gn2 
	BYTE	W12
	BYTE	PEND
// 054   ----------------------------------------
riversinthedesert_11_054:
	BYTE	W60
	BYTE		N11     Fn2   v080
	BYTE	W12
	BYTE		        Gn2 
	BYTE	W12
	BYTE		        An2 
	BYTE	W12
	BYTE	PEND
// 055   ----------------------------------------
	BYTE	W12
	BYTE		        Fn2 
	BYTE	W24
	BYTE		        Gn2 
	BYTE	W24
	BYTE		N32   
	BYTE	W36
// 056   ----------------------------------------
	BYTE	PATT
	 POIN2	riversinthedesert_11_048
// 057   ----------------------------------------
	BYTE	PATT
	 POIN2	riversinthedesert_11_048
// 058   ----------------------------------------
	BYTE	PATT
	 POIN2	riversinthedesert_11_048
// 059   ----------------------------------------
	BYTE	PATT
	 POIN2	riversinthedesert_11_048
// 060   ----------------------------------------
	BYTE	PATT
	 POIN2	riversinthedesert_11_052
// 061   ----------------------------------------
	BYTE	PATT
	 POIN2	riversinthedesert_11_053
// 062   ----------------------------------------
	BYTE	PATT
	 POIN2	riversinthedesert_11_054
// 063   ----------------------------------------
	BYTE		N11     As2   v080
	BYTE	W12
	BYTE		        An2 
	BYTE	W24
	BYTE		        Gn2 
	BYTE	W24
	BYTE		N32   
	BYTE	W36
// 064   ----------------------------------------
	BYTE	PATT
	 POIN2	riversinthedesert_11_024
// 065   ----------------------------------------
	BYTE	PATT
	 POIN2	riversinthedesert_11_025
// 066   ----------------------------------------
	BYTE	PATT
	 POIN2	riversinthedesert_11_026
// 067   ----------------------------------------
	BYTE	PATT
	 POIN2	riversinthedesert_11_027
// 068   ----------------------------------------
	BYTE	PATT
	 POIN2	riversinthedesert_11_028
// 069   ----------------------------------------
	BYTE	PATT
	 POIN2	riversinthedesert_11_027
// 070   ----------------------------------------
	BYTE	PATT
	 POIN2	riversinthedesert_11_030
// 071   ----------------------------------------
	BYTE	W60
	BYTE		N32     Fn2   v080
	BYTE	W36
// 072   ----------------------------------------
	BYTE	PATT
	 POIN2	riversinthedesert_11_024
// 073   ----------------------------------------
	BYTE	PATT
	 POIN2	riversinthedesert_11_025
// 074   ----------------------------------------
	BYTE	PATT
	 POIN2	riversinthedesert_11_026
// 075   ----------------------------------------
	BYTE	PATT
	 POIN2	riversinthedesert_11_027
// 076   ----------------------------------------
	BYTE	PATT
	 POIN2	riversinthedesert_11_028
// 077   ----------------------------------------
	BYTE	PATT
	 POIN2	riversinthedesert_11_027
// 078   ----------------------------------------
	BYTE	PATT
	 POIN2	riversinthedesert_11_030
// 079   ----------------------------------------
	BYTE	W60
	BYTE		N32     Fn2   v080
	BYTE	W36
	BYTE	GoTo
	 POIN2	riversinthedesert_11_B1
riversinthedesert_11_B2:
// 080   ----------------------------------------
	BYTE	FINE

//**************** Track 12 (Midi-Chn.13) ****************//

riversinthedesert_12:
	BYTE	KEYSH   riversinthedesert_key+0
// 000   ----------------------------------------
	BYTE		VOICE   71
	BYTE		VOL     100*riversinthedesert_mvl/mxv
	BYTE		PAN     c_v+0
	BYTE		N32     Gn1   v096
	BYTE	W36
	BYTE		N07   
	BYTE	W48
	BYTE		N05     Gn1   v080
	BYTE	W12
// 001   ----------------------------------------
riversinthedesert_12_001:
	BYTE		N32     Gn1   v096
	BYTE	W36
	BYTE		N07   
	BYTE	W24
	BYTE		N23     As1 
	BYTE	W24
	BYTE		N05     Gn1   v080
	BYTE	W12
	BYTE	PEND
// 002   ----------------------------------------
riversinthedesert_12_002:
	BYTE		N32     Gn1   v096
	BYTE	W36
	BYTE		N07   
	BYTE	W48
	BYTE		N05     Gn1   v080
	BYTE	W12
	BYTE	PEND
// 003   ----------------------------------------
	BYTE	PATT
	 POIN2	riversinthedesert_12_001
// 004   ----------------------------------------
	BYTE	PATT
	 POIN2	riversinthedesert_12_002
// 005   ----------------------------------------
	BYTE	PATT
	 POIN2	riversinthedesert_12_001
// 006   ----------------------------------------
	BYTE	PATT
	 POIN2	riversinthedesert_12_002
// 007   ----------------------------------------
	BYTE	PATT
	 POIN2	riversinthedesert_12_001
// 008   ----------------------------------------
	BYTE	PATT
	 POIN2	riversinthedesert_12_002
// 009   ----------------------------------------
	BYTE	PATT
	 POIN2	riversinthedesert_12_001
// 010   ----------------------------------------
	BYTE	PATT
	 POIN2	riversinthedesert_12_002
// 011   ----------------------------------------
	BYTE	PATT
	 POIN2	riversinthedesert_12_001
// 012   ----------------------------------------
	BYTE	PATT
	 POIN2	riversinthedesert_12_002
// 013   ----------------------------------------
	BYTE	PATT
	 POIN2	riversinthedesert_12_001
// 014   ----------------------------------------
	BYTE	PATT
	 POIN2	riversinthedesert_12_002
// 015   ----------------------------------------
	BYTE	PATT
	 POIN2	riversinthedesert_12_001
riversinthedesert_12_B1:
// 016   ----------------------------------------
riversinthedesert_12_016:
	BYTE		N32     Gn1   v060
	BYTE	W36
	BYTE		N07   
	BYTE	W48
	BYTE		N05     Gn1   v052
	BYTE	W12
	BYTE	PEND
// 017   ----------------------------------------
riversinthedesert_12_017:
	BYTE		N32     Gn1   v060
	BYTE	W36
	BYTE		N07   
	BYTE	W24
	BYTE		N23     As1 
	BYTE	W24
	BYTE		N05     Gn1   v052
	BYTE	W12
	BYTE	PEND
// 018   ----------------------------------------
	BYTE	PATT
	 POIN2	riversinthedesert_12_016
// 019   ----------------------------------------
	BYTE	PATT
	 POIN2	riversinthedesert_12_017
// 020   ----------------------------------------
	BYTE	PATT
	 POIN2	riversinthedesert_12_016
// 021   ----------------------------------------
	BYTE	PATT
	 POIN2	riversinthedesert_12_017
// 022   ----------------------------------------
	BYTE	PATT
	 POIN2	riversinthedesert_12_016
// 023   ----------------------------------------
	BYTE		N32     Gn1   v060
	BYTE	W36
	BYTE		N07   
	BYTE		N11     Gn3   v080
	BYTE	W12
	BYTE		N17     Cn4 
	BYTE	W12
	BYTE		N23     As1   v060
	BYTE	W06
	BYTE		N17     As3   v080
	BYTE	W18
	BYTE		N05     Gn1   v052
	BYTE		N05     An3   v080
	BYTE	W06
	BYTE		        Gs3 
	BYTE	W06
// 024   ----------------------------------------
	BYTE		N23     Gn1   v052
	BYTE		N32     Dn3   v080
	BYTE	W24
	BYTE		N11     Gn1   v052
	BYTE	W12
	BYTE		N11   
	BYTE		N32     Gn3   v080
	BYTE	W12
	BYTE		N11     Gn1   v052
	BYTE	W12
	BYTE		N11   
	BYTE	W12
	BYTE		N11   
	BYTE	W12
	BYTE		N32     Fn1 
	BYTE	W12
// 025   ----------------------------------------
riversinthedesert_12_025:
	BYTE	W24
	BYTE		N11     Fn1   v052
	BYTE	W12
	BYTE		N11   
	BYTE		N11     Gn3   v080
	BYTE	W12
	BYTE		        Fn1   v052
	BYTE		N17     Cn4   v080
	BYTE	W12
	BYTE		N11     Fn1   v052
	BYTE	W06
	BYTE		N17     As3   v080
	BYTE	W06
	BYTE		N11     Fn1   v052
	BYTE	W12
	BYTE		N32     En1 
	BYTE		N05     An3   v080
	BYTE	W06
	BYTE		        Gs3 
	BYTE	W06
	BYTE	PEND
// 026   ----------------------------------------
riversinthedesert_12_026:
	BYTE		N32     Cn3   v080
	BYTE	W24
	BYTE		N11     En1   v052
	BYTE	W12
	BYTE		N11   
	BYTE		N32     Gn3   v080
	BYTE	W12
	BYTE		N11     En1   v052
	BYTE	W12
	BYTE		N11   
	BYTE	W12
	BYTE		N11   
	BYTE	W12
	BYTE		N32     Fn1 
	BYTE	W12
	BYTE	PEND
// 027   ----------------------------------------
	BYTE	W24
	BYTE		N11   
	BYTE	W12
	BYTE		N11   
	BYTE		N11     Gn3   v080
	BYTE	W12
	BYTE		        Fn1   v052
	BYTE		N17     Cn4   v080
	BYTE	W12
	BYTE		N11     Fn1   v052
	BYTE	W06
	BYTE		N17     As3   v080
	BYTE	W06
	BYTE		N11     Fn1   v052
	BYTE	W12
	BYTE		N32     Gn1 
	BYTE		N05     An3   v080
	BYTE	W06
	BYTE		        Gs3 
	BYTE	W06
// 028   ----------------------------------------
	BYTE		N32     Dn3 
	BYTE	W24
	BYTE		N11     Gn1   v052
	BYTE	W12
	BYTE		N11   
	BYTE		N32     Gn3   v080
	BYTE	W12
	BYTE		N11     Gn1   v052
	BYTE	W12
	BYTE		N11   
	BYTE	W12
	BYTE		N11   
	BYTE	W12
	BYTE		N32     Fn1 
	BYTE	W12
// 029   ----------------------------------------
	BYTE	PATT
	 POIN2	riversinthedesert_12_025
// 030   ----------------------------------------
	BYTE	PATT
	 POIN2	riversinthedesert_12_026
// 031   ----------------------------------------
riversinthedesert_12_031:
	BYTE	W24
	BYTE		N11     Fn1   v052
	BYTE	W12
	BYTE		N11   
	BYTE	W24
	BYTE		N32   
	BYTE	W36
	BYTE	PEND
// 032   ----------------------------------------
	BYTE	PATT
	 POIN2	riversinthedesert_12_016
// 033   ----------------------------------------
	BYTE	PATT
	 POIN2	riversinthedesert_12_017
// 034   ----------------------------------------
	BYTE	PATT
	 POIN2	riversinthedesert_12_016
// 035   ----------------------------------------
	BYTE	PATT
	 POIN2	riversinthedesert_12_017
// 036   ----------------------------------------
	BYTE	PATT
	 POIN2	riversinthedesert_12_016
// 037   ----------------------------------------
	BYTE	PATT
	 POIN2	riversinthedesert_12_017
// 038   ----------------------------------------
	BYTE	PATT
	 POIN2	riversinthedesert_12_016
// 039   ----------------------------------------
	BYTE		N32     Gn1   v060
	BYTE		N44     Gn3   v052
	BYTE	W36
	BYTE		N07     Gn1   v060
	BYTE	W24
	BYTE		N23   
	BYTE		N32     Fn3   v052
	BYTE	W24
	BYTE		N05     Fn1 
	BYTE	W12
// 040   ----------------------------------------
	BYTE		N32     Ds1   v060
	BYTE		TIE     Ds3   v052
	BYTE	W36
	BYTE		N07     Ds1   v060
	BYTE	W24
	BYTE		N23   
	BYTE	W24
	BYTE		N05     Ds1   v052
	BYTE	W12
// 041   ----------------------------------------
	BYTE		N32     Ds1   v060
	BYTE	W36
	BYTE		N07   
	BYTE	W24
	BYTE		N23   
	BYTE	W24
	BYTE		N05     Ds1   v052
	BYTE	W12
// 042   ----------------------------------------
	BYTE		N32     Cn2   v060
	BYTE	W36
	BYTE		N07   
	BYTE	W24
	BYTE		N23   
	BYTE	W24
	BYTE		N05     Cn2   v052
	BYTE	W12
// 043   ----------------------------------------
	BYTE		N32     Cn2   v060
	BYTE	W36
	BYTE		N07   
	BYTE	W24
	BYTE		N23   
	BYTE	W24
	BYTE		N05     Cn2   v052
	BYTE	W11
	BYTE		EOT     Ds3 
	BYTE	W01
// 044   ----------------------------------------
riversinthedesert_12_044:
	BYTE		N32     Gn1   v060
	BYTE	W36
	BYTE		N07   
	BYTE	W24
	BYTE		N16   
	BYTE	W24
	BYTE		N44     Fn1 
	BYTE	W12
	BYTE	PEND
// 045   ----------------------------------------
	BYTE	W36
	BYTE		N11     Fn1   v052
	BYTE	W24
	BYTE		N32     Fn1   v060
	BYTE	W36
// 046   ----------------------------------------
	BYTE	PATT
	 POIN2	riversinthedesert_12_044
// 047   ----------------------------------------
	BYTE	W36
	BYTE		N11     Gn3   v080
	BYTE	W12
	BYTE		N17     Cn4 
	BYTE	W18
	BYTE		        As3 
	BYTE	W18
	BYTE		N05     An3 
	BYTE	W06
	BYTE		        Gs3 
	BYTE	W06
// 048   ----------------------------------------
riversinthedesert_12_048:
	BYTE		N23     Gn2   v052
	BYTE		N32     Dn3   v080
	BYTE	W24
	BYTE		N11     Gn2   v052
	BYTE	W12
	BYTE		N11   
	BYTE		N32     Gn3   v080
	BYTE	W12
	BYTE		N11     Gn2   v052
	BYTE	W12
	BYTE		N11   
	BYTE	W12
	BYTE		N11   
	BYTE	W12
	BYTE		N32     Fn2 
	BYTE	W12
	BYTE	PEND
// 049   ----------------------------------------
riversinthedesert_12_049:
	BYTE	W24
	BYTE		N11     Fn2   v052
	BYTE	W12
	BYTE		N11   
	BYTE		N11     Gn3   v080
	BYTE	W12
	BYTE		        Fn2   v052
	BYTE		N17     Cn4   v080
	BYTE	W12
	BYTE		N11     Fn2   v052
	BYTE	W06
	BYTE		N17     As3   v080
	BYTE	W06
	BYTE		N11     Fn2   v052
	BYTE	W12
	BYTE		N32     En2 
	BYTE		N05     An3   v080
	BYTE	W06
	BYTE		        Gs3 
	BYTE	W06
	BYTE	PEND
// 050   ----------------------------------------
riversinthedesert_12_050:
	BYTE		N32     Cn3   v080
	BYTE	W24
	BYTE		N11     En2   v052
	BYTE	W12
	BYTE		N11   
	BYTE		N32     Gn3   v080
	BYTE	W12
	BYTE		N11     En2   v052
	BYTE	W12
	BYTE		N11   
	BYTE	W12
	BYTE		N11   
	BYTE	W12
	BYTE		N32     Fn2 
	BYTE	W12
	BYTE	PEND
// 051   ----------------------------------------
riversinthedesert_12_051:
	BYTE	W24
	BYTE		N11     Fn2   v052
	BYTE	W12
	BYTE		N11   
	BYTE	W12
	BYTE		N11   
	BYTE	W12
	BYTE		N11   
	BYTE		N11     Gn3   v080
	BYTE	W12
	BYTE		        Fn2   v052
	BYTE		N11     An3   v080
	BYTE	W12
	BYTE		N32     Cn2   v052
	BYTE		N11     As3   v080
	BYTE	W12
	BYTE	PEND
// 052   ----------------------------------------
riversinthedesert_12_052:
	BYTE	W12
	BYTE		N11     As3   v080
	BYTE	W12
	BYTE		        Cn2   v052
	BYTE	W12
	BYTE		N11   
	BYTE		N11     As3   v080
	BYTE	W12
	BYTE		        Cn2   v052
	BYTE	W12
	BYTE		N11   
	BYTE		N11     As3   v080
	BYTE	W12
	BYTE		        Cn2   v052
	BYTE	W12
	BYTE		N32     Dn2 
	BYTE		N23     Cn4   v080
	BYTE	W12
	BYTE	PEND
// 053   ----------------------------------------
riversinthedesert_12_053:
	BYTE	W12
	BYTE		N23     Fn3   v080
	BYTE	W12
	BYTE		N11     Dn2   v052
	BYTE	W12
	BYTE		N11   
	BYTE		N23     Fn3   v080
	BYTE	W12
	BYTE		N11     Dn2   v052
	BYTE	W12
	BYTE		N11   
	BYTE		N23     Fn3   v080
	BYTE	W12
	BYTE		N11     Dn2   v052
	BYTE	W12
	BYTE		N32     En2 
	BYTE		N68     Gn3   v080
	BYTE	W12
	BYTE	PEND
// 054   ----------------------------------------
	BYTE	W24
	BYTE		N11     En2   v052
	BYTE	W12
	BYTE		N11   
	BYTE	W12
	BYTE		N11   
	BYTE	W12
	BYTE		N11   
	BYTE		N11     Gn3   v080
	BYTE	W12
	BYTE		        En2   v052
	BYTE		N11     An3   v080
	BYTE	W12
	BYTE		N32     Fn2   v052
	BYTE		N32     As3   v080
	BYTE	W12
// 055   ----------------------------------------
	BYTE	W24
	BYTE		N11     Fn2   v052
	BYTE	W12
	BYTE		N11   
	BYTE		N11     Gn3   v080
	BYTE	W12
	BYTE		N17     Cn4 
	BYTE	W12
	BYTE		N32     Fn2   v052
	BYTE	W06
	BYTE		N17     As3   v080
	BYTE	W18
	BYTE		N05     An3 
	BYTE	W06
	BYTE		        Gs3 
	BYTE	W06
// 056   ----------------------------------------
	BYTE	PATT
	 POIN2	riversinthedesert_12_048
// 057   ----------------------------------------
	BYTE	PATT
	 POIN2	riversinthedesert_12_049
// 058   ----------------------------------------
	BYTE	PATT
	 POIN2	riversinthedesert_12_050
// 059   ----------------------------------------
	BYTE	PATT
	 POIN2	riversinthedesert_12_051
// 060   ----------------------------------------
	BYTE	PATT
	 POIN2	riversinthedesert_12_052
// 061   ----------------------------------------
	BYTE	PATT
	 POIN2	riversinthedesert_12_053
// 062   ----------------------------------------
	BYTE	W24
	BYTE		N11     En2   v052
	BYTE	W12
	BYTE		N11   
	BYTE	W12
	BYTE		N11   
	BYTE	W12
	BYTE		N11   
	BYTE		N11     Gn3   v080
	BYTE	W12
	BYTE		        En2   v052
	BYTE		N11     An3   v080
	BYTE	W12
	BYTE		N32     Fn2   v052
	BYTE		N11     As3   v080
	BYTE	W12
// 063   ----------------------------------------
	BYTE		        Cs4 
	BYTE	W12
	BYTE		        Cn4 
	BYTE	W12
	BYTE		        Fn2   v052
	BYTE	W12
	BYTE		N11   
	BYTE		N11     Cn4   v080
	BYTE	W24
	BYTE		N32     Fn2   v052
	BYTE		N23     As3   v080
	BYTE	W24
	BYTE		N32     Cn4 
	BYTE	W12
// 064   ----------------------------------------
	BYTE		N23     Gn1   v052
	BYTE	W24
	BYTE		N11   
	BYTE		N44     Cn4   v080
	BYTE	W12
	BYTE		N11     Gn1   v052
	BYTE	W12
	BYTE		N11   
	BYTE	W12
	BYTE		N11   
	BYTE	W12
	BYTE		N11   
	BYTE	W12
	BYTE		N32     Fn1 
	BYTE	W12
// 065   ----------------------------------------
riversinthedesert_12_065:
	BYTE	W24
	BYTE		N11     Fn1   v052
	BYTE	W12
	BYTE		N11   
	BYTE	W12
	BYTE		N11   
	BYTE	W12
	BYTE		N11   
	BYTE	W12
	BYTE		N11   
	BYTE	W12
	BYTE		N32     En1 
	BYTE	W12
	BYTE	PEND
// 066   ----------------------------------------
riversinthedesert_12_066:
	BYTE	W24
	BYTE		N11     En1   v052
	BYTE	W12
	BYTE		N11   
	BYTE	W12
	BYTE		N11   
	BYTE	W12
	BYTE		N11   
	BYTE	W12
	BYTE		N11   
	BYTE	W12
	BYTE		N32     Fn1 
	BYTE	W12
	BYTE	PEND
// 067   ----------------------------------------
riversinthedesert_12_067:
	BYTE	W24
	BYTE		N11     Fn1   v052
	BYTE	W12
	BYTE		N11   
	BYTE	W12
	BYTE		N11   
	BYTE	W12
	BYTE		N11   
	BYTE	W12
	BYTE		N11   
	BYTE	W12
	BYTE		N32     Gn1 
	BYTE	W12
	BYTE	PEND
// 068   ----------------------------------------
riversinthedesert_12_068:
	BYTE	W24
	BYTE		N11     Gn1   v052
	BYTE	W12
	BYTE		N11   
	BYTE	W12
	BYTE		N11   
	BYTE	W12
	BYTE		N11   
	BYTE	W12
	BYTE		N11   
	BYTE	W12
	BYTE		N32     Fn1 
	BYTE	W12
	BYTE	PEND
// 069   ----------------------------------------
	BYTE	PATT
	 POIN2	riversinthedesert_12_065
// 070   ----------------------------------------
	BYTE	PATT
	 POIN2	riversinthedesert_12_066
// 071   ----------------------------------------
	BYTE	PATT
	 POIN2	riversinthedesert_12_031
// 072   ----------------------------------------
	BYTE		N23     Gn1   v052
	BYTE	W24
	BYTE		N11   
	BYTE	W12
	BYTE		N11   
	BYTE	W12
	BYTE		N11   
	BYTE	W12
	BYTE		N11   
	BYTE	W12
	BYTE		N11   
	BYTE	W12
	BYTE		N32     Fn1 
	BYTE	W12
// 073   ----------------------------------------
	BYTE	PATT
	 POIN2	riversinthedesert_12_065
// 074   ----------------------------------------
	BYTE	PATT
	 POIN2	riversinthedesert_12_066
// 075   ----------------------------------------
	BYTE	PATT
	 POIN2	riversinthedesert_12_067
// 076   ----------------------------------------
	BYTE	PATT
	 POIN2	riversinthedesert_12_068
// 077   ----------------------------------------
	BYTE	PATT
	 POIN2	riversinthedesert_12_065
// 078   ----------------------------------------
	BYTE	PATT
	 POIN2	riversinthedesert_12_066
// 079   ----------------------------------------
	BYTE	PATT
	 POIN2	riversinthedesert_12_031
	BYTE	GoTo
	 POIN2	riversinthedesert_12_B1
riversinthedesert_12_B2:
// 080   ----------------------------------------
	BYTE	FINE

//**************** Track 13 (Midi-Chn.14) ****************//

riversinthedesert_13:
	BYTE	KEYSH   riversinthedesert_key+0
// 000   ----------------------------------------
	BYTE		VOICE   58
	BYTE		VOL     100*riversinthedesert_mvl/mxv
	BYTE		PAN     c_v+0
	BYTE		N32     Gn1   v096
	BYTE	W36
	BYTE		N07   
	BYTE	W48
	BYTE		N05     Gn1   v080
	BYTE	W12
// 001   ----------------------------------------
riversinthedesert_13_001:
	BYTE		N32     Gn1   v096
	BYTE	W36
	BYTE		N07   
	BYTE	W24
	BYTE		N23     As1 
	BYTE	W24
	BYTE		N05     Gn1   v080
	BYTE	W12
	BYTE	PEND
// 002   ----------------------------------------
riversinthedesert_13_002:
	BYTE		N32     Gn1   v096
	BYTE	W36
	BYTE		N07   
	BYTE	W48
	BYTE		N05     Gn1   v080
	BYTE	W12
	BYTE	PEND
// 003   ----------------------------------------
	BYTE	PATT
	 POIN2	riversinthedesert_13_001
// 004   ----------------------------------------
	BYTE	PATT
	 POIN2	riversinthedesert_13_002
// 005   ----------------------------------------
	BYTE	PATT
	 POIN2	riversinthedesert_13_001
// 006   ----------------------------------------
	BYTE	PATT
	 POIN2	riversinthedesert_13_002
// 007   ----------------------------------------
	BYTE	PATT
	 POIN2	riversinthedesert_13_001
// 008   ----------------------------------------
	BYTE	PATT
	 POIN2	riversinthedesert_13_002
// 009   ----------------------------------------
	BYTE	PATT
	 POIN2	riversinthedesert_13_001
// 010   ----------------------------------------
	BYTE	PATT
	 POIN2	riversinthedesert_13_002
// 011   ----------------------------------------
	BYTE	PATT
	 POIN2	riversinthedesert_13_001
// 012   ----------------------------------------
	BYTE	PATT
	 POIN2	riversinthedesert_13_002
// 013   ----------------------------------------
	BYTE	PATT
	 POIN2	riversinthedesert_13_001
// 014   ----------------------------------------
	BYTE	PATT
	 POIN2	riversinthedesert_13_002
// 015   ----------------------------------------
	BYTE	PATT
	 POIN2	riversinthedesert_13_001
riversinthedesert_13_B1:
// 016   ----------------------------------------
riversinthedesert_13_016:
	BYTE		N32     Gn1   v060
	BYTE	W36
	BYTE		N07   
	BYTE	W48
	BYTE		N05     Gn1   v052
	BYTE	W12
	BYTE	PEND
// 017   ----------------------------------------
riversinthedesert_13_017:
	BYTE		N32     Gn1   v060
	BYTE	W36
	BYTE		N07   
	BYTE	W24
	BYTE		N23     As1 
	BYTE	W24
	BYTE		N05     Gn1   v052
	BYTE	W12
	BYTE	PEND
// 018   ----------------------------------------
	BYTE	PATT
	 POIN2	riversinthedesert_13_016
// 019   ----------------------------------------
	BYTE	PATT
	 POIN2	riversinthedesert_13_017
// 020   ----------------------------------------
	BYTE	PATT
	 POIN2	riversinthedesert_13_016
// 021   ----------------------------------------
	BYTE	PATT
	 POIN2	riversinthedesert_13_017
// 022   ----------------------------------------
	BYTE	PATT
	 POIN2	riversinthedesert_13_016
// 023   ----------------------------------------
	BYTE	PATT
	 POIN2	riversinthedesert_13_017
// 024   ----------------------------------------
riversinthedesert_13_024:
	BYTE		N11     Gn2   v080
	BYTE	W60
	BYTE		N11   
	BYTE	W24
	BYTE		        Fn2 
	BYTE	W12
	BYTE	PEND
// 025   ----------------------------------------
riversinthedesert_13_025:
	BYTE	W60
	BYTE		N11     Fn2   v080
	BYTE	W24
	BYTE		        En2 
	BYTE	W12
	BYTE	PEND
// 026   ----------------------------------------
riversinthedesert_13_026:
	BYTE	W60
	BYTE		N11     En2   v080
	BYTE	W24
	BYTE		        Fn2 
	BYTE	W12
	BYTE	PEND
// 027   ----------------------------------------
riversinthedesert_13_027:
	BYTE	W60
	BYTE		N11     Fn2   v080
	BYTE	W24
	BYTE		        Gn2 
	BYTE	W12
	BYTE	PEND
// 028   ----------------------------------------
riversinthedesert_13_028:
	BYTE	W60
	BYTE		N11     Gn2   v080
	BYTE	W24
	BYTE		        Fn2 
	BYTE	W12
	BYTE	PEND
// 029   ----------------------------------------
	BYTE	PATT
	 POIN2	riversinthedesert_13_027
// 030   ----------------------------------------
riversinthedesert_13_030:
	BYTE	W60
	BYTE		N11     Gn2   v080
	BYTE	W24
	BYTE		        An2 
	BYTE	W12
	BYTE	PEND
// 031   ----------------------------------------
	BYTE	W60
	BYTE		N32   
	BYTE	W36
// 032   ----------------------------------------
	BYTE	PATT
	 POIN2	riversinthedesert_13_016
// 033   ----------------------------------------
	BYTE	PATT
	 POIN2	riversinthedesert_13_017
// 034   ----------------------------------------
	BYTE	PATT
	 POIN2	riversinthedesert_13_016
// 035   ----------------------------------------
	BYTE	PATT
	 POIN2	riversinthedesert_13_017
// 036   ----------------------------------------
	BYTE	PATT
	 POIN2	riversinthedesert_13_016
// 037   ----------------------------------------
	BYTE	PATT
	 POIN2	riversinthedesert_13_017
// 038   ----------------------------------------
	BYTE	PATT
	 POIN2	riversinthedesert_13_016
// 039   ----------------------------------------
	BYTE		N32     Gn1   v060
	BYTE	W36
	BYTE		N07   
	BYTE	W24
	BYTE		N23   
	BYTE	W24
	BYTE		N05     Fn1   v052
	BYTE	W12
// 040   ----------------------------------------
riversinthedesert_13_040:
	BYTE		N32     Ds2   v060
	BYTE	W36
	BYTE		N07   
	BYTE	W24
	BYTE		N23   
	BYTE	W24
	BYTE		N05     Ds2   v052
	BYTE	W12
	BYTE	PEND
// 041   ----------------------------------------
	BYTE	PATT
	 POIN2	riversinthedesert_13_040
// 042   ----------------------------------------
riversinthedesert_13_042:
	BYTE		N32     Cn2   v060
	BYTE	W36
	BYTE		N07   
	BYTE	W24
	BYTE		N23   
	BYTE	W24
	BYTE		N05     Cn2   v052
	BYTE	W12
	BYTE	PEND
// 043   ----------------------------------------
	BYTE	PATT
	 POIN2	riversinthedesert_13_042
// 044   ----------------------------------------
riversinthedesert_13_044:
	BYTE		N32     Gn2   v060
	BYTE	W36
	BYTE		N07   
	BYTE	W24
	BYTE		N16   
	BYTE	W24
	BYTE		N44     Fn2 
	BYTE	W12
	BYTE	PEND
// 045   ----------------------------------------
	BYTE	W36
	BYTE		N11     Fn2   v052
	BYTE	W24
	BYTE		N32     Fn2   v060
	BYTE	W36
// 046   ----------------------------------------
	BYTE	PATT
	 POIN2	riversinthedesert_13_044
// 047   ----------------------------------------
	BYTE	W96
// 048   ----------------------------------------
	BYTE		N07     Gn1   v096
	BYTE	W60
	BYTE		N11     Gn1   v080
	BYTE	W24
	BYTE		N07     Fn1   v096
	BYTE	W12
// 049   ----------------------------------------
	BYTE	W60
	BYTE		N11     Fn1   v080
	BYTE	W24
	BYTE		N07     En1   v096
	BYTE	W12
// 050   ----------------------------------------
	BYTE	W60
	BYTE		N11     En1   v080
	BYTE	W24
	BYTE		N07     Fn1   v096
	BYTE	W12
// 051   ----------------------------------------
riversinthedesert_13_051:
	BYTE	W60
	BYTE		N11     Fn1   v080
	BYTE	W24
	BYTE		N07     Gn1   v096
	BYTE	W12
	BYTE	PEND
// 052   ----------------------------------------
	BYTE	W60
	BYTE		N11     Dn2   v080
	BYTE	W24
	BYTE		N07     Cn2   v096
	BYTE	W12
// 053   ----------------------------------------
	BYTE	PATT
	 POIN2	riversinthedesert_13_051
// 054   ----------------------------------------
	BYTE	W60
	BYTE		N11     Gn1   v080
	BYTE	W24
	BYTE		N07     An1   v096
	BYTE	W12
// 055   ----------------------------------------
	BYTE	W60
	BYTE		N32   
	BYTE	W36
// 056   ----------------------------------------
	BYTE		N11     Gn1   v080
	BYTE	W60
	BYTE		N11   
	BYTE	W24
	BYTE		        Fn1 
	BYTE	W12
// 057   ----------------------------------------
	BYTE	W60
	BYTE		N11   
	BYTE	W24
	BYTE		        En1 
	BYTE	W12
// 058   ----------------------------------------
	BYTE	W60
	BYTE		N11   
	BYTE	W24
	BYTE		        Fn1 
	BYTE	W12
// 059   ----------------------------------------
riversinthedesert_13_059:
	BYTE	W60
	BYTE		N11     Fn1   v080
	BYTE	W24
	BYTE		        Gn1 
	BYTE	W12
	BYTE	PEND
// 060   ----------------------------------------
	BYTE	W60
	BYTE		        Dn2 
	BYTE	W24
	BYTE		        Cn2 
	BYTE	W12
// 061   ----------------------------------------
	BYTE	PATT
	 POIN2	riversinthedesert_13_059
// 062   ----------------------------------------
	BYTE	W60
	BYTE		N11     Gn1   v080
	BYTE	W24
	BYTE		        An1 
	BYTE	W12
// 063   ----------------------------------------
	BYTE	W60
	BYTE		N32   
	BYTE	W36
// 064   ----------------------------------------
	BYTE	PATT
	 POIN2	riversinthedesert_13_024
// 065   ----------------------------------------
	BYTE	PATT
	 POIN2	riversinthedesert_13_025
// 066   ----------------------------------------
	BYTE	PATT
	 POIN2	riversinthedesert_13_026
// 067   ----------------------------------------
	BYTE	PATT
	 POIN2	riversinthedesert_13_027
// 068   ----------------------------------------
	BYTE	PATT
	 POIN2	riversinthedesert_13_028
// 069   ----------------------------------------
	BYTE	PATT
	 POIN2	riversinthedesert_13_027
// 070   ----------------------------------------
	BYTE	PATT
	 POIN2	riversinthedesert_13_030
// 071   ----------------------------------------
	BYTE	W60
	BYTE		N32     An2   v080
	BYTE	W36
// 072   ----------------------------------------
	BYTE	PATT
	 POIN2	riversinthedesert_13_024
// 073   ----------------------------------------
	BYTE	PATT
	 POIN2	riversinthedesert_13_025
// 074   ----------------------------------------
	BYTE	PATT
	 POIN2	riversinthedesert_13_026
// 075   ----------------------------------------
	BYTE	PATT
	 POIN2	riversinthedesert_13_027
// 076   ----------------------------------------
	BYTE	PATT
	 POIN2	riversinthedesert_13_028
// 077   ----------------------------------------
	BYTE	PATT
	 POIN2	riversinthedesert_13_027
// 078   ----------------------------------------
	BYTE	PATT
	 POIN2	riversinthedesert_13_030
// 079   ----------------------------------------
	BYTE	W60
	BYTE		N32     An2   v080
	BYTE	W36
	BYTE	GoTo
	 POIN2	riversinthedesert_13_B1
riversinthedesert_13_B2:
// 080   ----------------------------------------
	BYTE	FINE

//**************** Track 14 (Midi-Chn.15) ****************//

riversinthedesert_14:
	BYTE	KEYSH   riversinthedesert_key+0
// 000   ----------------------------------------
	BYTE		VOICE   58
	BYTE		VOL     100*riversinthedesert_mvl/mxv
	BYTE		PAN     c_v+0
	BYTE		N32     Gn0   v096
	BYTE	W36
	BYTE		N07   
	BYTE	W48
	BYTE		N05     Gn0   v080
	BYTE	W12
// 001   ----------------------------------------
riversinthedesert_14_001:
	BYTE		N32     Gn0   v096
	BYTE	W36
	BYTE		N07   
	BYTE	W24
	BYTE		N23     As0 
	BYTE	W24
	BYTE		N05     Gn0   v080
	BYTE	W12
	BYTE	PEND
// 002   ----------------------------------------
riversinthedesert_14_002:
	BYTE		N32     Gn0   v096
	BYTE	W36
	BYTE		N07   
	BYTE	W48
	BYTE		N05     Gn0   v080
	BYTE	W12
	BYTE	PEND
// 003   ----------------------------------------
	BYTE	PATT
	 POIN2	riversinthedesert_14_001
// 004   ----------------------------------------
	BYTE	PATT
	 POIN2	riversinthedesert_14_002
// 005   ----------------------------------------
	BYTE	PATT
	 POIN2	riversinthedesert_14_001
// 006   ----------------------------------------
	BYTE	PATT
	 POIN2	riversinthedesert_14_002
// 007   ----------------------------------------
	BYTE	PATT
	 POIN2	riversinthedesert_14_001
// 008   ----------------------------------------
	BYTE	PATT
	 POIN2	riversinthedesert_14_002
// 009   ----------------------------------------
	BYTE	PATT
	 POIN2	riversinthedesert_14_001
// 010   ----------------------------------------
	BYTE	PATT
	 POIN2	riversinthedesert_14_002
// 011   ----------------------------------------
	BYTE	PATT
	 POIN2	riversinthedesert_14_001
// 012   ----------------------------------------
	BYTE	PATT
	 POIN2	riversinthedesert_14_002
// 013   ----------------------------------------
	BYTE	PATT
	 POIN2	riversinthedesert_14_001
// 014   ----------------------------------------
	BYTE	PATT
	 POIN2	riversinthedesert_14_002
// 015   ----------------------------------------
	BYTE	PATT
	 POIN2	riversinthedesert_14_001
riversinthedesert_14_B1:
// 016   ----------------------------------------
riversinthedesert_14_016:
	BYTE		N32     Gn0   v060
	BYTE	W36
	BYTE		N07   
	BYTE	W48
	BYTE		N05     Gn0   v052
	BYTE	W12
	BYTE	PEND
// 017   ----------------------------------------
riversinthedesert_14_017:
	BYTE		N32     Gn0   v060
	BYTE	W36
	BYTE		N07   
	BYTE	W24
	BYTE		N23     As0 
	BYTE	W24
	BYTE		N05     Gn0   v052
	BYTE	W12
	BYTE	PEND
// 018   ----------------------------------------
	BYTE	PATT
	 POIN2	riversinthedesert_14_016
// 019   ----------------------------------------
	BYTE	PATT
	 POIN2	riversinthedesert_14_017
// 020   ----------------------------------------
	BYTE	PATT
	 POIN2	riversinthedesert_14_016
// 021   ----------------------------------------
	BYTE	PATT
	 POIN2	riversinthedesert_14_017
// 022   ----------------------------------------
	BYTE	PATT
	 POIN2	riversinthedesert_14_016
// 023   ----------------------------------------
	BYTE	PATT
	 POIN2	riversinthedesert_14_017
// 024   ----------------------------------------
riversinthedesert_14_024:
	BYTE		N23     Gn1   v052
	BYTE	W24
	BYTE		N11   
	BYTE	W12
	BYTE		N11   
	BYTE	W12
	BYTE		N11   
	BYTE	W12
	BYTE		N11   
	BYTE	W12
	BYTE		N11   
	BYTE	W12
	BYTE		N32     Fn1 
	BYTE	W12
	BYTE	PEND
// 025   ----------------------------------------
riversinthedesert_14_025:
	BYTE	W24
	BYTE		N11     Fn1   v052
	BYTE	W12
	BYTE		N11   
	BYTE	W12
	BYTE		N11   
	BYTE	W12
	BYTE		N11   
	BYTE	W12
	BYTE		N11   
	BYTE	W12
	BYTE		N32     En1 
	BYTE	W12
	BYTE	PEND
// 026   ----------------------------------------
riversinthedesert_14_026:
	BYTE	W24
	BYTE		N11     En1   v052
	BYTE	W12
	BYTE		N11   
	BYTE	W12
	BYTE		N11   
	BYTE	W12
	BYTE		N11   
	BYTE	W12
	BYTE		N11   
	BYTE	W12
	BYTE		N32     Fn1 
	BYTE	W12
	BYTE	PEND
// 027   ----------------------------------------
riversinthedesert_14_027:
	BYTE	W24
	BYTE		N11     Fn1   v052
	BYTE	W12
	BYTE		N11   
	BYTE	W12
	BYTE		N11   
	BYTE	W12
	BYTE		N11   
	BYTE	W12
	BYTE		N11   
	BYTE	W12
	BYTE		N32     Gn1 
	BYTE	W12
	BYTE	PEND
// 028   ----------------------------------------
riversinthedesert_14_028:
	BYTE	W24
	BYTE		N11     Gn1   v052
	BYTE	W12
	BYTE		N11   
	BYTE	W12
	BYTE		N11   
	BYTE	W12
	BYTE		N11   
	BYTE	W12
	BYTE		N11   
	BYTE	W12
	BYTE		N32     Fn1 
	BYTE	W12
	BYTE	PEND
// 029   ----------------------------------------
	BYTE	PATT
	 POIN2	riversinthedesert_14_025
// 030   ----------------------------------------
	BYTE	PATT
	 POIN2	riversinthedesert_14_026
// 031   ----------------------------------------
riversinthedesert_14_031:
	BYTE	W24
	BYTE		N11     Fn1   v052
	BYTE	W12
	BYTE		N11   
	BYTE	W24
	BYTE		N32   
	BYTE	W36
	BYTE	PEND
// 032   ----------------------------------------
	BYTE	PATT
	 POIN2	riversinthedesert_14_016
// 033   ----------------------------------------
	BYTE	PATT
	 POIN2	riversinthedesert_14_017
// 034   ----------------------------------------
	BYTE	PATT
	 POIN2	riversinthedesert_14_016
// 035   ----------------------------------------
	BYTE	PATT
	 POIN2	riversinthedesert_14_017
// 036   ----------------------------------------
	BYTE	PATT
	 POIN2	riversinthedesert_14_016
// 037   ----------------------------------------
	BYTE	PATT
	 POIN2	riversinthedesert_14_017
// 038   ----------------------------------------
	BYTE	PATT
	 POIN2	riversinthedesert_14_016
// 039   ----------------------------------------
	BYTE		N32     Gn0   v060
	BYTE	W36
	BYTE		N07   
	BYTE	W24
	BYTE		N23   
	BYTE	W24
	BYTE		N05     Fn0   v052
	BYTE	W12
// 040   ----------------------------------------
riversinthedesert_14_040:
	BYTE		N32     Ds1   v060
	BYTE	W36
	BYTE		N07   
	BYTE	W24
	BYTE		N23   
	BYTE	W24
	BYTE		N05     Ds1   v052
	BYTE	W12
	BYTE	PEND
// 041   ----------------------------------------
	BYTE	PATT
	 POIN2	riversinthedesert_14_040
// 042   ----------------------------------------
riversinthedesert_14_042:
	BYTE		N32     Cn1   v060
	BYTE	W36
	BYTE		N07   
	BYTE	W24
	BYTE		N23   
	BYTE	W24
	BYTE		N05     Cn1   v052
	BYTE	W12
	BYTE	PEND
// 043   ----------------------------------------
	BYTE	PATT
	 POIN2	riversinthedesert_14_042
// 044   ----------------------------------------
riversinthedesert_14_044:
	BYTE		N32     Gn0   v060
	BYTE	W36
	BYTE		N07   
	BYTE	W24
	BYTE		N16   
	BYTE	W24
	BYTE		N44     Fn0 
	BYTE	W12
	BYTE	PEND
// 045   ----------------------------------------
	BYTE	W36
	BYTE		N11     Fn0   v052
	BYTE	W24
	BYTE		N32     Fn0   v060
	BYTE	W36
// 046   ----------------------------------------
	BYTE	PATT
	 POIN2	riversinthedesert_14_044
// 047   ----------------------------------------
	BYTE	W96
// 048   ----------------------------------------
	BYTE		N16     Gn1   v060
	BYTE	W24
	BYTE		N11     Gn1   v052
	BYTE	W12
	BYTE		N11   
	BYTE	W12
	BYTE		N11   
	BYTE	W12
	BYTE		N11   
	BYTE	W12
	BYTE		N11   
	BYTE	W12
	BYTE		N32     Fn1   v060
	BYTE	W12
// 049   ----------------------------------------
	BYTE	W24
	BYTE		N11     Fn1   v052
	BYTE	W12
	BYTE		N11   
	BYTE	W12
	BYTE		N11   
	BYTE	W12
	BYTE		N11   
	BYTE	W12
	BYTE		N11   
	BYTE	W12
	BYTE		N32     En1   v060
	BYTE	W12
// 050   ----------------------------------------
riversinthedesert_14_050:
	BYTE	W24
	BYTE		N11     En1   v052
	BYTE	W12
	BYTE		N11   
	BYTE	W12
	BYTE		N11   
	BYTE	W12
	BYTE		N11   
	BYTE	W12
	BYTE		N11   
	BYTE	W12
	BYTE		N32     Fn1   v060
	BYTE	W12
	BYTE	PEND
// 051   ----------------------------------------
	BYTE	W24
	BYTE		N11     Fn1   v052
	BYTE	W12
	BYTE		N11   
	BYTE	W12
	BYTE		N11   
	BYTE	W12
	BYTE		N11   
	BYTE	W12
	BYTE		N11   
	BYTE	W12
	BYTE		N32     Cn1   v060
	BYTE	W12
// 052   ----------------------------------------
	BYTE	W24
	BYTE		N11     Cn1   v052
	BYTE	W12
	BYTE		N11   
	BYTE	W12
	BYTE		N11   
	BYTE	W12
	BYTE		N11   
	BYTE	W12
	BYTE		N11   
	BYTE	W12
	BYTE		N32     Dn1   v060
	BYTE	W12
// 053   ----------------------------------------
	BYTE	W24
	BYTE		N11     Dn1   v052
	BYTE	W12
	BYTE		N11   
	BYTE	W12
	BYTE		N11   
	BYTE	W12
	BYTE		N11   
	BYTE	W12
	BYTE		N11   
	BYTE	W12
	BYTE		N32     En1   v060
	BYTE	W12
// 054   ----------------------------------------
	BYTE	PATT
	 POIN2	riversinthedesert_14_050
// 055   ----------------------------------------
	BYTE	PATT
	 POIN2	riversinthedesert_14_031
// 056   ----------------------------------------
	BYTE	PATT
	 POIN2	riversinthedesert_14_024
// 057   ----------------------------------------
	BYTE	PATT
	 POIN2	riversinthedesert_14_025
// 058   ----------------------------------------
	BYTE	PATT
	 POIN2	riversinthedesert_14_026
// 059   ----------------------------------------
	BYTE	W24
	BYTE		N11     Fn1   v052
	BYTE	W12
	BYTE		N11   
	BYTE	W12
	BYTE		N11   
	BYTE	W12
	BYTE		N11   
	BYTE	W12
	BYTE		N11   
	BYTE	W12
	BYTE		N32     Cn1 
	BYTE	W12
// 060   ----------------------------------------
	BYTE	W24
	BYTE		N11   
	BYTE	W12
	BYTE		N11   
	BYTE	W12
	BYTE		N11   
	BYTE	W12
	BYTE		N11   
	BYTE	W12
	BYTE		N11   
	BYTE	W12
	BYTE		N32     Dn1 
	BYTE	W12
// 061   ----------------------------------------
	BYTE	W24
	BYTE		N11   
	BYTE	W12
	BYTE		N11   
	BYTE	W12
	BYTE		N11   
	BYTE	W12
	BYTE		N11   
	BYTE	W12
	BYTE		N11   
	BYTE	W12
	BYTE		N32     En1 
	BYTE	W12
// 062   ----------------------------------------
	BYTE	PATT
	 POIN2	riversinthedesert_14_026
// 063   ----------------------------------------
	BYTE	PATT
	 POIN2	riversinthedesert_14_031
// 064   ----------------------------------------
	BYTE	PATT
	 POIN2	riversinthedesert_14_024
// 065   ----------------------------------------
	BYTE	PATT
	 POIN2	riversinthedesert_14_025
// 066   ----------------------------------------
	BYTE	PATT
	 POIN2	riversinthedesert_14_026
// 067   ----------------------------------------
	BYTE	PATT
	 POIN2	riversinthedesert_14_027
// 068   ----------------------------------------
	BYTE	PATT
	 POIN2	riversinthedesert_14_028
// 069   ----------------------------------------
	BYTE	PATT
	 POIN2	riversinthedesert_14_025
// 070   ----------------------------------------
	BYTE	PATT
	 POIN2	riversinthedesert_14_026
// 071   ----------------------------------------
	BYTE	PATT
	 POIN2	riversinthedesert_14_031
// 072   ----------------------------------------
	BYTE	PATT
	 POIN2	riversinthedesert_14_024
// 073   ----------------------------------------
	BYTE	PATT
	 POIN2	riversinthedesert_14_025
// 074   ----------------------------------------
	BYTE	PATT
	 POIN2	riversinthedesert_14_026
// 075   ----------------------------------------
	BYTE	PATT
	 POIN2	riversinthedesert_14_027
// 076   ----------------------------------------
	BYTE	PATT
	 POIN2	riversinthedesert_14_028
// 077   ----------------------------------------
	BYTE	PATT
	 POIN2	riversinthedesert_14_025
// 078   ----------------------------------------
	BYTE	PATT
	 POIN2	riversinthedesert_14_026
// 079   ----------------------------------------
	BYTE	PATT
	 POIN2	riversinthedesert_14_031
	BYTE	GoTo
	 POIN2	riversinthedesert_14_B1
riversinthedesert_14_B2:
// 080   ----------------------------------------
	BYTE	FINE

//**************** Track 15 (Midi-Chn.16) ****************//

riversinthedesert_15:
	BYTE	KEYSH   riversinthedesert_key+0
// 000   ----------------------------------------
	BYTE		VOICE   66
	BYTE		VOL     100*riversinthedesert_mvl/mxv
	BYTE		PAN     c_v+0
	BYTE	W96
// 001   ----------------------------------------
	BYTE	W96
// 002   ----------------------------------------
	BYTE	W96
// 003   ----------------------------------------
	BYTE	W96
// 004   ----------------------------------------
	BYTE	W96
// 005   ----------------------------------------
	BYTE	W96
// 006   ----------------------------------------
	BYTE	W96
// 007   ----------------------------------------
	BYTE	W96
// 008   ----------------------------------------
	BYTE	W96
// 009   ----------------------------------------
	BYTE	W96
// 010   ----------------------------------------
	BYTE	W96
// 011   ----------------------------------------
	BYTE	W96
// 012   ----------------------------------------
	BYTE	W96
// 013   ----------------------------------------
	BYTE	W96
// 014   ----------------------------------------
	BYTE	W96
// 015   ----------------------------------------
	BYTE	W96
riversinthedesert_15_B1:
// 016   ----------------------------------------
riversinthedesert_15_016:
	BYTE		N32     Gn2   v036
	BYTE	W36
	BYTE		        Gn3 
	BYTE	W36
	BYTE		N23     Dn2 
	BYTE	W24
	BYTE	PEND
// 017   ----------------------------------------
	BYTE	PATT
	 POIN2	riversinthedesert_15_016
// 018   ----------------------------------------
	BYTE	PATT
	 POIN2	riversinthedesert_15_016
// 019   ----------------------------------------
	BYTE	PATT
	 POIN2	riversinthedesert_15_016
// 020   ----------------------------------------
	BYTE	PATT
	 POIN2	riversinthedesert_15_016
// 021   ----------------------------------------
	BYTE	PATT
	 POIN2	riversinthedesert_15_016
// 022   ----------------------------------------
	BYTE	PATT
	 POIN2	riversinthedesert_15_016
// 023   ----------------------------------------
	BYTE		N32     Gn2   v036
	BYTE	W36
	BYTE		        Gn3 
	BYTE	W60
// 024   ----------------------------------------
riversinthedesert_15_024:
	BYTE		N32     Gn2   v036
	BYTE	W36
	BYTE		        Gn3 
	BYTE	W36
	BYTE		N11     Gn2 
	BYTE	W12
	BYTE		N44     Fn2 
	BYTE	W12
	BYTE	PEND
// 025   ----------------------------------------
riversinthedesert_15_025:
	BYTE	W36
	BYTE		N32     Fn3   v036
	BYTE	W36
	BYTE		N11     Fn2 
	BYTE	W12
	BYTE		N44     En2 
	BYTE	W12
	BYTE	PEND
// 026   ----------------------------------------
riversinthedesert_15_026:
	BYTE	W36
	BYTE		N32     En3   v036
	BYTE	W36
	BYTE		N11     En2 
	BYTE	W12
	BYTE		N44     Fn2 
	BYTE	W12
	BYTE	PEND
// 027   ----------------------------------------
riversinthedesert_15_027:
	BYTE	W36
	BYTE		N32     Fn3   v036
	BYTE	W36
	BYTE		N11     Fn2 
	BYTE	W12
	BYTE		N44     Gn2 
	BYTE	W12
	BYTE	PEND
// 028   ----------------------------------------
riversinthedesert_15_028:
	BYTE	W36
	BYTE		N32     Gn3   v036
	BYTE	W36
	BYTE		N11     Gn2 
	BYTE	W12
	BYTE		N44     Fn2 
	BYTE	W12
	BYTE	PEND
// 029   ----------------------------------------
	BYTE	PATT
	 POIN2	riversinthedesert_15_025
// 030   ----------------------------------------
	BYTE	PATT
	 POIN2	riversinthedesert_15_026
// 031   ----------------------------------------
riversinthedesert_15_031:
	BYTE	W36
	BYTE		N11     Fn3   v036
	BYTE	W24
	BYTE		N32     Fn2 
	BYTE	W36
	BYTE	PEND
// 032   ----------------------------------------
	BYTE	PATT
	 POIN2	riversinthedesert_15_016
// 033   ----------------------------------------
	BYTE	PATT
	 POIN2	riversinthedesert_15_016
// 034   ----------------------------------------
	BYTE	PATT
	 POIN2	riversinthedesert_15_016
// 035   ----------------------------------------
	BYTE	PATT
	 POIN2	riversinthedesert_15_016
// 036   ----------------------------------------
	BYTE	PATT
	 POIN2	riversinthedesert_15_016
// 037   ----------------------------------------
	BYTE	PATT
	 POIN2	riversinthedesert_15_016
// 038   ----------------------------------------
	BYTE	PATT
	 POIN2	riversinthedesert_15_016
// 039   ----------------------------------------
	BYTE	PATT
	 POIN2	riversinthedesert_15_016
// 040   ----------------------------------------
	BYTE	PATT
	 POIN2	riversinthedesert_15_016
// 041   ----------------------------------------
	BYTE	PATT
	 POIN2	riversinthedesert_15_016
// 042   ----------------------------------------
	BYTE	PATT
	 POIN2	riversinthedesert_15_016
// 043   ----------------------------------------
	BYTE	PATT
	 POIN2	riversinthedesert_15_016
// 044   ----------------------------------------
	BYTE	PATT
	 POIN2	riversinthedesert_15_016
// 045   ----------------------------------------
riversinthedesert_15_045:
	BYTE		N32     Fn2   v036
	BYTE	W36
	BYTE		        Fn3 
	BYTE	W36
	BYTE		N23     Cn2 
	BYTE	W24
	BYTE	PEND
// 046   ----------------------------------------
	BYTE	PATT
	 POIN2	riversinthedesert_15_016
// 047   ----------------------------------------
	BYTE	PATT
	 POIN2	riversinthedesert_15_045
// 048   ----------------------------------------
	BYTE	PATT
	 POIN2	riversinthedesert_15_024
// 049   ----------------------------------------
	BYTE	PATT
	 POIN2	riversinthedesert_15_025
// 050   ----------------------------------------
	BYTE	PATT
	 POIN2	riversinthedesert_15_026
// 051   ----------------------------------------
riversinthedesert_15_051:
	BYTE	W36
	BYTE		N32     Fn3   v036
	BYTE	W36
	BYTE		N11     Fn2 
	BYTE	W12
	BYTE		N44     Cn2 
	BYTE	W12
	BYTE	PEND
// 052   ----------------------------------------
riversinthedesert_15_052:
	BYTE	W36
	BYTE		N32     Cn3   v036
	BYTE	W36
	BYTE		N11     Cn2 
	BYTE	W12
	BYTE		N44     Dn2 
	BYTE	W12
	BYTE	PEND
// 053   ----------------------------------------
riversinthedesert_15_053:
	BYTE	W36
	BYTE		N32     Dn3   v036
	BYTE	W36
	BYTE		N11     Dn2 
	BYTE	W12
	BYTE		N44     En2 
	BYTE	W12
	BYTE	PEND
// 054   ----------------------------------------
	BYTE	PATT
	 POIN2	riversinthedesert_15_026
// 055   ----------------------------------------
	BYTE	PATT
	 POIN2	riversinthedesert_15_031
// 056   ----------------------------------------
	BYTE	PATT
	 POIN2	riversinthedesert_15_024
// 057   ----------------------------------------
	BYTE	PATT
	 POIN2	riversinthedesert_15_025
// 058   ----------------------------------------
	BYTE	PATT
	 POIN2	riversinthedesert_15_026
// 059   ----------------------------------------
	BYTE	PATT
	 POIN2	riversinthedesert_15_051
// 060   ----------------------------------------
	BYTE	PATT
	 POIN2	riversinthedesert_15_052
// 061   ----------------------------------------
	BYTE	PATT
	 POIN2	riversinthedesert_15_053
// 062   ----------------------------------------
	BYTE	PATT
	 POIN2	riversinthedesert_15_026
// 063   ----------------------------------------
	BYTE	PATT
	 POIN2	riversinthedesert_15_031
// 064   ----------------------------------------
	BYTE	PATT
	 POIN2	riversinthedesert_15_024
// 065   ----------------------------------------
	BYTE	PATT
	 POIN2	riversinthedesert_15_025
// 066   ----------------------------------------
	BYTE	PATT
	 POIN2	riversinthedesert_15_026
// 067   ----------------------------------------
	BYTE	PATT
	 POIN2	riversinthedesert_15_027
// 068   ----------------------------------------
	BYTE	PATT
	 POIN2	riversinthedesert_15_028
// 069   ----------------------------------------
	BYTE	PATT
	 POIN2	riversinthedesert_15_025
// 070   ----------------------------------------
	BYTE	PATT
	 POIN2	riversinthedesert_15_026
// 071   ----------------------------------------
	BYTE	PATT
	 POIN2	riversinthedesert_15_031
// 072   ----------------------------------------
	BYTE	PATT
	 POIN2	riversinthedesert_15_024
// 073   ----------------------------------------
	BYTE	PATT
	 POIN2	riversinthedesert_15_025
// 074   ----------------------------------------
	BYTE	PATT
	 POIN2	riversinthedesert_15_026
// 075   ----------------------------------------
	BYTE	PATT
	 POIN2	riversinthedesert_15_027
// 076   ----------------------------------------
	BYTE	PATT
	 POIN2	riversinthedesert_15_028
// 077   ----------------------------------------
	BYTE	PATT
	 POIN2	riversinthedesert_15_025
// 078   ----------------------------------------
	BYTE	PATT
	 POIN2	riversinthedesert_15_026
// 079   ----------------------------------------
	BYTE	PATT
	 POIN2	riversinthedesert_15_031
	BYTE	GoTo
	 POIN2	riversinthedesert_15_B1
riversinthedesert_15_B2:
// 080   ----------------------------------------
	BYTE	FINE

//******************************************************//
	ALIGN 4

riversinthedesert:
	BYTE	15	// NumTrks
	BYTE	0	// NumBlks
	BYTE	riversinthedesert_pri	// Priority
	BYTE	riversinthedesert_rev	// Reverb.

	POIN2	riversinthedesert_grp

	POIN2	riversinthedesert_1
	POIN2	riversinthedesert_2
	POIN2	riversinthedesert_3
	POIN2	riversinthedesert_4
	POIN2	riversinthedesert_5
	POIN2	riversinthedesert_6
	POIN2	riversinthedesert_7
	POIN2	riversinthedesert_8
	POIN2	riversinthedesert_9
	POIN2	riversinthedesert_10
	POIN2	riversinthedesert_11
	POIN2	riversinthedesert_12
	POIN2	riversinthedesert_13
	POIN2	riversinthedesert_14
	POIN2	riversinthedesert_15

	
