	.include "MPlayDef.s"

	.equ	seawinds_grp, voicegroup000
	.equ	seawinds_pri, 0
	.equ	seawinds_rev, 0
	.equ	seawinds_mvl, 85
	.equ	seawinds_key, 0
	.equ	seawinds_tbs, 1
	.equ	seawinds_exg, 0
	.equ	seawinds_cmp, 1

	.section .rodata
	.global	seawinds
	.align	2

@**************** Track 1 (Midi-Chn.1) ****************@

seawinds_1:
	.byte	KEYSH , seawinds_key+0
@ 000   ----------------------------------------
	.byte	TEMPO , 130*seawinds_tbs/2
	.byte		VOICE , 73
	.byte		VOL   , 68*seawinds_mvl/mxv
	.byte	W48
seawinds_1_B1:
	.byte		N12   , Dn4 , v127
	.byte	W12
	.byte		        En4 
	.byte	W12
@ 001   ----------------------------------------
seawinds_1_001:
	.byte		N36   , Fs4 , v127
	.byte	W36
	.byte		N12   , En4 
	.byte	W12
	.byte		N24   , Fs4 
	.byte	W24
	.byte	PEND
@ 002   ----------------------------------------
seawinds_1_002:
	.byte		N24   , Bn4 , v127
	.byte	W24
	.byte		        An4 
	.byte	W24
	.byte		        Fs4 
	.byte	W24
	.byte	PEND
@ 003   ----------------------------------------
	.byte		        En4 
	.byte	W24
	.byte		        Dn4 
	.byte	W24
	.byte		        Bn3 
	.byte	W24
@ 004   ----------------------------------------
	.byte	W48
	.byte		        Dn4 
	.byte	W24
@ 005   ----------------------------------------
seawinds_1_005:
	.byte		N24   , An3 , v127
	.byte	W24
	.byte		        Dn4 
	.byte	W24
	.byte		        En4 
	.byte	W24
	.byte	PEND
@ 006   ----------------------------------------
seawinds_1_006:
	.byte		N24   , Fs4 , v127
	.byte	W24
	.byte		N48   , Gn4 
	.byte	W48
	.byte	PEND
@ 007   ----------------------------------------
seawinds_1_007:
	.byte		N24   , Fs4 , v127
	.byte	W24
	.byte		        En4 
	.byte	W24
	.byte		        Dn4 
	.byte	W24
	.byte	PEND
@ 008   ----------------------------------------
seawinds_1_008:
	.byte		N12   , En4 , v127
	.byte	W24
	.byte		N24   , Fs4 
	.byte	W24
	.byte		        Gn4 
	.byte	W24
	.byte	PEND
@ 009   ----------------------------------------
seawinds_1_009:
	.byte		N24   , An4 , v127
	.byte	W24
	.byte		        Fs4 
	.byte	W24
	.byte		        An4 
	.byte	W24
	.byte	PEND
@ 010   ----------------------------------------
seawinds_1_010:
	.byte		N48   , Dn5 , v127
	.byte	W48
	.byte		N24   , Cs5 
	.byte	W24
	.byte	PEND
@ 011   ----------------------------------------
seawinds_1_011:
	.byte		N24   , Cs5 , v127
	.byte	W24
	.byte		N84   , Bn4 
	.byte	W48
	.byte	PEND
@ 012   ----------------------------------------
	.byte	W48
	.byte		N24   
	.byte	W24
@ 013   ----------------------------------------
seawinds_1_013:
	.byte		N24   , An4 , v127
	.byte	W24
	.byte		        Fs4 
	.byte	W24
	.byte		        Dn4 
	.byte	W24
	.byte	PEND
@ 014   ----------------------------------------
seawinds_1_014:
	.byte		N24   , En4 , v127
	.byte	W24
	.byte		N48   , Fs4 
	.byte	W48
	.byte	PEND
@ 015   ----------------------------------------
seawinds_1_015:
	.byte		N24   , An3 , v127
	.byte	W24
	.byte		        Dn4 
	.byte	W24
	.byte		        Cs4 
	.byte	W24
	.byte	PEND
@ 016   ----------------------------------------
	.byte		TIE   , Dn4 
	.byte	W72
@ 017   ----------------------------------------
	.byte	W72
@ 018   ----------------------------------------
	.byte	W48
	.byte		EOT   
	.byte	W24
@ 019   ----------------------------------------
	.byte	W48
	.byte		N12   
	.byte	W12
	.byte		        En4 
	.byte	W12
@ 020   ----------------------------------------
	.byte	PATT
	 .word	seawinds_1_001
@ 021   ----------------------------------------
	.byte	PATT
	 .word	seawinds_1_002
@ 022   ----------------------------------------
	.byte		N24   , En4 , v127
	.byte	W24
	.byte		        Dn4 
	.byte	W24
	.byte		N48   , Bn3 
	.byte	W24
@ 023   ----------------------------------------
	.byte	W48
	.byte		N24   , Dn4 
	.byte	W24
@ 024   ----------------------------------------
	.byte	PATT
	 .word	seawinds_1_005
@ 025   ----------------------------------------
	.byte	PATT
	 .word	seawinds_1_006
@ 026   ----------------------------------------
	.byte	PATT
	 .word	seawinds_1_007
@ 027   ----------------------------------------
	.byte	PATT
	 .word	seawinds_1_008
@ 028   ----------------------------------------
	.byte	PATT
	 .word	seawinds_1_009
@ 029   ----------------------------------------
	.byte	PATT
	 .word	seawinds_1_010
@ 030   ----------------------------------------
	.byte	PATT
	 .word	seawinds_1_011
@ 031   ----------------------------------------
	.byte	W48
	.byte		N24   , Bn4 , v127
	.byte	W24
@ 032   ----------------------------------------
	.byte	PATT
	 .word	seawinds_1_013
@ 033   ----------------------------------------
	.byte	PATT
	 .word	seawinds_1_014
@ 034   ----------------------------------------
	.byte	PATT
	 .word	seawinds_1_015
@ 035   ----------------------------------------
	.byte		TIE   , Dn4 , v127
	.byte	W72
@ 036   ----------------------------------------
	.byte	W48
	.byte		EOT   
	.byte	W24
@ 037   ----------------------------------------
seawinds_1_037:
	.byte		N48   , Bn3 , v127
	.byte	W48
	.byte		N24   , Fs4 
	.byte	W24
	.byte	PEND
@ 038   ----------------------------------------
seawinds_1_038:
	.byte		N48   , Fs4 , v127
	.byte	W48
	.byte		N12   , En4 
	.byte	W12
	.byte		        Dn4 
	.byte	W12
	.byte	PEND
@ 039   ----------------------------------------
seawinds_1_039:
	.byte		N48   , Cs4 , v127
	.byte	W48
	.byte		N24   , Dn4 
	.byte	W24
	.byte	PEND
@ 040   ----------------------------------------
seawinds_1_040:
	.byte		N48   , En4 , v127
	.byte	W48
	.byte		N24   , An4 
	.byte	W24
	.byte	PEND
@ 041   ----------------------------------------
	.byte		N72   , En4 
	.byte	W72
@ 042   ----------------------------------------
	.byte	PATT
	 .word	seawinds_1_007
@ 043   ----------------------------------------
	.byte		N72   , Cs4 , v127
	.byte	W72
@ 044   ----------------------------------------
	.byte		        Dn4 
	.byte	W72
@ 045   ----------------------------------------
	.byte	PATT
	 .word	seawinds_1_037
@ 046   ----------------------------------------
	.byte	PATT
	 .word	seawinds_1_038
@ 047   ----------------------------------------
	.byte	PATT
	 .word	seawinds_1_039
@ 048   ----------------------------------------
	.byte	PATT
	 .word	seawinds_1_040
@ 049   ----------------------------------------
	.byte		N12   , Bn4 , v127
	.byte	W12
	.byte		        Cs5 
	.byte	W12
	.byte		N96   , An4 
	.byte	W48
@ 050   ----------------------------------------
	.byte	W48
	.byte		N24   , Fs4 
	.byte	W24
@ 051   ----------------------------------------
	.byte		TIE   , Bn4 
	.byte	W72
@ 052   ----------------------------------------
	.byte	W48
	.byte		EOT   
	.byte	W24
@ 053   ----------------------------------------
seawinds_1_053:
	.byte		N48   , Bn4 , v127
	.byte	W48
	.byte		N24   , Fs5 
	.byte	W24
	.byte	PEND
@ 054   ----------------------------------------
seawinds_1_054:
	.byte		N48   , Fs5 , v127
	.byte	W48
	.byte		N12   , En5 
	.byte	W12
	.byte		        Dn5 
	.byte	W12
	.byte	PEND
@ 055   ----------------------------------------
seawinds_1_055:
	.byte		N48   , Cs5 , v127
	.byte	W48
	.byte		N24   , Dn5 
	.byte	W24
	.byte	PEND
@ 056   ----------------------------------------
seawinds_1_056:
	.byte		N48   , En5 , v127
	.byte	W48
	.byte		N24   , An5 
	.byte	W24
	.byte	PEND
@ 057   ----------------------------------------
	.byte		N72   , En5 
	.byte	W72
@ 058   ----------------------------------------
	.byte		N24   , Fs5 
	.byte	W24
	.byte		        En5 
	.byte	W24
	.byte		        Dn5 
	.byte	W24
@ 059   ----------------------------------------
	.byte		N72   , Cs5 
	.byte	W72
@ 060   ----------------------------------------
	.byte		        Dn5 
	.byte	W72
@ 061   ----------------------------------------
	.byte	PATT
	 .word	seawinds_1_053
@ 062   ----------------------------------------
	.byte	PATT
	 .word	seawinds_1_054
@ 063   ----------------------------------------
	.byte	PATT
	 .word	seawinds_1_055
@ 064   ----------------------------------------
	.byte	PATT
	 .word	seawinds_1_056
@ 065   ----------------------------------------
	.byte		N12   , Bn5 , v127
	.byte	W12
	.byte		        Cs6 
	.byte	W12
	.byte		N96   , An5 
	.byte	W48
@ 066   ----------------------------------------
	.byte	W48
	.byte		N24   , Fs5 
	.byte	W24
@ 067   ----------------------------------------
	.byte		TIE   , Bn5 
	.byte	W72
@ 068   ----------------------------------------
	.byte	W48
	.byte		EOT   
	.byte	W24
@ 069   ----------------------------------------
	.byte	W12
	.byte		N12   , Bn4 
	.byte	W12
	.byte		        An4 
	.byte	W12
	.byte		        En4 
	.byte	W12
	.byte		        Fs4 
	.byte	W12
	.byte		        Bn3 
	.byte	W12
@ 070   ----------------------------------------
	.byte		N24   , Cs4 
	.byte	W24
	.byte		        An3 
	.byte	W24
	.byte	GOTO
	 .word	seawinds_1_B1
seawinds_1_B2:
	.byte	FINE

@**************** Track 2 (Midi-Chn.2) ****************@

seawinds_2:
	.byte	KEYSH , seawinds_key+0
@ 000   ----------------------------------------
	.byte		VOICE , 21
	.byte		VOL   , 47*seawinds_mvl/mxv
	.byte	W48
seawinds_2_B1:
	.byte		N12   , Dn3 , v127
	.byte	W12
	.byte		        En3 
	.byte	W12
@ 001   ----------------------------------------
seawinds_2_001:
	.byte		N36   , Fs3 , v127
	.byte	W36
	.byte		N12   , En3 
	.byte	W12
	.byte		N24   , Fs3 
	.byte	W24
	.byte	PEND
@ 002   ----------------------------------------
seawinds_2_002:
	.byte		N24   , Bn3 , v127
	.byte	W24
	.byte		        An3 
	.byte	W24
	.byte		        Fs3 
	.byte	W24
	.byte	PEND
@ 003   ----------------------------------------
	.byte		        En3 
	.byte	W24
	.byte		        Dn3 
	.byte	W24
	.byte		        Bn2 
	.byte	W24
@ 004   ----------------------------------------
	.byte	W48
	.byte		        Dn3 
	.byte	W24
@ 005   ----------------------------------------
seawinds_2_005:
	.byte		N24   , An2 , v127
	.byte	W24
	.byte		        Dn3 
	.byte	W24
	.byte		        En3 
	.byte	W24
	.byte	PEND
@ 006   ----------------------------------------
seawinds_2_006:
	.byte		N24   , Fs3 , v127
	.byte	W24
	.byte		N48   , Gn3 
	.byte	W48
	.byte	PEND
@ 007   ----------------------------------------
seawinds_2_007:
	.byte		N24   , Fs3 , v127
	.byte	W24
	.byte		        En3 
	.byte	W24
	.byte		        Dn3 
	.byte	W24
	.byte	PEND
@ 008   ----------------------------------------
seawinds_2_008:
	.byte		N12   , En3 , v127
	.byte	W24
	.byte		N24   , Fs3 
	.byte	W24
	.byte		        Gn3 
	.byte	W24
	.byte	PEND
@ 009   ----------------------------------------
seawinds_2_009:
	.byte		N24   , An3 , v127
	.byte	W24
	.byte		        Fs3 
	.byte	W24
	.byte		        An3 
	.byte	W24
	.byte	PEND
@ 010   ----------------------------------------
seawinds_2_010:
	.byte		N48   , Dn4 , v127
	.byte	W48
	.byte		N24   , Cs4 
	.byte	W24
	.byte	PEND
@ 011   ----------------------------------------
seawinds_2_011:
	.byte		N24   , Cs4 , v127
	.byte	W24
	.byte		N84   , Bn3 
	.byte	W48
	.byte	PEND
@ 012   ----------------------------------------
	.byte	W48
	.byte		N24   
	.byte	W24
@ 013   ----------------------------------------
seawinds_2_013:
	.byte		N24   , An3 , v127
	.byte	W24
	.byte		        Fs3 
	.byte	W24
	.byte		        Dn3 
	.byte	W24
	.byte	PEND
@ 014   ----------------------------------------
seawinds_2_014:
	.byte		N24   , En3 , v127
	.byte	W24
	.byte		N48   , Fs3 
	.byte	W48
	.byte	PEND
@ 015   ----------------------------------------
seawinds_2_015:
	.byte		N24   , An2 , v127
	.byte	W24
	.byte		        Dn3 
	.byte	W24
	.byte		        Cs3 
	.byte	W24
	.byte	PEND
@ 016   ----------------------------------------
	.byte		TIE   , Dn3 
	.byte	W72
@ 017   ----------------------------------------
	.byte	W72
@ 018   ----------------------------------------
	.byte	W48
	.byte		EOT   
	.byte	W24
@ 019   ----------------------------------------
	.byte	W48
	.byte		N12   
	.byte	W12
	.byte		        En3 
	.byte	W12
@ 020   ----------------------------------------
	.byte	PATT
	 .word	seawinds_2_001
@ 021   ----------------------------------------
	.byte	PATT
	 .word	seawinds_2_002
@ 022   ----------------------------------------
	.byte		N24   , En3 , v127
	.byte	W24
	.byte		        Dn3 
	.byte	W24
	.byte		N48   , Bn2 
	.byte	W24
@ 023   ----------------------------------------
	.byte	W48
	.byte		N24   , Dn3 
	.byte	W24
@ 024   ----------------------------------------
	.byte	PATT
	 .word	seawinds_2_005
@ 025   ----------------------------------------
	.byte	PATT
	 .word	seawinds_2_006
@ 026   ----------------------------------------
	.byte	PATT
	 .word	seawinds_2_007
@ 027   ----------------------------------------
	.byte	PATT
	 .word	seawinds_2_008
@ 028   ----------------------------------------
	.byte	PATT
	 .word	seawinds_2_009
@ 029   ----------------------------------------
	.byte	PATT
	 .word	seawinds_2_010
@ 030   ----------------------------------------
	.byte	PATT
	 .word	seawinds_2_011
@ 031   ----------------------------------------
	.byte	W48
	.byte		N24   , Bn3 , v127
	.byte	W24
@ 032   ----------------------------------------
	.byte	PATT
	 .word	seawinds_2_013
@ 033   ----------------------------------------
	.byte	PATT
	 .word	seawinds_2_014
@ 034   ----------------------------------------
	.byte	PATT
	 .word	seawinds_2_015
@ 035   ----------------------------------------
	.byte		TIE   , Dn3 , v127
	.byte	W72
@ 036   ----------------------------------------
	.byte	W48
	.byte		EOT   
	.byte	W24
@ 037   ----------------------------------------
seawinds_2_037:
	.byte		N48   , Bn2 , v127
	.byte	W48
	.byte		N24   , Fs3 
	.byte	W24
	.byte	PEND
@ 038   ----------------------------------------
seawinds_2_038:
	.byte		N48   , Fs3 , v127
	.byte	W48
	.byte		N12   , En3 
	.byte	W12
	.byte		        Dn3 
	.byte	W12
	.byte	PEND
@ 039   ----------------------------------------
seawinds_2_039:
	.byte		N48   , Cs3 , v127
	.byte	W48
	.byte		N24   , Dn3 
	.byte	W24
	.byte	PEND
@ 040   ----------------------------------------
seawinds_2_040:
	.byte		N48   , En3 , v127
	.byte	W48
	.byte		N24   , An3 
	.byte	W24
	.byte	PEND
@ 041   ----------------------------------------
	.byte		N72   , En3 
	.byte	W72
@ 042   ----------------------------------------
	.byte	PATT
	 .word	seawinds_2_007
@ 043   ----------------------------------------
	.byte		N72   , Cs3 , v127
	.byte	W72
@ 044   ----------------------------------------
	.byte		        Dn3 
	.byte	W72
@ 045   ----------------------------------------
	.byte	PATT
	 .word	seawinds_2_037
@ 046   ----------------------------------------
	.byte	PATT
	 .word	seawinds_2_038
@ 047   ----------------------------------------
	.byte	PATT
	 .word	seawinds_2_039
@ 048   ----------------------------------------
	.byte	PATT
	 .word	seawinds_2_040
@ 049   ----------------------------------------
seawinds_2_049:
	.byte		N12   , Bn3 , v127
	.byte	W12
	.byte		        Cs4 
	.byte	W12
	.byte		N96   , An3 
	.byte	W48
	.byte	PEND
@ 050   ----------------------------------------
	.byte	W48
	.byte		N24   , Fs3 
	.byte	W24
@ 051   ----------------------------------------
	.byte		TIE   , Bn3 
	.byte	W72
@ 052   ----------------------------------------
	.byte	W48
	.byte		EOT   
	.byte	W24
@ 053   ----------------------------------------
	.byte	PATT
	 .word	seawinds_2_037
@ 054   ----------------------------------------
	.byte	PATT
	 .word	seawinds_2_038
@ 055   ----------------------------------------
	.byte	PATT
	 .word	seawinds_2_039
@ 056   ----------------------------------------
	.byte	PATT
	 .word	seawinds_2_040
@ 057   ----------------------------------------
	.byte		N72   , En3 , v127
	.byte	W72
@ 058   ----------------------------------------
	.byte	PATT
	 .word	seawinds_2_007
@ 059   ----------------------------------------
	.byte		N72   , Cs3 , v127
	.byte	W72
@ 060   ----------------------------------------
	.byte		        Dn3 
	.byte	W72
@ 061   ----------------------------------------
	.byte	PATT
	 .word	seawinds_2_037
@ 062   ----------------------------------------
	.byte	PATT
	 .word	seawinds_2_038
@ 063   ----------------------------------------
	.byte	PATT
	 .word	seawinds_2_039
@ 064   ----------------------------------------
	.byte	PATT
	 .word	seawinds_2_040
@ 065   ----------------------------------------
	.byte	PATT
	 .word	seawinds_2_049
@ 066   ----------------------------------------
	.byte	W48
	.byte		N24   , Fs3 , v127
	.byte	W24
@ 067   ----------------------------------------
	.byte		TIE   , Bn3 
	.byte	W72
@ 068   ----------------------------------------
	.byte	W48
	.byte		EOT   
	.byte	W24
@ 069   ----------------------------------------
	.byte	W72
@ 070   ----------------------------------------
	.byte	W48
	.byte	GOTO
	 .word	seawinds_2_B1
seawinds_2_B2:
	.byte	FINE

@**************** Track 3 (Midi-Chn.3) ****************@

seawinds_3:
	.byte	KEYSH , seawinds_key+0
@ 000   ----------------------------------------
	.byte		VOICE , 127
	.byte		VOL   , 55*seawinds_mvl/mxv
	.byte		N12   , En3 , v127
	.byte	W12
	.byte		        Ds3 
	.byte	W12
	.byte		N12   
	.byte	W12
	.byte		        En3 
	.byte	W12
seawinds_3_B1:
	.byte		N12   , Ds3 , v127
	.byte	W12
	.byte		        En3 
	.byte	W12
@ 001   ----------------------------------------
seawinds_3_001:
	.byte		N24   , En3 , v127
	.byte	W24
	.byte		N12   , Ds3 
	.byte	W12
	.byte		N12   
	.byte	W12
	.byte		N24   , En3 
	.byte	W24
	.byte	PEND
@ 002   ----------------------------------------
	.byte	PATT
	 .word	seawinds_3_001
@ 003   ----------------------------------------
	.byte	PATT
	 .word	seawinds_3_001
@ 004   ----------------------------------------
	.byte	PATT
	 .word	seawinds_3_001
@ 005   ----------------------------------------
	.byte	PATT
	 .word	seawinds_3_001
@ 006   ----------------------------------------
	.byte	PATT
	 .word	seawinds_3_001
@ 007   ----------------------------------------
	.byte	PATT
	 .word	seawinds_3_001
@ 008   ----------------------------------------
	.byte	PATT
	 .word	seawinds_3_001
@ 009   ----------------------------------------
	.byte	PATT
	 .word	seawinds_3_001
@ 010   ----------------------------------------
	.byte	PATT
	 .word	seawinds_3_001
@ 011   ----------------------------------------
	.byte	PATT
	 .word	seawinds_3_001
@ 012   ----------------------------------------
	.byte	PATT
	 .word	seawinds_3_001
@ 013   ----------------------------------------
	.byte	PATT
	 .word	seawinds_3_001
@ 014   ----------------------------------------
	.byte	PATT
	 .word	seawinds_3_001
@ 015   ----------------------------------------
	.byte	PATT
	 .word	seawinds_3_001
@ 016   ----------------------------------------
	.byte	PATT
	 .word	seawinds_3_001
@ 017   ----------------------------------------
	.byte	PATT
	 .word	seawinds_3_001
@ 018   ----------------------------------------
	.byte	PATT
	 .word	seawinds_3_001
@ 019   ----------------------------------------
	.byte	PATT
	 .word	seawinds_3_001
@ 020   ----------------------------------------
	.byte		N12   , En3 , v127
	.byte	W12
	.byte		        Ds3 
	.byte	W12
	.byte		N12   
	.byte	W12
	.byte		        En3 
	.byte	W12
	.byte		        Ds3 
	.byte	W12
	.byte		        En3 
	.byte	W12
@ 021   ----------------------------------------
	.byte	PATT
	 .word	seawinds_3_001
@ 022   ----------------------------------------
	.byte	PATT
	 .word	seawinds_3_001
@ 023   ----------------------------------------
	.byte	PATT
	 .word	seawinds_3_001
@ 024   ----------------------------------------
	.byte	PATT
	 .word	seawinds_3_001
@ 025   ----------------------------------------
	.byte	PATT
	 .word	seawinds_3_001
@ 026   ----------------------------------------
	.byte	PATT
	 .word	seawinds_3_001
@ 027   ----------------------------------------
	.byte	PATT
	 .word	seawinds_3_001
@ 028   ----------------------------------------
	.byte	PATT
	 .word	seawinds_3_001
@ 029   ----------------------------------------
	.byte	PATT
	 .word	seawinds_3_001
@ 030   ----------------------------------------
	.byte	PATT
	 .word	seawinds_3_001
@ 031   ----------------------------------------
	.byte	PATT
	 .word	seawinds_3_001
@ 032   ----------------------------------------
	.byte	PATT
	 .word	seawinds_3_001
@ 033   ----------------------------------------
	.byte	PATT
	 .word	seawinds_3_001
@ 034   ----------------------------------------
	.byte	PATT
	 .word	seawinds_3_001
@ 035   ----------------------------------------
	.byte	PATT
	 .word	seawinds_3_001
@ 036   ----------------------------------------
	.byte	PATT
	 .word	seawinds_3_001
@ 037   ----------------------------------------
	.byte	PATT
	 .word	seawinds_3_001
@ 038   ----------------------------------------
	.byte	PATT
	 .word	seawinds_3_001
@ 039   ----------------------------------------
	.byte	PATT
	 .word	seawinds_3_001
@ 040   ----------------------------------------
	.byte	PATT
	 .word	seawinds_3_001
@ 041   ----------------------------------------
	.byte	PATT
	 .word	seawinds_3_001
@ 042   ----------------------------------------
	.byte	PATT
	 .word	seawinds_3_001
@ 043   ----------------------------------------
	.byte	PATT
	 .word	seawinds_3_001
@ 044   ----------------------------------------
	.byte	PATT
	 .word	seawinds_3_001
@ 045   ----------------------------------------
	.byte	PATT
	 .word	seawinds_3_001
@ 046   ----------------------------------------
	.byte	PATT
	 .word	seawinds_3_001
@ 047   ----------------------------------------
	.byte	PATT
	 .word	seawinds_3_001
@ 048   ----------------------------------------
	.byte	PATT
	 .word	seawinds_3_001
@ 049   ----------------------------------------
	.byte	PATT
	 .word	seawinds_3_001
@ 050   ----------------------------------------
	.byte	PATT
	 .word	seawinds_3_001
@ 051   ----------------------------------------
	.byte	PATT
	 .word	seawinds_3_001
@ 052   ----------------------------------------
	.byte	PATT
	 .word	seawinds_3_001
@ 053   ----------------------------------------
	.byte	PATT
	 .word	seawinds_3_001
@ 054   ----------------------------------------
	.byte	PATT
	 .word	seawinds_3_001
@ 055   ----------------------------------------
	.byte	PATT
	 .word	seawinds_3_001
@ 056   ----------------------------------------
	.byte	PATT
	 .word	seawinds_3_001
@ 057   ----------------------------------------
	.byte	PATT
	 .word	seawinds_3_001
@ 058   ----------------------------------------
	.byte	PATT
	 .word	seawinds_3_001
@ 059   ----------------------------------------
	.byte	PATT
	 .word	seawinds_3_001
@ 060   ----------------------------------------
	.byte	PATT
	 .word	seawinds_3_001
@ 061   ----------------------------------------
	.byte	PATT
	 .word	seawinds_3_001
@ 062   ----------------------------------------
	.byte	PATT
	 .word	seawinds_3_001
@ 063   ----------------------------------------
	.byte	PATT
	 .word	seawinds_3_001
@ 064   ----------------------------------------
	.byte	PATT
	 .word	seawinds_3_001
@ 065   ----------------------------------------
	.byte	PATT
	 .word	seawinds_3_001
@ 066   ----------------------------------------
	.byte	PATT
	 .word	seawinds_3_001
@ 067   ----------------------------------------
	.byte	PATT
	 .word	seawinds_3_001
@ 068   ----------------------------------------
	.byte	PATT
	 .word	seawinds_3_001
@ 069   ----------------------------------------
	.byte	PATT
	 .word	seawinds_3_001
@ 070   ----------------------------------------
	.byte		N24   , En3 , v127
	.byte	W24
	.byte		N12   , Ds3 
	.byte	W12
	.byte		N12   
	.byte	W12
	.byte	GOTO
	 .word	seawinds_3_B1
seawinds_3_B2:
	.byte	FINE

@**************** Track 4 (Midi-Chn.4) ****************@

seawinds_4:
	.byte	KEYSH , seawinds_key+0
@ 000   ----------------------------------------
	.byte		VOICE , 127
	.byte		VOL   , 41*seawinds_mvl/mxv
	.byte		N12   , Cn1 , v127
	.byte	W36
	.byte		N12   
	.byte	W12
seawinds_4_B1:
	.byte		N12   , Cn1 , v127
	.byte	W24
@ 001   ----------------------------------------
	.byte		N12   
	.byte	W72
@ 002   ----------------------------------------
	.byte		N12   
	.byte	W72
@ 003   ----------------------------------------
	.byte		N12   
	.byte	W72
@ 004   ----------------------------------------
	.byte		N12   
	.byte	W72
@ 005   ----------------------------------------
	.byte		N12   
	.byte	W72
@ 006   ----------------------------------------
	.byte		N12   
	.byte	W72
@ 007   ----------------------------------------
	.byte		N12   
	.byte	W72
@ 008   ----------------------------------------
	.byte		N12   
	.byte	W72
@ 009   ----------------------------------------
	.byte		N12   
	.byte	W72
@ 010   ----------------------------------------
	.byte		N12   
	.byte	W72
@ 011   ----------------------------------------
	.byte		N12   
	.byte	W72
@ 012   ----------------------------------------
	.byte		N12   
	.byte	W72
@ 013   ----------------------------------------
	.byte		N12   
	.byte	W72
@ 014   ----------------------------------------
	.byte		N12   
	.byte	W72
@ 015   ----------------------------------------
	.byte		N12   
	.byte	W72
@ 016   ----------------------------------------
	.byte		N12   
	.byte	W72
@ 017   ----------------------------------------
	.byte		N12   
	.byte	W72
@ 018   ----------------------------------------
	.byte		N12   
	.byte	W72
@ 019   ----------------------------------------
	.byte		N12   
	.byte	W72
@ 020   ----------------------------------------
	.byte		N12   
	.byte	W72
@ 021   ----------------------------------------
	.byte		N12   
	.byte	W72
@ 022   ----------------------------------------
	.byte		N12   
	.byte	W72
@ 023   ----------------------------------------
	.byte		N12   
	.byte	W72
@ 024   ----------------------------------------
	.byte		N12   
	.byte	W72
@ 025   ----------------------------------------
	.byte		N12   
	.byte	W72
@ 026   ----------------------------------------
	.byte		N12   
	.byte	W72
@ 027   ----------------------------------------
	.byte		N12   
	.byte	W72
@ 028   ----------------------------------------
	.byte		N12   
	.byte	W72
@ 029   ----------------------------------------
	.byte		N12   
	.byte	W72
@ 030   ----------------------------------------
	.byte		N12   
	.byte	W72
@ 031   ----------------------------------------
	.byte		N12   
	.byte	W72
@ 032   ----------------------------------------
	.byte		N12   
	.byte	W72
@ 033   ----------------------------------------
	.byte		N12   
	.byte	W72
@ 034   ----------------------------------------
	.byte		N12   
	.byte	W72
@ 035   ----------------------------------------
	.byte		N12   
	.byte	W72
@ 036   ----------------------------------------
	.byte		N12   
	.byte	W72
@ 037   ----------------------------------------
	.byte		N12   
	.byte	W72
@ 038   ----------------------------------------
	.byte		N12   
	.byte	W72
@ 039   ----------------------------------------
	.byte		N12   
	.byte	W72
@ 040   ----------------------------------------
	.byte		N12   
	.byte	W72
@ 041   ----------------------------------------
	.byte		N12   
	.byte	W72
@ 042   ----------------------------------------
	.byte		N12   
	.byte	W72
@ 043   ----------------------------------------
	.byte		N12   
	.byte	W72
@ 044   ----------------------------------------
	.byte		N12   
	.byte	W72
@ 045   ----------------------------------------
	.byte		N12   
	.byte	W72
@ 046   ----------------------------------------
	.byte		N12   
	.byte	W72
@ 047   ----------------------------------------
	.byte		N12   
	.byte	W72
@ 048   ----------------------------------------
	.byte		N12   
	.byte	W72
@ 049   ----------------------------------------
	.byte		N12   
	.byte	W72
@ 050   ----------------------------------------
	.byte		N12   
	.byte	W72
@ 051   ----------------------------------------
	.byte		N12   
	.byte	W72
@ 052   ----------------------------------------
	.byte		N12   
	.byte	W72
@ 053   ----------------------------------------
	.byte		N12   
	.byte	W72
@ 054   ----------------------------------------
	.byte		N12   
	.byte	W72
@ 055   ----------------------------------------
	.byte		N12   
	.byte	W72
@ 056   ----------------------------------------
	.byte		N12   
	.byte	W72
@ 057   ----------------------------------------
	.byte		N12   
	.byte	W72
@ 058   ----------------------------------------
	.byte		N12   
	.byte	W72
@ 059   ----------------------------------------
	.byte		N12   
	.byte	W72
@ 060   ----------------------------------------
	.byte		N12   
	.byte	W72
@ 061   ----------------------------------------
	.byte		N12   
	.byte	W72
@ 062   ----------------------------------------
	.byte		N12   
	.byte	W72
@ 063   ----------------------------------------
	.byte		N12   
	.byte	W72
@ 064   ----------------------------------------
	.byte		N12   
	.byte	W72
@ 065   ----------------------------------------
	.byte		N12   
	.byte	W72
@ 066   ----------------------------------------
	.byte		N12   
	.byte	W72
@ 067   ----------------------------------------
	.byte		N12   
	.byte	W72
@ 068   ----------------------------------------
	.byte		N12   
	.byte	W72
@ 069   ----------------------------------------
	.byte	W72
@ 070   ----------------------------------------
	.byte	W48
	.byte	GOTO
	 .word	seawinds_4_B1
seawinds_4_B2:
	.byte	FINE

@**************** Track 5 (Midi-Chn.5) ****************@

seawinds_5:
	.byte	KEYSH , seawinds_key+0
@ 000   ----------------------------------------
	.byte		VOICE , 24
	.byte		VOL   , 67*seawinds_mvl/mxv
	.byte	W48
seawinds_5_B1:
	.byte	W24
@ 001   ----------------------------------------
seawinds_5_001:
	.byte		N12   , Dn2 , v127
	.byte	W12
	.byte		        An2 
	.byte	W12
	.byte		N48   , Dn3 
	.byte	W48
	.byte	PEND
@ 002   ----------------------------------------
seawinds_5_002:
	.byte		N12   , Fs2 , v127
	.byte	W12
	.byte		        An2 
	.byte	W12
	.byte		N48   , Dn3 
	.byte	W48
	.byte	PEND
@ 003   ----------------------------------------
seawinds_5_003:
	.byte		N12   , En2 , v127
	.byte	W12
	.byte		        Bn2 
	.byte	W12
	.byte		N48   , En3 
	.byte	W48
	.byte	PEND
@ 004   ----------------------------------------
seawinds_5_004:
	.byte		N12   , Dn2 , v127
	.byte	W12
	.byte		        Bn2 
	.byte	W12
	.byte		N48   , En3 
	.byte	W48
	.byte	PEND
@ 005   ----------------------------------------
	.byte	PATT
	 .word	seawinds_5_001
@ 006   ----------------------------------------
	.byte	PATT
	 .word	seawinds_5_002
@ 007   ----------------------------------------
seawinds_5_007:
	.byte		N12   , Fs2 , v127
	.byte	W12
	.byte		        Bn2 
	.byte	W12
	.byte		N48   , En3 
	.byte	W48
	.byte	PEND
@ 008   ----------------------------------------
	.byte	PATT
	 .word	seawinds_5_003
@ 009   ----------------------------------------
seawinds_5_009:
	.byte		N12   , Dn2 , v127
	.byte	W12
	.byte		        Dn3 
	.byte	W12
	.byte		N48   , Fs3 
	.byte	W48
	.byte	PEND
@ 010   ----------------------------------------
seawinds_5_010:
	.byte		N12   , Gn2 , v127
	.byte	W12
	.byte		        Dn3 
	.byte	W12
	.byte		N48   , Fs3 
	.byte	W48
	.byte	PEND
@ 011   ----------------------------------------
seawinds_5_011:
	.byte		N12   , Fs2 , v127
	.byte	W12
	.byte		        Dn3 
	.byte	W12
	.byte		N48   , En3 
	.byte	W48
	.byte	PEND
@ 012   ----------------------------------------
seawinds_5_012:
	.byte		N12   , Gn2 , v127
	.byte	W12
	.byte		        Dn3 
	.byte	W12
	.byte		N48   , En3 
	.byte	W48
	.byte	PEND
@ 013   ----------------------------------------
seawinds_5_013:
	.byte		N12   , En2 , v127
	.byte	W12
	.byte		        Bn2 
	.byte	W12
	.byte		N48   , Dn3 
	.byte	W48
	.byte	PEND
@ 014   ----------------------------------------
seawinds_5_014:
	.byte		N12   , Fs2 , v127
	.byte	W12
	.byte		        Bn2 
	.byte	W12
	.byte		N48   , Dn3 
	.byte	W48
	.byte	PEND
@ 015   ----------------------------------------
	.byte	PATT
	 .word	seawinds_5_013
@ 016   ----------------------------------------
	.byte	PATT
	 .word	seawinds_5_001
@ 017   ----------------------------------------
	.byte	PATT
	 .word	seawinds_5_001
@ 018   ----------------------------------------
	.byte	PATT
	 .word	seawinds_5_001
@ 019   ----------------------------------------
	.byte	PATT
	 .word	seawinds_5_002
@ 020   ----------------------------------------
	.byte	PATT
	 .word	seawinds_5_001
@ 021   ----------------------------------------
	.byte	PATT
	 .word	seawinds_5_002
@ 022   ----------------------------------------
	.byte	PATT
	 .word	seawinds_5_003
@ 023   ----------------------------------------
	.byte	PATT
	 .word	seawinds_5_004
@ 024   ----------------------------------------
	.byte	PATT
	 .word	seawinds_5_001
@ 025   ----------------------------------------
	.byte	PATT
	 .word	seawinds_5_002
@ 026   ----------------------------------------
	.byte	PATT
	 .word	seawinds_5_007
@ 027   ----------------------------------------
	.byte	PATT
	 .word	seawinds_5_003
@ 028   ----------------------------------------
	.byte	PATT
	 .word	seawinds_5_009
@ 029   ----------------------------------------
	.byte	PATT
	 .word	seawinds_5_010
@ 030   ----------------------------------------
	.byte	PATT
	 .word	seawinds_5_011
@ 031   ----------------------------------------
	.byte	PATT
	 .word	seawinds_5_012
@ 032   ----------------------------------------
	.byte	PATT
	 .word	seawinds_5_013
@ 033   ----------------------------------------
	.byte	PATT
	 .word	seawinds_5_014
@ 034   ----------------------------------------
	.byte	PATT
	 .word	seawinds_5_013
@ 035   ----------------------------------------
	.byte	PATT
	 .word	seawinds_5_001
@ 036   ----------------------------------------
	.byte	PATT
	 .word	seawinds_5_002
@ 037   ----------------------------------------
seawinds_5_037:
	.byte		N24   , Bn1 , v127
	.byte	W24
	.byte		        Fs2 
	.byte	W24
	.byte		        Bn2 
	.byte	W24
	.byte	PEND
@ 038   ----------------------------------------
	.byte	PATT
	 .word	seawinds_5_037
@ 039   ----------------------------------------
seawinds_5_039:
	.byte		N24   , Bn1 , v127
	.byte	W24
	.byte		        Fs2 
	.byte	W24
	.byte		        Cs3 
	.byte	W24
	.byte	PEND
@ 040   ----------------------------------------
seawinds_5_040:
	.byte		N24   , Cs2 , v127
	.byte	W24
	.byte		        Fs2 
	.byte	W24
	.byte		        Cs3 
	.byte	W24
	.byte	PEND
@ 041   ----------------------------------------
seawinds_5_041:
	.byte		N24   , Dn2 , v127
	.byte	W24
	.byte		        An2 
	.byte	W24
	.byte		        Fs3 
	.byte	W24
	.byte	PEND
@ 042   ----------------------------------------
seawinds_5_042:
	.byte		N24   , Cs2 , v127
	.byte	W24
	.byte		        An2 
	.byte	W24
	.byte		        Fs3 
	.byte	W24
	.byte	PEND
@ 043   ----------------------------------------
seawinds_5_043:
	.byte		N24   , Cs2 , v127
	.byte	W24
	.byte		        An2 
	.byte	W24
	.byte		        En3 
	.byte	W24
	.byte	PEND
@ 044   ----------------------------------------
seawinds_5_044:
	.byte		N24   , Cs2 , v127
	.byte	W24
	.byte		        Gn2 
	.byte	W24
	.byte		        Dn3 
	.byte	W24
	.byte	PEND
@ 045   ----------------------------------------
	.byte	PATT
	 .word	seawinds_5_037
@ 046   ----------------------------------------
	.byte	PATT
	 .word	seawinds_5_037
@ 047   ----------------------------------------
	.byte	PATT
	 .word	seawinds_5_039
@ 048   ----------------------------------------
	.byte	PATT
	 .word	seawinds_5_040
@ 049   ----------------------------------------
seawinds_5_049:
	.byte		N24   , Cs2 , v127
	.byte	W24
	.byte		        An2 
	.byte	W24
	.byte		        Cs3 
	.byte	W24
	.byte	PEND
@ 050   ----------------------------------------
seawinds_5_050:
	.byte		N24   , Fs3 , v127
	.byte	W24
	.byte		        Cs3 
	.byte	W24
	.byte		        Fs2 
	.byte	W24
	.byte	PEND
@ 051   ----------------------------------------
seawinds_5_051:
	.byte		N24   , Fs2 , v127
	.byte	W24
	.byte		        Ds3 
	.byte	W24
	.byte		        En3 
	.byte	W24
	.byte	PEND
@ 052   ----------------------------------------
seawinds_5_052:
	.byte		N24   , Fs3 , v127
	.byte	W24
	.byte		        En3 
	.byte	W24
	.byte		        Ds3 
	.byte	W24
	.byte	PEND
@ 053   ----------------------------------------
	.byte	PATT
	 .word	seawinds_5_037
@ 054   ----------------------------------------
	.byte	PATT
	 .word	seawinds_5_037
@ 055   ----------------------------------------
	.byte	PATT
	 .word	seawinds_5_039
@ 056   ----------------------------------------
	.byte	PATT
	 .word	seawinds_5_040
@ 057   ----------------------------------------
	.byte	PATT
	 .word	seawinds_5_041
@ 058   ----------------------------------------
	.byte	PATT
	 .word	seawinds_5_042
@ 059   ----------------------------------------
	.byte	PATT
	 .word	seawinds_5_043
@ 060   ----------------------------------------
	.byte	PATT
	 .word	seawinds_5_044
@ 061   ----------------------------------------
	.byte	PATT
	 .word	seawinds_5_037
@ 062   ----------------------------------------
	.byte	PATT
	 .word	seawinds_5_037
@ 063   ----------------------------------------
	.byte	PATT
	 .word	seawinds_5_039
@ 064   ----------------------------------------
	.byte	PATT
	 .word	seawinds_5_040
@ 065   ----------------------------------------
	.byte	PATT
	 .word	seawinds_5_049
@ 066   ----------------------------------------
	.byte	PATT
	 .word	seawinds_5_050
@ 067   ----------------------------------------
	.byte	PATT
	 .word	seawinds_5_051
@ 068   ----------------------------------------
	.byte	PATT
	 .word	seawinds_5_052
@ 069   ----------------------------------------
	.byte	W72
@ 070   ----------------------------------------
	.byte	W48
	.byte	GOTO
	 .word	seawinds_5_B1
seawinds_5_B2:
	.byte	FINE

@**************** Track 6 (Midi-Chn.6) ****************@

seawinds_6:
	.byte	KEYSH , seawinds_key+0
@ 000   ----------------------------------------
	.byte		VOICE , 40
	.byte		VOL   , 31*seawinds_mvl/mxv
	.byte	W48
seawinds_6_B1:
	.byte	W24
@ 001   ----------------------------------------
	.byte	W72
@ 002   ----------------------------------------
	.byte	W72
@ 003   ----------------------------------------
	.byte	W72
@ 004   ----------------------------------------
	.byte	W72
@ 005   ----------------------------------------
	.byte	W72
@ 006   ----------------------------------------
	.byte	W72
@ 007   ----------------------------------------
	.byte	W72
@ 008   ----------------------------------------
	.byte	W72
@ 009   ----------------------------------------
	.byte	W72
@ 010   ----------------------------------------
	.byte	W72
@ 011   ----------------------------------------
	.byte	W72
@ 012   ----------------------------------------
	.byte	W72
@ 013   ----------------------------------------
	.byte	W72
@ 014   ----------------------------------------
	.byte	W72
@ 015   ----------------------------------------
	.byte	W72
@ 016   ----------------------------------------
	.byte	W72
@ 017   ----------------------------------------
	.byte	W72
@ 018   ----------------------------------------
	.byte	W72
@ 019   ----------------------------------------
	.byte	W72
@ 020   ----------------------------------------
	.byte		TIE   , Dn3 , v127
	.byte	W72
@ 021   ----------------------------------------
	.byte	W72
	.byte		EOT   
@ 022   ----------------------------------------
	.byte		TIE   , Bn2 
	.byte	W72
@ 023   ----------------------------------------
	.byte	W72
	.byte		EOT   
@ 024   ----------------------------------------
	.byte		N72   , An2 
	.byte	W72
@ 025   ----------------------------------------
	.byte		        Dn3 
	.byte	W72
@ 026   ----------------------------------------
	.byte		        Bn2 
	.byte	W72
@ 027   ----------------------------------------
	.byte		        Cs3 
	.byte	W72
@ 028   ----------------------------------------
	.byte		TIE   , Dn3 
	.byte	W72
@ 029   ----------------------------------------
	.byte	W72
	.byte		EOT   
@ 030   ----------------------------------------
	.byte		TIE   , Bn2 
	.byte	W72
@ 031   ----------------------------------------
	.byte	W72
	.byte		EOT   
@ 032   ----------------------------------------
	.byte		N72   , An2 
	.byte	W72
@ 033   ----------------------------------------
	.byte		        Dn3 
	.byte	W72
@ 034   ----------------------------------------
	.byte		        Cs3 
	.byte	W72
@ 035   ----------------------------------------
	.byte		TIE   , Dn3 
	.byte	W72
@ 036   ----------------------------------------
	.byte	W72
	.byte		EOT   
@ 037   ----------------------------------------
	.byte		N72   , Bn2 
	.byte	W72
@ 038   ----------------------------------------
	.byte		        Fs3 
	.byte	W72
@ 039   ----------------------------------------
	.byte		        Dn3 
	.byte	W72
@ 040   ----------------------------------------
	.byte		        Cs3 
	.byte	W72
@ 041   ----------------------------------------
	.byte		TIE   , An2 
	.byte	W72
@ 042   ----------------------------------------
	.byte	W72
	.byte		EOT   
@ 043   ----------------------------------------
	.byte		TIE   , Fs2 
	.byte	W72
@ 044   ----------------------------------------
	.byte	W72
	.byte		EOT   
@ 045   ----------------------------------------
	.byte		N72   , Dn3 
	.byte	W72
@ 046   ----------------------------------------
	.byte		        Bn2 
	.byte	W72
@ 047   ----------------------------------------
	.byte		        En3 
	.byte	W72
@ 048   ----------------------------------------
	.byte		TIE   , Cs3 
	.byte	W72
@ 049   ----------------------------------------
	.byte	W72
	.byte		EOT   
@ 050   ----------------------------------------
	.byte		N72   , En3 
	.byte	W72
@ 051   ----------------------------------------
	.byte		TIE   , Ds3 
	.byte	W72
@ 052   ----------------------------------------
	.byte	W72
	.byte		EOT   
@ 053   ----------------------------------------
	.byte		N72   , Bn2 
	.byte	W72
@ 054   ----------------------------------------
	.byte		        Fs3 
	.byte	W72
@ 055   ----------------------------------------
	.byte		        Dn3 
	.byte	W72
@ 056   ----------------------------------------
	.byte		        Cs3 
	.byte	W72
@ 057   ----------------------------------------
	.byte		TIE   , An2 
	.byte	W72
@ 058   ----------------------------------------
	.byte	W72
	.byte		EOT   
@ 059   ----------------------------------------
	.byte		TIE   , Fs2 
	.byte	W72
@ 060   ----------------------------------------
	.byte	W72
	.byte		EOT   
@ 061   ----------------------------------------
	.byte		N72   , Dn3 
	.byte	W72
@ 062   ----------------------------------------
	.byte		        Bn2 
	.byte	W72
@ 063   ----------------------------------------
	.byte		        En3 
	.byte	W72
@ 064   ----------------------------------------
	.byte		TIE   , Cs3 
	.byte	W72
@ 065   ----------------------------------------
	.byte	W72
	.byte		EOT   
@ 066   ----------------------------------------
	.byte		N72   , En3 
	.byte	W72
@ 067   ----------------------------------------
	.byte		TIE   , Ds3 
	.byte	W72
@ 068   ----------------------------------------
	.byte	W72
	.byte		EOT   
@ 069   ----------------------------------------
	.byte	W72
@ 070   ----------------------------------------
	.byte	W48
	.byte	GOTO
	 .word	seawinds_6_B1
seawinds_6_B2:
	.byte	FINE

@******************************************************@
	.align	2

seawinds:
	.byte	6	@ NumTrks
	.byte	0	@ NumBlks
	.byte	seawinds_pri	@ Priority
	.byte	seawinds_rev	@ Reverb.

	.word	seawinds_grp

	.word	seawinds_1
	.word	seawinds_2
	.word	seawinds_3
	.word	seawinds_4
	.word	seawinds_5
	.word	seawinds_6

	.end
