//Event file generated from Sappy .s format.
	#include "MPlayDef.event"

	#define	seawinds_grp  voicegroup000
	#define	seawinds_pri  0
	#define	seawinds_rev  0
	#define	seawinds_mvl  85
	#define	seawinds_key  0
	#define	seawinds_tbs  1
	#define	seawinds_exg  0
	#define	seawinds_cmp  1

	// .rodata
	//	seawinds
	ALIGN 4

//**************** Track 1 (Midi-Chn.1) ****************//

seawinds_1:
	BYTE	KEYSH   seawinds_key+0
// 000   ----------------------------------------
	BYTE	TEMPO   130*seawinds_tbs/2
	BYTE		VOICE   73
	BYTE		VOL     68*seawinds_mvl/mxv
	BYTE	W48
seawinds_1_B1:
	BYTE		N12     Dn4   v127
	BYTE	W12
	BYTE		        En4 
	BYTE	W12
// 001   ----------------------------------------
seawinds_1_001:
	BYTE		N36     Fs4   v127
	BYTE	W36
	BYTE		N12     En4 
	BYTE	W12
	BYTE		N24     Fs4 
	BYTE	W24
	BYTE	PEND
// 002   ----------------------------------------
seawinds_1_002:
	BYTE		N24     Bn4   v127
	BYTE	W24
	BYTE		        An4 
	BYTE	W24
	BYTE		        Fs4 
	BYTE	W24
	BYTE	PEND
// 003   ----------------------------------------
	BYTE		        En4 
	BYTE	W24
	BYTE		        Dn4 
	BYTE	W24
	BYTE		        Bn3 
	BYTE	W24
// 004   ----------------------------------------
	BYTE	W48
	BYTE		        Dn4 
	BYTE	W24
// 005   ----------------------------------------
seawinds_1_005:
	BYTE		N24     An3   v127
	BYTE	W24
	BYTE		        Dn4 
	BYTE	W24
	BYTE		        En4 
	BYTE	W24
	BYTE	PEND
// 006   ----------------------------------------
seawinds_1_006:
	BYTE		N24     Fs4   v127
	BYTE	W24
	BYTE		N48     Gn4 
	BYTE	W48
	BYTE	PEND
// 007   ----------------------------------------
seawinds_1_007:
	BYTE		N24     Fs4   v127
	BYTE	W24
	BYTE		        En4 
	BYTE	W24
	BYTE		        Dn4 
	BYTE	W24
	BYTE	PEND
// 008   ----------------------------------------
seawinds_1_008:
	BYTE		N12     En4   v127
	BYTE	W24
	BYTE		N24     Fs4 
	BYTE	W24
	BYTE		        Gn4 
	BYTE	W24
	BYTE	PEND
// 009   ----------------------------------------
seawinds_1_009:
	BYTE		N24     An4   v127
	BYTE	W24
	BYTE		        Fs4 
	BYTE	W24
	BYTE		        An4 
	BYTE	W24
	BYTE	PEND
// 010   ----------------------------------------
seawinds_1_010:
	BYTE		N48     Dn5   v127
	BYTE	W48
	BYTE		N24     Cs5 
	BYTE	W24
	BYTE	PEND
// 011   ----------------------------------------
seawinds_1_011:
	BYTE		N24     Cs5   v127
	BYTE	W24
	BYTE		N84     Bn4 
	BYTE	W48
	BYTE	PEND
// 012   ----------------------------------------
	BYTE	W48
	BYTE		N24   
	BYTE	W24
// 013   ----------------------------------------
seawinds_1_013:
	BYTE		N24     An4   v127
	BYTE	W24
	BYTE		        Fs4 
	BYTE	W24
	BYTE		        Dn4 
	BYTE	W24
	BYTE	PEND
// 014   ----------------------------------------
seawinds_1_014:
	BYTE		N24     En4   v127
	BYTE	W24
	BYTE		N48     Fs4 
	BYTE	W48
	BYTE	PEND
// 015   ----------------------------------------
seawinds_1_015:
	BYTE		N24     An3   v127
	BYTE	W24
	BYTE		        Dn4 
	BYTE	W24
	BYTE		        Cs4 
	BYTE	W24
	BYTE	PEND
// 016   ----------------------------------------
	BYTE		TIE     Dn4 
	BYTE	W72
// 017   ----------------------------------------
	BYTE	W72
// 018   ----------------------------------------
	BYTE	W48
	BYTE		EOT   
	BYTE	W24
// 019   ----------------------------------------
	BYTE	W48
	BYTE		N12   
	BYTE	W12
	BYTE		        En4 
	BYTE	W12
// 020   ----------------------------------------
	BYTE	PATT
	 POIN2	seawinds_1_001
// 021   ----------------------------------------
	BYTE	PATT
	 POIN2	seawinds_1_002
// 022   ----------------------------------------
	BYTE		N24     En4   v127
	BYTE	W24
	BYTE		        Dn4 
	BYTE	W24
	BYTE		N48     Bn3 
	BYTE	W24
// 023   ----------------------------------------
	BYTE	W48
	BYTE		N24     Dn4 
	BYTE	W24
// 024   ----------------------------------------
	BYTE	PATT
	 POIN2	seawinds_1_005
// 025   ----------------------------------------
	BYTE	PATT
	 POIN2	seawinds_1_006
// 026   ----------------------------------------
	BYTE	PATT
	 POIN2	seawinds_1_007
// 027   ----------------------------------------
	BYTE	PATT
	 POIN2	seawinds_1_008
// 028   ----------------------------------------
	BYTE	PATT
	 POIN2	seawinds_1_009
// 029   ----------------------------------------
	BYTE	PATT
	 POIN2	seawinds_1_010
// 030   ----------------------------------------
	BYTE	PATT
	 POIN2	seawinds_1_011
// 031   ----------------------------------------
	BYTE	W48
	BYTE		N24     Bn4   v127
	BYTE	W24
// 032   ----------------------------------------
	BYTE	PATT
	 POIN2	seawinds_1_013
// 033   ----------------------------------------
	BYTE	PATT
	 POIN2	seawinds_1_014
// 034   ----------------------------------------
	BYTE	PATT
	 POIN2	seawinds_1_015
// 035   ----------------------------------------
	BYTE		TIE     Dn4   v127
	BYTE	W72
// 036   ----------------------------------------
	BYTE	W48
	BYTE		EOT   
	BYTE	W24
// 037   ----------------------------------------
seawinds_1_037:
	BYTE		N48     Bn3   v127
	BYTE	W48
	BYTE		N24     Fs4 
	BYTE	W24
	BYTE	PEND
// 038   ----------------------------------------
seawinds_1_038:
	BYTE		N48     Fs4   v127
	BYTE	W48
	BYTE		N12     En4 
	BYTE	W12
	BYTE		        Dn4 
	BYTE	W12
	BYTE	PEND
// 039   ----------------------------------------
seawinds_1_039:
	BYTE		N48     Cs4   v127
	BYTE	W48
	BYTE		N24     Dn4 
	BYTE	W24
	BYTE	PEND
// 040   ----------------------------------------
seawinds_1_040:
	BYTE		N48     En4   v127
	BYTE	W48
	BYTE		N24     An4 
	BYTE	W24
	BYTE	PEND
// 041   ----------------------------------------
	BYTE		N72     En4 
	BYTE	W72
// 042   ----------------------------------------
	BYTE	PATT
	 POIN2	seawinds_1_007
// 043   ----------------------------------------
	BYTE		N72     Cs4   v127
	BYTE	W72
// 044   ----------------------------------------
	BYTE		        Dn4 
	BYTE	W72
// 045   ----------------------------------------
	BYTE	PATT
	 POIN2	seawinds_1_037
// 046   ----------------------------------------
	BYTE	PATT
	 POIN2	seawinds_1_038
// 047   ----------------------------------------
	BYTE	PATT
	 POIN2	seawinds_1_039
// 048   ----------------------------------------
	BYTE	PATT
	 POIN2	seawinds_1_040
// 049   ----------------------------------------
	BYTE		N12     Bn4   v127
	BYTE	W12
	BYTE		        Cs5 
	BYTE	W12
	BYTE		N96     An4 
	BYTE	W48
// 050   ----------------------------------------
	BYTE	W48
	BYTE		N24     Fs4 
	BYTE	W24
// 051   ----------------------------------------
	BYTE		TIE     Bn4 
	BYTE	W72
// 052   ----------------------------------------
	BYTE	W48
	BYTE		EOT   
	BYTE	W24
// 053   ----------------------------------------
seawinds_1_053:
	BYTE		N48     Bn4   v127
	BYTE	W48
	BYTE		N24     Fs5 
	BYTE	W24
	BYTE	PEND
// 054   ----------------------------------------
seawinds_1_054:
	BYTE		N48     Fs5   v127
	BYTE	W48
	BYTE		N12     En5 
	BYTE	W12
	BYTE		        Dn5 
	BYTE	W12
	BYTE	PEND
// 055   ----------------------------------------
seawinds_1_055:
	BYTE		N48     Cs5   v127
	BYTE	W48
	BYTE		N24     Dn5 
	BYTE	W24
	BYTE	PEND
// 056   ----------------------------------------
seawinds_1_056:
	BYTE		N48     En5   v127
	BYTE	W48
	BYTE		N24     An5 
	BYTE	W24
	BYTE	PEND
// 057   ----------------------------------------
	BYTE		N72     En5 
	BYTE	W72
// 058   ----------------------------------------
	BYTE		N24     Fs5 
	BYTE	W24
	BYTE		        En5 
	BYTE	W24
	BYTE		        Dn5 
	BYTE	W24
// 059   ----------------------------------------
	BYTE		N72     Cs5 
	BYTE	W72
// 060   ----------------------------------------
	BYTE		        Dn5 
	BYTE	W72
// 061   ----------------------------------------
	BYTE	PATT
	 POIN2	seawinds_1_053
// 062   ----------------------------------------
	BYTE	PATT
	 POIN2	seawinds_1_054
// 063   ----------------------------------------
	BYTE	PATT
	 POIN2	seawinds_1_055
// 064   ----------------------------------------
	BYTE	PATT
	 POIN2	seawinds_1_056
// 065   ----------------------------------------
	BYTE		N12     Bn5   v127
	BYTE	W12
	BYTE		        Cs6 
	BYTE	W12
	BYTE		N96     An5 
	BYTE	W48
// 066   ----------------------------------------
	BYTE	W48
	BYTE		N24     Fs5 
	BYTE	W24
// 067   ----------------------------------------
	BYTE		TIE     Bn5 
	BYTE	W72
// 068   ----------------------------------------
	BYTE	W48
	BYTE		EOT   
	BYTE	W24
// 069   ----------------------------------------
	BYTE	W12
	BYTE		N12     Bn4 
	BYTE	W12
	BYTE		        An4 
	BYTE	W12
	BYTE		        En4 
	BYTE	W12
	BYTE		        Fs4 
	BYTE	W12
	BYTE		        Bn3 
	BYTE	W12
// 070   ----------------------------------------
	BYTE		N24     Cs4 
	BYTE	W24
	BYTE		        An3 
	BYTE	W24
	BYTE	GoTo
	 POIN2	seawinds_1_B1
seawinds_1_B2:
	BYTE	FINE

//**************** Track 2 (Midi-Chn.2) ****************//

seawinds_2:
	BYTE	KEYSH   seawinds_key+0
// 000   ----------------------------------------
	BYTE		VOICE   21
	BYTE		VOL     47*seawinds_mvl/mxv
	BYTE	W48
seawinds_2_B1:
	BYTE		N12     Dn3   v127
	BYTE	W12
	BYTE		        En3 
	BYTE	W12
// 001   ----------------------------------------
seawinds_2_001:
	BYTE		N36     Fs3   v127
	BYTE	W36
	BYTE		N12     En3 
	BYTE	W12
	BYTE		N24     Fs3 
	BYTE	W24
	BYTE	PEND
// 002   ----------------------------------------
seawinds_2_002:
	BYTE		N24     Bn3   v127
	BYTE	W24
	BYTE		        An3 
	BYTE	W24
	BYTE		        Fs3 
	BYTE	W24
	BYTE	PEND
// 003   ----------------------------------------
	BYTE		        En3 
	BYTE	W24
	BYTE		        Dn3 
	BYTE	W24
	BYTE		        Bn2 
	BYTE	W24
// 004   ----------------------------------------
	BYTE	W48
	BYTE		        Dn3 
	BYTE	W24
// 005   ----------------------------------------
seawinds_2_005:
	BYTE		N24     An2   v127
	BYTE	W24
	BYTE		        Dn3 
	BYTE	W24
	BYTE		        En3 
	BYTE	W24
	BYTE	PEND
// 006   ----------------------------------------
seawinds_2_006:
	BYTE		N24     Fs3   v127
	BYTE	W24
	BYTE		N48     Gn3 
	BYTE	W48
	BYTE	PEND
// 007   ----------------------------------------
seawinds_2_007:
	BYTE		N24     Fs3   v127
	BYTE	W24
	BYTE		        En3 
	BYTE	W24
	BYTE		        Dn3 
	BYTE	W24
	BYTE	PEND
// 008   ----------------------------------------
seawinds_2_008:
	BYTE		N12     En3   v127
	BYTE	W24
	BYTE		N24     Fs3 
	BYTE	W24
	BYTE		        Gn3 
	BYTE	W24
	BYTE	PEND
// 009   ----------------------------------------
seawinds_2_009:
	BYTE		N24     An3   v127
	BYTE	W24
	BYTE		        Fs3 
	BYTE	W24
	BYTE		        An3 
	BYTE	W24
	BYTE	PEND
// 010   ----------------------------------------
seawinds_2_010:
	BYTE		N48     Dn4   v127
	BYTE	W48
	BYTE		N24     Cs4 
	BYTE	W24
	BYTE	PEND
// 011   ----------------------------------------
seawinds_2_011:
	BYTE		N24     Cs4   v127
	BYTE	W24
	BYTE		N84     Bn3 
	BYTE	W48
	BYTE	PEND
// 012   ----------------------------------------
	BYTE	W48
	BYTE		N24   
	BYTE	W24
// 013   ----------------------------------------
seawinds_2_013:
	BYTE		N24     An3   v127
	BYTE	W24
	BYTE		        Fs3 
	BYTE	W24
	BYTE		        Dn3 
	BYTE	W24
	BYTE	PEND
// 014   ----------------------------------------
seawinds_2_014:
	BYTE		N24     En3   v127
	BYTE	W24
	BYTE		N48     Fs3 
	BYTE	W48
	BYTE	PEND
// 015   ----------------------------------------
seawinds_2_015:
	BYTE		N24     An2   v127
	BYTE	W24
	BYTE		        Dn3 
	BYTE	W24
	BYTE		        Cs3 
	BYTE	W24
	BYTE	PEND
// 016   ----------------------------------------
	BYTE		TIE     Dn3 
	BYTE	W72
// 017   ----------------------------------------
	BYTE	W72
// 018   ----------------------------------------
	BYTE	W48
	BYTE		EOT   
	BYTE	W24
// 019   ----------------------------------------
	BYTE	W48
	BYTE		N12   
	BYTE	W12
	BYTE		        En3 
	BYTE	W12
// 020   ----------------------------------------
	BYTE	PATT
	 POIN2	seawinds_2_001
// 021   ----------------------------------------
	BYTE	PATT
	 POIN2	seawinds_2_002
// 022   ----------------------------------------
	BYTE		N24     En3   v127
	BYTE	W24
	BYTE		        Dn3 
	BYTE	W24
	BYTE		N48     Bn2 
	BYTE	W24
// 023   ----------------------------------------
	BYTE	W48
	BYTE		N24     Dn3 
	BYTE	W24
// 024   ----------------------------------------
	BYTE	PATT
	 POIN2	seawinds_2_005
// 025   ----------------------------------------
	BYTE	PATT
	 POIN2	seawinds_2_006
// 026   ----------------------------------------
	BYTE	PATT
	 POIN2	seawinds_2_007
// 027   ----------------------------------------
	BYTE	PATT
	 POIN2	seawinds_2_008
// 028   ----------------------------------------
	BYTE	PATT
	 POIN2	seawinds_2_009
// 029   ----------------------------------------
	BYTE	PATT
	 POIN2	seawinds_2_010
// 030   ----------------------------------------
	BYTE	PATT
	 POIN2	seawinds_2_011
// 031   ----------------------------------------
	BYTE	W48
	BYTE		N24     Bn3   v127
	BYTE	W24
// 032   ----------------------------------------
	BYTE	PATT
	 POIN2	seawinds_2_013
// 033   ----------------------------------------
	BYTE	PATT
	 POIN2	seawinds_2_014
// 034   ----------------------------------------
	BYTE	PATT
	 POIN2	seawinds_2_015
// 035   ----------------------------------------
	BYTE		TIE     Dn3   v127
	BYTE	W72
// 036   ----------------------------------------
	BYTE	W48
	BYTE		EOT   
	BYTE	W24
// 037   ----------------------------------------
seawinds_2_037:
	BYTE		N48     Bn2   v127
	BYTE	W48
	BYTE		N24     Fs3 
	BYTE	W24
	BYTE	PEND
// 038   ----------------------------------------
seawinds_2_038:
	BYTE		N48     Fs3   v127
	BYTE	W48
	BYTE		N12     En3 
	BYTE	W12
	BYTE		        Dn3 
	BYTE	W12
	BYTE	PEND
// 039   ----------------------------------------
seawinds_2_039:
	BYTE		N48     Cs3   v127
	BYTE	W48
	BYTE		N24     Dn3 
	BYTE	W24
	BYTE	PEND
// 040   ----------------------------------------
seawinds_2_040:
	BYTE		N48     En3   v127
	BYTE	W48
	BYTE		N24     An3 
	BYTE	W24
	BYTE	PEND
// 041   ----------------------------------------
	BYTE		N72     En3 
	BYTE	W72
// 042   ----------------------------------------
	BYTE	PATT
	 POIN2	seawinds_2_007
// 043   ----------------------------------------
	BYTE		N72     Cs3   v127
	BYTE	W72
// 044   ----------------------------------------
	BYTE		        Dn3 
	BYTE	W72
// 045   ----------------------------------------
	BYTE	PATT
	 POIN2	seawinds_2_037
// 046   ----------------------------------------
	BYTE	PATT
	 POIN2	seawinds_2_038
// 047   ----------------------------------------
	BYTE	PATT
	 POIN2	seawinds_2_039
// 048   ----------------------------------------
	BYTE	PATT
	 POIN2	seawinds_2_040
// 049   ----------------------------------------
seawinds_2_049:
	BYTE		N12     Bn3   v127
	BYTE	W12
	BYTE		        Cs4 
	BYTE	W12
	BYTE		N96     An3 
	BYTE	W48
	BYTE	PEND
// 050   ----------------------------------------
	BYTE	W48
	BYTE		N24     Fs3 
	BYTE	W24
// 051   ----------------------------------------
	BYTE		TIE     Bn3 
	BYTE	W72
// 052   ----------------------------------------
	BYTE	W48
	BYTE		EOT   
	BYTE	W24
// 053   ----------------------------------------
	BYTE	PATT
	 POIN2	seawinds_2_037
// 054   ----------------------------------------
	BYTE	PATT
	 POIN2	seawinds_2_038
// 055   ----------------------------------------
	BYTE	PATT
	 POIN2	seawinds_2_039
// 056   ----------------------------------------
	BYTE	PATT
	 POIN2	seawinds_2_040
// 057   ----------------------------------------
	BYTE		N72     En3   v127
	BYTE	W72
// 058   ----------------------------------------
	BYTE	PATT
	 POIN2	seawinds_2_007
// 059   ----------------------------------------
	BYTE		N72     Cs3   v127
	BYTE	W72
// 060   ----------------------------------------
	BYTE		        Dn3 
	BYTE	W72
// 061   ----------------------------------------
	BYTE	PATT
	 POIN2	seawinds_2_037
// 062   ----------------------------------------
	BYTE	PATT
	 POIN2	seawinds_2_038
// 063   ----------------------------------------
	BYTE	PATT
	 POIN2	seawinds_2_039
// 064   ----------------------------------------
	BYTE	PATT
	 POIN2	seawinds_2_040
// 065   ----------------------------------------
	BYTE	PATT
	 POIN2	seawinds_2_049
// 066   ----------------------------------------
	BYTE	W48
	BYTE		N24     Fs3   v127
	BYTE	W24
// 067   ----------------------------------------
	BYTE		TIE     Bn3 
	BYTE	W72
// 068   ----------------------------------------
	BYTE	W48
	BYTE		EOT   
	BYTE	W24
// 069   ----------------------------------------
	BYTE	W72
// 070   ----------------------------------------
	BYTE	W48
	BYTE	GoTo
	 POIN2	seawinds_2_B1
seawinds_2_B2:
	BYTE	FINE

//**************** Track 3 (Midi-Chn.3) ****************//

seawinds_3:
	BYTE	KEYSH   seawinds_key+0
// 000   ----------------------------------------
	BYTE		VOICE   127
	BYTE		VOL     55*seawinds_mvl/mxv
	BYTE		N12     En3   v127
	BYTE	W12
	BYTE		        Ds3 
	BYTE	W12
	BYTE		N12   
	BYTE	W12
	BYTE		        En3 
	BYTE	W12
seawinds_3_B1:
	BYTE		N12     Ds3   v127
	BYTE	W12
	BYTE		        En3 
	BYTE	W12
// 001   ----------------------------------------
seawinds_3_001:
	BYTE		N24     En3   v127
	BYTE	W24
	BYTE		N12     Ds3 
	BYTE	W12
	BYTE		N12   
	BYTE	W12
	BYTE		N24     En3 
	BYTE	W24
	BYTE	PEND
// 002   ----------------------------------------
	BYTE	PATT
	 POIN2	seawinds_3_001
// 003   ----------------------------------------
	BYTE	PATT
	 POIN2	seawinds_3_001
// 004   ----------------------------------------
	BYTE	PATT
	 POIN2	seawinds_3_001
// 005   ----------------------------------------
	BYTE	PATT
	 POIN2	seawinds_3_001
// 006   ----------------------------------------
	BYTE	PATT
	 POIN2	seawinds_3_001
// 007   ----------------------------------------
	BYTE	PATT
	 POIN2	seawinds_3_001
// 008   ----------------------------------------
	BYTE	PATT
	 POIN2	seawinds_3_001
// 009   ----------------------------------------
	BYTE	PATT
	 POIN2	seawinds_3_001
// 010   ----------------------------------------
	BYTE	PATT
	 POIN2	seawinds_3_001
// 011   ----------------------------------------
	BYTE	PATT
	 POIN2	seawinds_3_001
// 012   ----------------------------------------
	BYTE	PATT
	 POIN2	seawinds_3_001
// 013   ----------------------------------------
	BYTE	PATT
	 POIN2	seawinds_3_001
// 014   ----------------------------------------
	BYTE	PATT
	 POIN2	seawinds_3_001
// 015   ----------------------------------------
	BYTE	PATT
	 POIN2	seawinds_3_001
// 016   ----------------------------------------
	BYTE	PATT
	 POIN2	seawinds_3_001
// 017   ----------------------------------------
	BYTE	PATT
	 POIN2	seawinds_3_001
// 018   ----------------------------------------
	BYTE	PATT
	 POIN2	seawinds_3_001
// 019   ----------------------------------------
	BYTE	PATT
	 POIN2	seawinds_3_001
// 020   ----------------------------------------
	BYTE		N12     En3   v127
	BYTE	W12
	BYTE		        Ds3 
	BYTE	W12
	BYTE		N12   
	BYTE	W12
	BYTE		        En3 
	BYTE	W12
	BYTE		        Ds3 
	BYTE	W12
	BYTE		        En3 
	BYTE	W12
// 021   ----------------------------------------
	BYTE	PATT
	 POIN2	seawinds_3_001
// 022   ----------------------------------------
	BYTE	PATT
	 POIN2	seawinds_3_001
// 023   ----------------------------------------
	BYTE	PATT
	 POIN2	seawinds_3_001
// 024   ----------------------------------------
	BYTE	PATT
	 POIN2	seawinds_3_001
// 025   ----------------------------------------
	BYTE	PATT
	 POIN2	seawinds_3_001
// 026   ----------------------------------------
	BYTE	PATT
	 POIN2	seawinds_3_001
// 027   ----------------------------------------
	BYTE	PATT
	 POIN2	seawinds_3_001
// 028   ----------------------------------------
	BYTE	PATT
	 POIN2	seawinds_3_001
// 029   ----------------------------------------
	BYTE	PATT
	 POIN2	seawinds_3_001
// 030   ----------------------------------------
	BYTE	PATT
	 POIN2	seawinds_3_001
// 031   ----------------------------------------
	BYTE	PATT
	 POIN2	seawinds_3_001
// 032   ----------------------------------------
	BYTE	PATT
	 POIN2	seawinds_3_001
// 033   ----------------------------------------
	BYTE	PATT
	 POIN2	seawinds_3_001
// 034   ----------------------------------------
	BYTE	PATT
	 POIN2	seawinds_3_001
// 035   ----------------------------------------
	BYTE	PATT
	 POIN2	seawinds_3_001
// 036   ----------------------------------------
	BYTE	PATT
	 POIN2	seawinds_3_001
// 037   ----------------------------------------
	BYTE	PATT
	 POIN2	seawinds_3_001
// 038   ----------------------------------------
	BYTE	PATT
	 POIN2	seawinds_3_001
// 039   ----------------------------------------
	BYTE	PATT
	 POIN2	seawinds_3_001
// 040   ----------------------------------------
	BYTE	PATT
	 POIN2	seawinds_3_001
// 041   ----------------------------------------
	BYTE	PATT
	 POIN2	seawinds_3_001
// 042   ----------------------------------------
	BYTE	PATT
	 POIN2	seawinds_3_001
// 043   ----------------------------------------
	BYTE	PATT
	 POIN2	seawinds_3_001
// 044   ----------------------------------------
	BYTE	PATT
	 POIN2	seawinds_3_001
// 045   ----------------------------------------
	BYTE	PATT
	 POIN2	seawinds_3_001
// 046   ----------------------------------------
	BYTE	PATT
	 POIN2	seawinds_3_001
// 047   ----------------------------------------
	BYTE	PATT
	 POIN2	seawinds_3_001
// 048   ----------------------------------------
	BYTE	PATT
	 POIN2	seawinds_3_001
// 049   ----------------------------------------
	BYTE	PATT
	 POIN2	seawinds_3_001
// 050   ----------------------------------------
	BYTE	PATT
	 POIN2	seawinds_3_001
// 051   ----------------------------------------
	BYTE	PATT
	 POIN2	seawinds_3_001
// 052   ----------------------------------------
	BYTE	PATT
	 POIN2	seawinds_3_001
// 053   ----------------------------------------
	BYTE	PATT
	 POIN2	seawinds_3_001
// 054   ----------------------------------------
	BYTE	PATT
	 POIN2	seawinds_3_001
// 055   ----------------------------------------
	BYTE	PATT
	 POIN2	seawinds_3_001
// 056   ----------------------------------------
	BYTE	PATT
	 POIN2	seawinds_3_001
// 057   ----------------------------------------
	BYTE	PATT
	 POIN2	seawinds_3_001
// 058   ----------------------------------------
	BYTE	PATT
	 POIN2	seawinds_3_001
// 059   ----------------------------------------
	BYTE	PATT
	 POIN2	seawinds_3_001
// 060   ----------------------------------------
	BYTE	PATT
	 POIN2	seawinds_3_001
// 061   ----------------------------------------
	BYTE	PATT
	 POIN2	seawinds_3_001
// 062   ----------------------------------------
	BYTE	PATT
	 POIN2	seawinds_3_001
// 063   ----------------------------------------
	BYTE	PATT
	 POIN2	seawinds_3_001
// 064   ----------------------------------------
	BYTE	PATT
	 POIN2	seawinds_3_001
// 065   ----------------------------------------
	BYTE	PATT
	 POIN2	seawinds_3_001
// 066   ----------------------------------------
	BYTE	PATT
	 POIN2	seawinds_3_001
// 067   ----------------------------------------
	BYTE	PATT
	 POIN2	seawinds_3_001
// 068   ----------------------------------------
	BYTE	PATT
	 POIN2	seawinds_3_001
// 069   ----------------------------------------
	BYTE	PATT
	 POIN2	seawinds_3_001
// 070   ----------------------------------------
	BYTE		N24     En3   v127
	BYTE	W24
	BYTE		N12     Ds3 
	BYTE	W12
	BYTE		N12   
	BYTE	W12
	BYTE	GoTo
	 POIN2	seawinds_3_B1
seawinds_3_B2:
	BYTE	FINE

//**************** Track 4 (Midi-Chn.4) ****************//

seawinds_4:
	BYTE	KEYSH   seawinds_key+0
// 000   ----------------------------------------
	BYTE		VOICE   127
	BYTE		VOL     41*seawinds_mvl/mxv
	BYTE		N12     Cn1   v127
	BYTE	W36
	BYTE		N12   
	BYTE	W12
seawinds_4_B1:
	BYTE		N12     Cn1   v127
	BYTE	W24
// 001   ----------------------------------------
	BYTE		N12   
	BYTE	W72
// 002   ----------------------------------------
	BYTE		N12   
	BYTE	W72
// 003   ----------------------------------------
	BYTE		N12   
	BYTE	W72
// 004   ----------------------------------------
	BYTE		N12   
	BYTE	W72
// 005   ----------------------------------------
	BYTE		N12   
	BYTE	W72
// 006   ----------------------------------------
	BYTE		N12   
	BYTE	W72
// 007   ----------------------------------------
	BYTE		N12   
	BYTE	W72
// 008   ----------------------------------------
	BYTE		N12   
	BYTE	W72
// 009   ----------------------------------------
	BYTE		N12   
	BYTE	W72
// 010   ----------------------------------------
	BYTE		N12   
	BYTE	W72
// 011   ----------------------------------------
	BYTE		N12   
	BYTE	W72
// 012   ----------------------------------------
	BYTE		N12   
	BYTE	W72
// 013   ----------------------------------------
	BYTE		N12   
	BYTE	W72
// 014   ----------------------------------------
	BYTE		N12   
	BYTE	W72
// 015   ----------------------------------------
	BYTE		N12   
	BYTE	W72
// 016   ----------------------------------------
	BYTE		N12   
	BYTE	W72
// 017   ----------------------------------------
	BYTE		N12   
	BYTE	W72
// 018   ----------------------------------------
	BYTE		N12   
	BYTE	W72
// 019   ----------------------------------------
	BYTE		N12   
	BYTE	W72
// 020   ----------------------------------------
	BYTE		N12   
	BYTE	W72
// 021   ----------------------------------------
	BYTE		N12   
	BYTE	W72
// 022   ----------------------------------------
	BYTE		N12   
	BYTE	W72
// 023   ----------------------------------------
	BYTE		N12   
	BYTE	W72
// 024   ----------------------------------------
	BYTE		N12   
	BYTE	W72
// 025   ----------------------------------------
	BYTE		N12   
	BYTE	W72
// 026   ----------------------------------------
	BYTE		N12   
	BYTE	W72
// 027   ----------------------------------------
	BYTE		N12   
	BYTE	W72
// 028   ----------------------------------------
	BYTE		N12   
	BYTE	W72
// 029   ----------------------------------------
	BYTE		N12   
	BYTE	W72
// 030   ----------------------------------------
	BYTE		N12   
	BYTE	W72
// 031   ----------------------------------------
	BYTE		N12   
	BYTE	W72
// 032   ----------------------------------------
	BYTE		N12   
	BYTE	W72
// 033   ----------------------------------------
	BYTE		N12   
	BYTE	W72
// 034   ----------------------------------------
	BYTE		N12   
	BYTE	W72
// 035   ----------------------------------------
	BYTE		N12   
	BYTE	W72
// 036   ----------------------------------------
	BYTE		N12   
	BYTE	W72
// 037   ----------------------------------------
	BYTE		N12   
	BYTE	W72
// 038   ----------------------------------------
	BYTE		N12   
	BYTE	W72
// 039   ----------------------------------------
	BYTE		N12   
	BYTE	W72
// 040   ----------------------------------------
	BYTE		N12   
	BYTE	W72
// 041   ----------------------------------------
	BYTE		N12   
	BYTE	W72
// 042   ----------------------------------------
	BYTE		N12   
	BYTE	W72
// 043   ----------------------------------------
	BYTE		N12   
	BYTE	W72
// 044   ----------------------------------------
	BYTE		N12   
	BYTE	W72
// 045   ----------------------------------------
	BYTE		N12   
	BYTE	W72
// 046   ----------------------------------------
	BYTE		N12   
	BYTE	W72
// 047   ----------------------------------------
	BYTE		N12   
	BYTE	W72
// 048   ----------------------------------------
	BYTE		N12   
	BYTE	W72
// 049   ----------------------------------------
	BYTE		N12   
	BYTE	W72
// 050   ----------------------------------------
	BYTE		N12   
	BYTE	W72
// 051   ----------------------------------------
	BYTE		N12   
	BYTE	W72
// 052   ----------------------------------------
	BYTE		N12   
	BYTE	W72
// 053   ----------------------------------------
	BYTE		N12   
	BYTE	W72
// 054   ----------------------------------------
	BYTE		N12   
	BYTE	W72
// 055   ----------------------------------------
	BYTE		N12   
	BYTE	W72
// 056   ----------------------------------------
	BYTE		N12   
	BYTE	W72
// 057   ----------------------------------------
	BYTE		N12   
	BYTE	W72
// 058   ----------------------------------------
	BYTE		N12   
	BYTE	W72
// 059   ----------------------------------------
	BYTE		N12   
	BYTE	W72
// 060   ----------------------------------------
	BYTE		N12   
	BYTE	W72
// 061   ----------------------------------------
	BYTE		N12   
	BYTE	W72
// 062   ----------------------------------------
	BYTE		N12   
	BYTE	W72
// 063   ----------------------------------------
	BYTE		N12   
	BYTE	W72
// 064   ----------------------------------------
	BYTE		N12   
	BYTE	W72
// 065   ----------------------------------------
	BYTE		N12   
	BYTE	W72
// 066   ----------------------------------------
	BYTE		N12   
	BYTE	W72
// 067   ----------------------------------------
	BYTE		N12   
	BYTE	W72
// 068   ----------------------------------------
	BYTE		N12   
	BYTE	W72
// 069   ----------------------------------------
	BYTE	W72
// 070   ----------------------------------------
	BYTE	W48
	BYTE	GoTo
	 POIN2	seawinds_4_B1
seawinds_4_B2:
	BYTE	FINE

//**************** Track 5 (Midi-Chn.5) ****************//

seawinds_5:
	BYTE	KEYSH   seawinds_key+0
// 000   ----------------------------------------
	BYTE		VOICE   24
	BYTE		VOL     67*seawinds_mvl/mxv
	BYTE	W48
seawinds_5_B1:
	BYTE	W24
// 001   ----------------------------------------
seawinds_5_001:
	BYTE		N12     Dn2   v127
	BYTE	W12
	BYTE		        An2 
	BYTE	W12
	BYTE		N48     Dn3 
	BYTE	W48
	BYTE	PEND
// 002   ----------------------------------------
seawinds_5_002:
	BYTE		N12     Fs2   v127
	BYTE	W12
	BYTE		        An2 
	BYTE	W12
	BYTE		N48     Dn3 
	BYTE	W48
	BYTE	PEND
// 003   ----------------------------------------
seawinds_5_003:
	BYTE		N12     En2   v127
	BYTE	W12
	BYTE		        Bn2 
	BYTE	W12
	BYTE		N48     En3 
	BYTE	W48
	BYTE	PEND
// 004   ----------------------------------------
seawinds_5_004:
	BYTE		N12     Dn2   v127
	BYTE	W12
	BYTE		        Bn2 
	BYTE	W12
	BYTE		N48     En3 
	BYTE	W48
	BYTE	PEND
// 005   ----------------------------------------
	BYTE	PATT
	 POIN2	seawinds_5_001
// 006   ----------------------------------------
	BYTE	PATT
	 POIN2	seawinds_5_002
// 007   ----------------------------------------
seawinds_5_007:
	BYTE		N12     Fs2   v127
	BYTE	W12
	BYTE		        Bn2 
	BYTE	W12
	BYTE		N48     En3 
	BYTE	W48
	BYTE	PEND
// 008   ----------------------------------------
	BYTE	PATT
	 POIN2	seawinds_5_003
// 009   ----------------------------------------
seawinds_5_009:
	BYTE		N12     Dn2   v127
	BYTE	W12
	BYTE		        Dn3 
	BYTE	W12
	BYTE		N48     Fs3 
	BYTE	W48
	BYTE	PEND
// 010   ----------------------------------------
seawinds_5_010:
	BYTE		N12     Gn2   v127
	BYTE	W12
	BYTE		        Dn3 
	BYTE	W12
	BYTE		N48     Fs3 
	BYTE	W48
	BYTE	PEND
// 011   ----------------------------------------
seawinds_5_011:
	BYTE		N12     Fs2   v127
	BYTE	W12
	BYTE		        Dn3 
	BYTE	W12
	BYTE		N48     En3 
	BYTE	W48
	BYTE	PEND
// 012   ----------------------------------------
seawinds_5_012:
	BYTE		N12     Gn2   v127
	BYTE	W12
	BYTE		        Dn3 
	BYTE	W12
	BYTE		N48     En3 
	BYTE	W48
	BYTE	PEND
// 013   ----------------------------------------
seawinds_5_013:
	BYTE		N12     En2   v127
	BYTE	W12
	BYTE		        Bn2 
	BYTE	W12
	BYTE		N48     Dn3 
	BYTE	W48
	BYTE	PEND
// 014   ----------------------------------------
seawinds_5_014:
	BYTE		N12     Fs2   v127
	BYTE	W12
	BYTE		        Bn2 
	BYTE	W12
	BYTE		N48     Dn3 
	BYTE	W48
	BYTE	PEND
// 015   ----------------------------------------
	BYTE	PATT
	 POIN2	seawinds_5_013
// 016   ----------------------------------------
	BYTE	PATT
	 POIN2	seawinds_5_001
// 017   ----------------------------------------
	BYTE	PATT
	 POIN2	seawinds_5_001
// 018   ----------------------------------------
	BYTE	PATT
	 POIN2	seawinds_5_001
// 019   ----------------------------------------
	BYTE	PATT
	 POIN2	seawinds_5_002
// 020   ----------------------------------------
	BYTE	PATT
	 POIN2	seawinds_5_001
// 021   ----------------------------------------
	BYTE	PATT
	 POIN2	seawinds_5_002
// 022   ----------------------------------------
	BYTE	PATT
	 POIN2	seawinds_5_003
// 023   ----------------------------------------
	BYTE	PATT
	 POIN2	seawinds_5_004
// 024   ----------------------------------------
	BYTE	PATT
	 POIN2	seawinds_5_001
// 025   ----------------------------------------
	BYTE	PATT
	 POIN2	seawinds_5_002
// 026   ----------------------------------------
	BYTE	PATT
	 POIN2	seawinds_5_007
// 027   ----------------------------------------
	BYTE	PATT
	 POIN2	seawinds_5_003
// 028   ----------------------------------------
	BYTE	PATT
	 POIN2	seawinds_5_009
// 029   ----------------------------------------
	BYTE	PATT
	 POIN2	seawinds_5_010
// 030   ----------------------------------------
	BYTE	PATT
	 POIN2	seawinds_5_011
// 031   ----------------------------------------
	BYTE	PATT
	 POIN2	seawinds_5_012
// 032   ----------------------------------------
	BYTE	PATT
	 POIN2	seawinds_5_013
// 033   ----------------------------------------
	BYTE	PATT
	 POIN2	seawinds_5_014
// 034   ----------------------------------------
	BYTE	PATT
	 POIN2	seawinds_5_013
// 035   ----------------------------------------
	BYTE	PATT
	 POIN2	seawinds_5_001
// 036   ----------------------------------------
	BYTE	PATT
	 POIN2	seawinds_5_002
// 037   ----------------------------------------
seawinds_5_037:
	BYTE		N24     Bn1   v127
	BYTE	W24
	BYTE		        Fs2 
	BYTE	W24
	BYTE		        Bn2 
	BYTE	W24
	BYTE	PEND
// 038   ----------------------------------------
	BYTE	PATT
	 POIN2	seawinds_5_037
// 039   ----------------------------------------
seawinds_5_039:
	BYTE		N24     Bn1   v127
	BYTE	W24
	BYTE		        Fs2 
	BYTE	W24
	BYTE		        Cs3 
	BYTE	W24
	BYTE	PEND
// 040   ----------------------------------------
seawinds_5_040:
	BYTE		N24     Cs2   v127
	BYTE	W24
	BYTE		        Fs2 
	BYTE	W24
	BYTE		        Cs3 
	BYTE	W24
	BYTE	PEND
// 041   ----------------------------------------
seawinds_5_041:
	BYTE		N24     Dn2   v127
	BYTE	W24
	BYTE		        An2 
	BYTE	W24
	BYTE		        Fs3 
	BYTE	W24
	BYTE	PEND
// 042   ----------------------------------------
seawinds_5_042:
	BYTE		N24     Cs2   v127
	BYTE	W24
	BYTE		        An2 
	BYTE	W24
	BYTE		        Fs3 
	BYTE	W24
	BYTE	PEND
// 043   ----------------------------------------
seawinds_5_043:
	BYTE		N24     Cs2   v127
	BYTE	W24
	BYTE		        An2 
	BYTE	W24
	BYTE		        En3 
	BYTE	W24
	BYTE	PEND
// 044   ----------------------------------------
seawinds_5_044:
	BYTE		N24     Cs2   v127
	BYTE	W24
	BYTE		        Gn2 
	BYTE	W24
	BYTE		        Dn3 
	BYTE	W24
	BYTE	PEND
// 045   ----------------------------------------
	BYTE	PATT
	 POIN2	seawinds_5_037
// 046   ----------------------------------------
	BYTE	PATT
	 POIN2	seawinds_5_037
// 047   ----------------------------------------
	BYTE	PATT
	 POIN2	seawinds_5_039
// 048   ----------------------------------------
	BYTE	PATT
	 POIN2	seawinds_5_040
// 049   ----------------------------------------
seawinds_5_049:
	BYTE		N24     Cs2   v127
	BYTE	W24
	BYTE		        An2 
	BYTE	W24
	BYTE		        Cs3 
	BYTE	W24
	BYTE	PEND
// 050   ----------------------------------------
seawinds_5_050:
	BYTE		N24     Fs3   v127
	BYTE	W24
	BYTE		        Cs3 
	BYTE	W24
	BYTE		        Fs2 
	BYTE	W24
	BYTE	PEND
// 051   ----------------------------------------
seawinds_5_051:
	BYTE		N24     Fs2   v127
	BYTE	W24
	BYTE		        Ds3 
	BYTE	W24
	BYTE		        En3 
	BYTE	W24
	BYTE	PEND
// 052   ----------------------------------------
seawinds_5_052:
	BYTE		N24     Fs3   v127
	BYTE	W24
	BYTE		        En3 
	BYTE	W24
	BYTE		        Ds3 
	BYTE	W24
	BYTE	PEND
// 053   ----------------------------------------
	BYTE	PATT
	 POIN2	seawinds_5_037
// 054   ----------------------------------------
	BYTE	PATT
	 POIN2	seawinds_5_037
// 055   ----------------------------------------
	BYTE	PATT
	 POIN2	seawinds_5_039
// 056   ----------------------------------------
	BYTE	PATT
	 POIN2	seawinds_5_040
// 057   ----------------------------------------
	BYTE	PATT
	 POIN2	seawinds_5_041
// 058   ----------------------------------------
	BYTE	PATT
	 POIN2	seawinds_5_042
// 059   ----------------------------------------
	BYTE	PATT
	 POIN2	seawinds_5_043
// 060   ----------------------------------------
	BYTE	PATT
	 POIN2	seawinds_5_044
// 061   ----------------------------------------
	BYTE	PATT
	 POIN2	seawinds_5_037
// 062   ----------------------------------------
	BYTE	PATT
	 POIN2	seawinds_5_037
// 063   ----------------------------------------
	BYTE	PATT
	 POIN2	seawinds_5_039
// 064   ----------------------------------------
	BYTE	PATT
	 POIN2	seawinds_5_040
// 065   ----------------------------------------
	BYTE	PATT
	 POIN2	seawinds_5_049
// 066   ----------------------------------------
	BYTE	PATT
	 POIN2	seawinds_5_050
// 067   ----------------------------------------
	BYTE	PATT
	 POIN2	seawinds_5_051
// 068   ----------------------------------------
	BYTE	PATT
	 POIN2	seawinds_5_052
// 069   ----------------------------------------
	BYTE	W72
// 070   ----------------------------------------
	BYTE	W48
	BYTE	GoTo
	 POIN2	seawinds_5_B1
seawinds_5_B2:
	BYTE	FINE

//**************** Track 6 (Midi-Chn.6) ****************//

seawinds_6:
	BYTE	KEYSH   seawinds_key+0
// 000   ----------------------------------------
	BYTE		VOICE   40
	BYTE		VOL     31*seawinds_mvl/mxv
	BYTE	W48
seawinds_6_B1:
	BYTE	W24
// 001   ----------------------------------------
	BYTE	W72
// 002   ----------------------------------------
	BYTE	W72
// 003   ----------------------------------------
	BYTE	W72
// 004   ----------------------------------------
	BYTE	W72
// 005   ----------------------------------------
	BYTE	W72
// 006   ----------------------------------------
	BYTE	W72
// 007   ----------------------------------------
	BYTE	W72
// 008   ----------------------------------------
	BYTE	W72
// 009   ----------------------------------------
	BYTE	W72
// 010   ----------------------------------------
	BYTE	W72
// 011   ----------------------------------------
	BYTE	W72
// 012   ----------------------------------------
	BYTE	W72
// 013   ----------------------------------------
	BYTE	W72
// 014   ----------------------------------------
	BYTE	W72
// 015   ----------------------------------------
	BYTE	W72
// 016   ----------------------------------------
	BYTE	W72
// 017   ----------------------------------------
	BYTE	W72
// 018   ----------------------------------------
	BYTE	W72
// 019   ----------------------------------------
	BYTE	W72
// 020   ----------------------------------------
	BYTE		TIE     Dn3   v127
	BYTE	W72
// 021   ----------------------------------------
	BYTE	W72
	BYTE		EOT   
// 022   ----------------------------------------
	BYTE		TIE     Bn2 
	BYTE	W72
// 023   ----------------------------------------
	BYTE	W72
	BYTE		EOT   
// 024   ----------------------------------------
	BYTE		N72     An2 
	BYTE	W72
// 025   ----------------------------------------
	BYTE		        Dn3 
	BYTE	W72
// 026   ----------------------------------------
	BYTE		        Bn2 
	BYTE	W72
// 027   ----------------------------------------
	BYTE		        Cs3 
	BYTE	W72
// 028   ----------------------------------------
	BYTE		TIE     Dn3 
	BYTE	W72
// 029   ----------------------------------------
	BYTE	W72
	BYTE		EOT   
// 030   ----------------------------------------
	BYTE		TIE     Bn2 
	BYTE	W72
// 031   ----------------------------------------
	BYTE	W72
	BYTE		EOT   
// 032   ----------------------------------------
	BYTE		N72     An2 
	BYTE	W72
// 033   ----------------------------------------
	BYTE		        Dn3 
	BYTE	W72
// 034   ----------------------------------------
	BYTE		        Cs3 
	BYTE	W72
// 035   ----------------------------------------
	BYTE		TIE     Dn3 
	BYTE	W72
// 036   ----------------------------------------
	BYTE	W72
	BYTE		EOT   
// 037   ----------------------------------------
	BYTE		N72     Bn2 
	BYTE	W72
// 038   ----------------------------------------
	BYTE		        Fs3 
	BYTE	W72
// 039   ----------------------------------------
	BYTE		        Dn3 
	BYTE	W72
// 040   ----------------------------------------
	BYTE		        Cs3 
	BYTE	W72
// 041   ----------------------------------------
	BYTE		TIE     An2 
	BYTE	W72
// 042   ----------------------------------------
	BYTE	W72
	BYTE		EOT   
// 043   ----------------------------------------
	BYTE		TIE     Fs2 
	BYTE	W72
// 044   ----------------------------------------
	BYTE	W72
	BYTE		EOT   
// 045   ----------------------------------------
	BYTE		N72     Dn3 
	BYTE	W72
// 046   ----------------------------------------
	BYTE		        Bn2 
	BYTE	W72
// 047   ----------------------------------------
	BYTE		        En3 
	BYTE	W72
// 048   ----------------------------------------
	BYTE		TIE     Cs3 
	BYTE	W72
// 049   ----------------------------------------
	BYTE	W72
	BYTE		EOT   
// 050   ----------------------------------------
	BYTE		N72     En3 
	BYTE	W72
// 051   ----------------------------------------
	BYTE		TIE     Ds3 
	BYTE	W72
// 052   ----------------------------------------
	BYTE	W72
	BYTE		EOT   
// 053   ----------------------------------------
	BYTE		N72     Bn2 
	BYTE	W72
// 054   ----------------------------------------
	BYTE		        Fs3 
	BYTE	W72
// 055   ----------------------------------------
	BYTE		        Dn3 
	BYTE	W72
// 056   ----------------------------------------
	BYTE		        Cs3 
	BYTE	W72
// 057   ----------------------------------------
	BYTE		TIE     An2 
	BYTE	W72
// 058   ----------------------------------------
	BYTE	W72
	BYTE		EOT   
// 059   ----------------------------------------
	BYTE		TIE     Fs2 
	BYTE	W72
// 060   ----------------------------------------
	BYTE	W72
	BYTE		EOT   
// 061   ----------------------------------------
	BYTE		N72     Dn3 
	BYTE	W72
// 062   ----------------------------------------
	BYTE		        Bn2 
	BYTE	W72
// 063   ----------------------------------------
	BYTE		        En3 
	BYTE	W72
// 064   ----------------------------------------
	BYTE		TIE     Cs3 
	BYTE	W72
// 065   ----------------------------------------
	BYTE	W72
	BYTE		EOT   
// 066   ----------------------------------------
	BYTE		N72     En3 
	BYTE	W72
// 067   ----------------------------------------
	BYTE		TIE     Ds3 
	BYTE	W72
// 068   ----------------------------------------
	BYTE	W72
	BYTE		EOT   
// 069   ----------------------------------------
	BYTE	W72
// 070   ----------------------------------------
	BYTE	W48
	BYTE	GoTo
	 POIN2	seawinds_6_B1
seawinds_6_B2:
	BYTE	FINE

//******************************************************//
	ALIGN 4

seawinds:
	BYTE	6	// NumTrks
	BYTE	0	// NumBlks
	BYTE	seawinds_pri	// Priority
	BYTE	seawinds_rev	// Reverb.

	POIN2	seawinds_grp

	POIN2	seawinds_1
	POIN2	seawinds_2
	POIN2	seawinds_3
	POIN2	seawinds_4
	POIN2	seawinds_5
	POIN2	seawinds_6

	
